G75*
%MOIN*%
%OFA0B0*%
%FSLAX25Y25*%
%IPPOS*%
%LPD*%
%AMOC8*
5,1,8,0,0,1.08239X$1,22.5*
%
%ADD10R,0.00157X0.15906*%
%ADD11R,0.00157X0.02992*%
%ADD12R,0.00157X0.03937*%
%ADD13R,0.00157X0.07402*%
%ADD14R,0.00157X0.02520*%
%ADD15R,0.00157X0.03307*%
%ADD16R,0.00157X0.01102*%
%ADD17R,0.00157X0.02362*%
%ADD18R,0.00157X0.01890*%
%ADD19R,0.00157X0.02677*%
%ADD20R,0.00157X0.00787*%
%ADD21R,0.00157X0.01732*%
%ADD22R,0.00157X0.02205*%
%ADD23R,0.00157X0.00630*%
%ADD24R,0.00157X0.02047*%
%ADD25R,0.00157X0.00472*%
%ADD26R,0.00157X0.00315*%
%ADD27R,0.00157X0.00945*%
%ADD28R,0.00157X0.01575*%
%ADD29R,0.00157X0.01417*%
%ADD30R,0.00157X0.01260*%
%ADD31R,0.00157X0.03150*%
%ADD32R,0.00157X0.03622*%
%ADD33R,0.00157X0.00157*%
%ADD34R,0.00157X0.02835*%
%ADD35R,0.00157X0.03465*%
%ADD36R,0.00157X0.15276*%
%ADD37R,0.00157X0.11024*%
%ADD38R,0.00157X0.12913*%
%ADD39R,0.00157X0.13386*%
%ADD40R,0.00157X0.13701*%
%ADD41R,0.00157X0.14016*%
%ADD42R,0.00157X0.14173*%
%ADD43R,0.00157X0.14331*%
%ADD44R,0.00157X0.14488*%
%ADD45R,0.00157X0.07087*%
%ADD46R,0.00157X0.04882*%
%ADD47R,0.00157X0.05039*%
%ADD48R,0.00157X0.05197*%
%ADD49R,0.00157X0.13858*%
%ADD50R,0.00157X0.14646*%
%ADD51R,0.00157X0.14961*%
%ADD52R,0.00157X0.15118*%
%ADD53R,0.00157X0.15433*%
%ADD54R,0.00157X0.11969*%
%ADD55R,0.00157X0.04567*%
%ADD56R,0.00157X0.04409*%
%ADD57R,0.00157X0.04252*%
%ADD58R,0.00157X0.04094*%
%ADD59R,0.00157X0.03780*%
%ADD60R,0.00157X0.12756*%
%ADD61R,0.00157X0.12598*%
%ADD62R,0.00157X0.12441*%
%ADD63R,0.00157X0.12283*%
%ADD64R,0.00157X0.11181*%
%ADD65R,0.00157X0.10866*%
%ADD66R,0.00157X0.10709*%
%ADD67R,0.00157X0.12126*%
%ADD68R,0.00157X0.11496*%
%ADD69R,0.00157X0.11654*%
%ADD70R,0.00157X0.13071*%
%ADD71R,0.00157X0.13228*%
%ADD72R,0.00157X0.11811*%
%ADD73R,0.01378X0.00276*%
%ADD74R,0.01654X0.00276*%
%ADD75R,0.01929X0.00276*%
%ADD76R,0.06063X0.00276*%
%ADD77R,0.03307X0.00315*%
%ADD78R,0.01929X0.00315*%
%ADD79R,0.07165X0.00315*%
%ADD80R,0.00551X0.00315*%
%ADD81R,0.04134X0.00276*%
%ADD82R,0.07165X0.00276*%
%ADD83R,0.04685X0.00236*%
%ADD84R,0.01929X0.00236*%
%ADD85R,0.07165X0.00236*%
%ADD86R,0.05236X0.00315*%
%ADD87R,0.01654X0.00315*%
%ADD88R,0.05787X0.00276*%
%ADD89R,0.00827X0.00276*%
%ADD90R,0.06614X0.00276*%
%ADD91R,0.02480X0.00236*%
%ADD92R,0.01654X0.00236*%
%ADD93R,0.00551X0.00236*%
%ADD94R,0.02205X0.00315*%
%ADD95R,0.01378X0.00315*%
%ADD96R,0.00827X0.00315*%
%ADD97R,0.01102X0.00315*%
%ADD98R,0.02756X0.00315*%
%ADD99R,0.03583X0.00315*%
%ADD100R,0.02205X0.00276*%
%ADD101R,0.03031X0.00276*%
%ADD102R,0.03583X0.00276*%
%ADD103R,0.03858X0.00276*%
%ADD104R,0.04409X0.00276*%
%ADD105R,0.02480X0.00276*%
%ADD106R,0.00551X0.00276*%
%ADD107R,0.04685X0.00276*%
%ADD108R,0.06614X0.00315*%
%ADD109R,0.03031X0.00315*%
%ADD110R,0.06339X0.00276*%
%ADD111R,0.03307X0.00276*%
%ADD112R,0.02756X0.00276*%
%ADD113R,0.00276X0.00276*%
%ADD114R,0.06890X0.00276*%
%ADD115R,0.01102X0.00276*%
%ADD116R,0.06890X0.00236*%
%ADD117R,0.04134X0.00236*%
%ADD118R,0.02205X0.00236*%
%ADD119R,0.04409X0.00236*%
%ADD120R,0.02756X0.00236*%
%ADD121R,0.01102X0.00236*%
%ADD122R,0.00827X0.00236*%
%ADD123R,0.01378X0.00236*%
D10*
X0098250Y0091343D03*
X0098408Y0091343D03*
X0098565Y0091343D03*
X0098723Y0091343D03*
X0098880Y0091343D03*
X0099038Y0091343D03*
X0099195Y0091343D03*
X0103605Y0091343D03*
X0103762Y0091343D03*
X0103920Y0091343D03*
X0104077Y0091343D03*
X0104235Y0091343D03*
X0104392Y0091343D03*
X0104550Y0091343D03*
D11*
X0101715Y0089610D03*
X0101715Y0084886D03*
X0101872Y0084886D03*
X0101557Y0084886D03*
X0101400Y0084886D03*
X0101243Y0084886D03*
X0101085Y0084886D03*
X0103447Y0084886D03*
X0111872Y0087720D03*
X0112030Y0087720D03*
X0113290Y0084886D03*
X0099353Y0093705D03*
X0100298Y0097799D03*
X0100455Y0097799D03*
X0089825Y0097799D03*
X0089353Y0097484D03*
X0079983Y0096854D03*
X0079825Y0096854D03*
X0069668Y0093520D03*
X0062345Y0095409D03*
X0062187Y0095409D03*
X0059195Y0094150D03*
X0113290Y0097169D03*
D12*
X0103447Y0089138D03*
X0091085Y0097642D03*
X0090928Y0097642D03*
X0060140Y0094622D03*
D13*
X0103447Y0095594D03*
D14*
X0101400Y0098035D03*
X0101243Y0098035D03*
X0109668Y0097406D03*
X0112975Y0097406D03*
X0099510Y0093783D03*
X0079353Y0088587D03*
X0079353Y0084650D03*
X0093290Y0084650D03*
X0099353Y0084650D03*
X0103290Y0084650D03*
X0109668Y0084650D03*
X0112975Y0084650D03*
X0070140Y0093283D03*
D15*
X0069353Y0093677D03*
X0061872Y0095567D03*
X0059510Y0094307D03*
X0080928Y0085043D03*
X0083447Y0088665D03*
X0090928Y0085043D03*
X0101400Y0089453D03*
X0103290Y0089138D03*
X0113447Y0085043D03*
X0109353Y0097012D03*
X0099825Y0097642D03*
X0099668Y0097642D03*
X0090140Y0097799D03*
D16*
X0101715Y0095437D03*
X0101872Y0095437D03*
X0101715Y0093390D03*
X0103290Y0092917D03*
X0100455Y0091500D03*
X0110140Y0090870D03*
X0112502Y0091343D03*
X0112187Y0094965D03*
X0110455Y0094965D03*
X0093290Y0088035D03*
X0090455Y0086618D03*
X0089510Y0091657D03*
X0083290Y0091972D03*
X0082345Y0090555D03*
X0082817Y0088508D03*
X0082660Y0088350D03*
X0082345Y0088193D03*
X0081715Y0087878D03*
X0080455Y0086618D03*
X0079825Y0088508D03*
X0071872Y0088323D03*
X0071715Y0088323D03*
X0069510Y0088008D03*
X0062187Y0088008D03*
X0059038Y0088323D03*
X0059195Y0086748D03*
X0072345Y0093677D03*
X0100455Y0086776D03*
X0102030Y0086618D03*
X0111715Y0086618D03*
X0112345Y0087248D03*
D17*
X0109825Y0084571D03*
X0103132Y0084571D03*
X0102030Y0084571D03*
X0099510Y0084571D03*
X0092187Y0087406D03*
X0091243Y0084571D03*
X0089510Y0084571D03*
X0083290Y0084571D03*
X0081243Y0084571D03*
X0079510Y0084571D03*
X0082187Y0087406D03*
X0083290Y0088665D03*
X0089353Y0094177D03*
X0101557Y0098114D03*
X0101715Y0098114D03*
X0103132Y0095437D03*
X0103290Y0095437D03*
X0109825Y0097484D03*
X0112817Y0097484D03*
X0102975Y0089138D03*
X0073762Y0094465D03*
X0070298Y0093205D03*
X0063132Y0094937D03*
X0061085Y0090685D03*
D18*
X0059038Y0084465D03*
X0059195Y0084465D03*
X0059353Y0084465D03*
X0059510Y0084465D03*
X0059668Y0084465D03*
X0059825Y0084465D03*
X0059983Y0084465D03*
X0060140Y0084465D03*
X0060298Y0084465D03*
X0060455Y0084465D03*
X0060613Y0084465D03*
X0060770Y0084465D03*
X0060928Y0084465D03*
X0061085Y0084465D03*
X0061243Y0084465D03*
X0061400Y0084465D03*
X0061557Y0084465D03*
X0061715Y0084465D03*
X0061872Y0084465D03*
X0062030Y0084465D03*
X0062187Y0084465D03*
X0062345Y0084465D03*
X0069038Y0084622D03*
X0072345Y0084622D03*
X0079825Y0084335D03*
X0079983Y0084335D03*
X0080298Y0084335D03*
X0080455Y0084335D03*
X0081715Y0084335D03*
X0081872Y0084335D03*
X0082030Y0084335D03*
X0082187Y0084335D03*
X0082345Y0084335D03*
X0082502Y0084335D03*
X0082660Y0084335D03*
X0081872Y0087642D03*
X0079510Y0088587D03*
X0073290Y0094228D03*
X0070770Y0092969D03*
X0063447Y0094858D03*
X0089825Y0094256D03*
X0100770Y0089217D03*
X0102345Y0089217D03*
X0109353Y0091106D03*
X0113290Y0091106D03*
X0102660Y0095516D03*
X0102660Y0098350D03*
X0102502Y0098350D03*
X0103290Y0098350D03*
X0110455Y0097720D03*
X0110613Y0097720D03*
X0112187Y0097720D03*
X0112345Y0097720D03*
X0091872Y0087642D03*
X0091872Y0084335D03*
X0092030Y0084335D03*
X0092187Y0084335D03*
X0092345Y0084335D03*
X0092502Y0084335D03*
X0092660Y0084335D03*
X0090455Y0084335D03*
X0090298Y0084335D03*
X0090140Y0084335D03*
X0089983Y0084335D03*
X0099983Y0084335D03*
X0100140Y0084335D03*
X0100298Y0084335D03*
X0100770Y0084335D03*
X0102502Y0084335D03*
X0110455Y0084335D03*
X0110613Y0084335D03*
X0110770Y0084335D03*
X0112030Y0084335D03*
X0112187Y0084335D03*
X0112345Y0084335D03*
D19*
X0113132Y0084728D03*
X0103132Y0089138D03*
X0093132Y0092445D03*
X0100928Y0097957D03*
X0101085Y0097957D03*
X0113132Y0097327D03*
X0089353Y0084728D03*
X0081085Y0084728D03*
X0080613Y0091028D03*
X0082030Y0091028D03*
X0069983Y0093362D03*
X0061243Y0090528D03*
D20*
X0061557Y0089425D03*
X0060613Y0088323D03*
X0059825Y0089425D03*
X0062030Y0088008D03*
X0061557Y0086591D03*
X0060770Y0086591D03*
X0059825Y0086591D03*
X0059668Y0086591D03*
X0069825Y0087850D03*
X0069983Y0087850D03*
X0071400Y0088480D03*
X0072187Y0093677D03*
X0080298Y0090555D03*
X0080140Y0088508D03*
X0079983Y0088508D03*
X0081557Y0088035D03*
X0082187Y0091972D03*
X0089668Y0088193D03*
X0091557Y0088193D03*
X0092502Y0088193D03*
X0093132Y0088193D03*
X0099510Y0090083D03*
X0101872Y0093390D03*
X0102030Y0093390D03*
X0103132Y0092917D03*
X0101557Y0095437D03*
X0101400Y0095437D03*
X0109353Y0093075D03*
X0110455Y0090713D03*
X0110613Y0090713D03*
X0112030Y0091500D03*
X0112345Y0088823D03*
X0113132Y0088823D03*
X0110298Y0087248D03*
X0102345Y0086776D03*
X0100298Y0086776D03*
X0091557Y0092602D03*
X0091400Y0092602D03*
D21*
X0092660Y0092602D03*
X0091557Y0090398D03*
X0091400Y0090398D03*
X0091243Y0090398D03*
X0089353Y0091500D03*
X0089983Y0094177D03*
X0083132Y0088665D03*
X0080140Y0084256D03*
X0073920Y0084543D03*
X0073132Y0084543D03*
X0072187Y0084543D03*
X0072030Y0084543D03*
X0071872Y0084543D03*
X0071715Y0084543D03*
X0071557Y0084543D03*
X0071400Y0084543D03*
X0071243Y0084543D03*
X0071085Y0084543D03*
X0070928Y0084543D03*
X0070770Y0084543D03*
X0070613Y0084543D03*
X0070455Y0084543D03*
X0070298Y0084543D03*
X0070140Y0084543D03*
X0069983Y0084543D03*
X0069825Y0084543D03*
X0069668Y0084543D03*
X0069510Y0084543D03*
X0069353Y0084543D03*
X0069195Y0084543D03*
X0063920Y0084386D03*
X0063132Y0084386D03*
X0062345Y0088008D03*
X0060928Y0091000D03*
X0063605Y0094780D03*
X0070928Y0092890D03*
X0071085Y0092890D03*
X0071243Y0092890D03*
X0071400Y0092890D03*
X0071557Y0092890D03*
X0071715Y0092890D03*
X0069038Y0090370D03*
X0099983Y0093862D03*
X0100140Y0093862D03*
X0102502Y0095437D03*
X0102817Y0098429D03*
X0102975Y0098429D03*
X0103132Y0098429D03*
X0110770Y0097799D03*
X0110928Y0097799D03*
X0111085Y0097799D03*
X0111243Y0097799D03*
X0111400Y0097799D03*
X0111557Y0097799D03*
X0111715Y0097799D03*
X0111872Y0097799D03*
X0112030Y0097799D03*
X0109510Y0091028D03*
X0100613Y0089138D03*
X0100455Y0089138D03*
X0100455Y0084256D03*
X0100613Y0084256D03*
X0110928Y0084256D03*
X0111085Y0084256D03*
X0111243Y0084256D03*
X0111400Y0084256D03*
X0111557Y0084256D03*
X0111715Y0084256D03*
X0111872Y0084256D03*
D22*
X0112660Y0084492D03*
X0112817Y0084492D03*
X0109983Y0084492D03*
X0102975Y0084492D03*
X0099668Y0084492D03*
X0093132Y0084492D03*
X0091400Y0084492D03*
X0092030Y0087484D03*
X0083132Y0084492D03*
X0081400Y0084492D03*
X0082030Y0087484D03*
X0089510Y0094256D03*
X0092975Y0092524D03*
X0099668Y0093783D03*
X0101872Y0098193D03*
X0102030Y0098193D03*
X0109983Y0097563D03*
X0112660Y0097563D03*
X0102817Y0089217D03*
X0102030Y0089374D03*
X0073605Y0094386D03*
X0070455Y0093126D03*
D23*
X0072030Y0093598D03*
X0062345Y0090449D03*
X0061872Y0088087D03*
X0060770Y0088244D03*
X0059983Y0088087D03*
X0070140Y0087772D03*
X0071085Y0088559D03*
X0071243Y0088559D03*
X0072345Y0086512D03*
X0080298Y0088429D03*
X0080455Y0088429D03*
X0082502Y0086697D03*
X0082345Y0092051D03*
X0083132Y0092051D03*
X0080455Y0092051D03*
X0089825Y0091894D03*
X0089983Y0091894D03*
X0090140Y0092051D03*
X0090770Y0092366D03*
X0091085Y0092524D03*
X0091243Y0092524D03*
X0091085Y0094256D03*
X0090298Y0090004D03*
X0089825Y0088272D03*
X0091400Y0088272D03*
X0092660Y0088272D03*
X0092817Y0088272D03*
X0092975Y0088272D03*
X0092502Y0086697D03*
X0099668Y0088272D03*
X0100298Y0088587D03*
X0100298Y0089689D03*
X0099668Y0090004D03*
X0102187Y0093311D03*
X0102345Y0093311D03*
X0102975Y0092996D03*
X0109510Y0093154D03*
X0110298Y0094728D03*
X0113290Y0093154D03*
X0111872Y0091579D03*
X0110770Y0090634D03*
X0111715Y0088902D03*
X0112502Y0088902D03*
X0112660Y0088902D03*
X0112817Y0088902D03*
X0112975Y0088902D03*
X0109668Y0088902D03*
D24*
X0102660Y0089138D03*
X0102502Y0089138D03*
X0102187Y0089295D03*
X0102187Y0084413D03*
X0102345Y0084413D03*
X0102660Y0084413D03*
X0102817Y0084413D03*
X0099825Y0084413D03*
X0092975Y0084413D03*
X0092817Y0084413D03*
X0091715Y0084413D03*
X0091557Y0084413D03*
X0090613Y0084413D03*
X0089825Y0084413D03*
X0089668Y0084413D03*
X0082975Y0084413D03*
X0082817Y0084413D03*
X0081557Y0084413D03*
X0080613Y0084413D03*
X0079668Y0084413D03*
X0073132Y0093992D03*
X0073447Y0094307D03*
X0070613Y0093047D03*
X0063290Y0094937D03*
X0059038Y0091000D03*
X0060140Y0088795D03*
X0060298Y0088638D03*
X0089668Y0094177D03*
X0092817Y0092602D03*
X0099825Y0093862D03*
X0102817Y0095437D03*
X0102975Y0095437D03*
X0102345Y0098272D03*
X0102187Y0098272D03*
X0110140Y0097642D03*
X0110298Y0097642D03*
X0112502Y0097642D03*
X0112502Y0084413D03*
X0110298Y0084413D03*
X0110140Y0084413D03*
D25*
X0102502Y0086776D03*
X0100140Y0088508D03*
X0099983Y0088350D03*
X0099825Y0088350D03*
X0099825Y0089925D03*
X0099983Y0089925D03*
X0109825Y0088980D03*
X0109983Y0088980D03*
X0110140Y0088980D03*
X0110298Y0088980D03*
X0110455Y0088980D03*
X0110613Y0088980D03*
X0110770Y0088980D03*
X0110928Y0088980D03*
X0111085Y0088980D03*
X0111243Y0088980D03*
X0111400Y0088980D03*
X0111557Y0088980D03*
X0110928Y0090555D03*
X0111557Y0091657D03*
X0111715Y0091657D03*
X0111715Y0093075D03*
X0111872Y0093075D03*
X0112030Y0093075D03*
X0112187Y0093075D03*
X0112345Y0093075D03*
X0112502Y0093075D03*
X0112660Y0093075D03*
X0112817Y0093075D03*
X0112975Y0093075D03*
X0113132Y0093075D03*
X0111557Y0093075D03*
X0111400Y0093075D03*
X0111243Y0093075D03*
X0111085Y0093075D03*
X0110928Y0093075D03*
X0110770Y0093075D03*
X0110613Y0093075D03*
X0110455Y0093075D03*
X0110298Y0093075D03*
X0110140Y0093075D03*
X0109983Y0093075D03*
X0109825Y0093075D03*
X0109668Y0093075D03*
X0102817Y0093075D03*
X0102660Y0093232D03*
X0102502Y0093232D03*
X0101243Y0095437D03*
X0101085Y0095437D03*
X0091243Y0094177D03*
X0090928Y0092445D03*
X0090613Y0092287D03*
X0090455Y0092287D03*
X0090298Y0092130D03*
X0090298Y0088350D03*
X0090455Y0088350D03*
X0090140Y0088350D03*
X0089983Y0088350D03*
X0090770Y0088350D03*
X0090928Y0088350D03*
X0091085Y0088350D03*
X0091243Y0088350D03*
X0082975Y0092130D03*
X0082502Y0092130D03*
X0080298Y0092130D03*
X0080140Y0092130D03*
X0079668Y0092130D03*
X0080613Y0088350D03*
X0080770Y0088350D03*
X0080928Y0088350D03*
X0081243Y0088193D03*
X0081400Y0088193D03*
X0072345Y0089740D03*
X0070928Y0088638D03*
X0070298Y0087693D03*
X0070298Y0086433D03*
X0070455Y0086433D03*
X0070613Y0086433D03*
X0070770Y0086433D03*
X0070928Y0086433D03*
X0071085Y0086433D03*
X0071243Y0086433D03*
X0071400Y0086433D03*
X0071557Y0086433D03*
X0071715Y0086433D03*
X0071872Y0086433D03*
X0072030Y0086433D03*
X0072187Y0086433D03*
X0070140Y0086433D03*
X0069983Y0086433D03*
X0069825Y0086433D03*
X0069668Y0086433D03*
X0069510Y0086433D03*
X0069353Y0086433D03*
X0069195Y0086433D03*
X0069038Y0086433D03*
X0060928Y0088165D03*
X0059195Y0088323D03*
X0071872Y0093520D03*
D26*
X0062187Y0090449D03*
X0061872Y0090606D03*
X0061715Y0088087D03*
X0061557Y0088087D03*
X0061400Y0088087D03*
X0061243Y0088087D03*
X0061085Y0088087D03*
X0059825Y0088087D03*
X0059668Y0088087D03*
X0059510Y0088087D03*
X0059353Y0088244D03*
X0070455Y0087614D03*
X0070613Y0087614D03*
X0070770Y0088717D03*
X0071872Y0089819D03*
X0072030Y0089819D03*
X0072187Y0089819D03*
X0081085Y0088272D03*
X0079983Y0092209D03*
X0079825Y0092209D03*
X0082660Y0092209D03*
X0082817Y0092209D03*
X0090613Y0088429D03*
X0091400Y0094256D03*
X0091557Y0094256D03*
X0100140Y0089846D03*
X0102502Y0091579D03*
X0111085Y0090476D03*
X0111243Y0090476D03*
X0111400Y0091736D03*
D27*
X0112187Y0091421D03*
X0112345Y0091421D03*
X0110298Y0090791D03*
X0109510Y0088902D03*
X0111085Y0086539D03*
X0111243Y0086539D03*
X0111400Y0086539D03*
X0111557Y0086539D03*
X0102187Y0086697D03*
X0099510Y0088272D03*
X0100298Y0091579D03*
X0102030Y0091421D03*
X0102187Y0091579D03*
X0102345Y0091579D03*
X0092345Y0090004D03*
X0092345Y0088114D03*
X0092345Y0086697D03*
X0090298Y0086697D03*
X0089510Y0088114D03*
X0089668Y0091736D03*
X0091715Y0092681D03*
X0091872Y0092681D03*
X0082502Y0088272D03*
X0082345Y0086697D03*
X0080298Y0086697D03*
X0079510Y0092051D03*
X0071557Y0088402D03*
X0069668Y0087929D03*
X0061400Y0086669D03*
X0061243Y0086669D03*
X0061085Y0086669D03*
X0060928Y0086669D03*
X0059510Y0086669D03*
X0059353Y0086669D03*
X0059983Y0089346D03*
X0112345Y0094886D03*
D28*
X0111715Y0095201D03*
X0111557Y0095201D03*
X0111400Y0095201D03*
X0111243Y0095201D03*
X0111085Y0095201D03*
X0113132Y0091106D03*
X0110928Y0087012D03*
X0110770Y0087012D03*
X0092502Y0092681D03*
X0092345Y0092681D03*
X0091872Y0090319D03*
X0091715Y0090319D03*
X0091085Y0090319D03*
X0090928Y0090319D03*
X0090770Y0090319D03*
X0090140Y0094256D03*
X0082187Y0090634D03*
X0079668Y0088587D03*
X0072345Y0088087D03*
X0071557Y0090449D03*
X0071400Y0090449D03*
X0071243Y0090449D03*
X0071085Y0090449D03*
X0070928Y0090449D03*
X0070770Y0090449D03*
X0070613Y0090449D03*
X0070455Y0090449D03*
X0070298Y0090449D03*
X0070140Y0090449D03*
X0069983Y0090449D03*
X0069825Y0090449D03*
X0069668Y0090449D03*
X0069510Y0090449D03*
X0069353Y0090449D03*
X0069195Y0090449D03*
X0069038Y0088087D03*
X0061557Y0091079D03*
X0059195Y0091079D03*
X0063762Y0094701D03*
X0063920Y0094543D03*
X0063762Y0084307D03*
X0063605Y0084307D03*
X0063447Y0084307D03*
X0063290Y0084307D03*
X0073290Y0084465D03*
X0073447Y0084465D03*
X0073605Y0084465D03*
X0073762Y0084465D03*
X0102345Y0095516D03*
D29*
X0102187Y0095437D03*
X0101400Y0093390D03*
X0100455Y0093862D03*
X0100298Y0093862D03*
X0109668Y0091028D03*
X0112817Y0091185D03*
X0112975Y0091185D03*
X0111872Y0095122D03*
X0110928Y0095122D03*
X0110770Y0095122D03*
X0092030Y0090240D03*
X0090613Y0090240D03*
X0089353Y0088035D03*
X0080455Y0090555D03*
X0072187Y0088165D03*
X0071715Y0090370D03*
X0061715Y0091157D03*
X0060770Y0091157D03*
X0059353Y0091157D03*
X0110613Y0087091D03*
D30*
X0110455Y0087169D03*
X0109353Y0088744D03*
X0109825Y0090949D03*
X0109983Y0090949D03*
X0112660Y0091264D03*
X0113290Y0088744D03*
X0101557Y0093311D03*
X0101243Y0093469D03*
X0101085Y0093626D03*
X0100928Y0093626D03*
X0100770Y0093783D03*
X0100613Y0093783D03*
X0100613Y0091579D03*
X0100770Y0091421D03*
X0099353Y0090161D03*
X0099353Y0088114D03*
X0100613Y0086697D03*
X0100770Y0086697D03*
X0091715Y0087957D03*
X0090613Y0086539D03*
X0090455Y0090161D03*
X0092187Y0090161D03*
X0092187Y0092681D03*
X0092030Y0092681D03*
X0082975Y0088587D03*
X0080613Y0086539D03*
X0079353Y0091894D03*
X0072030Y0088244D03*
X0069353Y0088087D03*
X0069195Y0088087D03*
X0060455Y0088402D03*
X0059038Y0086669D03*
X0059510Y0091236D03*
X0059668Y0091236D03*
X0059825Y0091236D03*
X0059983Y0091236D03*
X0060140Y0091236D03*
X0060298Y0091236D03*
X0060455Y0091236D03*
X0060613Y0091236D03*
X0102030Y0095516D03*
X0110613Y0095043D03*
X0112030Y0095043D03*
D31*
X0100140Y0097720D03*
X0099983Y0097720D03*
X0093290Y0092366D03*
X0089983Y0097720D03*
X0101085Y0089689D03*
X0101243Y0089531D03*
X0101557Y0089531D03*
X0101872Y0089689D03*
X0109353Y0084965D03*
X0069510Y0093598D03*
X0062030Y0095488D03*
X0059353Y0094228D03*
D32*
X0059825Y0094465D03*
X0080770Y0085201D03*
X0100928Y0085201D03*
X0100928Y0090083D03*
X0099353Y0097484D03*
D33*
X0100770Y0095437D03*
X0100928Y0095437D03*
X0111243Y0091815D03*
X0111400Y0090398D03*
X0070770Y0087535D03*
X0070613Y0088795D03*
X0062030Y0090528D03*
D34*
X0061400Y0090449D03*
X0059038Y0094071D03*
X0069825Y0093441D03*
X0073920Y0094386D03*
X0079353Y0096618D03*
X0079510Y0096776D03*
X0079668Y0096776D03*
X0089510Y0097720D03*
X0089668Y0097720D03*
X0100613Y0097878D03*
X0100770Y0097878D03*
X0109510Y0097248D03*
X0112187Y0087799D03*
X0109510Y0084807D03*
X0093447Y0084807D03*
X0091085Y0084807D03*
X0083447Y0084807D03*
X0081872Y0090949D03*
X0081715Y0090949D03*
X0081557Y0090949D03*
X0081400Y0090949D03*
X0081243Y0090949D03*
X0081085Y0090949D03*
X0080928Y0090949D03*
X0080770Y0090949D03*
D35*
X0069195Y0093756D03*
X0059668Y0094386D03*
X0090298Y0097720D03*
X0090455Y0097720D03*
X0099510Y0097563D03*
D36*
X0093762Y0091028D03*
X0089038Y0091028D03*
X0108250Y0091028D03*
X0108408Y0091028D03*
X0108565Y0091028D03*
X0108723Y0091028D03*
X0108880Y0091028D03*
X0109038Y0091028D03*
X0109195Y0091028D03*
X0113605Y0091028D03*
X0113762Y0091028D03*
X0113920Y0091028D03*
X0114077Y0091028D03*
X0114235Y0091028D03*
X0114392Y0091028D03*
X0114550Y0091028D03*
D37*
X0113447Y0093154D03*
X0072817Y0089189D03*
X0064550Y0089031D03*
X0058250Y0089031D03*
D38*
X0062817Y0089976D03*
X0078250Y0089846D03*
X0084550Y0089846D03*
D39*
X0084392Y0090083D03*
X0078408Y0090083D03*
D40*
X0078565Y0090240D03*
X0084235Y0090240D03*
D41*
X0084077Y0090398D03*
X0078723Y0090398D03*
D42*
X0078880Y0090476D03*
X0083920Y0090476D03*
D43*
X0083762Y0090555D03*
X0088408Y0090555D03*
X0079038Y0090555D03*
X0094392Y0090555D03*
D44*
X0083605Y0090634D03*
X0079195Y0090634D03*
D45*
X0083447Y0094492D03*
D46*
X0083290Y0095752D03*
X0083132Y0095752D03*
X0082975Y0095909D03*
X0082817Y0095909D03*
D47*
X0082660Y0095988D03*
X0082502Y0095988D03*
X0082345Y0095988D03*
X0080455Y0095988D03*
X0080298Y0095988D03*
X0080140Y0095988D03*
D48*
X0080613Y0096067D03*
X0080770Y0096067D03*
X0080928Y0096067D03*
X0081085Y0096067D03*
X0081243Y0096067D03*
X0081400Y0096067D03*
X0081557Y0096067D03*
X0081715Y0096067D03*
X0081872Y0096067D03*
X0082030Y0096067D03*
X0082187Y0096067D03*
D49*
X0088250Y0090319D03*
X0094550Y0090319D03*
D50*
X0094235Y0090713D03*
X0088565Y0090713D03*
D51*
X0088723Y0090870D03*
X0094077Y0090870D03*
D52*
X0093920Y0090949D03*
X0088880Y0090949D03*
D53*
X0089195Y0091106D03*
X0093605Y0091106D03*
D54*
X0093447Y0092996D03*
D55*
X0093290Y0096854D03*
X0092975Y0097012D03*
X0092660Y0097169D03*
X0092187Y0097327D03*
X0061557Y0094937D03*
X0061400Y0094937D03*
X0061243Y0094937D03*
X0061085Y0094937D03*
X0060928Y0094937D03*
D56*
X0060770Y0094858D03*
X0061715Y0095016D03*
X0091872Y0097406D03*
X0092030Y0097406D03*
X0092345Y0097248D03*
X0092502Y0097248D03*
X0092817Y0097091D03*
X0093132Y0096933D03*
D57*
X0091715Y0097484D03*
X0091557Y0097484D03*
X0060613Y0094780D03*
X0060455Y0094780D03*
D58*
X0060298Y0094701D03*
X0091243Y0097563D03*
X0091400Y0097563D03*
D59*
X0090770Y0097720D03*
X0090613Y0097720D03*
X0069038Y0093756D03*
X0059983Y0094543D03*
X0090770Y0085280D03*
D60*
X0074550Y0090055D03*
X0068250Y0090055D03*
X0062975Y0089898D03*
D61*
X0068408Y0089976D03*
X0074392Y0089976D03*
D62*
X0074235Y0089898D03*
X0068565Y0089898D03*
D63*
X0068723Y0089819D03*
X0074077Y0089819D03*
D64*
X0072975Y0089268D03*
X0064392Y0089110D03*
X0058408Y0089110D03*
D65*
X0072660Y0089110D03*
D66*
X0072502Y0089031D03*
D67*
X0068880Y0089740D03*
D68*
X0064235Y0089268D03*
X0058565Y0089268D03*
D69*
X0058723Y0089346D03*
X0064077Y0089346D03*
D70*
X0062660Y0090055D03*
D71*
X0062502Y0090134D03*
D72*
X0058880Y0089425D03*
D73*
X0076770Y0162173D03*
X0089172Y0163551D03*
X0088896Y0165205D03*
X0094132Y0169378D03*
X0096613Y0169378D03*
X0101849Y0166583D03*
X0103227Y0162173D03*
X0070156Y0169378D03*
D74*
X0062302Y0168512D03*
X0067813Y0165480D03*
X0065057Y0163276D03*
X0072498Y0166583D03*
X0075254Y0166583D03*
X0078286Y0166583D03*
X0081593Y0166583D03*
X0081593Y0166307D03*
X0081593Y0166031D03*
X0081593Y0165756D03*
X0081593Y0165480D03*
X0081593Y0165205D03*
X0081593Y0164654D03*
X0081593Y0164378D03*
X0081593Y0164102D03*
X0081593Y0163827D03*
X0081593Y0163551D03*
X0081593Y0163276D03*
X0081593Y0163000D03*
X0081593Y0162449D03*
X0081593Y0162173D03*
X0073876Y0162173D03*
X0073876Y0162449D03*
X0081593Y0167409D03*
X0098955Y0166583D03*
X0100333Y0162449D03*
X0100333Y0162173D03*
X0106672Y0162173D03*
X0104743Y0166583D03*
X0109703Y0169102D03*
X0112459Y0165756D03*
X0112459Y0165480D03*
X0112459Y0165205D03*
D75*
X0112321Y0164654D03*
X0112321Y0164378D03*
X0112321Y0166031D03*
X0112321Y0166307D03*
X0107361Y0166583D03*
X0107085Y0166307D03*
X0107085Y0166031D03*
X0107085Y0165756D03*
X0107085Y0165480D03*
X0107085Y0165205D03*
X0107085Y0164654D03*
X0107361Y0164102D03*
X0104605Y0165756D03*
X0104605Y0166031D03*
X0104605Y0166307D03*
X0104329Y0165480D03*
X0104329Y0165205D03*
X0101849Y0166031D03*
X0101849Y0166307D03*
X0099369Y0165205D03*
X0099093Y0165480D03*
X0099093Y0165756D03*
X0099093Y0166031D03*
X0098817Y0166307D03*
X0096613Y0166307D03*
X0096613Y0166031D03*
X0096613Y0165756D03*
X0096613Y0165480D03*
X0096613Y0165205D03*
X0096613Y0164654D03*
X0096613Y0164378D03*
X0096613Y0164102D03*
X0096613Y0163827D03*
X0096613Y0163551D03*
X0096613Y0163276D03*
X0096613Y0163000D03*
X0096613Y0162449D03*
X0096613Y0162173D03*
X0094132Y0162173D03*
X0094132Y0162449D03*
X0094132Y0163000D03*
X0094132Y0163276D03*
X0094132Y0163551D03*
X0094132Y0163827D03*
X0094132Y0164102D03*
X0094132Y0164378D03*
X0094132Y0164654D03*
X0094132Y0165205D03*
X0094132Y0165480D03*
X0094132Y0165756D03*
X0094132Y0166031D03*
X0094132Y0166307D03*
X0094132Y0166583D03*
X0094132Y0168512D03*
X0094132Y0169102D03*
X0096613Y0169102D03*
X0096613Y0168512D03*
X0096613Y0166583D03*
X0091652Y0164654D03*
X0091652Y0164378D03*
X0091652Y0164102D03*
X0091652Y0163827D03*
X0103227Y0162449D03*
X0078148Y0165756D03*
X0078148Y0166031D03*
X0078148Y0166307D03*
X0077872Y0165480D03*
X0077872Y0165205D03*
X0075392Y0166031D03*
X0075392Y0166307D03*
X0072636Y0165756D03*
X0072636Y0165480D03*
X0072361Y0166307D03*
X0070156Y0166307D03*
X0070156Y0166031D03*
X0070156Y0165756D03*
X0070156Y0165480D03*
X0070156Y0165205D03*
X0070156Y0164654D03*
X0070156Y0164378D03*
X0070156Y0164102D03*
X0070156Y0163827D03*
X0070156Y0163551D03*
X0070156Y0163276D03*
X0070156Y0163000D03*
X0070156Y0162449D03*
X0070156Y0162173D03*
X0076770Y0162449D03*
X0070156Y0166583D03*
X0070156Y0168512D03*
X0070156Y0169102D03*
X0062164Y0167685D03*
X0062164Y0167409D03*
X0062164Y0164654D03*
X0062164Y0164378D03*
X0062164Y0164102D03*
X0062164Y0163827D03*
X0062164Y0163551D03*
D76*
X0075254Y0164102D03*
X0075254Y0164378D03*
X0081593Y0169102D03*
X0101711Y0164102D03*
X0109703Y0167409D03*
D77*
X0109703Y0168807D03*
D78*
X0107085Y0164949D03*
X0096613Y0164949D03*
X0094132Y0164949D03*
X0091652Y0164949D03*
X0094132Y0168807D03*
X0096613Y0168807D03*
X0070156Y0168807D03*
X0070156Y0164949D03*
X0062164Y0164949D03*
X0062164Y0167980D03*
D79*
X0081593Y0167980D03*
X0081593Y0168807D03*
D80*
X0089034Y0164949D03*
X0062302Y0168807D03*
D81*
X0061888Y0166583D03*
X0061888Y0166307D03*
X0061888Y0166031D03*
X0061888Y0165756D03*
X0061888Y0165480D03*
X0066573Y0162449D03*
X0089998Y0166031D03*
X0090274Y0165480D03*
X0090274Y0163276D03*
X0109841Y0168512D03*
D82*
X0109152Y0163000D03*
X0081593Y0168512D03*
D83*
X0109841Y0168256D03*
D84*
X0103227Y0162744D03*
X0100471Y0162744D03*
X0096613Y0162744D03*
X0094132Y0162744D03*
X0094132Y0168256D03*
X0096613Y0168256D03*
X0076770Y0162744D03*
X0070156Y0162744D03*
X0070156Y0168256D03*
X0062164Y0168256D03*
X0062164Y0167154D03*
D85*
X0081593Y0168256D03*
D86*
X0109841Y0167980D03*
D87*
X0112459Y0164949D03*
X0096750Y0167980D03*
X0094270Y0167980D03*
X0081593Y0166878D03*
X0081593Y0164949D03*
X0070018Y0167980D03*
D88*
X0075392Y0163827D03*
X0101849Y0163827D03*
X0109841Y0167685D03*
D89*
X0096613Y0167685D03*
X0094132Y0167685D03*
X0109841Y0161622D03*
X0070156Y0167685D03*
D90*
X0081593Y0167685D03*
X0108876Y0162449D03*
D91*
X0107636Y0167154D03*
X0111770Y0167154D03*
D92*
X0081593Y0167154D03*
X0081593Y0162744D03*
X0061199Y0161917D03*
D93*
X0066435Y0167154D03*
D94*
X0089861Y0166878D03*
X0107498Y0166878D03*
X0111908Y0166878D03*
D95*
X0104605Y0166878D03*
X0096613Y0166878D03*
X0094132Y0166878D03*
X0078148Y0166878D03*
X0070156Y0166878D03*
D96*
X0101849Y0166878D03*
D97*
X0098955Y0166878D03*
X0075254Y0166878D03*
X0072498Y0166878D03*
D98*
X0066435Y0166878D03*
D99*
X0061888Y0166878D03*
D100*
X0062302Y0165205D03*
X0067538Y0165205D03*
X0072498Y0166031D03*
X0075254Y0165756D03*
X0073876Y0163276D03*
X0073876Y0163000D03*
X0076632Y0163000D03*
X0100333Y0163000D03*
X0103365Y0163000D03*
X0101711Y0165756D03*
X0107223Y0164378D03*
X0107498Y0163827D03*
X0111908Y0163827D03*
X0112183Y0164102D03*
X0112183Y0166583D03*
D101*
X0107636Y0163551D03*
X0089998Y0162173D03*
X0089998Y0166583D03*
X0061613Y0163000D03*
D102*
X0066298Y0164102D03*
X0066298Y0164378D03*
X0066573Y0164654D03*
X0066298Y0166583D03*
X0066573Y0162173D03*
X0089998Y0162449D03*
D103*
X0089861Y0166307D03*
X0109703Y0162173D03*
X0066711Y0165756D03*
X0066435Y0166031D03*
X0066435Y0166307D03*
D104*
X0066435Y0163000D03*
X0090136Y0163000D03*
X0090136Y0165756D03*
D105*
X0091376Y0165205D03*
X0091376Y0163551D03*
X0100471Y0163276D03*
X0101849Y0165205D03*
X0101849Y0165480D03*
X0103227Y0163551D03*
X0103227Y0163276D03*
X0076770Y0163276D03*
X0076770Y0163551D03*
X0075392Y0165480D03*
X0065471Y0163551D03*
X0061337Y0162173D03*
D106*
X0060648Y0165205D03*
X0065333Y0165480D03*
X0089034Y0163827D03*
D107*
X0074290Y0165205D03*
D108*
X0075254Y0164949D03*
X0101711Y0164949D03*
D109*
X0066849Y0164949D03*
D110*
X0075392Y0164654D03*
X0101849Y0164654D03*
X0101849Y0164378D03*
D111*
X0065884Y0163827D03*
D112*
X0061750Y0163276D03*
X0061475Y0162449D03*
X0073876Y0163551D03*
X0100333Y0163551D03*
X0111632Y0163551D03*
D113*
X0067951Y0163551D03*
X0066573Y0161622D03*
D114*
X0109290Y0163276D03*
D115*
X0067813Y0163276D03*
D116*
X0109014Y0162744D03*
D117*
X0089998Y0162744D03*
D118*
X0089861Y0161917D03*
X0073876Y0162744D03*
D119*
X0066435Y0162744D03*
D120*
X0066435Y0161917D03*
X0061475Y0162744D03*
X0109703Y0161917D03*
D121*
X0106396Y0161917D03*
X0100333Y0161917D03*
X0081593Y0161917D03*
X0076632Y0161917D03*
X0073876Y0161917D03*
D122*
X0103227Y0161917D03*
D123*
X0096613Y0161917D03*
X0094132Y0161917D03*
X0070156Y0161917D03*
M02*
