G75*
%MOIN*%
%OFA0B0*%
%FSLAX25Y25*%
%IPPOS*%
%LPD*%
%AMOC8*
5,1,8,0,0,1.08239X$1,22.5*
%
%ADD10R,0.00157X0.15906*%
%ADD11R,0.00157X0.02992*%
%ADD12R,0.00157X0.03937*%
%ADD13R,0.00157X0.07402*%
%ADD14R,0.00157X0.02520*%
%ADD15R,0.00157X0.03307*%
%ADD16R,0.00157X0.01102*%
%ADD17R,0.00157X0.02362*%
%ADD18R,0.00157X0.01890*%
%ADD19R,0.00157X0.02677*%
%ADD20R,0.00157X0.00787*%
%ADD21R,0.00157X0.01732*%
%ADD22R,0.00157X0.02205*%
%ADD23R,0.00157X0.00630*%
%ADD24R,0.00157X0.02047*%
%ADD25R,0.00157X0.00472*%
%ADD26R,0.00157X0.00315*%
%ADD27R,0.00157X0.00945*%
%ADD28R,0.00157X0.01575*%
%ADD29R,0.00157X0.01417*%
%ADD30R,0.00157X0.01260*%
%ADD31R,0.00157X0.03150*%
%ADD32R,0.00157X0.03622*%
%ADD33R,0.00157X0.00157*%
%ADD34R,0.00157X0.02835*%
%ADD35R,0.00157X0.03465*%
%ADD36R,0.00157X0.15276*%
%ADD37R,0.00157X0.11024*%
%ADD38R,0.00157X0.12913*%
%ADD39R,0.00157X0.13386*%
%ADD40R,0.00157X0.13701*%
%ADD41R,0.00157X0.14016*%
%ADD42R,0.00157X0.14173*%
%ADD43R,0.00157X0.14331*%
%ADD44R,0.00157X0.14488*%
%ADD45R,0.00157X0.07087*%
%ADD46R,0.00157X0.04882*%
%ADD47R,0.00157X0.05039*%
%ADD48R,0.00157X0.05197*%
%ADD49R,0.00157X0.13858*%
%ADD50R,0.00157X0.14646*%
%ADD51R,0.00157X0.14961*%
%ADD52R,0.00157X0.15118*%
%ADD53R,0.00157X0.15433*%
%ADD54R,0.00157X0.11969*%
%ADD55R,0.00157X0.04567*%
%ADD56R,0.00157X0.04409*%
%ADD57R,0.00157X0.04252*%
%ADD58R,0.00157X0.04094*%
%ADD59R,0.00157X0.03780*%
%ADD60R,0.00157X0.12756*%
%ADD61R,0.00157X0.12598*%
%ADD62R,0.00157X0.12441*%
%ADD63R,0.00157X0.12283*%
%ADD64R,0.00157X0.11181*%
%ADD65R,0.00157X0.10866*%
%ADD66R,0.00157X0.10709*%
%ADD67R,0.00157X0.12126*%
%ADD68R,0.00157X0.11496*%
%ADD69R,0.00157X0.11654*%
%ADD70R,0.00157X0.13071*%
%ADD71R,0.00157X0.13228*%
%ADD72R,0.00157X0.11811*%
%ADD73R,0.10748X0.00118*%
%ADD74R,0.11457X0.00118*%
%ADD75R,0.11929X0.00079*%
%ADD76R,0.12402X0.00157*%
%ADD77R,0.12638X0.00118*%
%ADD78R,0.12874X0.00118*%
%ADD79R,0.13110X0.00079*%
%ADD80R,0.04961X0.00118*%
%ADD81R,0.03071X0.00118*%
%ADD82R,0.05079X0.00118*%
%ADD83R,0.02244X0.00157*%
%ADD84R,0.00945X0.00157*%
%ADD85R,0.01181X0.00157*%
%ADD86R,0.00472X0.00157*%
%ADD87R,0.02835X0.00157*%
%ADD88R,0.02244X0.00118*%
%ADD89R,0.00591X0.00118*%
%ADD90R,0.00945X0.00118*%
%ADD91R,0.00354X0.00118*%
%ADD92R,0.02598X0.00118*%
%ADD93R,0.02362X0.00118*%
%ADD94R,0.00472X0.00118*%
%ADD95R,0.00827X0.00118*%
%ADD96R,0.02480X0.00118*%
%ADD97R,0.02480X0.00157*%
%ADD98R,0.00236X0.00157*%
%ADD99R,0.00709X0.00157*%
%ADD100R,0.00354X0.00157*%
%ADD101R,0.00709X0.00118*%
%ADD102R,0.00236X0.00118*%
%ADD103R,0.02598X0.00157*%
%ADD104R,0.00591X0.00157*%
%ADD105R,0.00118X0.00157*%
%ADD106R,0.02717X0.00118*%
%ADD107R,0.02835X0.00118*%
%ADD108R,0.00827X0.00157*%
%ADD109R,0.01299X0.00118*%
%ADD110R,0.01654X0.00118*%
%ADD111R,0.01063X0.00118*%
%ADD112R,0.01063X0.00157*%
%ADD113R,0.01181X0.00118*%
%ADD114R,0.02126X0.00118*%
%ADD115R,0.02126X0.00157*%
%ADD116R,0.01417X0.00118*%
%ADD117R,0.13110X0.00118*%
%ADD118R,0.12402X0.00118*%
%ADD119R,0.11929X0.00118*%
%ADD120R,0.01378X0.00276*%
%ADD121R,0.01654X0.00276*%
%ADD122R,0.01929X0.00276*%
%ADD123R,0.06063X0.00276*%
%ADD124R,0.03307X0.00315*%
%ADD125R,0.01929X0.00315*%
%ADD126R,0.07165X0.00315*%
%ADD127R,0.00551X0.00315*%
%ADD128R,0.04134X0.00276*%
%ADD129R,0.07165X0.00276*%
%ADD130R,0.04685X0.00236*%
%ADD131R,0.01929X0.00236*%
%ADD132R,0.07165X0.00236*%
%ADD133R,0.05236X0.00315*%
%ADD134R,0.01654X0.00315*%
%ADD135R,0.05787X0.00276*%
%ADD136R,0.00827X0.00276*%
%ADD137R,0.06614X0.00276*%
%ADD138R,0.02480X0.00236*%
%ADD139R,0.01654X0.00236*%
%ADD140R,0.00551X0.00236*%
%ADD141R,0.02205X0.00315*%
%ADD142R,0.01378X0.00315*%
%ADD143R,0.00827X0.00315*%
%ADD144R,0.01102X0.00315*%
%ADD145R,0.02756X0.00315*%
%ADD146R,0.03583X0.00315*%
%ADD147R,0.02205X0.00276*%
%ADD148R,0.03031X0.00276*%
%ADD149R,0.03583X0.00276*%
%ADD150R,0.03858X0.00276*%
%ADD151R,0.04409X0.00276*%
%ADD152R,0.02480X0.00276*%
%ADD153R,0.00551X0.00276*%
%ADD154R,0.04685X0.00276*%
%ADD155R,0.06614X0.00315*%
%ADD156R,0.03031X0.00315*%
%ADD157R,0.06339X0.00276*%
%ADD158R,0.03307X0.00276*%
%ADD159R,0.02756X0.00276*%
%ADD160R,0.00276X0.00276*%
%ADD161R,0.06890X0.00276*%
%ADD162R,0.01102X0.00276*%
%ADD163R,0.06890X0.00236*%
%ADD164R,0.04134X0.00236*%
%ADD165R,0.02205X0.00236*%
%ADD166R,0.04409X0.00236*%
%ADD167R,0.02756X0.00236*%
%ADD168R,0.01102X0.00236*%
%ADD169R,0.00827X0.00236*%
%ADD170R,0.01378X0.00236*%
%ADD171C,0.00500*%
%ADD172C,0.00600*%
%ADD173C,0.00400*%
D10*
X0345184Y0356343D03*
X0345341Y0356343D03*
X0345499Y0356343D03*
X0345656Y0356343D03*
X0345814Y0356343D03*
X0345971Y0356343D03*
X0346129Y0356343D03*
X0350538Y0356343D03*
X0350696Y0356343D03*
X0350853Y0356343D03*
X0351010Y0356343D03*
X0351168Y0356343D03*
X0351325Y0356343D03*
X0351483Y0356343D03*
D11*
X0348648Y0354610D03*
X0348648Y0349886D03*
X0348491Y0349886D03*
X0348333Y0349886D03*
X0348176Y0349886D03*
X0348018Y0349886D03*
X0348806Y0349886D03*
X0350381Y0349886D03*
X0346286Y0358705D03*
X0347231Y0362799D03*
X0347388Y0362799D03*
X0336759Y0362799D03*
X0336286Y0362484D03*
X0326916Y0361854D03*
X0326759Y0361854D03*
X0316601Y0358520D03*
X0309278Y0360409D03*
X0309121Y0360409D03*
X0306129Y0359150D03*
X0358806Y0352720D03*
X0358963Y0352720D03*
X0360223Y0349886D03*
X0360223Y0362169D03*
D12*
X0350381Y0354138D03*
X0338018Y0362642D03*
X0337861Y0362642D03*
X0307073Y0359622D03*
D13*
X0350381Y0360594D03*
D14*
X0348333Y0363035D03*
X0348176Y0363035D03*
X0346444Y0358783D03*
X0346286Y0349650D03*
X0350223Y0349650D03*
X0356601Y0349650D03*
X0359908Y0349650D03*
X0359908Y0362406D03*
X0356601Y0362406D03*
X0340223Y0349650D03*
X0326286Y0349650D03*
X0326286Y0353587D03*
X0317073Y0358283D03*
D15*
X0316286Y0358677D03*
X0308806Y0360567D03*
X0306444Y0359307D03*
X0327861Y0350043D03*
X0330381Y0353665D03*
X0337861Y0350043D03*
X0337073Y0362799D03*
X0346601Y0362642D03*
X0346759Y0362642D03*
X0348333Y0354453D03*
X0350223Y0354138D03*
X0356286Y0362012D03*
X0360381Y0350043D03*
D16*
X0358648Y0351618D03*
X0359278Y0352248D03*
X0359436Y0356343D03*
X0357073Y0355870D03*
X0357388Y0359965D03*
X0359121Y0359965D03*
X0350223Y0357917D03*
X0348648Y0358390D03*
X0348648Y0360437D03*
X0348806Y0360437D03*
X0347388Y0356500D03*
X0347388Y0351776D03*
X0348963Y0351618D03*
X0340223Y0353035D03*
X0337388Y0351618D03*
X0336444Y0356657D03*
X0330223Y0356972D03*
X0329278Y0355555D03*
X0329751Y0353508D03*
X0329593Y0353350D03*
X0329278Y0353193D03*
X0328648Y0352878D03*
X0327388Y0351618D03*
X0326759Y0353508D03*
X0318806Y0353323D03*
X0318648Y0353323D03*
X0316444Y0353008D03*
X0319278Y0358677D03*
X0309121Y0353008D03*
X0305971Y0353323D03*
X0306129Y0351748D03*
D17*
X0308018Y0355685D03*
X0310066Y0359937D03*
X0317231Y0358205D03*
X0320696Y0359465D03*
X0326444Y0349571D03*
X0328176Y0349571D03*
X0330223Y0349571D03*
X0329121Y0352406D03*
X0330223Y0353665D03*
X0336444Y0349571D03*
X0338176Y0349571D03*
X0339121Y0352406D03*
X0336286Y0359177D03*
X0346444Y0349571D03*
X0348963Y0349571D03*
X0350066Y0349571D03*
X0349908Y0354138D03*
X0350066Y0360437D03*
X0350223Y0360437D03*
X0348648Y0363114D03*
X0348491Y0363114D03*
X0356759Y0362484D03*
X0359751Y0362484D03*
X0356759Y0349571D03*
D18*
X0357388Y0349335D03*
X0357546Y0349335D03*
X0357703Y0349335D03*
X0358963Y0349335D03*
X0359121Y0349335D03*
X0359278Y0349335D03*
X0360223Y0356106D03*
X0356286Y0356106D03*
X0357388Y0362720D03*
X0357546Y0362720D03*
X0359121Y0362720D03*
X0359278Y0362720D03*
X0350223Y0363350D03*
X0349593Y0363350D03*
X0349436Y0363350D03*
X0349593Y0360516D03*
X0349278Y0354217D03*
X0347703Y0354217D03*
X0347703Y0349335D03*
X0347231Y0349335D03*
X0347073Y0349335D03*
X0346916Y0349335D03*
X0349436Y0349335D03*
X0339593Y0349335D03*
X0339436Y0349335D03*
X0339278Y0349335D03*
X0339121Y0349335D03*
X0338963Y0349335D03*
X0338806Y0349335D03*
X0337388Y0349335D03*
X0337231Y0349335D03*
X0337073Y0349335D03*
X0336916Y0349335D03*
X0338806Y0352642D03*
X0336759Y0359256D03*
X0328806Y0352642D03*
X0326444Y0353587D03*
X0326759Y0349335D03*
X0326916Y0349335D03*
X0327231Y0349335D03*
X0327388Y0349335D03*
X0328648Y0349335D03*
X0328806Y0349335D03*
X0328963Y0349335D03*
X0329121Y0349335D03*
X0329278Y0349335D03*
X0329436Y0349335D03*
X0329593Y0349335D03*
X0320223Y0359228D03*
X0317703Y0357969D03*
X0310381Y0359858D03*
X0309278Y0349465D03*
X0309121Y0349465D03*
X0308963Y0349465D03*
X0308806Y0349465D03*
X0308648Y0349465D03*
X0308491Y0349465D03*
X0308333Y0349465D03*
X0308176Y0349465D03*
X0308018Y0349465D03*
X0307861Y0349465D03*
X0307703Y0349465D03*
X0307546Y0349465D03*
X0307388Y0349465D03*
X0307231Y0349465D03*
X0307073Y0349465D03*
X0306916Y0349465D03*
X0306759Y0349465D03*
X0306601Y0349465D03*
X0306444Y0349465D03*
X0306286Y0349465D03*
X0306129Y0349465D03*
X0305971Y0349465D03*
X0315971Y0349622D03*
X0319278Y0349622D03*
D19*
X0316916Y0358362D03*
X0308176Y0355528D03*
X0327546Y0356028D03*
X0328963Y0356028D03*
X0328018Y0349728D03*
X0336286Y0349728D03*
X0340066Y0357445D03*
X0347861Y0362957D03*
X0348018Y0362957D03*
X0350066Y0354138D03*
X0360066Y0349728D03*
X0360066Y0362327D03*
D20*
X0356286Y0358075D03*
X0357388Y0355713D03*
X0357546Y0355713D03*
X0358963Y0356500D03*
X0359278Y0353823D03*
X0360066Y0353823D03*
X0357231Y0352248D03*
X0349278Y0351776D03*
X0347231Y0351776D03*
X0346444Y0355083D03*
X0348806Y0358390D03*
X0348963Y0358390D03*
X0350066Y0357917D03*
X0348491Y0360437D03*
X0348333Y0360437D03*
X0338491Y0357602D03*
X0338333Y0357602D03*
X0338491Y0353193D03*
X0339436Y0353193D03*
X0340066Y0353193D03*
X0336601Y0353193D03*
X0329121Y0356972D03*
X0327231Y0355555D03*
X0327073Y0353508D03*
X0326916Y0353508D03*
X0328491Y0353035D03*
X0318333Y0353480D03*
X0316916Y0352850D03*
X0316759Y0352850D03*
X0319121Y0358677D03*
X0308491Y0354425D03*
X0307546Y0353323D03*
X0306759Y0354425D03*
X0308963Y0353008D03*
X0308491Y0351591D03*
X0307703Y0351591D03*
X0306759Y0351591D03*
X0306601Y0351591D03*
D21*
X0309278Y0353008D03*
X0307861Y0356000D03*
X0310538Y0359780D03*
X0315971Y0355370D03*
X0317861Y0357890D03*
X0318018Y0357890D03*
X0318176Y0357890D03*
X0318333Y0357890D03*
X0318491Y0357890D03*
X0318648Y0357890D03*
X0318648Y0349543D03*
X0318491Y0349543D03*
X0318333Y0349543D03*
X0318176Y0349543D03*
X0318018Y0349543D03*
X0317861Y0349543D03*
X0317703Y0349543D03*
X0317546Y0349543D03*
X0317388Y0349543D03*
X0317231Y0349543D03*
X0317073Y0349543D03*
X0316916Y0349543D03*
X0316759Y0349543D03*
X0316601Y0349543D03*
X0316444Y0349543D03*
X0316286Y0349543D03*
X0316129Y0349543D03*
X0318806Y0349543D03*
X0318963Y0349543D03*
X0319121Y0349543D03*
X0320066Y0349543D03*
X0320853Y0349543D03*
X0327073Y0349256D03*
X0330066Y0353665D03*
X0336286Y0356500D03*
X0338176Y0355398D03*
X0338333Y0355398D03*
X0338491Y0355398D03*
X0339593Y0357602D03*
X0336916Y0359177D03*
X0346916Y0358862D03*
X0347073Y0358862D03*
X0349436Y0360437D03*
X0349751Y0363429D03*
X0349908Y0363429D03*
X0350066Y0363429D03*
X0347546Y0354138D03*
X0347388Y0354138D03*
X0347388Y0349256D03*
X0347546Y0349256D03*
X0356444Y0356028D03*
X0357703Y0362799D03*
X0357861Y0362799D03*
X0358018Y0362799D03*
X0358176Y0362799D03*
X0358333Y0362799D03*
X0358491Y0362799D03*
X0358648Y0362799D03*
X0358806Y0362799D03*
X0358963Y0362799D03*
X0358806Y0349256D03*
X0358648Y0349256D03*
X0358491Y0349256D03*
X0358333Y0349256D03*
X0358176Y0349256D03*
X0358018Y0349256D03*
X0357861Y0349256D03*
X0310853Y0349386D03*
X0310066Y0349386D03*
D22*
X0317388Y0358126D03*
X0320538Y0359386D03*
X0328333Y0349492D03*
X0330066Y0349492D03*
X0328963Y0352484D03*
X0336444Y0359256D03*
X0339908Y0357524D03*
X0338963Y0352484D03*
X0338333Y0349492D03*
X0340066Y0349492D03*
X0346601Y0349492D03*
X0349908Y0349492D03*
X0349751Y0354217D03*
X0348963Y0354374D03*
X0346601Y0358783D03*
X0348806Y0363193D03*
X0348963Y0363193D03*
X0356916Y0362563D03*
X0359593Y0362563D03*
X0359593Y0349492D03*
X0359751Y0349492D03*
X0356916Y0349492D03*
D23*
X0356601Y0353902D03*
X0358648Y0353902D03*
X0359436Y0353902D03*
X0359593Y0353902D03*
X0359751Y0353902D03*
X0359908Y0353902D03*
X0357703Y0355634D03*
X0358806Y0356579D03*
X0360223Y0358154D03*
X0357231Y0359728D03*
X0356444Y0358154D03*
X0349908Y0357996D03*
X0349278Y0358311D03*
X0349121Y0358311D03*
X0347231Y0354689D03*
X0346601Y0355004D03*
X0347231Y0353587D03*
X0346601Y0353272D03*
X0339908Y0353272D03*
X0339751Y0353272D03*
X0339593Y0353272D03*
X0338333Y0353272D03*
X0336759Y0353272D03*
X0337231Y0355004D03*
X0336916Y0356894D03*
X0336759Y0356894D03*
X0337073Y0357051D03*
X0337703Y0357366D03*
X0338018Y0357524D03*
X0338176Y0357524D03*
X0338018Y0359256D03*
X0339436Y0351697D03*
X0329436Y0351697D03*
X0327388Y0353429D03*
X0327231Y0353429D03*
X0327388Y0357051D03*
X0329278Y0357051D03*
X0330066Y0357051D03*
X0318963Y0358598D03*
X0318176Y0353559D03*
X0318018Y0353559D03*
X0317073Y0352772D03*
X0319278Y0351512D03*
X0308806Y0353087D03*
X0307703Y0353244D03*
X0306916Y0353087D03*
X0309278Y0355449D03*
D24*
X0307231Y0353638D03*
X0307073Y0353795D03*
X0305971Y0356000D03*
X0310223Y0359937D03*
X0317546Y0358047D03*
X0320066Y0358992D03*
X0320381Y0359307D03*
X0326601Y0349413D03*
X0327546Y0349413D03*
X0328491Y0349413D03*
X0329751Y0349413D03*
X0329908Y0349413D03*
X0336601Y0349413D03*
X0336759Y0349413D03*
X0337546Y0349413D03*
X0338491Y0349413D03*
X0338648Y0349413D03*
X0339751Y0349413D03*
X0339908Y0349413D03*
X0346759Y0349413D03*
X0349121Y0349413D03*
X0349278Y0349413D03*
X0349593Y0349413D03*
X0349751Y0349413D03*
X0349593Y0354138D03*
X0349436Y0354138D03*
X0349121Y0354295D03*
X0346759Y0358862D03*
X0349751Y0360437D03*
X0349908Y0360437D03*
X0349278Y0363272D03*
X0349121Y0363272D03*
X0357073Y0362642D03*
X0357231Y0362642D03*
X0359436Y0362642D03*
X0359436Y0349413D03*
X0357231Y0349413D03*
X0357073Y0349413D03*
X0339751Y0357602D03*
X0336601Y0359177D03*
D25*
X0338176Y0359177D03*
X0337861Y0357445D03*
X0337546Y0357287D03*
X0337388Y0357287D03*
X0337231Y0357130D03*
X0337231Y0353350D03*
X0337388Y0353350D03*
X0337073Y0353350D03*
X0336916Y0353350D03*
X0337703Y0353350D03*
X0337861Y0353350D03*
X0338018Y0353350D03*
X0338176Y0353350D03*
X0346759Y0353350D03*
X0346916Y0353350D03*
X0347073Y0353508D03*
X0346916Y0354925D03*
X0346759Y0354925D03*
X0349436Y0351776D03*
X0349751Y0358075D03*
X0349593Y0358232D03*
X0349436Y0358232D03*
X0348176Y0360437D03*
X0348018Y0360437D03*
X0356601Y0358075D03*
X0356759Y0358075D03*
X0356916Y0358075D03*
X0357073Y0358075D03*
X0357231Y0358075D03*
X0357388Y0358075D03*
X0357546Y0358075D03*
X0357703Y0358075D03*
X0357861Y0358075D03*
X0358018Y0358075D03*
X0358176Y0358075D03*
X0358333Y0358075D03*
X0358491Y0358075D03*
X0358648Y0358075D03*
X0358806Y0358075D03*
X0358963Y0358075D03*
X0359121Y0358075D03*
X0359278Y0358075D03*
X0359436Y0358075D03*
X0359593Y0358075D03*
X0359751Y0358075D03*
X0359908Y0358075D03*
X0360066Y0358075D03*
X0358648Y0356657D03*
X0358491Y0356657D03*
X0357861Y0355555D03*
X0357861Y0353980D03*
X0358018Y0353980D03*
X0358176Y0353980D03*
X0358333Y0353980D03*
X0358491Y0353980D03*
X0357703Y0353980D03*
X0357546Y0353980D03*
X0357388Y0353980D03*
X0357231Y0353980D03*
X0357073Y0353980D03*
X0356916Y0353980D03*
X0356759Y0353980D03*
X0329908Y0357130D03*
X0329436Y0357130D03*
X0327231Y0357130D03*
X0327073Y0357130D03*
X0326601Y0357130D03*
X0327546Y0353350D03*
X0327703Y0353350D03*
X0327861Y0353350D03*
X0328176Y0353193D03*
X0328333Y0353193D03*
X0319278Y0354740D03*
X0317861Y0353638D03*
X0317231Y0352693D03*
X0317231Y0351433D03*
X0317388Y0351433D03*
X0317546Y0351433D03*
X0317703Y0351433D03*
X0317861Y0351433D03*
X0318018Y0351433D03*
X0318176Y0351433D03*
X0318333Y0351433D03*
X0318491Y0351433D03*
X0318648Y0351433D03*
X0318806Y0351433D03*
X0318963Y0351433D03*
X0319121Y0351433D03*
X0317073Y0351433D03*
X0316916Y0351433D03*
X0316759Y0351433D03*
X0316601Y0351433D03*
X0316444Y0351433D03*
X0316286Y0351433D03*
X0316129Y0351433D03*
X0315971Y0351433D03*
X0318806Y0358520D03*
X0307861Y0353165D03*
X0306129Y0353323D03*
D26*
X0306286Y0353244D03*
X0306444Y0353087D03*
X0306601Y0353087D03*
X0306759Y0353087D03*
X0308018Y0353087D03*
X0308176Y0353087D03*
X0308333Y0353087D03*
X0308491Y0353087D03*
X0308648Y0353087D03*
X0309121Y0355449D03*
X0308806Y0355606D03*
X0317388Y0352614D03*
X0317546Y0352614D03*
X0317703Y0353717D03*
X0318806Y0354819D03*
X0318963Y0354819D03*
X0319121Y0354819D03*
X0326759Y0357209D03*
X0326916Y0357209D03*
X0329593Y0357209D03*
X0329751Y0357209D03*
X0328018Y0353272D03*
X0337546Y0353429D03*
X0338333Y0359256D03*
X0338491Y0359256D03*
X0347073Y0354846D03*
X0349436Y0356579D03*
X0358018Y0355476D03*
X0358176Y0355476D03*
X0358333Y0356736D03*
D27*
X0359121Y0356421D03*
X0359278Y0356421D03*
X0357231Y0355791D03*
X0356444Y0353902D03*
X0358018Y0351539D03*
X0358176Y0351539D03*
X0358333Y0351539D03*
X0358491Y0351539D03*
X0359278Y0359886D03*
X0349278Y0356579D03*
X0349121Y0356579D03*
X0348963Y0356421D03*
X0347231Y0356579D03*
X0346444Y0353272D03*
X0349121Y0351697D03*
X0339278Y0351697D03*
X0339278Y0353114D03*
X0339278Y0355004D03*
X0338806Y0357681D03*
X0338648Y0357681D03*
X0336601Y0356736D03*
X0336444Y0353114D03*
X0337231Y0351697D03*
X0329436Y0353272D03*
X0329278Y0351697D03*
X0327231Y0351697D03*
X0326444Y0357051D03*
X0318491Y0353402D03*
X0316601Y0352929D03*
X0308333Y0351669D03*
X0308176Y0351669D03*
X0308018Y0351669D03*
X0307861Y0351669D03*
X0306444Y0351669D03*
X0306286Y0351669D03*
X0306916Y0354346D03*
D28*
X0306129Y0356079D03*
X0308491Y0356079D03*
X0310853Y0359543D03*
X0310696Y0359701D03*
X0316129Y0355449D03*
X0316286Y0355449D03*
X0316444Y0355449D03*
X0316601Y0355449D03*
X0316759Y0355449D03*
X0316916Y0355449D03*
X0317073Y0355449D03*
X0317231Y0355449D03*
X0317388Y0355449D03*
X0317546Y0355449D03*
X0317703Y0355449D03*
X0317861Y0355449D03*
X0318018Y0355449D03*
X0318176Y0355449D03*
X0318333Y0355449D03*
X0318491Y0355449D03*
X0319278Y0353087D03*
X0315971Y0353087D03*
X0320223Y0349465D03*
X0320381Y0349465D03*
X0320538Y0349465D03*
X0320696Y0349465D03*
X0326601Y0353587D03*
X0329121Y0355634D03*
X0337703Y0355319D03*
X0337861Y0355319D03*
X0338018Y0355319D03*
X0338648Y0355319D03*
X0338806Y0355319D03*
X0339278Y0357681D03*
X0339436Y0357681D03*
X0337073Y0359256D03*
X0349278Y0360516D03*
X0358018Y0360201D03*
X0358176Y0360201D03*
X0358333Y0360201D03*
X0358491Y0360201D03*
X0358648Y0360201D03*
X0360066Y0356106D03*
X0357861Y0352012D03*
X0357703Y0352012D03*
X0310696Y0349307D03*
X0310538Y0349307D03*
X0310381Y0349307D03*
X0310223Y0349307D03*
D29*
X0308648Y0356157D03*
X0307703Y0356157D03*
X0306286Y0356157D03*
X0318648Y0355370D03*
X0319121Y0353165D03*
X0327388Y0355555D03*
X0336286Y0353035D03*
X0337546Y0355240D03*
X0338963Y0355240D03*
X0347231Y0358862D03*
X0347388Y0358862D03*
X0348333Y0358390D03*
X0349121Y0360437D03*
X0356601Y0356028D03*
X0359751Y0356185D03*
X0359908Y0356185D03*
X0358806Y0360122D03*
X0357861Y0360122D03*
X0357703Y0360122D03*
X0357546Y0352091D03*
D30*
X0357388Y0352169D03*
X0356286Y0353744D03*
X0356759Y0355949D03*
X0356916Y0355949D03*
X0359593Y0356264D03*
X0360223Y0353744D03*
X0358963Y0360043D03*
X0357546Y0360043D03*
X0348963Y0360516D03*
X0348018Y0358626D03*
X0347861Y0358626D03*
X0347703Y0358783D03*
X0347546Y0358783D03*
X0348176Y0358469D03*
X0348491Y0358311D03*
X0347546Y0356579D03*
X0347703Y0356421D03*
X0346286Y0355161D03*
X0346286Y0353114D03*
X0347546Y0351697D03*
X0347703Y0351697D03*
X0338648Y0352957D03*
X0337546Y0351539D03*
X0337388Y0355161D03*
X0339121Y0355161D03*
X0339121Y0357681D03*
X0338963Y0357681D03*
X0329908Y0353587D03*
X0327546Y0351539D03*
X0326286Y0356894D03*
X0318963Y0353244D03*
X0316286Y0353087D03*
X0316129Y0353087D03*
X0307388Y0353402D03*
X0305971Y0351669D03*
X0306444Y0356236D03*
X0306601Y0356236D03*
X0306759Y0356236D03*
X0306916Y0356236D03*
X0307073Y0356236D03*
X0307231Y0356236D03*
X0307388Y0356236D03*
X0307546Y0356236D03*
D31*
X0306286Y0359228D03*
X0308963Y0360488D03*
X0316444Y0358598D03*
X0336916Y0362720D03*
X0340223Y0357366D03*
X0346916Y0362720D03*
X0347073Y0362720D03*
X0348018Y0354689D03*
X0348176Y0354531D03*
X0348491Y0354531D03*
X0348806Y0354689D03*
X0356286Y0349965D03*
D32*
X0347861Y0350201D03*
X0347861Y0355083D03*
X0346286Y0362484D03*
X0327703Y0350201D03*
X0306759Y0359465D03*
D33*
X0308963Y0355528D03*
X0317546Y0353795D03*
X0317703Y0352535D03*
X0347703Y0360437D03*
X0347861Y0360437D03*
X0358176Y0356815D03*
X0358333Y0355398D03*
D34*
X0359121Y0352799D03*
X0356444Y0349807D03*
X0356444Y0362248D03*
X0347703Y0362878D03*
X0347546Y0362878D03*
X0340381Y0349807D03*
X0338018Y0349807D03*
X0330381Y0349807D03*
X0328806Y0355949D03*
X0328648Y0355949D03*
X0328491Y0355949D03*
X0328333Y0355949D03*
X0328176Y0355949D03*
X0328018Y0355949D03*
X0327861Y0355949D03*
X0327703Y0355949D03*
X0326286Y0361618D03*
X0326444Y0361776D03*
X0326601Y0361776D03*
X0320853Y0359386D03*
X0316759Y0358441D03*
X0308333Y0355449D03*
X0305971Y0359071D03*
X0336444Y0362720D03*
X0336601Y0362720D03*
D35*
X0337231Y0362720D03*
X0337388Y0362720D03*
X0346444Y0362563D03*
X0316129Y0358756D03*
X0306601Y0359386D03*
D36*
X0335971Y0356028D03*
X0340696Y0356028D03*
X0355184Y0356028D03*
X0355341Y0356028D03*
X0355499Y0356028D03*
X0355656Y0356028D03*
X0355814Y0356028D03*
X0355971Y0356028D03*
X0356129Y0356028D03*
X0360538Y0356028D03*
X0360696Y0356028D03*
X0360853Y0356028D03*
X0361010Y0356028D03*
X0361168Y0356028D03*
X0361325Y0356028D03*
X0361483Y0356028D03*
D37*
X0360381Y0358154D03*
X0319751Y0354189D03*
X0311483Y0354031D03*
X0305184Y0354031D03*
D38*
X0309751Y0354976D03*
X0325184Y0354846D03*
X0331483Y0354846D03*
D39*
X0331325Y0355083D03*
X0325341Y0355083D03*
D40*
X0325499Y0355240D03*
X0331168Y0355240D03*
D41*
X0331010Y0355398D03*
X0325656Y0355398D03*
D42*
X0325814Y0355476D03*
X0330853Y0355476D03*
D43*
X0330696Y0355555D03*
X0335341Y0355555D03*
X0341325Y0355555D03*
X0325971Y0355555D03*
D44*
X0326129Y0355634D03*
X0330538Y0355634D03*
D45*
X0330381Y0359492D03*
D46*
X0330223Y0360752D03*
X0330066Y0360752D03*
X0329908Y0360909D03*
X0329751Y0360909D03*
D47*
X0329593Y0360988D03*
X0329436Y0360988D03*
X0329278Y0360988D03*
X0327388Y0360988D03*
X0327231Y0360988D03*
X0327073Y0360988D03*
D48*
X0327546Y0361067D03*
X0327703Y0361067D03*
X0327861Y0361067D03*
X0328018Y0361067D03*
X0328176Y0361067D03*
X0328333Y0361067D03*
X0328491Y0361067D03*
X0328648Y0361067D03*
X0328806Y0361067D03*
X0328963Y0361067D03*
X0329121Y0361067D03*
D49*
X0335184Y0355319D03*
X0341483Y0355319D03*
D50*
X0341168Y0355713D03*
X0335499Y0355713D03*
D51*
X0335656Y0355870D03*
X0341010Y0355870D03*
D52*
X0340853Y0355949D03*
X0335814Y0355949D03*
D53*
X0336129Y0356106D03*
X0340538Y0356106D03*
D54*
X0340381Y0357996D03*
D55*
X0340223Y0361854D03*
X0339908Y0362012D03*
X0339593Y0362169D03*
X0339121Y0362327D03*
X0308491Y0359937D03*
X0308333Y0359937D03*
X0308176Y0359937D03*
X0308018Y0359937D03*
X0307861Y0359937D03*
D56*
X0307703Y0359858D03*
X0308648Y0360016D03*
X0338806Y0362406D03*
X0338963Y0362406D03*
X0339278Y0362248D03*
X0339436Y0362248D03*
X0339751Y0362091D03*
X0340066Y0361933D03*
D57*
X0338648Y0362484D03*
X0338491Y0362484D03*
X0307546Y0359780D03*
X0307388Y0359780D03*
D58*
X0307231Y0359701D03*
X0338176Y0362563D03*
X0338333Y0362563D03*
D59*
X0337703Y0362720D03*
X0337546Y0362720D03*
X0337703Y0350280D03*
X0315971Y0358756D03*
X0306916Y0359543D03*
D60*
X0309908Y0354898D03*
X0315184Y0355055D03*
X0321483Y0355055D03*
D61*
X0321325Y0354976D03*
X0315341Y0354976D03*
D62*
X0315499Y0354898D03*
X0321168Y0354898D03*
D63*
X0321010Y0354819D03*
X0315656Y0354819D03*
D64*
X0319908Y0354268D03*
X0311325Y0354110D03*
X0305341Y0354110D03*
D65*
X0319593Y0354110D03*
D66*
X0319436Y0354031D03*
D67*
X0315814Y0354740D03*
D68*
X0311168Y0354268D03*
X0305499Y0354268D03*
D69*
X0305656Y0354346D03*
X0311010Y0354346D03*
D70*
X0309593Y0355055D03*
D71*
X0309436Y0355134D03*
D72*
X0305814Y0354425D03*
D73*
X0283951Y0357657D03*
X0283951Y0362343D03*
D74*
X0283951Y0362224D03*
X0283951Y0357776D03*
D75*
X0283951Y0362126D03*
D76*
X0283951Y0362008D03*
D77*
X0283951Y0361870D03*
X0283951Y0358091D03*
D78*
X0283951Y0358209D03*
X0283951Y0361752D03*
D79*
X0283951Y0361654D03*
D80*
X0288144Y0361555D03*
D81*
X0284010Y0361555D03*
D82*
X0279818Y0361555D03*
D83*
X0289621Y0361417D03*
X0289621Y0358583D03*
D84*
X0287318Y0360472D03*
X0286373Y0361417D03*
X0286018Y0359528D03*
X0280467Y0360472D03*
X0280467Y0358583D03*
D85*
X0282239Y0358583D03*
X0283184Y0361417D03*
X0284837Y0361417D03*
D86*
X0284837Y0360472D03*
X0285900Y0360000D03*
X0284010Y0359528D03*
X0283184Y0360472D03*
X0281885Y0361417D03*
D87*
X0278577Y0361417D03*
X0278223Y0359528D03*
D88*
X0278400Y0358445D03*
X0278164Y0358839D03*
X0278164Y0358917D03*
X0289503Y0358445D03*
X0289621Y0358720D03*
X0289621Y0361280D03*
D89*
X0286314Y0361280D03*
X0285959Y0359862D03*
X0284896Y0360728D03*
X0281944Y0360335D03*
X0281944Y0360217D03*
D90*
X0282121Y0359390D03*
X0282121Y0359272D03*
X0280467Y0358720D03*
X0280467Y0360335D03*
X0283184Y0361201D03*
X0283184Y0361280D03*
X0284837Y0361280D03*
X0284837Y0361201D03*
X0284010Y0358839D03*
X0284010Y0358720D03*
X0287318Y0360217D03*
X0287318Y0360335D03*
X0287318Y0360610D03*
D91*
X0286196Y0361083D03*
X0286077Y0360807D03*
X0285959Y0360335D03*
X0285959Y0360217D03*
X0284896Y0360335D03*
X0281825Y0361083D03*
X0281825Y0361201D03*
X0281825Y0361280D03*
D92*
X0278459Y0361280D03*
X0278341Y0361201D03*
X0278105Y0359862D03*
X0278223Y0359272D03*
X0286491Y0358839D03*
X0286491Y0358720D03*
X0289798Y0359390D03*
X0289798Y0359665D03*
X0289798Y0359783D03*
X0289798Y0359862D03*
X0289798Y0360138D03*
X0289798Y0360217D03*
X0289798Y0360335D03*
X0289798Y0360610D03*
D93*
X0289680Y0361083D03*
X0289680Y0361201D03*
X0289680Y0358917D03*
X0289680Y0358839D03*
X0286609Y0359193D03*
D94*
X0285900Y0360138D03*
X0286255Y0361201D03*
X0284837Y0360610D03*
X0284010Y0359390D03*
X0284010Y0359272D03*
X0283184Y0360335D03*
X0283184Y0360610D03*
X0281885Y0360610D03*
X0281885Y0360728D03*
X0281885Y0360807D03*
D95*
X0282062Y0359783D03*
X0282062Y0359665D03*
X0280526Y0360138D03*
X0280526Y0360217D03*
X0280526Y0360610D03*
X0280526Y0358917D03*
X0280526Y0358839D03*
X0283243Y0361083D03*
X0284896Y0361083D03*
X0285959Y0359665D03*
X0287377Y0360138D03*
D96*
X0286550Y0358917D03*
X0289739Y0359193D03*
X0289739Y0359272D03*
X0289739Y0360728D03*
X0289739Y0360807D03*
X0278282Y0361083D03*
X0278164Y0360807D03*
X0278164Y0360728D03*
X0278046Y0360610D03*
X0278046Y0360335D03*
X0278046Y0360217D03*
X0278046Y0360138D03*
X0278164Y0359193D03*
D97*
X0278164Y0359055D03*
X0278046Y0360472D03*
X0278164Y0360945D03*
X0286550Y0359055D03*
X0289739Y0359055D03*
X0289739Y0360945D03*
D98*
X0286136Y0360945D03*
X0283184Y0360000D03*
D99*
X0283184Y0360945D03*
X0282003Y0360000D03*
X0280585Y0359055D03*
X0284010Y0359055D03*
X0284837Y0360945D03*
D100*
X0285959Y0360472D03*
X0281825Y0360945D03*
D101*
X0282003Y0360138D03*
X0282003Y0359862D03*
X0283184Y0360728D03*
X0283184Y0360807D03*
X0284837Y0360807D03*
X0285900Y0359783D03*
X0287436Y0360728D03*
X0284010Y0359193D03*
X0284010Y0358917D03*
X0280585Y0359193D03*
X0280585Y0360728D03*
D102*
X0283184Y0360217D03*
X0283184Y0360138D03*
X0284010Y0359862D03*
X0284010Y0359783D03*
X0284010Y0359665D03*
X0284837Y0360138D03*
X0284837Y0360217D03*
X0286018Y0360610D03*
X0286018Y0360728D03*
D103*
X0286491Y0358583D03*
X0289798Y0359528D03*
X0289798Y0360000D03*
X0289798Y0360472D03*
X0278105Y0360000D03*
D104*
X0281944Y0360472D03*
D105*
X0284896Y0360000D03*
D106*
X0278164Y0359783D03*
X0278164Y0359390D03*
D107*
X0278223Y0359665D03*
X0286491Y0358445D03*
D108*
X0282062Y0359528D03*
D109*
X0284070Y0358445D03*
X0286077Y0359390D03*
D110*
X0286255Y0359272D03*
D111*
X0282180Y0359193D03*
X0282180Y0358917D03*
D112*
X0282180Y0359055D03*
X0284070Y0358583D03*
D113*
X0282239Y0358720D03*
X0282239Y0358839D03*
X0280467Y0358445D03*
D114*
X0278223Y0358720D03*
D115*
X0278223Y0358583D03*
D116*
X0282239Y0358445D03*
D117*
X0283951Y0358327D03*
D118*
X0283951Y0358012D03*
D119*
X0283951Y0357894D03*
D120*
X0323703Y0427173D03*
X0317089Y0434378D03*
X0335829Y0430205D03*
X0336105Y0428551D03*
X0341066Y0434378D03*
X0343546Y0434378D03*
X0348782Y0431583D03*
X0350160Y0427173D03*
D121*
X0347266Y0427173D03*
X0347266Y0427449D03*
X0345888Y0431583D03*
X0351676Y0431583D03*
X0353605Y0427173D03*
X0359392Y0430205D03*
X0359392Y0430480D03*
X0359392Y0430756D03*
X0356636Y0434102D03*
X0328526Y0432409D03*
X0328526Y0431583D03*
X0328526Y0431307D03*
X0328526Y0431031D03*
X0328526Y0430756D03*
X0328526Y0430480D03*
X0328526Y0430205D03*
X0328526Y0429654D03*
X0328526Y0429378D03*
X0328526Y0429102D03*
X0328526Y0428827D03*
X0328526Y0428551D03*
X0328526Y0428276D03*
X0328526Y0428000D03*
X0328526Y0427449D03*
X0328526Y0427173D03*
X0325219Y0431583D03*
X0322188Y0431583D03*
X0319432Y0431583D03*
X0320810Y0427449D03*
X0320810Y0427173D03*
X0314747Y0430480D03*
X0311991Y0428276D03*
X0309235Y0433512D03*
D122*
X0309097Y0432685D03*
X0309097Y0432409D03*
X0309097Y0429654D03*
X0309097Y0429378D03*
X0309097Y0429102D03*
X0309097Y0428827D03*
X0309097Y0428551D03*
X0317089Y0428551D03*
X0317089Y0428276D03*
X0317089Y0428000D03*
X0317089Y0427449D03*
X0317089Y0427173D03*
X0317089Y0428827D03*
X0317089Y0429102D03*
X0317089Y0429378D03*
X0317089Y0429654D03*
X0317089Y0430205D03*
X0317089Y0430480D03*
X0317089Y0430756D03*
X0317089Y0431031D03*
X0317089Y0431307D03*
X0317089Y0431583D03*
X0317089Y0433512D03*
X0317089Y0434102D03*
X0319294Y0431307D03*
X0319570Y0430756D03*
X0319570Y0430480D03*
X0322325Y0431031D03*
X0322325Y0431307D03*
X0324806Y0430480D03*
X0324806Y0430205D03*
X0325081Y0430756D03*
X0325081Y0431031D03*
X0325081Y0431307D03*
X0323703Y0427449D03*
X0338585Y0428827D03*
X0338585Y0429102D03*
X0338585Y0429378D03*
X0338585Y0429654D03*
X0341066Y0429654D03*
X0341066Y0429378D03*
X0341066Y0429102D03*
X0341066Y0428827D03*
X0341066Y0428551D03*
X0341066Y0428276D03*
X0341066Y0428000D03*
X0341066Y0427449D03*
X0341066Y0427173D03*
X0343546Y0427173D03*
X0343546Y0427449D03*
X0343546Y0428000D03*
X0343546Y0428276D03*
X0343546Y0428551D03*
X0343546Y0428827D03*
X0343546Y0429102D03*
X0343546Y0429378D03*
X0343546Y0429654D03*
X0343546Y0430205D03*
X0343546Y0430480D03*
X0343546Y0430756D03*
X0343546Y0431031D03*
X0343546Y0431307D03*
X0343546Y0431583D03*
X0343546Y0433512D03*
X0343546Y0434102D03*
X0341066Y0434102D03*
X0341066Y0433512D03*
X0341066Y0431583D03*
X0341066Y0431307D03*
X0341066Y0431031D03*
X0341066Y0430756D03*
X0341066Y0430480D03*
X0341066Y0430205D03*
X0345751Y0431307D03*
X0346026Y0431031D03*
X0346026Y0430756D03*
X0346026Y0430480D03*
X0346302Y0430205D03*
X0348782Y0431031D03*
X0348782Y0431307D03*
X0351262Y0430480D03*
X0351262Y0430205D03*
X0351538Y0430756D03*
X0351538Y0431031D03*
X0351538Y0431307D03*
X0354018Y0431307D03*
X0354018Y0431031D03*
X0354018Y0430756D03*
X0354018Y0430480D03*
X0354018Y0430205D03*
X0354018Y0429654D03*
X0354294Y0429102D03*
X0354294Y0431583D03*
X0359255Y0431307D03*
X0359255Y0431031D03*
X0359255Y0429654D03*
X0359255Y0429378D03*
X0350160Y0427449D03*
D123*
X0348644Y0429102D03*
X0356636Y0432409D03*
X0328526Y0434102D03*
X0322188Y0429378D03*
X0322188Y0429102D03*
D124*
X0356636Y0433807D03*
D125*
X0354018Y0429949D03*
X0343546Y0429949D03*
X0341066Y0429949D03*
X0338585Y0429949D03*
X0341066Y0433807D03*
X0343546Y0433807D03*
X0317089Y0433807D03*
X0317089Y0429949D03*
X0309097Y0429949D03*
X0309097Y0432980D03*
D126*
X0328526Y0432980D03*
X0328526Y0433807D03*
D127*
X0335967Y0429949D03*
X0309235Y0433807D03*
D128*
X0308822Y0431583D03*
X0308822Y0431307D03*
X0308822Y0431031D03*
X0308822Y0430756D03*
X0308822Y0430480D03*
X0313507Y0427449D03*
X0336932Y0431031D03*
X0337207Y0430480D03*
X0337207Y0428276D03*
X0356774Y0433512D03*
D129*
X0356085Y0428000D03*
X0328526Y0433512D03*
D130*
X0356774Y0433256D03*
D131*
X0350160Y0427744D03*
X0347404Y0427744D03*
X0343546Y0427744D03*
X0341066Y0427744D03*
X0341066Y0433256D03*
X0343546Y0433256D03*
X0323703Y0427744D03*
X0317089Y0427744D03*
X0317089Y0433256D03*
X0309097Y0433256D03*
X0309097Y0432154D03*
D132*
X0328526Y0433256D03*
D133*
X0356774Y0432980D03*
D134*
X0359392Y0429949D03*
X0343684Y0432980D03*
X0341203Y0432980D03*
X0328526Y0431878D03*
X0328526Y0429949D03*
X0316951Y0432980D03*
D135*
X0322325Y0428827D03*
X0348782Y0428827D03*
X0356774Y0432685D03*
D136*
X0356774Y0426622D03*
X0343546Y0432685D03*
X0341066Y0432685D03*
X0317089Y0432685D03*
D137*
X0328526Y0432685D03*
X0355810Y0427449D03*
D138*
X0354570Y0432154D03*
X0358703Y0432154D03*
D139*
X0328526Y0432154D03*
X0328526Y0427744D03*
X0308133Y0426917D03*
D140*
X0313369Y0432154D03*
D141*
X0336794Y0431878D03*
X0354432Y0431878D03*
X0358841Y0431878D03*
D142*
X0351538Y0431878D03*
X0343546Y0431878D03*
X0341066Y0431878D03*
X0325081Y0431878D03*
X0317089Y0431878D03*
D143*
X0348782Y0431878D03*
D144*
X0345888Y0431878D03*
X0322188Y0431878D03*
X0319432Y0431878D03*
D145*
X0313369Y0431878D03*
D146*
X0308822Y0431878D03*
D147*
X0309235Y0430205D03*
X0314471Y0430205D03*
X0319432Y0431031D03*
X0322188Y0430756D03*
X0320810Y0428276D03*
X0320810Y0428000D03*
X0323566Y0428000D03*
X0347266Y0428000D03*
X0350298Y0428000D03*
X0348644Y0430756D03*
X0354156Y0429378D03*
X0354432Y0428827D03*
X0358841Y0428827D03*
X0359117Y0429102D03*
X0359117Y0431583D03*
D148*
X0354570Y0428551D03*
X0336932Y0427173D03*
X0336932Y0431583D03*
X0308546Y0428000D03*
D149*
X0313231Y0429102D03*
X0313231Y0429378D03*
X0313507Y0429654D03*
X0313231Y0431583D03*
X0313507Y0427173D03*
X0336932Y0427449D03*
D150*
X0336794Y0431307D03*
X0356636Y0427173D03*
X0313644Y0430756D03*
X0313369Y0431031D03*
X0313369Y0431307D03*
D151*
X0313369Y0428000D03*
X0337070Y0428000D03*
X0337070Y0430756D03*
D152*
X0338310Y0430205D03*
X0338310Y0428551D03*
X0347404Y0428276D03*
X0348782Y0430205D03*
X0348782Y0430480D03*
X0350160Y0428551D03*
X0350160Y0428276D03*
X0323703Y0428276D03*
X0323703Y0428551D03*
X0322325Y0430480D03*
X0312404Y0428551D03*
X0308270Y0427173D03*
D153*
X0307581Y0430205D03*
X0312266Y0430480D03*
X0335967Y0428827D03*
D154*
X0321223Y0430205D03*
D155*
X0322188Y0429949D03*
X0348644Y0429949D03*
D156*
X0313782Y0429949D03*
D157*
X0322325Y0429654D03*
X0348782Y0429654D03*
X0348782Y0429378D03*
D158*
X0312818Y0428827D03*
D159*
X0308684Y0428276D03*
X0308408Y0427449D03*
X0320810Y0428551D03*
X0347266Y0428551D03*
X0358566Y0428551D03*
D160*
X0314885Y0428551D03*
X0313507Y0426622D03*
D161*
X0356223Y0428276D03*
D162*
X0314747Y0428276D03*
D163*
X0355948Y0427744D03*
D164*
X0336932Y0427744D03*
D165*
X0336794Y0426917D03*
X0320810Y0427744D03*
D166*
X0313369Y0427744D03*
D167*
X0313369Y0426917D03*
X0308408Y0427744D03*
X0356636Y0426917D03*
D168*
X0353329Y0426917D03*
X0347266Y0426917D03*
X0328526Y0426917D03*
X0323566Y0426917D03*
X0320810Y0426917D03*
D169*
X0350160Y0426917D03*
D170*
X0343546Y0426917D03*
X0341066Y0426917D03*
X0317089Y0426917D03*
D171*
X0316926Y0532230D02*
X0316926Y0533381D01*
X0316543Y0533765D01*
X0315008Y0533765D01*
X0314624Y0533381D01*
X0314624Y0532230D01*
X0316926Y0532230D01*
X0316159Y0534809D02*
X0316926Y0535576D01*
X0314624Y0535576D01*
X0314624Y0534809D02*
X0314624Y0536343D01*
X0315008Y0537387D02*
X0314624Y0537770D01*
X0314624Y0538538D01*
X0315008Y0538921D01*
X0315392Y0538921D01*
X0315775Y0538538D01*
X0315775Y0538154D01*
X0315775Y0538538D02*
X0316159Y0538921D01*
X0316543Y0538921D01*
X0316926Y0538538D01*
X0316926Y0537770D01*
X0316543Y0537387D01*
X0322498Y0537770D02*
X0322882Y0537387D01*
X0322498Y0537770D02*
X0322498Y0538538D01*
X0322882Y0538921D01*
X0323266Y0538921D01*
X0323649Y0538538D01*
X0323649Y0538154D01*
X0323649Y0538538D02*
X0324033Y0538921D01*
X0324417Y0538921D01*
X0324800Y0538538D01*
X0324800Y0537770D01*
X0324417Y0537387D01*
X0324033Y0536343D02*
X0322498Y0534809D01*
X0322498Y0533765D02*
X0323266Y0532998D01*
X0323266Y0533381D02*
X0323266Y0532230D01*
X0322498Y0532230D02*
X0324800Y0532230D01*
X0324800Y0533381D01*
X0324417Y0533765D01*
X0323649Y0533765D01*
X0323266Y0533381D01*
X0324033Y0534809D02*
X0322498Y0536343D01*
X0330372Y0536343D02*
X0331907Y0534809D01*
X0332291Y0533765D02*
X0331523Y0533765D01*
X0331140Y0533381D01*
X0331140Y0532230D01*
X0331140Y0532998D02*
X0330372Y0533765D01*
X0330372Y0534809D02*
X0331907Y0536343D01*
X0332291Y0537387D02*
X0332674Y0537770D01*
X0332674Y0538538D01*
X0332291Y0538921D01*
X0331907Y0538921D01*
X0330372Y0537387D01*
X0330372Y0538921D01*
X0332291Y0533765D02*
X0332674Y0533381D01*
X0332674Y0532230D01*
X0330372Y0532230D01*
X0338246Y0532230D02*
X0340548Y0532230D01*
X0340548Y0533381D01*
X0340165Y0533765D01*
X0339397Y0533765D01*
X0339014Y0533381D01*
X0339014Y0532230D01*
X0339014Y0532998D02*
X0338246Y0533765D01*
X0338246Y0534809D02*
X0339781Y0536343D01*
X0339781Y0537387D02*
X0340548Y0538154D01*
X0338246Y0538154D01*
X0338246Y0537387D02*
X0338246Y0538921D01*
X0338246Y0536343D02*
X0339781Y0534809D01*
X0346120Y0535192D02*
X0346120Y0535959D01*
X0346504Y0536343D01*
X0346120Y0537387D02*
X0346120Y0538921D01*
X0346120Y0537387D02*
X0348422Y0537387D01*
X0348039Y0536343D02*
X0348422Y0535959D01*
X0348422Y0535192D01*
X0348039Y0534809D01*
X0346504Y0534809D01*
X0346120Y0535192D01*
X0346504Y0533765D02*
X0346120Y0533381D01*
X0346120Y0532614D01*
X0346504Y0532230D01*
X0347271Y0532614D02*
X0347271Y0533381D01*
X0346888Y0533765D01*
X0346504Y0533765D01*
X0347271Y0532614D02*
X0347655Y0532230D01*
X0348039Y0532230D01*
X0348422Y0532614D01*
X0348422Y0533381D01*
X0348039Y0533765D01*
X0353994Y0533381D02*
X0354378Y0533765D01*
X0355913Y0533765D01*
X0356296Y0533381D01*
X0356296Y0532230D01*
X0353994Y0532230D01*
X0353994Y0533381D01*
X0353994Y0534809D02*
X0355529Y0536343D01*
X0355913Y0536343D01*
X0356296Y0535959D01*
X0356296Y0535192D01*
X0355913Y0534809D01*
X0353994Y0534809D02*
X0353994Y0536343D01*
X0354378Y0537387D02*
X0353994Y0537770D01*
X0353994Y0538538D01*
X0354378Y0538921D01*
X0354762Y0538921D01*
X0355145Y0538538D01*
X0355145Y0538154D01*
X0355145Y0538538D02*
X0355529Y0538921D01*
X0355913Y0538921D01*
X0356296Y0538538D01*
X0356296Y0537770D01*
X0355913Y0537387D01*
X0361868Y0537770D02*
X0362252Y0537387D01*
X0361868Y0537770D02*
X0361868Y0538538D01*
X0362252Y0538921D01*
X0363019Y0538921D01*
X0363403Y0538538D01*
X0363403Y0538154D01*
X0363019Y0537387D01*
X0364170Y0537387D01*
X0364170Y0538921D01*
X0363787Y0536343D02*
X0364170Y0535959D01*
X0364170Y0535192D01*
X0363787Y0534809D01*
X0363787Y0533765D02*
X0364170Y0533381D01*
X0364170Y0532230D01*
X0361868Y0532230D01*
X0361868Y0533381D01*
X0362252Y0533765D01*
X0363787Y0533765D01*
X0361868Y0534809D02*
X0363403Y0536343D01*
X0363787Y0536343D01*
X0361868Y0536343D02*
X0361868Y0534809D01*
X0369742Y0534809D02*
X0369742Y0536343D01*
X0369742Y0537387D02*
X0370126Y0537387D01*
X0371661Y0538921D01*
X0372044Y0538921D01*
X0372044Y0537387D01*
X0371661Y0536343D02*
X0372044Y0535959D01*
X0372044Y0535192D01*
X0371661Y0534809D01*
X0371661Y0533765D02*
X0372044Y0533381D01*
X0372044Y0532230D01*
X0369742Y0532230D01*
X0369742Y0533381D01*
X0370126Y0533765D01*
X0371661Y0533765D01*
X0369742Y0534809D02*
X0371277Y0536343D01*
X0371661Y0536343D01*
X0377616Y0536343D02*
X0377616Y0534809D01*
X0379151Y0536343D01*
X0379535Y0536343D01*
X0379918Y0535959D01*
X0379918Y0535192D01*
X0379535Y0534809D01*
X0379535Y0533765D02*
X0379918Y0533381D01*
X0379918Y0532230D01*
X0377616Y0532230D01*
X0377616Y0533381D01*
X0378000Y0533765D01*
X0379535Y0533765D01*
X0379535Y0537387D02*
X0379151Y0537387D01*
X0378767Y0537770D01*
X0378767Y0538921D01*
X0378000Y0538921D02*
X0379535Y0538921D01*
X0379918Y0538538D01*
X0379918Y0537770D01*
X0379535Y0537387D01*
X0378000Y0537387D02*
X0377616Y0537770D01*
X0377616Y0538538D01*
X0378000Y0538921D01*
X0385490Y0538921D02*
X0385490Y0537387D01*
X0387025Y0538921D01*
X0387409Y0538921D01*
X0387792Y0538538D01*
X0387792Y0537770D01*
X0387409Y0537387D01*
X0387409Y0536343D02*
X0387792Y0535959D01*
X0387792Y0535192D01*
X0387409Y0534809D01*
X0387025Y0534809D01*
X0386641Y0535192D01*
X0386641Y0535959D01*
X0386258Y0536343D01*
X0385874Y0536343D01*
X0385490Y0535959D01*
X0385490Y0535192D01*
X0385874Y0534809D01*
X0385874Y0533765D02*
X0385490Y0533381D01*
X0385490Y0532614D01*
X0385874Y0532230D01*
X0387409Y0532230D01*
X0387792Y0532614D01*
X0387792Y0533381D01*
X0387409Y0533765D01*
X0393364Y0533381D02*
X0393748Y0533765D01*
X0395283Y0533765D01*
X0395666Y0533381D01*
X0395666Y0532230D01*
X0393364Y0532230D01*
X0393364Y0533381D01*
X0393748Y0534809D02*
X0393364Y0535192D01*
X0393364Y0535959D01*
X0393748Y0536343D01*
X0394515Y0536343D01*
X0394899Y0535959D01*
X0394899Y0535576D01*
X0394515Y0534809D01*
X0395666Y0534809D01*
X0395666Y0536343D01*
X0394899Y0537387D02*
X0395666Y0538154D01*
X0393364Y0538154D01*
X0393364Y0537387D02*
X0393364Y0538921D01*
X0401238Y0538538D02*
X0401238Y0537770D01*
X0401622Y0537387D01*
X0401622Y0536343D02*
X0401238Y0535959D01*
X0401238Y0535192D01*
X0401622Y0534809D01*
X0402389Y0534809D02*
X0402773Y0535576D01*
X0402773Y0535959D01*
X0402389Y0536343D01*
X0401622Y0536343D01*
X0402389Y0534809D02*
X0403540Y0534809D01*
X0403540Y0536343D01*
X0403157Y0537387D02*
X0403540Y0537770D01*
X0403540Y0538538D01*
X0403157Y0538921D01*
X0402773Y0538921D01*
X0402389Y0538538D01*
X0402006Y0538921D01*
X0401622Y0538921D01*
X0401238Y0538538D01*
X0402389Y0538538D02*
X0402389Y0538154D01*
X0401622Y0533765D02*
X0403157Y0533765D01*
X0403540Y0533381D01*
X0403540Y0532230D01*
X0401238Y0532230D01*
X0401238Y0533381D01*
X0401622Y0533765D01*
X0309052Y0533381D02*
X0309052Y0532230D01*
X0306750Y0532230D01*
X0306750Y0533381D01*
X0307134Y0533765D01*
X0308669Y0533765D01*
X0309052Y0533381D01*
X0308285Y0534809D02*
X0309052Y0535576D01*
X0306750Y0535576D01*
X0306750Y0534809D02*
X0306750Y0536343D01*
X0306750Y0537387D02*
X0306750Y0538921D01*
X0306750Y0538154D02*
X0309052Y0538154D01*
X0308285Y0537387D01*
X0269682Y0537770D02*
X0269298Y0537387D01*
X0269682Y0537770D02*
X0269682Y0538538D01*
X0269298Y0538921D01*
X0268915Y0538921D01*
X0267380Y0537387D01*
X0267380Y0538921D01*
X0267380Y0536343D02*
X0267380Y0534809D01*
X0267380Y0535576D02*
X0269682Y0535576D01*
X0268915Y0534809D01*
X0268915Y0533765D02*
X0267380Y0533765D01*
X0268531Y0533765D02*
X0268531Y0532230D01*
X0268915Y0532230D02*
X0269682Y0532998D01*
X0268915Y0533765D01*
X0268915Y0532230D02*
X0267380Y0532230D01*
X0261808Y0532998D02*
X0261041Y0533765D01*
X0259506Y0533765D01*
X0259506Y0534809D02*
X0259506Y0536343D01*
X0259506Y0535576D02*
X0261808Y0535576D01*
X0261041Y0534809D01*
X0260657Y0533765D02*
X0260657Y0532230D01*
X0261041Y0532230D02*
X0261808Y0532998D01*
X0261041Y0532230D02*
X0259506Y0532230D01*
X0259890Y0537387D02*
X0261424Y0538921D01*
X0259890Y0538921D01*
X0259506Y0538538D01*
X0259506Y0537770D01*
X0259890Y0537387D01*
X0261424Y0537387D01*
X0261808Y0537770D01*
X0261808Y0538538D01*
X0261424Y0538921D01*
X0198816Y0538921D02*
X0196514Y0538921D01*
X0197281Y0538154D01*
X0196514Y0537387D01*
X0198816Y0537387D01*
X0198049Y0536343D02*
X0196514Y0536343D01*
X0197665Y0536343D02*
X0197665Y0534809D01*
X0198049Y0534809D02*
X0198816Y0535576D01*
X0198049Y0536343D01*
X0198049Y0534809D02*
X0196514Y0534809D01*
X0196514Y0533765D02*
X0197281Y0532998D01*
X0197281Y0533381D02*
X0197281Y0532230D01*
X0196514Y0532230D02*
X0198816Y0532230D01*
X0198816Y0533381D01*
X0198432Y0533765D01*
X0197665Y0533765D01*
X0197281Y0533381D01*
X0175194Y0533381D02*
X0175194Y0532614D01*
X0174810Y0532230D01*
X0173276Y0532230D01*
X0172892Y0532614D01*
X0172892Y0533381D01*
X0173276Y0533765D01*
X0174043Y0533765D01*
X0174043Y0532998D01*
X0174810Y0533765D02*
X0175194Y0533381D01*
X0175194Y0534809D02*
X0172892Y0536343D01*
X0175194Y0536343D01*
X0175194Y0537387D02*
X0175194Y0538538D01*
X0174810Y0538921D01*
X0173276Y0538921D01*
X0172892Y0538538D01*
X0172892Y0537387D01*
X0175194Y0537387D01*
X0175194Y0534809D02*
X0172892Y0534809D01*
D172*
X0180616Y0535227D02*
X0180616Y0536962D01*
X0180616Y0536094D02*
X0183218Y0536094D01*
X0182351Y0535227D01*
X0181483Y0534015D02*
X0183218Y0534015D01*
X0181483Y0534015D02*
X0180616Y0533148D01*
X0181483Y0532280D01*
X0183218Y0532280D01*
X0188490Y0533148D02*
X0189357Y0534015D01*
X0191092Y0534015D01*
X0190659Y0535227D02*
X0191092Y0535661D01*
X0191092Y0536528D01*
X0190659Y0536962D01*
X0190225Y0536962D01*
X0188490Y0535227D01*
X0188490Y0536962D01*
X0188490Y0533148D02*
X0189357Y0532280D01*
X0191092Y0532280D01*
X0190659Y0516317D02*
X0191092Y0515883D01*
X0191092Y0515016D01*
X0190659Y0514582D01*
X0191092Y0513370D02*
X0189357Y0513370D01*
X0188490Y0512503D01*
X0189357Y0511635D01*
X0191092Y0511635D01*
X0188490Y0514582D02*
X0190225Y0516317D01*
X0190659Y0516317D01*
X0188490Y0516317D02*
X0188490Y0514582D01*
X0183218Y0515449D02*
X0180616Y0515449D01*
X0180616Y0514582D02*
X0180616Y0516317D01*
X0182351Y0514582D02*
X0183218Y0515449D01*
X0183218Y0513370D02*
X0181483Y0513370D01*
X0180616Y0512503D01*
X0181483Y0511635D01*
X0183218Y0511635D01*
X0175344Y0511635D02*
X0172742Y0513370D01*
X0175344Y0513370D01*
X0175344Y0514582D02*
X0175344Y0515883D01*
X0174911Y0516317D01*
X0173176Y0516317D01*
X0172742Y0515883D01*
X0172742Y0514582D01*
X0175344Y0514582D01*
X0175344Y0511635D02*
X0172742Y0511635D01*
X0173176Y0510424D02*
X0174043Y0510424D01*
X0174043Y0509556D01*
X0174911Y0508689D02*
X0173176Y0508689D01*
X0172742Y0509122D01*
X0172742Y0509990D01*
X0173176Y0510424D01*
X0174911Y0510424D02*
X0175344Y0509990D01*
X0175344Y0509122D01*
X0174911Y0508689D01*
X0196364Y0508689D02*
X0198966Y0508689D01*
X0198966Y0509990D01*
X0198533Y0510424D01*
X0197665Y0510424D01*
X0197231Y0509990D01*
X0197231Y0508689D01*
X0197231Y0509556D02*
X0196364Y0510424D01*
X0196364Y0511635D02*
X0198099Y0511635D01*
X0198966Y0512503D01*
X0198099Y0513370D01*
X0196364Y0513370D01*
X0196364Y0514582D02*
X0197231Y0515449D01*
X0196364Y0516317D01*
X0198966Y0516317D01*
X0198966Y0514582D02*
X0196364Y0514582D01*
X0197665Y0513370D02*
X0197665Y0511635D01*
X0204238Y0512069D02*
X0204672Y0511635D01*
X0204238Y0512069D02*
X0204238Y0512936D01*
X0204672Y0513370D01*
X0205105Y0513370D01*
X0205539Y0512936D01*
X0205539Y0512069D01*
X0205973Y0511635D01*
X0206407Y0511635D01*
X0206840Y0512069D01*
X0206840Y0512936D01*
X0206407Y0513370D01*
X0205973Y0514582D02*
X0206840Y0515449D01*
X0204238Y0515449D01*
X0204238Y0514582D02*
X0204238Y0516317D01*
X0204672Y0510424D02*
X0204238Y0509990D01*
X0204238Y0509122D01*
X0204672Y0508689D01*
X0206407Y0508689D01*
X0206840Y0509122D01*
X0206840Y0509990D01*
X0206407Y0510424D01*
X0212163Y0510489D02*
X0213897Y0510489D01*
X0214765Y0509622D01*
X0213897Y0508754D01*
X0212163Y0508754D01*
X0213464Y0508754D02*
X0213464Y0510489D01*
X0213897Y0511701D02*
X0213464Y0512135D01*
X0213464Y0513002D01*
X0213030Y0513436D01*
X0212596Y0513436D01*
X0212163Y0513002D01*
X0212163Y0512135D01*
X0212596Y0511701D01*
X0213897Y0511701D02*
X0214331Y0511701D01*
X0214765Y0512135D01*
X0214765Y0513002D01*
X0214331Y0513436D01*
X0214331Y0514648D02*
X0213897Y0514648D01*
X0213464Y0515081D01*
X0213464Y0515949D01*
X0213030Y0516382D01*
X0212596Y0516382D01*
X0212163Y0515949D01*
X0212163Y0515081D01*
X0212596Y0514648D01*
X0214331Y0514648D02*
X0214765Y0515081D01*
X0214765Y0515949D01*
X0214331Y0516382D01*
X0218619Y0515881D02*
X0218619Y0515013D01*
X0219053Y0514580D01*
X0219920Y0515013D02*
X0219920Y0515881D01*
X0219486Y0516315D01*
X0219053Y0516315D01*
X0218619Y0515881D01*
X0219920Y0515013D02*
X0220354Y0514580D01*
X0220788Y0514580D01*
X0221221Y0515013D01*
X0221221Y0515881D01*
X0220788Y0516315D01*
X0222368Y0515404D02*
X0224970Y0515404D01*
X0224970Y0514537D02*
X0224970Y0516272D01*
X0227860Y0516317D02*
X0227860Y0514582D01*
X0227860Y0515449D02*
X0230462Y0515449D01*
X0229595Y0514582D01*
X0229595Y0513370D02*
X0227860Y0513370D01*
X0229161Y0513370D02*
X0229161Y0511635D01*
X0229595Y0511635D02*
X0230462Y0512503D01*
X0229595Y0513370D01*
X0229595Y0511635D02*
X0227860Y0511635D01*
X0224970Y0511590D02*
X0224970Y0512892D01*
X0224536Y0513325D01*
X0223669Y0513325D01*
X0223235Y0512892D01*
X0223235Y0511590D01*
X0222368Y0511590D02*
X0224970Y0511590D01*
X0221221Y0512067D02*
X0220788Y0511633D01*
X0220354Y0511633D01*
X0219920Y0512067D01*
X0219920Y0512934D01*
X0219486Y0513368D01*
X0219053Y0513368D01*
X0218619Y0512934D01*
X0218619Y0512067D01*
X0219053Y0511633D01*
X0218619Y0510422D02*
X0220354Y0510422D01*
X0221221Y0509554D01*
X0220354Y0508687D01*
X0218619Y0508687D01*
X0219920Y0508687D02*
X0219920Y0510422D01*
X0221221Y0512067D02*
X0221221Y0512934D01*
X0220788Y0513368D01*
X0220788Y0507475D02*
X0219920Y0507475D01*
X0219486Y0507041D01*
X0219486Y0505740D01*
X0218619Y0505740D02*
X0221221Y0505740D01*
X0221221Y0507041D01*
X0220788Y0507475D01*
X0214765Y0507109D02*
X0214331Y0507543D01*
X0213464Y0507543D01*
X0213030Y0507109D01*
X0213030Y0505808D01*
X0212163Y0505808D02*
X0214765Y0505808D01*
X0214765Y0507109D01*
X0220486Y0532280D02*
X0222221Y0532280D01*
X0223088Y0533148D01*
X0222221Y0534015D01*
X0220486Y0534015D01*
X0220920Y0535227D02*
X0220486Y0535661D01*
X0220486Y0536528D01*
X0220920Y0536962D01*
X0222655Y0536962D01*
X0220920Y0535227D01*
X0222655Y0535227D01*
X0223088Y0535661D01*
X0223088Y0536528D01*
X0222655Y0536962D01*
X0221787Y0534015D02*
X0221787Y0532280D01*
X0227860Y0532280D02*
X0229595Y0532280D01*
X0230462Y0533148D01*
X0229595Y0534015D01*
X0227860Y0534015D01*
X0227860Y0535227D02*
X0229595Y0536962D01*
X0230029Y0536962D01*
X0230462Y0536528D01*
X0230462Y0535661D01*
X0230029Y0535227D01*
X0229161Y0534015D02*
X0229161Y0532280D01*
X0227860Y0535227D02*
X0227860Y0536962D01*
X0235734Y0536528D02*
X0238336Y0536528D01*
X0237035Y0535227D01*
X0237035Y0536962D01*
X0237035Y0534015D02*
X0237035Y0532280D01*
X0237469Y0532280D02*
X0238336Y0533148D01*
X0237469Y0534015D01*
X0235734Y0534015D01*
X0235734Y0532280D02*
X0237469Y0532280D01*
X0243608Y0532280D02*
X0245343Y0532280D01*
X0246210Y0533148D01*
X0245343Y0534015D01*
X0243608Y0534015D01*
X0244042Y0535227D02*
X0243608Y0535661D01*
X0243608Y0536528D01*
X0244042Y0536962D01*
X0244476Y0536962D01*
X0244909Y0536528D01*
X0244909Y0535227D01*
X0244042Y0535227D01*
X0244909Y0535227D02*
X0245777Y0536094D01*
X0246210Y0536962D01*
X0244909Y0534015D02*
X0244909Y0532280D01*
X0251482Y0532280D02*
X0253217Y0532280D01*
X0254084Y0533148D01*
X0253217Y0534015D01*
X0251482Y0534015D01*
X0251916Y0535227D02*
X0252350Y0535227D01*
X0252783Y0535661D01*
X0252783Y0536528D01*
X0252350Y0536962D01*
X0251916Y0536962D01*
X0251482Y0536528D01*
X0251482Y0535661D01*
X0251916Y0535227D01*
X0252783Y0535661D02*
X0253217Y0535227D01*
X0253651Y0535227D01*
X0254084Y0535661D01*
X0254084Y0536528D01*
X0253651Y0536962D01*
X0253217Y0536962D01*
X0252783Y0536528D01*
X0252783Y0534015D02*
X0252783Y0532280D01*
X0253651Y0516317D02*
X0251916Y0514582D01*
X0251482Y0514582D01*
X0251482Y0513370D02*
X0253217Y0513370D01*
X0254084Y0512503D01*
X0253217Y0511635D01*
X0251482Y0511635D01*
X0252783Y0511635D02*
X0252783Y0513370D01*
X0254084Y0514582D02*
X0254084Y0516317D01*
X0253651Y0516317D01*
X0259356Y0515883D02*
X0259790Y0516317D01*
X0261525Y0516317D01*
X0261958Y0515883D01*
X0261958Y0515016D01*
X0261525Y0514582D01*
X0261091Y0514582D01*
X0260657Y0515016D01*
X0260657Y0516317D01*
X0259356Y0515883D02*
X0259356Y0515016D01*
X0259790Y0514582D01*
X0259356Y0513370D02*
X0261091Y0513370D01*
X0261958Y0512503D01*
X0261091Y0511635D01*
X0259356Y0511635D01*
X0260657Y0511635D02*
X0260657Y0513370D01*
X0267230Y0513370D02*
X0267230Y0511635D01*
X0267230Y0512503D02*
X0269832Y0512503D01*
X0268965Y0511635D01*
X0268965Y0510424D02*
X0267230Y0510424D01*
X0268531Y0510424D02*
X0268531Y0508689D01*
X0268965Y0508689D02*
X0269832Y0509556D01*
X0268965Y0510424D01*
X0268965Y0508689D02*
X0267230Y0508689D01*
X0267230Y0514582D02*
X0267230Y0516317D01*
X0267230Y0515449D02*
X0269832Y0515449D01*
X0268965Y0514582D01*
X0275104Y0514582D02*
X0276839Y0516317D01*
X0277273Y0516317D01*
X0277706Y0515883D01*
X0277706Y0515016D01*
X0277273Y0514582D01*
X0277273Y0513370D02*
X0277706Y0512936D01*
X0277706Y0511635D01*
X0275104Y0511635D01*
X0275104Y0512936D01*
X0275538Y0513370D01*
X0277273Y0513370D01*
X0275104Y0514582D02*
X0275104Y0516317D01*
X0282978Y0515883D02*
X0285580Y0515883D01*
X0284279Y0514582D01*
X0284279Y0516317D01*
X0283412Y0513370D02*
X0285147Y0513370D01*
X0285580Y0512936D01*
X0285580Y0511635D01*
X0282978Y0511635D01*
X0282978Y0512936D01*
X0283412Y0513370D01*
X0290852Y0512936D02*
X0291286Y0513370D01*
X0293021Y0513370D01*
X0293454Y0512936D01*
X0293454Y0511635D01*
X0290852Y0511635D01*
X0290852Y0512936D01*
X0291286Y0514582D02*
X0290852Y0515016D01*
X0290852Y0515883D01*
X0291286Y0516317D01*
X0291720Y0516317D01*
X0292153Y0515883D01*
X0292153Y0514582D01*
X0291286Y0514582D01*
X0292153Y0514582D02*
X0293021Y0515449D01*
X0293454Y0516317D01*
X0298726Y0515883D02*
X0298726Y0515016D01*
X0299160Y0514582D01*
X0299594Y0514582D01*
X0300027Y0515016D01*
X0300027Y0515883D01*
X0299594Y0516317D01*
X0299160Y0516317D01*
X0298726Y0515883D01*
X0300027Y0515883D02*
X0300461Y0516317D01*
X0300895Y0516317D01*
X0301328Y0515883D01*
X0301328Y0515016D01*
X0300895Y0514582D01*
X0300461Y0514582D01*
X0300027Y0515016D01*
X0299160Y0513370D02*
X0300895Y0513370D01*
X0301328Y0512936D01*
X0301328Y0511635D01*
X0298726Y0511635D01*
X0298726Y0512936D01*
X0299160Y0513370D01*
X0306600Y0513370D02*
X0306600Y0511635D01*
X0306600Y0512503D02*
X0309202Y0512503D01*
X0308335Y0511635D01*
X0308769Y0510424D02*
X0309202Y0509990D01*
X0309202Y0508689D01*
X0306600Y0508689D01*
X0306600Y0509990D01*
X0307034Y0510424D01*
X0308769Y0510424D01*
X0308769Y0514582D02*
X0309202Y0515016D01*
X0309202Y0515883D01*
X0308769Y0516317D01*
X0307034Y0514582D01*
X0306600Y0515016D01*
X0306600Y0515883D01*
X0307034Y0516317D01*
X0308769Y0516317D01*
X0308769Y0514582D02*
X0307034Y0514582D01*
X0314474Y0514582D02*
X0316209Y0516317D01*
X0316643Y0516317D01*
X0317076Y0515883D01*
X0317076Y0515016D01*
X0316643Y0514582D01*
X0317076Y0512503D02*
X0314474Y0512503D01*
X0314474Y0513370D02*
X0314474Y0511635D01*
X0314908Y0510424D02*
X0314474Y0509990D01*
X0314474Y0508689D01*
X0317076Y0508689D01*
X0317076Y0509990D01*
X0316643Y0510424D01*
X0314908Y0510424D01*
X0316209Y0511635D02*
X0317076Y0512503D01*
X0314474Y0514582D02*
X0314474Y0516317D01*
X0322348Y0515883D02*
X0322348Y0515016D01*
X0322782Y0514582D01*
X0323649Y0515449D02*
X0323649Y0515883D01*
X0323216Y0516317D01*
X0322782Y0516317D01*
X0322348Y0515883D01*
X0323649Y0515883D02*
X0324083Y0516317D01*
X0324517Y0516317D01*
X0324951Y0515883D01*
X0324951Y0515016D01*
X0324517Y0514582D01*
X0324083Y0513370D02*
X0322348Y0511635D01*
X0324083Y0511635D02*
X0322348Y0513370D01*
X0322348Y0509556D02*
X0324951Y0509556D01*
X0324951Y0508689D02*
X0324951Y0510424D01*
X0330222Y0509556D02*
X0332825Y0509556D01*
X0332825Y0508689D02*
X0332825Y0510424D01*
X0331957Y0511635D02*
X0330222Y0513370D01*
X0330222Y0514582D02*
X0331957Y0516317D01*
X0332391Y0516317D01*
X0332825Y0515883D01*
X0332825Y0515016D01*
X0332391Y0514582D01*
X0331957Y0513370D02*
X0330222Y0511635D01*
X0330222Y0514582D02*
X0330222Y0516317D01*
X0338096Y0516317D02*
X0338096Y0514582D01*
X0338096Y0515449D02*
X0340699Y0515449D01*
X0339831Y0514582D01*
X0339831Y0513370D02*
X0338096Y0511635D01*
X0339831Y0511635D02*
X0338096Y0513370D01*
X0338096Y0509556D02*
X0340699Y0509556D01*
X0340699Y0508689D02*
X0340699Y0510424D01*
X0345970Y0509990D02*
X0345970Y0509122D01*
X0346404Y0508689D01*
X0347271Y0509122D02*
X0347271Y0509990D01*
X0346838Y0510424D01*
X0346404Y0510424D01*
X0345970Y0509990D01*
X0347271Y0509122D02*
X0347705Y0508689D01*
X0348139Y0508689D01*
X0348573Y0509122D01*
X0348573Y0509990D01*
X0348139Y0510424D01*
X0348573Y0511635D02*
X0348573Y0512936D01*
X0348139Y0513370D01*
X0346404Y0513370D01*
X0345970Y0512936D01*
X0345970Y0511635D01*
X0348573Y0511635D01*
X0347705Y0514582D02*
X0348573Y0515449D01*
X0347705Y0516317D01*
X0345970Y0516317D01*
X0347271Y0516317D02*
X0347271Y0514582D01*
X0347705Y0514582D02*
X0345970Y0514582D01*
X0353844Y0514582D02*
X0355579Y0516317D01*
X0356013Y0516317D01*
X0356447Y0515883D01*
X0356447Y0515016D01*
X0356013Y0514582D01*
X0356013Y0513370D02*
X0356447Y0512936D01*
X0356447Y0512069D01*
X0356013Y0511635D01*
X0356013Y0510424D02*
X0356447Y0509990D01*
X0356447Y0508689D01*
X0353844Y0508689D01*
X0353844Y0509990D01*
X0354278Y0510424D01*
X0356013Y0510424D01*
X0353844Y0511635D02*
X0355579Y0513370D01*
X0356013Y0513370D01*
X0353844Y0513370D02*
X0353844Y0511635D01*
X0353844Y0514582D02*
X0353844Y0516317D01*
X0361718Y0515883D02*
X0364321Y0515883D01*
X0363019Y0514582D01*
X0363019Y0516317D01*
X0363453Y0513370D02*
X0363887Y0513370D01*
X0364321Y0512936D01*
X0364321Y0512069D01*
X0363887Y0511635D01*
X0363887Y0510424D02*
X0364321Y0509990D01*
X0364321Y0508689D01*
X0361718Y0508689D01*
X0361718Y0509990D01*
X0362152Y0510424D01*
X0363887Y0510424D01*
X0361718Y0511635D02*
X0363453Y0513370D01*
X0361718Y0513370D02*
X0361718Y0511635D01*
X0369592Y0511635D02*
X0371327Y0513370D01*
X0371761Y0513370D01*
X0372195Y0512936D01*
X0372195Y0512069D01*
X0371761Y0511635D01*
X0371761Y0510424D02*
X0372195Y0509990D01*
X0372195Y0508689D01*
X0369592Y0508689D01*
X0369592Y0509990D01*
X0370026Y0510424D01*
X0371761Y0510424D01*
X0369592Y0511635D02*
X0369592Y0513370D01*
X0370026Y0514582D02*
X0369592Y0515016D01*
X0369592Y0515883D01*
X0370026Y0516317D01*
X0370460Y0516317D01*
X0370893Y0515883D01*
X0370893Y0514582D01*
X0370026Y0514582D01*
X0370893Y0514582D02*
X0371761Y0515449D01*
X0372195Y0516317D01*
X0377466Y0515883D02*
X0377466Y0515016D01*
X0377900Y0514582D01*
X0378334Y0514582D01*
X0378768Y0515016D01*
X0378768Y0515883D01*
X0378334Y0516317D01*
X0377900Y0516317D01*
X0377466Y0515883D01*
X0378768Y0515883D02*
X0379201Y0516317D01*
X0379635Y0516317D01*
X0380069Y0515883D01*
X0380069Y0515016D01*
X0379635Y0514582D01*
X0379201Y0514582D01*
X0378768Y0515016D01*
X0379201Y0513370D02*
X0379635Y0513370D01*
X0380069Y0512936D01*
X0380069Y0512069D01*
X0379635Y0511635D01*
X0379635Y0510424D02*
X0380069Y0509990D01*
X0380069Y0508689D01*
X0377466Y0508689D01*
X0377466Y0509990D01*
X0377900Y0510424D01*
X0379635Y0510424D01*
X0377466Y0511635D02*
X0379201Y0513370D01*
X0377466Y0513370D02*
X0377466Y0511635D01*
X0385340Y0512069D02*
X0385774Y0511635D01*
X0385340Y0512069D02*
X0385340Y0512936D01*
X0385774Y0513370D01*
X0386208Y0513370D01*
X0386642Y0512936D01*
X0386642Y0512503D01*
X0386642Y0512936D02*
X0387075Y0513370D01*
X0387509Y0513370D01*
X0387943Y0512936D01*
X0387943Y0512069D01*
X0387509Y0511635D01*
X0387509Y0510424D02*
X0387943Y0509990D01*
X0387943Y0508689D01*
X0385340Y0508689D01*
X0385340Y0509990D01*
X0385774Y0510424D01*
X0387509Y0510424D01*
X0387509Y0514582D02*
X0387943Y0515016D01*
X0387943Y0515883D01*
X0387509Y0516317D01*
X0385774Y0514582D01*
X0385340Y0515016D01*
X0385340Y0515883D01*
X0385774Y0516317D01*
X0387509Y0516317D01*
X0387509Y0514582D02*
X0385774Y0514582D01*
X0393214Y0515016D02*
X0393648Y0514582D01*
X0395383Y0516317D01*
X0393648Y0516317D01*
X0393214Y0515883D01*
X0393214Y0515016D01*
X0393648Y0514582D02*
X0395383Y0514582D01*
X0395817Y0515016D01*
X0395817Y0515883D01*
X0395383Y0516317D01*
X0395817Y0513370D02*
X0395817Y0511635D01*
X0394516Y0511635D01*
X0394949Y0512503D01*
X0394949Y0512936D01*
X0394516Y0513370D01*
X0393648Y0513370D01*
X0393214Y0512936D01*
X0393214Y0512069D01*
X0393648Y0511635D01*
X0393648Y0510424D02*
X0395383Y0510424D01*
X0395817Y0509990D01*
X0395817Y0508689D01*
X0393214Y0508689D01*
X0393214Y0509990D01*
X0393648Y0510424D01*
X0401088Y0509990D02*
X0401088Y0508689D01*
X0403691Y0508689D01*
X0403691Y0509990D01*
X0403257Y0510424D01*
X0401522Y0510424D01*
X0401088Y0509990D01*
X0401522Y0511635D02*
X0401088Y0512069D01*
X0401088Y0512936D01*
X0401522Y0513370D01*
X0402390Y0513370D01*
X0402823Y0512936D01*
X0402823Y0512503D01*
X0402390Y0511635D01*
X0403691Y0511635D01*
X0403691Y0513370D01*
X0403257Y0514582D02*
X0403691Y0515016D01*
X0403691Y0515883D01*
X0403257Y0516317D01*
X0402823Y0516317D01*
X0401088Y0514582D01*
X0401088Y0516317D01*
X0301328Y0532280D02*
X0301328Y0533581D01*
X0300895Y0534015D01*
X0299160Y0534015D01*
X0298726Y0533581D01*
X0298726Y0532280D01*
X0301328Y0532280D01*
X0300895Y0535227D02*
X0300461Y0535227D01*
X0300027Y0535661D01*
X0300027Y0536962D01*
X0299160Y0536962D02*
X0300895Y0536962D01*
X0301328Y0536528D01*
X0301328Y0535661D01*
X0300895Y0535227D01*
X0299160Y0535227D02*
X0298726Y0535661D01*
X0298726Y0536528D01*
X0299160Y0536962D01*
X0293454Y0536962D02*
X0293021Y0536962D01*
X0291286Y0535227D01*
X0290852Y0535227D01*
X0291286Y0534015D02*
X0290852Y0533581D01*
X0290852Y0532280D01*
X0293454Y0532280D01*
X0293454Y0533581D01*
X0293021Y0534015D01*
X0291286Y0534015D01*
X0293454Y0535227D02*
X0293454Y0536962D01*
X0285580Y0536962D02*
X0285580Y0535227D01*
X0284279Y0535227D01*
X0284713Y0536094D01*
X0284713Y0536528D01*
X0284279Y0536962D01*
X0283412Y0536962D01*
X0282978Y0536528D01*
X0282978Y0535661D01*
X0283412Y0535227D01*
X0283412Y0534015D02*
X0285147Y0534015D01*
X0285580Y0533581D01*
X0285580Y0532280D01*
X0282978Y0532280D01*
X0282978Y0533581D01*
X0283412Y0534015D01*
X0277706Y0533581D02*
X0277706Y0532280D01*
X0275104Y0532280D01*
X0275104Y0533581D01*
X0275538Y0534015D01*
X0277273Y0534015D01*
X0277706Y0533581D01*
X0277273Y0535227D02*
X0277706Y0535661D01*
X0277706Y0536528D01*
X0277273Y0536962D01*
X0276839Y0536962D01*
X0276405Y0536528D01*
X0275972Y0536962D01*
X0275538Y0536962D01*
X0275104Y0536528D01*
X0275104Y0535661D01*
X0275538Y0535227D01*
X0276405Y0536094D02*
X0276405Y0536528D01*
X0246210Y0516317D02*
X0246210Y0514582D01*
X0244909Y0514582D01*
X0245343Y0515449D01*
X0245343Y0515883D01*
X0244909Y0516317D01*
X0244042Y0516317D01*
X0243608Y0515883D01*
X0243608Y0515016D01*
X0244042Y0514582D01*
X0243608Y0513370D02*
X0245343Y0513370D01*
X0246210Y0512503D01*
X0245343Y0511635D01*
X0243608Y0511635D01*
X0244909Y0511635D02*
X0244909Y0513370D01*
X0238336Y0512503D02*
X0237469Y0513370D01*
X0235734Y0513370D01*
X0236168Y0514582D02*
X0235734Y0515016D01*
X0235734Y0515883D01*
X0236168Y0516317D01*
X0236602Y0516317D01*
X0237035Y0515883D01*
X0237035Y0515449D01*
X0237035Y0515883D02*
X0237469Y0516317D01*
X0237903Y0516317D01*
X0238336Y0515883D01*
X0238336Y0515016D01*
X0237903Y0514582D01*
X0237035Y0513370D02*
X0237035Y0511635D01*
X0237469Y0511635D02*
X0238336Y0512503D01*
X0237469Y0511635D02*
X0235734Y0511635D01*
D173*
X0216906Y0532067D02*
X0216906Y0533068D01*
X0216572Y0533402D01*
X0215905Y0533402D01*
X0215571Y0533068D01*
X0215571Y0532067D01*
X0214904Y0532067D02*
X0216906Y0532067D01*
X0216906Y0534277D02*
X0216906Y0535612D01*
X0216906Y0534944D02*
X0214904Y0534944D01*
X0213506Y0534821D02*
X0212838Y0535489D01*
X0211504Y0535489D01*
X0211504Y0536364D02*
X0211504Y0537031D01*
X0211504Y0536698D02*
X0213506Y0536698D01*
X0213506Y0537031D02*
X0213506Y0536364D01*
X0212505Y0535489D02*
X0212505Y0534154D01*
X0212838Y0534154D02*
X0213506Y0534821D01*
X0212838Y0534154D02*
X0211504Y0534154D01*
X0212505Y0532611D02*
X0212505Y0531944D01*
X0213506Y0531944D02*
X0213506Y0533279D01*
X0213506Y0531944D02*
X0211504Y0531944D01*
X0206730Y0531928D02*
X0206730Y0533262D01*
X0206063Y0534138D02*
X0206730Y0534805D01*
X0206063Y0535472D01*
X0204729Y0535472D01*
X0204729Y0536348D02*
X0204729Y0537015D01*
X0204729Y0536681D02*
X0206730Y0536681D01*
X0206730Y0536348D02*
X0206730Y0537015D01*
X0206730Y0537821D02*
X0204729Y0537821D01*
X0204729Y0539155D01*
X0205729Y0535472D02*
X0205729Y0534138D01*
X0206063Y0534138D02*
X0204729Y0534138D01*
X0205729Y0532595D02*
X0205729Y0531928D01*
X0204729Y0531928D02*
X0206730Y0531928D01*
X0211504Y0537837D02*
X0211504Y0539172D01*
X0211504Y0537837D02*
X0213506Y0537837D01*
M02*
