%
M48
M72
T01C0.0150
T02C0.0200
T03C0.0335
T04C0.0400
T05C0.1100
T06C0.1200
T07C0.1300
%
T01
X19833Y34500
X21333Y37750
X21333Y39250
X19833Y39250
X19833Y40000
X18833Y39750
X18833Y39250
X18833Y38250
X17583Y37750
X17083Y39000
X17083Y40000
X17083Y41000
X17233Y42450
X18083Y41250
X18833Y40250
X20833Y42000
X21333Y43750
X21333Y44250
X22333Y45750
X21333Y47000
X19833Y46000
X19833Y45500
X18833Y45750
X18833Y45250
X18833Y44500
X18833Y46250
X18083Y47250
X17083Y47000
X17083Y46000
X16583Y46000
X16083Y46750
X17083Y45000
X18833Y48000
X17333Y50500
X19333Y51000
X23333Y44000
X24333Y45750
X25083Y44750
X24833Y44000
X25583Y41250
X25333Y40750
X24333Y40750
X22833Y41500
X23333Y37500
X25833Y36000
X26333Y36500
X27333Y34500
X27083Y32000
X24833Y32500
X30083Y43250
X29583Y45000
X30583Y47500
X33333Y48750
X34083Y49000
X34583Y51000
X36833Y51250
X36833Y53500
X38833Y53500
X40833Y53500
X40833Y45500
X40333Y36000
X35683Y33850
X34333Y33000
X33083Y33250
X31083Y33250
X31833Y43000
X34833Y43500
X27583Y49000
X27083Y47750
X25333Y47500
X35333Y21000
T02
X34563Y19770
X23063Y19770
T03
X22928Y52031
X22140Y52031
X22140Y52819
X22928Y52819
X23715Y52819
X23715Y52031
X24503Y52031
X25290Y52031
X25290Y52819
X24503Y52819
X26077Y52819
X26077Y52031
X26865Y52031
X27652Y52031
X27652Y52819
X26865Y52819
X28440Y52819
X28440Y52031
X29227Y52031
X30014Y52031
X30014Y52819
X29227Y52819
X30802Y52819
X30802Y52031
X31589Y52031
X32377Y52031
X32377Y52819
X31589Y52819
X33164Y52819
X33164Y52031
X33951Y52031
X34739Y52031
X34739Y52819
X33951Y52819
X35526Y52819
X35526Y52031
X36314Y52031
X36314Y52819
X37101Y52819
X37888Y52819
X37888Y52031
X37101Y52031
X38676Y52031
X38676Y52819
X39463Y52819
X39463Y52031
X40251Y51992
X40251Y52858
X21353Y52819
X21353Y52031
X20566Y52031
X19778Y52031
X19778Y52819
X20566Y52819
X18991Y52819
X18991Y52031
X18203Y52031
X18203Y52819
X17416Y52858
X17416Y51992
T04
X17833Y32500
X16833Y32500
X18833Y32500
X19833Y32500
X20833Y32500
X21833Y32500
X22833Y32500
X31133Y34500
X32133Y34500
X33133Y34500
X34133Y34500
X35133Y34500
X36133Y34500
X36083Y41500
X36083Y42500
X36083Y43500
X37083Y43500
X37083Y42500
X37083Y41500
T05
X33333Y45700
X33333Y32300
X42083Y52660
X15583Y52660
T06
X26083Y44000
X26083Y34000
X40583Y34000
X40583Y44000
T07
X15333Y12000
X38333Y43000
X42333Y12000
M30
