G75*
%MOIN*%
%OFA0B0*%
%FSLAX25Y25*%
%IPPOS*%
%LPD*%
%AMOC8*
5,1,8,0,0,1.08239X$1,22.5*
%
%ADD10C,0.00900*%
D10*
X0278413Y0088523D02*
X0278413Y0091200D01*
X0279306Y0092092D01*
X0282876Y0092092D01*
X0283768Y0091200D01*
X0283768Y0088523D01*
X0278413Y0088523D01*
X0279306Y0094278D02*
X0278413Y0095170D01*
X0278413Y0096955D01*
X0279306Y0097847D01*
X0281091Y0097847D01*
X0281983Y0096955D01*
X0281983Y0095170D01*
X0281091Y0094278D01*
X0279306Y0094278D01*
X0279306Y0100032D02*
X0278413Y0100925D01*
X0279306Y0101817D01*
X0278413Y0102710D01*
X0279306Y0103602D01*
X0281983Y0103602D01*
X0281983Y0105787D02*
X0278413Y0105787D01*
X0278413Y0109357D02*
X0281091Y0109357D01*
X0281983Y0108465D01*
X0281983Y0105787D01*
X0281091Y0111542D02*
X0281091Y0115112D01*
X0283768Y0117297D02*
X0283768Y0120867D01*
X0283768Y0119082D02*
X0278413Y0119082D01*
X0279306Y0123052D02*
X0278413Y0123944D01*
X0278413Y0125729D01*
X0279306Y0126622D01*
X0281091Y0126622D01*
X0281983Y0125729D01*
X0281983Y0123944D01*
X0281091Y0123052D01*
X0279306Y0123052D01*
X0278413Y0128807D02*
X0278413Y0131484D01*
X0279306Y0132377D01*
X0281091Y0132377D01*
X0281983Y0131484D01*
X0281983Y0128807D01*
X0276629Y0128807D01*
X0278413Y0134562D02*
X0278413Y0138132D01*
X0279306Y0140317D02*
X0280198Y0141209D01*
X0280198Y0143887D01*
X0281091Y0143887D02*
X0278413Y0143887D01*
X0278413Y0141209D01*
X0279306Y0140317D01*
X0281983Y0141209D02*
X0281983Y0142994D01*
X0281091Y0143887D01*
X0281983Y0146072D02*
X0279306Y0146072D01*
X0278413Y0146964D01*
X0278413Y0149641D01*
X0277521Y0149641D02*
X0276629Y0148749D01*
X0276629Y0147857D01*
X0277521Y0149641D02*
X0281983Y0149641D01*
X0281091Y0151827D02*
X0279306Y0151827D01*
X0278413Y0152719D01*
X0278413Y0154504D01*
X0280198Y0155396D02*
X0280198Y0151827D01*
X0281091Y0151827D02*
X0281983Y0152719D01*
X0281983Y0154504D01*
X0281091Y0155396D01*
X0280198Y0155396D01*
X0280198Y0157582D02*
X0281983Y0159366D01*
X0281983Y0160259D01*
X0281983Y0157582D02*
X0278413Y0157582D01*
X0278413Y0134562D02*
X0283768Y0134562D01*
X0281983Y0100032D02*
X0279306Y0100032D01*
M02*
