G75*
%MOIN*%
%OFA0B0*%
%FSLAX25Y25*%
%IPPOS*%
%LPD*%
%AMOC8*
5,1,8,0,0,1.08239X$1,22.5*
%
%ADD10C,0.00900*%
D10*
X0278409Y0094278D02*
X0282871Y0094278D01*
X0283763Y0095170D01*
X0283763Y0096955D01*
X0282871Y0097847D01*
X0278409Y0097847D01*
X0280194Y0100032D02*
X0280194Y0102710D01*
X0281086Y0103602D01*
X0282871Y0103602D01*
X0283763Y0102710D01*
X0283763Y0100032D01*
X0285548Y0100032D02*
X0280194Y0100032D01*
X0281086Y0105787D02*
X0281086Y0109357D01*
X0278409Y0111542D02*
X0278409Y0115112D01*
X0278409Y0113327D02*
X0283763Y0113327D01*
X0282871Y0117297D02*
X0283763Y0118190D01*
X0283763Y0119974D01*
X0282871Y0120867D01*
X0281086Y0120867D01*
X0280194Y0119974D01*
X0280194Y0118190D01*
X0281086Y0117297D01*
X0282871Y0117297D01*
X0283763Y0123052D02*
X0283763Y0125729D01*
X0282871Y0126622D01*
X0281086Y0126622D01*
X0280194Y0125729D01*
X0280194Y0123052D01*
X0285548Y0123052D01*
X0283763Y0128807D02*
X0278409Y0128807D01*
X0283763Y0128807D02*
X0283763Y0132377D01*
X0282871Y0134562D02*
X0281979Y0135454D01*
X0281979Y0138132D01*
X0281086Y0138132D02*
X0283763Y0138132D01*
X0283763Y0135454D01*
X0282871Y0134562D01*
X0280194Y0135454D02*
X0280194Y0137239D01*
X0281086Y0138132D01*
X0280194Y0140317D02*
X0282871Y0140317D01*
X0283763Y0141209D01*
X0283763Y0143887D01*
X0284656Y0143887D02*
X0285548Y0142994D01*
X0285548Y0142102D01*
X0284656Y0143887D02*
X0280194Y0143887D01*
X0281086Y0146072D02*
X0280194Y0146964D01*
X0280194Y0148749D01*
X0281086Y0149641D01*
X0281979Y0149641D01*
X0281979Y0146072D01*
X0282871Y0146072D02*
X0281086Y0146072D01*
X0282871Y0146072D02*
X0283763Y0146964D01*
X0283763Y0148749D01*
X0283763Y0151827D02*
X0280194Y0151827D01*
X0280194Y0153611D02*
X0280194Y0154504D01*
X0280194Y0153611D02*
X0281979Y0151827D01*
M02*
