G75*
%MOIN*%
%OFA0B0*%
%FSLAX25Y25*%
%IPPOS*%
%LPD*%
%AMOC8*
5,1,8,0,0,1.08239X$1,22.5*
%
%ADD10R,0.07874X0.04724*%
%ADD11R,0.05315X0.02362*%
%ADD12R,0.04331X0.03937*%
%ADD13R,0.03937X0.04331*%
%ADD14R,0.02362X0.04724*%
%ADD15C,0.01181*%
D10*
X0034281Y0067726D03*
X0034281Y0089774D03*
X0034281Y0169726D03*
X0034281Y0191774D03*
X0034281Y0271726D03*
X0034281Y0293774D03*
X0034281Y0373726D03*
X0034281Y0395774D03*
X0034281Y0475726D03*
X0034281Y0497774D03*
X0034281Y0577726D03*
X0034281Y0599774D03*
X0034281Y0679726D03*
X0034281Y0701774D03*
X0143219Y0701774D03*
X0156281Y0701774D03*
X0156281Y0679726D03*
X0143219Y0679726D03*
X0143219Y0599774D03*
X0156281Y0599774D03*
X0156281Y0577726D03*
X0143219Y0577726D03*
X0143219Y0497774D03*
X0156281Y0497774D03*
X0156281Y0475726D03*
X0143219Y0475726D03*
X0143219Y0395774D03*
X0143219Y0373726D03*
X0156281Y0373726D03*
X0156281Y0395774D03*
X0156281Y0293774D03*
X0143219Y0293774D03*
X0143219Y0271726D03*
X0156281Y0271726D03*
X0156281Y0191774D03*
X0143219Y0191774D03*
X0143219Y0169726D03*
X0156281Y0169726D03*
X0156281Y0089774D03*
X0143219Y0089774D03*
X0143219Y0067726D03*
X0156281Y0067726D03*
X0265219Y0067726D03*
X0265219Y0089774D03*
X0265219Y0169726D03*
X0265219Y0191774D03*
X0265219Y0271726D03*
X0265219Y0293774D03*
X0265219Y0373726D03*
X0265219Y0395774D03*
X0265219Y0475726D03*
X0265219Y0497774D03*
X0265219Y0577726D03*
X0265219Y0599774D03*
X0265219Y0679726D03*
X0265219Y0701774D03*
D11*
X0250750Y0696656D03*
X0250750Y0692719D03*
X0250750Y0688781D03*
X0250750Y0684844D03*
X0250750Y0594656D03*
X0250750Y0590719D03*
X0250750Y0586781D03*
X0250750Y0582844D03*
X0250750Y0492656D03*
X0250750Y0488719D03*
X0250750Y0484781D03*
X0250750Y0480844D03*
X0250750Y0390656D03*
X0250750Y0386719D03*
X0250750Y0382781D03*
X0250750Y0378844D03*
X0250750Y0288656D03*
X0250750Y0284719D03*
X0250750Y0280781D03*
X0250750Y0276844D03*
X0250750Y0186656D03*
X0250750Y0182719D03*
X0250750Y0178781D03*
X0250750Y0174844D03*
X0250750Y0084656D03*
X0250750Y0080719D03*
X0250750Y0076781D03*
X0250750Y0072844D03*
X0170750Y0072844D03*
X0170750Y0076781D03*
X0170750Y0080719D03*
X0170750Y0084656D03*
X0128750Y0084656D03*
X0128750Y0080719D03*
X0128750Y0076781D03*
X0128750Y0072844D03*
X0128750Y0174844D03*
X0128750Y0178781D03*
X0128750Y0182719D03*
X0128750Y0186656D03*
X0170750Y0186656D03*
X0170750Y0182719D03*
X0170750Y0178781D03*
X0170750Y0174844D03*
X0170750Y0276844D03*
X0170750Y0280781D03*
X0170750Y0284719D03*
X0170750Y0288656D03*
X0128750Y0288656D03*
X0128750Y0284719D03*
X0128750Y0280781D03*
X0128750Y0276844D03*
X0128750Y0378844D03*
X0128750Y0382781D03*
X0128750Y0386719D03*
X0128750Y0390656D03*
X0170750Y0390656D03*
X0170750Y0386719D03*
X0170750Y0382781D03*
X0170750Y0378844D03*
X0170750Y0480844D03*
X0170750Y0484781D03*
X0170750Y0488719D03*
X0170750Y0492656D03*
X0128750Y0492656D03*
X0128750Y0488719D03*
X0128750Y0484781D03*
X0128750Y0480844D03*
X0128750Y0582844D03*
X0128750Y0586781D03*
X0128750Y0590719D03*
X0128750Y0594656D03*
X0170750Y0594656D03*
X0170750Y0590719D03*
X0170750Y0586781D03*
X0170750Y0582844D03*
X0170750Y0684844D03*
X0170750Y0688781D03*
X0170750Y0692719D03*
X0170750Y0696656D03*
X0128750Y0696656D03*
X0128750Y0692719D03*
X0128750Y0688781D03*
X0128750Y0684844D03*
X0048750Y0684844D03*
X0048750Y0688781D03*
X0048750Y0692719D03*
X0048750Y0696656D03*
X0048750Y0594656D03*
X0048750Y0590719D03*
X0048750Y0586781D03*
X0048750Y0582844D03*
X0048750Y0492656D03*
X0048750Y0488719D03*
X0048750Y0484781D03*
X0048750Y0480844D03*
X0048750Y0390656D03*
X0048750Y0386719D03*
X0048750Y0382781D03*
X0048750Y0378844D03*
X0048750Y0288656D03*
X0048750Y0284719D03*
X0048750Y0280781D03*
X0048750Y0276844D03*
X0048750Y0186656D03*
X0048750Y0182719D03*
X0048750Y0178781D03*
X0048750Y0174844D03*
X0048750Y0084656D03*
X0048750Y0080719D03*
X0048750Y0076781D03*
X0048750Y0072844D03*
D12*
X0070404Y0056250D03*
X0077096Y0056250D03*
X0100404Y0056250D03*
X0107096Y0056250D03*
X0119404Y0053750D03*
X0119404Y0047750D03*
X0126096Y0047750D03*
X0126096Y0053750D03*
X0126096Y0059750D03*
X0119404Y0059750D03*
X0134904Y0059750D03*
X0141596Y0059750D03*
X0126096Y0097750D03*
X0126096Y0103750D03*
X0126096Y0109750D03*
X0119404Y0109750D03*
X0119404Y0103750D03*
X0119404Y0097750D03*
X0107096Y0101250D03*
X0100404Y0101250D03*
X0077096Y0101250D03*
X0070404Y0101250D03*
X0070404Y0158250D03*
X0077096Y0158250D03*
X0100404Y0158250D03*
X0107096Y0158250D03*
X0119404Y0155750D03*
X0119404Y0161750D03*
X0119404Y0149750D03*
X0126096Y0149750D03*
X0126096Y0155750D03*
X0126096Y0161750D03*
X0134904Y0161750D03*
X0141596Y0161750D03*
X0126096Y0199750D03*
X0126096Y0205750D03*
X0126096Y0211750D03*
X0119404Y0211750D03*
X0119404Y0205750D03*
X0119404Y0199750D03*
X0107096Y0203250D03*
X0100404Y0203250D03*
X0077096Y0203250D03*
X0070404Y0203250D03*
X0070404Y0260250D03*
X0077096Y0260250D03*
X0077096Y0305250D03*
X0070404Y0305250D03*
X0070404Y0362250D03*
X0077096Y0362250D03*
X0100404Y0362250D03*
X0107096Y0362250D03*
X0119404Y0359750D03*
X0119404Y0353750D03*
X0126096Y0353750D03*
X0126096Y0359750D03*
X0126096Y0365750D03*
X0119404Y0365750D03*
X0119404Y0403750D03*
X0119404Y0409750D03*
X0119404Y0415750D03*
X0126096Y0415750D03*
X0126096Y0409750D03*
X0126096Y0403750D03*
X0134904Y0365750D03*
X0141596Y0365750D03*
X0126096Y0313750D03*
X0126096Y0307750D03*
X0126096Y0301750D03*
X0119404Y0301750D03*
X0119404Y0307750D03*
X0119404Y0313750D03*
X0107096Y0305250D03*
X0100404Y0305250D03*
X0100404Y0260250D03*
X0107096Y0260250D03*
X0119404Y0257750D03*
X0119404Y0251750D03*
X0119404Y0263750D03*
X0126096Y0263750D03*
X0126096Y0257750D03*
X0126096Y0251750D03*
X0134904Y0263750D03*
X0141596Y0263750D03*
X0192404Y0260250D03*
X0199096Y0260250D03*
X0199096Y0305250D03*
X0192404Y0305250D03*
X0192404Y0362250D03*
X0199096Y0362250D03*
X0222404Y0362250D03*
X0229096Y0362250D03*
X0241404Y0359750D03*
X0241404Y0353750D03*
X0248096Y0353750D03*
X0248096Y0359750D03*
X0248096Y0365750D03*
X0241404Y0365750D03*
X0256904Y0365750D03*
X0263596Y0365750D03*
X0248096Y0403750D03*
X0248096Y0409750D03*
X0248096Y0415750D03*
X0241404Y0415750D03*
X0241404Y0409750D03*
X0241404Y0403750D03*
X0229096Y0407250D03*
X0222404Y0407250D03*
X0199096Y0407250D03*
X0192404Y0407250D03*
X0192404Y0464250D03*
X0199096Y0464250D03*
X0199096Y0509250D03*
X0192404Y0509250D03*
X0192404Y0566250D03*
X0199096Y0566250D03*
X0222404Y0566250D03*
X0229096Y0566250D03*
X0241404Y0563750D03*
X0241404Y0557750D03*
X0248096Y0557750D03*
X0248096Y0563750D03*
X0248096Y0569750D03*
X0241404Y0569750D03*
X0256904Y0569750D03*
X0263596Y0569750D03*
X0248096Y0607750D03*
X0248096Y0613750D03*
X0248096Y0619750D03*
X0241404Y0619750D03*
X0241404Y0613750D03*
X0241404Y0607750D03*
X0229096Y0611250D03*
X0222404Y0611250D03*
X0199096Y0611250D03*
X0192404Y0611250D03*
X0192404Y0668250D03*
X0199096Y0668250D03*
X0222404Y0668250D03*
X0229096Y0668250D03*
X0241404Y0665750D03*
X0241404Y0659750D03*
X0248096Y0659750D03*
X0248096Y0665750D03*
X0248096Y0671750D03*
X0241404Y0671750D03*
X0256904Y0671750D03*
X0263596Y0671750D03*
X0248096Y0709750D03*
X0248096Y0715750D03*
X0248096Y0721750D03*
X0241404Y0721750D03*
X0241404Y0715750D03*
X0241404Y0709750D03*
X0229096Y0713250D03*
X0222404Y0713250D03*
X0199096Y0713250D03*
X0192404Y0713250D03*
X0141596Y0671750D03*
X0134904Y0671750D03*
X0126096Y0671750D03*
X0126096Y0665750D03*
X0126096Y0659750D03*
X0119404Y0659750D03*
X0119404Y0665750D03*
X0119404Y0671750D03*
X0107096Y0668250D03*
X0100404Y0668250D03*
X0119404Y0709750D03*
X0119404Y0715750D03*
X0119404Y0721750D03*
X0126096Y0721750D03*
X0126096Y0715750D03*
X0126096Y0709750D03*
X0107096Y0713250D03*
X0100404Y0713250D03*
X0077096Y0713250D03*
X0070404Y0713250D03*
X0070404Y0668250D03*
X0077096Y0668250D03*
X0077096Y0611250D03*
X0070404Y0611250D03*
X0070404Y0566250D03*
X0077096Y0566250D03*
X0100404Y0566250D03*
X0107096Y0566250D03*
X0119404Y0563750D03*
X0119404Y0557750D03*
X0126096Y0557750D03*
X0126096Y0563750D03*
X0126096Y0569750D03*
X0119404Y0569750D03*
X0134904Y0569750D03*
X0141596Y0569750D03*
X0126096Y0607750D03*
X0126096Y0613750D03*
X0126096Y0619750D03*
X0119404Y0619750D03*
X0119404Y0613750D03*
X0119404Y0607750D03*
X0107096Y0611250D03*
X0100404Y0611250D03*
X0119404Y0517750D03*
X0119404Y0511750D03*
X0119404Y0505750D03*
X0126096Y0505750D03*
X0126096Y0511750D03*
X0126096Y0517750D03*
X0107096Y0509250D03*
X0100404Y0509250D03*
X0100404Y0464250D03*
X0107096Y0464250D03*
X0119404Y0461750D03*
X0119404Y0467750D03*
X0119404Y0455750D03*
X0126096Y0455750D03*
X0126096Y0461750D03*
X0126096Y0467750D03*
X0134904Y0467750D03*
X0141596Y0467750D03*
X0107096Y0407250D03*
X0100404Y0407250D03*
X0077096Y0407250D03*
X0070404Y0407250D03*
X0070404Y0464250D03*
X0077096Y0464250D03*
X0077096Y0509250D03*
X0070404Y0509250D03*
X0192404Y0203250D03*
X0199096Y0203250D03*
X0222404Y0203250D03*
X0229096Y0203250D03*
X0241404Y0205750D03*
X0241404Y0199750D03*
X0248096Y0199750D03*
X0248096Y0205750D03*
X0248096Y0211750D03*
X0241404Y0211750D03*
X0241404Y0251750D03*
X0241404Y0257750D03*
X0241404Y0263750D03*
X0248096Y0263750D03*
X0248096Y0257750D03*
X0248096Y0251750D03*
X0256904Y0263750D03*
X0263596Y0263750D03*
X0248096Y0301750D03*
X0248096Y0307750D03*
X0248096Y0313750D03*
X0241404Y0313750D03*
X0241404Y0307750D03*
X0241404Y0301750D03*
X0229096Y0305250D03*
X0222404Y0305250D03*
X0222404Y0260250D03*
X0229096Y0260250D03*
X0241404Y0161750D03*
X0241404Y0155750D03*
X0241404Y0149750D03*
X0248096Y0149750D03*
X0248096Y0155750D03*
X0248096Y0161750D03*
X0256904Y0161750D03*
X0263596Y0161750D03*
X0248096Y0109750D03*
X0248096Y0103750D03*
X0248096Y0097750D03*
X0241404Y0097750D03*
X0241404Y0103750D03*
X0241404Y0109750D03*
X0229096Y0101250D03*
X0222404Y0101250D03*
X0241404Y0059750D03*
X0241404Y0053750D03*
X0241404Y0047750D03*
X0248096Y0047750D03*
X0248096Y0053750D03*
X0248096Y0059750D03*
X0256904Y0059750D03*
X0263596Y0059750D03*
X0229096Y0056250D03*
X0222404Y0056250D03*
X0199096Y0056250D03*
X0192404Y0056250D03*
X0192404Y0101250D03*
X0199096Y0101250D03*
X0199096Y0158250D03*
X0192404Y0158250D03*
X0222404Y0158250D03*
X0229096Y0158250D03*
X0241404Y0455750D03*
X0241404Y0461750D03*
X0241404Y0467750D03*
X0248096Y0467750D03*
X0248096Y0461750D03*
X0248096Y0455750D03*
X0256904Y0467750D03*
X0263596Y0467750D03*
X0248096Y0505750D03*
X0248096Y0511750D03*
X0248096Y0517750D03*
X0241404Y0517750D03*
X0241404Y0511750D03*
X0241404Y0505750D03*
X0229096Y0509250D03*
X0222404Y0509250D03*
X0222404Y0464250D03*
X0229096Y0464250D03*
D13*
X0036250Y0053904D03*
X0036250Y0060596D03*
X0042250Y0060596D03*
X0042250Y0053904D03*
X0052750Y0047096D03*
X0058250Y0047096D03*
X0058250Y0040404D03*
X0052750Y0040404D03*
X0042250Y0096904D03*
X0042250Y0103596D03*
X0036250Y0103596D03*
X0036250Y0096904D03*
X0052750Y0142404D03*
X0058250Y0142404D03*
X0058250Y0149096D03*
X0052750Y0149096D03*
X0042250Y0155904D03*
X0042250Y0162596D03*
X0036250Y0162596D03*
X0036250Y0155904D03*
X0036250Y0198904D03*
X0036250Y0205596D03*
X0042250Y0205596D03*
X0042250Y0198904D03*
X0052750Y0244404D03*
X0058250Y0244404D03*
X0058250Y0251096D03*
X0052750Y0251096D03*
X0042250Y0257904D03*
X0042250Y0264596D03*
X0036250Y0264596D03*
X0036250Y0257904D03*
X0036250Y0300904D03*
X0036250Y0307596D03*
X0042250Y0307596D03*
X0042250Y0300904D03*
X0052750Y0346404D03*
X0058250Y0346404D03*
X0058250Y0353096D03*
X0052750Y0353096D03*
X0042250Y0359904D03*
X0042250Y0366596D03*
X0036250Y0366596D03*
X0036250Y0359904D03*
X0036250Y0402904D03*
X0036250Y0409596D03*
X0042250Y0409596D03*
X0042250Y0402904D03*
X0052750Y0448404D03*
X0058250Y0448404D03*
X0058250Y0455096D03*
X0052750Y0455096D03*
X0042250Y0461904D03*
X0042250Y0468596D03*
X0036250Y0468596D03*
X0036250Y0461904D03*
X0036250Y0504904D03*
X0036250Y0511596D03*
X0042250Y0511596D03*
X0042250Y0504904D03*
X0052750Y0550404D03*
X0058250Y0550404D03*
X0058250Y0557096D03*
X0052750Y0557096D03*
X0042250Y0563904D03*
X0042250Y0570596D03*
X0036250Y0570596D03*
X0036250Y0563904D03*
X0036250Y0606904D03*
X0036250Y0613596D03*
X0042250Y0613596D03*
X0042250Y0606904D03*
X0052750Y0652404D03*
X0058250Y0652404D03*
X0058250Y0659096D03*
X0052750Y0659096D03*
X0042250Y0665904D03*
X0042250Y0672596D03*
X0036250Y0672596D03*
X0036250Y0665904D03*
X0036250Y0708904D03*
X0036250Y0715596D03*
X0042250Y0715596D03*
X0042250Y0708904D03*
X0158250Y0708904D03*
X0164250Y0708904D03*
X0164250Y0715596D03*
X0158250Y0715596D03*
X0158250Y0672596D03*
X0164250Y0672596D03*
X0164250Y0665904D03*
X0158250Y0665904D03*
X0174750Y0659096D03*
X0174750Y0652404D03*
X0180250Y0652404D03*
X0180250Y0659096D03*
X0164250Y0613596D03*
X0158250Y0613596D03*
X0158250Y0606904D03*
X0164250Y0606904D03*
X0164250Y0570596D03*
X0158250Y0570596D03*
X0158250Y0563904D03*
X0164250Y0563904D03*
X0174750Y0557096D03*
X0174750Y0550404D03*
X0180250Y0550404D03*
X0180250Y0557096D03*
X0164250Y0511596D03*
X0158250Y0511596D03*
X0158250Y0504904D03*
X0164250Y0504904D03*
X0164250Y0468596D03*
X0158250Y0468596D03*
X0158250Y0461904D03*
X0164250Y0461904D03*
X0174750Y0455096D03*
X0174750Y0448404D03*
X0180250Y0448404D03*
X0180250Y0455096D03*
X0164250Y0409596D03*
X0158250Y0409596D03*
X0158250Y0402904D03*
X0164250Y0402904D03*
X0164250Y0366596D03*
X0158250Y0366596D03*
X0158250Y0359904D03*
X0164250Y0359904D03*
X0174750Y0353096D03*
X0174750Y0346404D03*
X0180250Y0346404D03*
X0180250Y0353096D03*
X0164250Y0307596D03*
X0158250Y0307596D03*
X0158250Y0300904D03*
X0164250Y0300904D03*
X0164250Y0264596D03*
X0158250Y0264596D03*
X0158250Y0257904D03*
X0164250Y0257904D03*
X0174750Y0251096D03*
X0174750Y0244404D03*
X0180250Y0244404D03*
X0180250Y0251096D03*
X0164250Y0205596D03*
X0158250Y0205596D03*
X0158250Y0198904D03*
X0164250Y0198904D03*
X0164250Y0162596D03*
X0158250Y0162596D03*
X0158250Y0155904D03*
X0164250Y0155904D03*
X0174750Y0149096D03*
X0174750Y0142404D03*
X0180250Y0142404D03*
X0180250Y0149096D03*
X0164250Y0103596D03*
X0158250Y0103596D03*
X0158250Y0096904D03*
X0164250Y0096904D03*
X0164250Y0060596D03*
X0158250Y0060596D03*
X0158250Y0053904D03*
X0164250Y0053904D03*
X0174750Y0047096D03*
X0174750Y0040404D03*
X0180250Y0040404D03*
X0180250Y0047096D03*
D14*
X0195750Y0067726D03*
X0200750Y0067726D03*
X0205750Y0067726D03*
X0210750Y0067726D03*
X0215750Y0067726D03*
X0220750Y0067726D03*
X0225750Y0067726D03*
X0225750Y0089774D03*
X0220750Y0089774D03*
X0215750Y0089774D03*
X0210750Y0089774D03*
X0205750Y0089774D03*
X0200750Y0089774D03*
X0195750Y0089774D03*
X0195750Y0169726D03*
X0200750Y0169726D03*
X0205750Y0169726D03*
X0210750Y0169726D03*
X0215750Y0169726D03*
X0220750Y0169726D03*
X0225750Y0169726D03*
X0225750Y0191774D03*
X0220750Y0191774D03*
X0215750Y0191774D03*
X0210750Y0191774D03*
X0205750Y0191774D03*
X0200750Y0191774D03*
X0195750Y0191774D03*
X0195750Y0271726D03*
X0200750Y0271726D03*
X0205750Y0271726D03*
X0210750Y0271726D03*
X0215750Y0271726D03*
X0220750Y0271726D03*
X0225750Y0271726D03*
X0225750Y0293774D03*
X0220750Y0293774D03*
X0215750Y0293774D03*
X0210750Y0293774D03*
X0205750Y0293774D03*
X0200750Y0293774D03*
X0195750Y0293774D03*
X0195750Y0373726D03*
X0200750Y0373726D03*
X0205750Y0373726D03*
X0210750Y0373726D03*
X0215750Y0373726D03*
X0220750Y0373726D03*
X0225750Y0373726D03*
X0225750Y0395774D03*
X0220750Y0395774D03*
X0215750Y0395774D03*
X0210750Y0395774D03*
X0205750Y0395774D03*
X0200750Y0395774D03*
X0195750Y0395774D03*
X0195750Y0475726D03*
X0200750Y0475726D03*
X0205750Y0475726D03*
X0210750Y0475726D03*
X0215750Y0475726D03*
X0220750Y0475726D03*
X0225750Y0475726D03*
X0225750Y0497774D03*
X0220750Y0497774D03*
X0215750Y0497774D03*
X0210750Y0497774D03*
X0205750Y0497774D03*
X0200750Y0497774D03*
X0195750Y0497774D03*
X0195750Y0577726D03*
X0200750Y0577726D03*
X0205750Y0577726D03*
X0210750Y0577726D03*
X0215750Y0577726D03*
X0220750Y0577726D03*
X0225750Y0577726D03*
X0225750Y0599774D03*
X0220750Y0599774D03*
X0215750Y0599774D03*
X0210750Y0599774D03*
X0205750Y0599774D03*
X0200750Y0599774D03*
X0195750Y0599774D03*
X0195750Y0679726D03*
X0200750Y0679726D03*
X0205750Y0679726D03*
X0210750Y0679726D03*
X0215750Y0679726D03*
X0220750Y0679726D03*
X0225750Y0679726D03*
X0225750Y0701774D03*
X0220750Y0701774D03*
X0215750Y0701774D03*
X0210750Y0701774D03*
X0205750Y0701774D03*
X0200750Y0701774D03*
X0195750Y0701774D03*
X0103750Y0701774D03*
X0098750Y0701774D03*
X0093750Y0701774D03*
X0088750Y0701774D03*
X0083750Y0701774D03*
X0078750Y0701774D03*
X0073750Y0701774D03*
X0073750Y0679726D03*
X0078750Y0679726D03*
X0083750Y0679726D03*
X0088750Y0679726D03*
X0093750Y0679726D03*
X0098750Y0679726D03*
X0103750Y0679726D03*
X0103750Y0599774D03*
X0098750Y0599774D03*
X0093750Y0599774D03*
X0088750Y0599774D03*
X0083750Y0599774D03*
X0078750Y0599774D03*
X0073750Y0599774D03*
X0073750Y0577726D03*
X0078750Y0577726D03*
X0083750Y0577726D03*
X0088750Y0577726D03*
X0093750Y0577726D03*
X0098750Y0577726D03*
X0103750Y0577726D03*
X0103750Y0497774D03*
X0098750Y0497774D03*
X0093750Y0497774D03*
X0088750Y0497774D03*
X0083750Y0497774D03*
X0078750Y0497774D03*
X0073750Y0497774D03*
X0073750Y0475726D03*
X0078750Y0475726D03*
X0083750Y0475726D03*
X0088750Y0475726D03*
X0093750Y0475726D03*
X0098750Y0475726D03*
X0103750Y0475726D03*
X0103750Y0395774D03*
X0098750Y0395774D03*
X0093750Y0395774D03*
X0088750Y0395774D03*
X0083750Y0395774D03*
X0078750Y0395774D03*
X0073750Y0395774D03*
X0073750Y0373726D03*
X0078750Y0373726D03*
X0083750Y0373726D03*
X0088750Y0373726D03*
X0093750Y0373726D03*
X0098750Y0373726D03*
X0103750Y0373726D03*
X0103750Y0293774D03*
X0098750Y0293774D03*
X0093750Y0293774D03*
X0088750Y0293774D03*
X0083750Y0293774D03*
X0078750Y0293774D03*
X0073750Y0293774D03*
X0073750Y0271726D03*
X0078750Y0271726D03*
X0083750Y0271726D03*
X0088750Y0271726D03*
X0093750Y0271726D03*
X0098750Y0271726D03*
X0103750Y0271726D03*
X0103750Y0191774D03*
X0098750Y0191774D03*
X0093750Y0191774D03*
X0088750Y0191774D03*
X0083750Y0191774D03*
X0078750Y0191774D03*
X0073750Y0191774D03*
X0073750Y0169726D03*
X0078750Y0169726D03*
X0083750Y0169726D03*
X0088750Y0169726D03*
X0093750Y0169726D03*
X0098750Y0169726D03*
X0103750Y0169726D03*
X0103750Y0089774D03*
X0098750Y0089774D03*
X0093750Y0089774D03*
X0088750Y0089774D03*
X0083750Y0089774D03*
X0078750Y0089774D03*
X0073750Y0089774D03*
X0073750Y0067726D03*
X0078750Y0067726D03*
X0083750Y0067726D03*
X0088750Y0067726D03*
X0093750Y0067726D03*
X0098750Y0067726D03*
X0103750Y0067726D03*
D15*
X0136675Y0055128D02*
X0136675Y0052372D01*
X0133919Y0052372D01*
X0133919Y0055128D01*
X0136675Y0055128D01*
X0136675Y0053494D02*
X0133919Y0053494D01*
X0133919Y0054616D02*
X0136675Y0054616D01*
X0143581Y0055128D02*
X0143581Y0052372D01*
X0140825Y0052372D01*
X0140825Y0055128D01*
X0143581Y0055128D01*
X0143581Y0053494D02*
X0140825Y0053494D01*
X0140825Y0054616D02*
X0143581Y0054616D01*
X0143581Y0154372D02*
X0143581Y0157128D01*
X0143581Y0154372D02*
X0140825Y0154372D01*
X0140825Y0157128D01*
X0143581Y0157128D01*
X0143581Y0155494D02*
X0140825Y0155494D01*
X0140825Y0156616D02*
X0143581Y0156616D01*
X0136675Y0157128D02*
X0136675Y0154372D01*
X0133919Y0154372D01*
X0133919Y0157128D01*
X0136675Y0157128D01*
X0136675Y0155494D02*
X0133919Y0155494D01*
X0133919Y0156616D02*
X0136675Y0156616D01*
X0136675Y0256372D02*
X0136675Y0259128D01*
X0136675Y0256372D02*
X0133919Y0256372D01*
X0133919Y0259128D01*
X0136675Y0259128D01*
X0136675Y0257494D02*
X0133919Y0257494D01*
X0133919Y0258616D02*
X0136675Y0258616D01*
X0143581Y0259128D02*
X0143581Y0256372D01*
X0140825Y0256372D01*
X0140825Y0259128D01*
X0143581Y0259128D01*
X0143581Y0257494D02*
X0140825Y0257494D01*
X0140825Y0258616D02*
X0143581Y0258616D01*
X0143581Y0358372D02*
X0143581Y0361128D01*
X0143581Y0358372D02*
X0140825Y0358372D01*
X0140825Y0361128D01*
X0143581Y0361128D01*
X0143581Y0359494D02*
X0140825Y0359494D01*
X0140825Y0360616D02*
X0143581Y0360616D01*
X0136675Y0361128D02*
X0136675Y0358372D01*
X0133919Y0358372D01*
X0133919Y0361128D01*
X0136675Y0361128D01*
X0136675Y0359494D02*
X0133919Y0359494D01*
X0133919Y0360616D02*
X0136675Y0360616D01*
X0136675Y0460372D02*
X0136675Y0463128D01*
X0136675Y0460372D02*
X0133919Y0460372D01*
X0133919Y0463128D01*
X0136675Y0463128D01*
X0136675Y0461494D02*
X0133919Y0461494D01*
X0133919Y0462616D02*
X0136675Y0462616D01*
X0143581Y0463128D02*
X0143581Y0460372D01*
X0140825Y0460372D01*
X0140825Y0463128D01*
X0143581Y0463128D01*
X0143581Y0461494D02*
X0140825Y0461494D01*
X0140825Y0462616D02*
X0143581Y0462616D01*
X0143581Y0562372D02*
X0143581Y0565128D01*
X0143581Y0562372D02*
X0140825Y0562372D01*
X0140825Y0565128D01*
X0143581Y0565128D01*
X0143581Y0563494D02*
X0140825Y0563494D01*
X0140825Y0564616D02*
X0143581Y0564616D01*
X0136675Y0565128D02*
X0136675Y0562372D01*
X0133919Y0562372D01*
X0133919Y0565128D01*
X0136675Y0565128D01*
X0136675Y0563494D02*
X0133919Y0563494D01*
X0133919Y0564616D02*
X0136675Y0564616D01*
X0136675Y0664372D02*
X0136675Y0667128D01*
X0136675Y0664372D02*
X0133919Y0664372D01*
X0133919Y0667128D01*
X0136675Y0667128D01*
X0136675Y0665494D02*
X0133919Y0665494D01*
X0133919Y0666616D02*
X0136675Y0666616D01*
X0143581Y0667128D02*
X0143581Y0664372D01*
X0140825Y0664372D01*
X0140825Y0667128D01*
X0143581Y0667128D01*
X0143581Y0665494D02*
X0140825Y0665494D01*
X0140825Y0666616D02*
X0143581Y0666616D01*
X0258675Y0667128D02*
X0258675Y0664372D01*
X0255919Y0664372D01*
X0255919Y0667128D01*
X0258675Y0667128D01*
X0258675Y0665494D02*
X0255919Y0665494D01*
X0255919Y0666616D02*
X0258675Y0666616D01*
X0265581Y0667128D02*
X0265581Y0664372D01*
X0262825Y0664372D01*
X0262825Y0667128D01*
X0265581Y0667128D01*
X0265581Y0665494D02*
X0262825Y0665494D01*
X0262825Y0666616D02*
X0265581Y0666616D01*
X0265581Y0565128D02*
X0265581Y0562372D01*
X0262825Y0562372D01*
X0262825Y0565128D01*
X0265581Y0565128D01*
X0265581Y0563494D02*
X0262825Y0563494D01*
X0262825Y0564616D02*
X0265581Y0564616D01*
X0258675Y0565128D02*
X0258675Y0562372D01*
X0255919Y0562372D01*
X0255919Y0565128D01*
X0258675Y0565128D01*
X0258675Y0563494D02*
X0255919Y0563494D01*
X0255919Y0564616D02*
X0258675Y0564616D01*
X0258675Y0463128D02*
X0258675Y0460372D01*
X0255919Y0460372D01*
X0255919Y0463128D01*
X0258675Y0463128D01*
X0258675Y0461494D02*
X0255919Y0461494D01*
X0255919Y0462616D02*
X0258675Y0462616D01*
X0265581Y0463128D02*
X0265581Y0460372D01*
X0262825Y0460372D01*
X0262825Y0463128D01*
X0265581Y0463128D01*
X0265581Y0461494D02*
X0262825Y0461494D01*
X0262825Y0462616D02*
X0265581Y0462616D01*
X0265581Y0361128D02*
X0265581Y0358372D01*
X0262825Y0358372D01*
X0262825Y0361128D01*
X0265581Y0361128D01*
X0265581Y0359494D02*
X0262825Y0359494D01*
X0262825Y0360616D02*
X0265581Y0360616D01*
X0258675Y0361128D02*
X0258675Y0358372D01*
X0255919Y0358372D01*
X0255919Y0361128D01*
X0258675Y0361128D01*
X0258675Y0359494D02*
X0255919Y0359494D01*
X0255919Y0360616D02*
X0258675Y0360616D01*
X0258675Y0259128D02*
X0258675Y0256372D01*
X0255919Y0256372D01*
X0255919Y0259128D01*
X0258675Y0259128D01*
X0258675Y0257494D02*
X0255919Y0257494D01*
X0255919Y0258616D02*
X0258675Y0258616D01*
X0265581Y0259128D02*
X0265581Y0256372D01*
X0262825Y0256372D01*
X0262825Y0259128D01*
X0265581Y0259128D01*
X0265581Y0257494D02*
X0262825Y0257494D01*
X0262825Y0258616D02*
X0265581Y0258616D01*
X0265581Y0157128D02*
X0265581Y0154372D01*
X0262825Y0154372D01*
X0262825Y0157128D01*
X0265581Y0157128D01*
X0265581Y0155494D02*
X0262825Y0155494D01*
X0262825Y0156616D02*
X0265581Y0156616D01*
X0258675Y0157128D02*
X0258675Y0154372D01*
X0255919Y0154372D01*
X0255919Y0157128D01*
X0258675Y0157128D01*
X0258675Y0155494D02*
X0255919Y0155494D01*
X0255919Y0156616D02*
X0258675Y0156616D01*
X0258675Y0055128D02*
X0258675Y0052372D01*
X0255919Y0052372D01*
X0255919Y0055128D01*
X0258675Y0055128D01*
X0258675Y0053494D02*
X0255919Y0053494D01*
X0255919Y0054616D02*
X0258675Y0054616D01*
X0265581Y0055128D02*
X0265581Y0052372D01*
X0262825Y0052372D01*
X0262825Y0055128D01*
X0265581Y0055128D01*
X0265581Y0053494D02*
X0262825Y0053494D01*
X0262825Y0054616D02*
X0265581Y0054616D01*
M02*
