%
M48
M72
T01C0.0120
T02C0.0200
T03C0.0400
T04C0.0433
T05C0.0827
T06C0.1300
%
T01
X3175Y5375
X3875Y7375
X3875Y7875
X4225Y8475
X5375Y7675
X5375Y7355
X6610Y7360
X7375Y8375
X7875Y8155
X8875Y7575
X9675Y9625
X10025Y10625
X11175Y8595
X10375Y7875
X10875Y6875
X12125Y4375
X12575Y4325
X13075Y6375
X12525Y6675
X13575Y8375
X14375Y7375
X15375Y5375
X16075Y7375
X16075Y7875
X16425Y8475
X16925Y10675
X18225Y10775
X18575Y11025
X18975Y10675
X19875Y10575
X19575Y8375
X20075Y8155
X21075Y7575
X21875Y9625
X22225Y10625
X23375Y8595
X22575Y7875
X23075Y6875
X24325Y4375
X24775Y4325
X25275Y6375
X24725Y6675
X25775Y8375
X25275Y10225
X26725Y9875
X26575Y7375
X23575Y10875
X24775Y14525
X24325Y14575
X25275Y16575
X24725Y16875
X25775Y18575
X26575Y17575
X26725Y20075
X25275Y20425
X23575Y21075
X23375Y18795
X22575Y18075
X23075Y17075
X21875Y19825
X22225Y20825
X21075Y17775
X20075Y18355
X19575Y18575
X18810Y17560
X18575Y15575
X17575Y17555
X17575Y17875
X17525Y15425
X17325Y13675
X17825Y13675
X16075Y17575
X16075Y18075
X16425Y18675
X16925Y20875
X18225Y20975
X18575Y21225
X18975Y20875
X19875Y20775
X17825Y23875
X17325Y23875
X17525Y25625
X18575Y25775
X18810Y27760
X19575Y28775
X20075Y28555
X21075Y27975
X21875Y30025
X22225Y31025
X23375Y28995
X22575Y28275
X23075Y27275
X24325Y24775
X24775Y24725
X25275Y26775
X24725Y27075
X25775Y28775
X25275Y30625
X26725Y30275
X26575Y27775
X23575Y31275
X24325Y34975
X24775Y34925
X25275Y36975
X24725Y37275
X25775Y38975
X25275Y40825
X26725Y40475
X26575Y37975
X23575Y41475
X23375Y39195
X22575Y38475
X23075Y37475
X21875Y40225
X22225Y41225
X21075Y38175
X20075Y38755
X19575Y38975
X18810Y37960
X18575Y35975
X17825Y34075
X17325Y34075
X17525Y35825
X17575Y37955
X17575Y38275
X16925Y41275
X16425Y39075
X16075Y38475
X16075Y37975
X15375Y35975
X14375Y37975
X13575Y38975
X14525Y40475
X13075Y40825
X11375Y41475
X11175Y39195
X10375Y38475
X10875Y37475
X12125Y34975
X12575Y34925
X13075Y36975
X12525Y37275
X10025Y41225
X9675Y40225
X8875Y38175
X7875Y38755
X7375Y38975
X6610Y37960
X6375Y35975
X5625Y34075
X5125Y34075
X5325Y35825
X5375Y37955
X5375Y38275
X4225Y39075
X3875Y38475
X3875Y37975
X3175Y35975
X4725Y31075
X4225Y28875
X3875Y28275
X3875Y27775
X3175Y25775
X5125Y23875
X5625Y23875
X5325Y25625
X6375Y25775
X6610Y27760
X7375Y28775
X7875Y28555
X8875Y27975
X9675Y30025
X10025Y31025
X11175Y28995
X10375Y28275
X10875Y27275
X12125Y24775
X12575Y24725
X13075Y26775
X12525Y27075
X13575Y28775
X14375Y27775
X15375Y25775
X16075Y27775
X16075Y28275
X16425Y28875
X16925Y31075
X18225Y31175
X18575Y31425
X18975Y31075
X19875Y30975
X17575Y28075
X17575Y27755
X14525Y30275
X13075Y30625
X11375Y31275
X7675Y30975
X6775Y31075
X6375Y31425
X6025Y31175
X5375Y28075
X5375Y27755
X6375Y21225
X6025Y20975
X6775Y20875
X7675Y20775
X7375Y18575
X7875Y18355
X8875Y17775
X9675Y19825
X10025Y20825
X11175Y18795
X10375Y18075
X10875Y17075
X12125Y14575
X12575Y14525
X13075Y16575
X12525Y16875
X13575Y18575
X14375Y17575
X15375Y15575
X14525Y20075
X13075Y20425
X11375Y21075
X6610Y17560
X6375Y15575
X5325Y15425
X5375Y17555
X5375Y17875
X4225Y18675
X3875Y18075
X3875Y17575
X3175Y15575
X5125Y13675
X5625Y13675
X6375Y11025
X6025Y10775
X6775Y10675
X7675Y10575
X6375Y5375
X5625Y3475
X5125Y3475
X5325Y5225
X4725Y10675
X4725Y20875
X11375Y10875
X13075Y10225
X14525Y9875
X17525Y5225
X17325Y3475
X17825Y3475
X18575Y5375
X18810Y7360
X17575Y7355
X17575Y7675
X19875Y41175
X18975Y41275
X18575Y41625
X18225Y41375
X17825Y44275
X17325Y44275
X17525Y46025
X18575Y46175
X18810Y48160
X19575Y49175
X20075Y48955
X21075Y48375
X21875Y50425
X22225Y51425
X23375Y49395
X22575Y48675
X23075Y47675
X24325Y45175
X24775Y45125
X25275Y47175
X24725Y47475
X25775Y49175
X26575Y48175
X26725Y50675
X25275Y51025
X23575Y51675
X24325Y55375
X24775Y55325
X25275Y57375
X24725Y57675
X25775Y59375
X25275Y61225
X26725Y60875
X26575Y58375
X23575Y61875
X23375Y59595
X22575Y58875
X23075Y57875
X21875Y60625
X22225Y61625
X21075Y58575
X20075Y59155
X19575Y59375
X18810Y58360
X17575Y58355
X17575Y58675
X17525Y56225
X17325Y54475
X17825Y54475
X18575Y56375
X18575Y51825
X18225Y51575
X18975Y51475
X19875Y51375
X17575Y48475
X17575Y48155
X16425Y49275
X16075Y48675
X16075Y48175
X15375Y46175
X14375Y48175
X13575Y49175
X14525Y50675
X13075Y51025
X11375Y51675
X11175Y49395
X10375Y48675
X10875Y47675
X12125Y45175
X12575Y45125
X13075Y47175
X12525Y47475
X10025Y51425
X9675Y50425
X8875Y48375
X7875Y48955
X7375Y49175
X6610Y48160
X6375Y46175
X5325Y46025
X5125Y44275
X5625Y44275
X6375Y41625
X6025Y41375
X6775Y41275
X7675Y41175
X4725Y41275
X3175Y46175
X3875Y48175
X3875Y48675
X4225Y49275
X5375Y48475
X5375Y48155
X4725Y51475
X6025Y51575
X6375Y51825
X6775Y51475
X7675Y51375
X5625Y54475
X5125Y54475
X5325Y56225
X6375Y56375
X6610Y58360
X7375Y59375
X7875Y59155
X8875Y58575
X9675Y60625
X10025Y61625
X11175Y59595
X10375Y58875
X10875Y57875
X12125Y55375
X12575Y55325
X13075Y57375
X12525Y57675
X13575Y59375
X14375Y58375
X15375Y56375
X16075Y58375
X16075Y58875
X16425Y59475
X16925Y61675
X18225Y61775
X18575Y62025
X18975Y61675
X19875Y61575
X17825Y64675
X17325Y64675
X17525Y66425
X17575Y68555
X17575Y68875
X18810Y68560
X19575Y69575
X20075Y69355
X21075Y68775
X21875Y70825
X22225Y71825
X23375Y69795
X22575Y69075
X23075Y68075
X24325Y65575
X24775Y65525
X25275Y67575
X24725Y67875
X25775Y69575
X26575Y68575
X26725Y71075
X25275Y71425
X23575Y72075
X19875Y71775
X18975Y71875
X18575Y72225
X18225Y71975
X16925Y71875
X16425Y69675
X16075Y69075
X16075Y68575
X15375Y66575
X14375Y68575
X13575Y69575
X14525Y71075
X13075Y71425
X11375Y72075
X11175Y69795
X10375Y69075
X10875Y68075
X12125Y65575
X12575Y65525
X13075Y67575
X12525Y67875
X10025Y71825
X9675Y70825
X8875Y68775
X7875Y69355
X7375Y69575
X6610Y68560
X6375Y66575
X5325Y66425
X5375Y68555
X5375Y68875
X4225Y69675
X3875Y69075
X3875Y68575
X3175Y66575
X5125Y64675
X5625Y64675
X6375Y62025
X6025Y61775
X6775Y61675
X7675Y61575
X5375Y58675
X5375Y58355
X4225Y59475
X3875Y58875
X3875Y58375
X3175Y56375
X4725Y61675
X4725Y71875
X6025Y71975
X6375Y72225
X6775Y71875
X7675Y71775
X11375Y61875
X13075Y61225
X14525Y60875
X18575Y66575
X16925Y51475
T02
X17325Y51175
X17325Y52175
X17325Y53175
X18325Y53175
X18325Y52175
X18325Y51175
X18325Y42975
X18325Y41975
X18325Y40975
X17325Y40975
X17325Y41975
X17325Y42975
X17325Y32775
X17325Y31775
X17325Y30775
X18325Y30775
X18325Y31775
X18325Y32775
X18325Y22575
X18325Y21575
X18325Y20575
X17325Y20575
X17325Y21575
X17325Y22575
X17325Y12375
X17325Y11375
X17325Y10375
X18325Y10375
X18325Y11375
X18325Y12375
X6125Y12375
X6125Y11375
X6125Y10375
X5125Y10375
X5125Y11375
X5125Y12375
X5125Y20575
X5125Y21575
X5125Y22575
X6125Y22575
X6125Y21575
X6125Y20575
X6125Y30775
X6125Y31775
X6125Y32775
X5125Y32775
X5125Y31775
X5125Y30775
X5125Y40975
X5125Y41975
X5125Y42975
X6125Y42975
X6125Y41975
X6125Y40975
X6125Y51175
X6125Y52175
X6125Y53175
X5125Y53175
X5125Y52175
X5125Y51175
X5125Y61375
X5125Y62375
X5125Y63375
X6125Y63375
X6125Y62375
X6125Y61375
X6125Y71575
X6125Y72575
X6125Y73575
X5125Y73575
X5125Y72575
X5125Y71575
X17325Y71575
X17325Y72575
X17325Y73575
X18325Y73575
X18325Y72575
X18325Y71575
X18325Y63375
X18325Y62375
X18325Y61375
X17325Y61375
X17325Y62375
X17325Y63375
T03
X18575Y64575
X19575Y64575
X20575Y64575
X21575Y64575
X22575Y64575
X23575Y64575
X23575Y54375
X22575Y54375
X21575Y54375
X20575Y54375
X19575Y54375
X18575Y54375
X18575Y44175
X19575Y44175
X20575Y44175
X21575Y44175
X22575Y44175
X23575Y44175
X23575Y33975
X22575Y33975
X21575Y33975
X20575Y33975
X19575Y33975
X18575Y33975
X18575Y23775
X19575Y23775
X20575Y23775
X21575Y23775
X22575Y23775
X23575Y23775
X23575Y13575
X22575Y13575
X21575Y13575
X20575Y13575
X19575Y13575
X18575Y13575
X18575Y3375
X19575Y3375
X20575Y3375
X21575Y3375
X22575Y3375
X23575Y3375
X11375Y3375
X10375Y3375
X9375Y3375
X8375Y3375
X7375Y3375
X6375Y3375
X6375Y13575
X7375Y13575
X8375Y13575
X9375Y13575
X10375Y13575
X11375Y13575
X11375Y23775
X10375Y23775
X9375Y23775
X8375Y23775
X7375Y23775
X6375Y23775
X6375Y33975
X7375Y33975
X8375Y33975
X9375Y33975
X10375Y33975
X11375Y33975
X11375Y44175
X10375Y44175
X9375Y44175
X8375Y44175
X7375Y44175
X6375Y44175
X6375Y54375
X7375Y54375
X8375Y54375
X9375Y54375
X10375Y54375
X11375Y54375
X11375Y64575
X10375Y64575
X9375Y64575
X8375Y64575
X7375Y64575
X6375Y64575
T04
X6119Y67500
X6119Y68288
X6119Y69075
X6119Y69862
X6119Y70650
X6119Y60450
X6119Y59662
X6119Y58875
X6119Y58088
X6119Y57300
X6119Y50250
X6119Y49462
X6119Y48675
X6119Y47888
X6119Y47100
X6119Y40050
X6119Y39262
X6119Y38475
X6119Y37688
X6119Y36900
X6119Y29850
X6119Y29062
X6119Y28275
X6119Y27488
X6119Y26700
X6119Y19650
X6119Y18862
X6119Y18075
X6119Y17288
X6119Y16500
X6119Y9450
X6119Y8662
X6119Y7875
X6119Y7088
X6119Y6300
X11828Y6891
X11828Y7875
X11828Y8859
X11828Y17091
X11828Y18075
X11828Y19059
X11828Y27291
X11828Y28275
X11828Y29259
X11828Y37491
X11828Y38475
X11828Y39459
X11828Y47691
X11828Y48675
X11828Y49659
X11828Y57891
X11828Y58875
X11828Y59859
X11828Y68091
X11828Y69075
X11828Y70059
X18319Y69862
X18319Y69075
X18319Y68288
X18319Y67500
X18319Y70650
X18319Y60450
X18319Y59662
X18319Y58875
X18319Y58088
X18319Y57300
X18319Y50250
X18319Y49462
X18319Y48675
X18319Y47888
X18319Y47100
X18319Y40050
X18319Y39262
X18319Y38475
X18319Y37688
X18319Y36900
X18319Y29850
X18319Y29062
X18319Y28275
X18319Y27488
X18319Y26700
X18319Y19650
X18319Y18862
X18319Y18075
X18319Y17288
X18319Y16500
X18319Y9450
X18319Y8662
X18319Y7875
X18319Y7088
X18319Y6300
X24028Y6891
X24028Y7875
X24028Y8859
X24028Y17091
X24028Y18075
X24028Y19059
X24028Y27291
X24028Y28275
X24028Y29259
X24028Y37491
X24028Y38475
X24028Y39459
X24028Y47691
X24028Y48675
X24028Y49659
X24028Y57891
X24028Y58875
X24028Y59859
X24028Y68091
X24028Y69075
X24028Y70059
T05
X21075Y71260
X21075Y66890
X21075Y61060
X21075Y56690
X21075Y50860
X21075Y46490
X21075Y40660
X21075Y36290
X21075Y30460
X21075Y26090
X21075Y20260
X21075Y15890
X21075Y10060
X21075Y5690
X8875Y5690
X8875Y10060
X8875Y15890
X8875Y20260
X8875Y26090
X8875Y30460
X8875Y36290
X8875Y40660
X8875Y46490
X8875Y50860
X8875Y56690
X8875Y61060
X8875Y66890
X8875Y71260
T06
X3875Y73075
X3875Y65075
X3875Y62875
X3875Y54875
X3875Y52675
X3875Y44675
X3875Y42475
X3875Y34475
X3875Y32275
X3875Y24275
X3875Y22075
X3875Y14075
X3875Y11875
X3875Y3875
X13875Y3875
X16075Y3875
X16075Y11875
X16075Y14075
X13875Y14075
X13875Y11875
X13875Y22075
X13875Y24275
X16075Y24275
X16075Y22075
X16075Y32275
X16075Y34475
X13875Y34475
X13875Y32275
X13875Y42475
X13875Y44675
X16075Y44675
X16075Y42475
X16075Y52675
X16075Y54875
X13875Y54875
X13875Y52675
X13875Y62875
X13875Y65075
X16075Y65075
X16075Y62875
X16075Y73075
X13875Y73075
X26075Y73075
X26075Y65075
X26075Y62875
X26075Y54875
X26075Y52675
X26075Y44675
X26075Y42475
X26075Y34475
X26075Y32275
X26075Y24275
X26075Y22075
X26075Y14075
X26075Y11875
X26075Y3875
M30
