G75*
%MOIN*%
%OFA0B0*%
%FSLAX25Y25*%
%IPPOS*%
%LPD*%
%AMOC8*
5,1,8,0,0,1.08239X$1,22.5*
%
%ADD10C,0.13800*%
%ADD11C,0.08200*%
%ADD12C,0.03300*%
%ADD13R,0.03300X0.05800*%
%ADD14C,0.00500*%
D10*
X0038750Y0038750D03*
X0038750Y0118750D03*
X0038750Y0140750D03*
X0038750Y0220750D03*
X0038750Y0242750D03*
X0038750Y0322750D03*
X0038750Y0344750D03*
X0038750Y0424750D03*
X0038750Y0446750D03*
X0038750Y0526750D03*
X0038750Y0548750D03*
X0038750Y0628750D03*
X0038750Y0650750D03*
X0038750Y0730750D03*
X0138750Y0730750D03*
X0160750Y0730750D03*
X0160750Y0650750D03*
X0160750Y0628750D03*
X0138750Y0628750D03*
X0138750Y0650750D03*
X0138750Y0548750D03*
X0138750Y0526750D03*
X0160750Y0526750D03*
X0160750Y0548750D03*
X0160750Y0446750D03*
X0160750Y0424750D03*
X0138750Y0424750D03*
X0138750Y0446750D03*
X0138750Y0344750D03*
X0138750Y0322750D03*
X0160750Y0322750D03*
X0160750Y0344750D03*
X0160750Y0242750D03*
X0160750Y0220750D03*
X0138750Y0220750D03*
X0138750Y0242750D03*
X0138750Y0140750D03*
X0138750Y0118750D03*
X0160750Y0118750D03*
X0160750Y0140750D03*
X0160750Y0038750D03*
X0138750Y0038750D03*
X0260750Y0038750D03*
X0260750Y0118750D03*
X0260750Y0140750D03*
X0260750Y0220750D03*
X0260750Y0242750D03*
X0260750Y0322750D03*
X0260750Y0344750D03*
X0260750Y0424750D03*
X0260750Y0446750D03*
X0260750Y0526750D03*
X0260750Y0548750D03*
X0260750Y0628750D03*
X0260750Y0650750D03*
X0260750Y0730750D03*
D11*
X0235750Y0645750D03*
X0225750Y0645750D03*
X0215750Y0645750D03*
X0205750Y0645750D03*
X0195750Y0645750D03*
X0185750Y0645750D03*
X0185750Y0543750D03*
X0195750Y0543750D03*
X0205750Y0543750D03*
X0215750Y0543750D03*
X0225750Y0543750D03*
X0235750Y0543750D03*
X0235750Y0441750D03*
X0225750Y0441750D03*
X0215750Y0441750D03*
X0205750Y0441750D03*
X0195750Y0441750D03*
X0185750Y0441750D03*
X0185750Y0339750D03*
X0195750Y0339750D03*
X0205750Y0339750D03*
X0215750Y0339750D03*
X0225750Y0339750D03*
X0235750Y0339750D03*
X0235750Y0237750D03*
X0225750Y0237750D03*
X0215750Y0237750D03*
X0205750Y0237750D03*
X0195750Y0237750D03*
X0185750Y0237750D03*
X0185750Y0135750D03*
X0195750Y0135750D03*
X0205750Y0135750D03*
X0215750Y0135750D03*
X0225750Y0135750D03*
X0235750Y0135750D03*
X0235750Y0033750D03*
X0225750Y0033750D03*
X0215750Y0033750D03*
X0205750Y0033750D03*
X0195750Y0033750D03*
X0185750Y0033750D03*
X0113750Y0033750D03*
X0103750Y0033750D03*
X0093750Y0033750D03*
X0083750Y0033750D03*
X0073750Y0033750D03*
X0063750Y0033750D03*
X0063750Y0135750D03*
X0073750Y0135750D03*
X0083750Y0135750D03*
X0093750Y0135750D03*
X0103750Y0135750D03*
X0113750Y0135750D03*
X0113750Y0237750D03*
X0103750Y0237750D03*
X0093750Y0237750D03*
X0083750Y0237750D03*
X0073750Y0237750D03*
X0063750Y0237750D03*
X0063750Y0339750D03*
X0073750Y0339750D03*
X0083750Y0339750D03*
X0093750Y0339750D03*
X0103750Y0339750D03*
X0113750Y0339750D03*
X0113750Y0441750D03*
X0103750Y0441750D03*
X0093750Y0441750D03*
X0083750Y0441750D03*
X0073750Y0441750D03*
X0063750Y0441750D03*
X0063750Y0543750D03*
X0073750Y0543750D03*
X0083750Y0543750D03*
X0093750Y0543750D03*
X0103750Y0543750D03*
X0113750Y0543750D03*
X0113750Y0645750D03*
X0103750Y0645750D03*
X0093750Y0645750D03*
X0083750Y0645750D03*
X0073750Y0645750D03*
X0063750Y0645750D03*
D12*
X0031750Y0635750D03*
X0031750Y0533750D03*
X0031750Y0431750D03*
X0031750Y0329750D03*
X0031750Y0227750D03*
X0031750Y0125750D03*
X0145250Y0134250D03*
X0153750Y0125750D03*
X0145250Y0032250D03*
X0153750Y0227750D03*
X0145250Y0236250D03*
X0153750Y0329750D03*
X0145250Y0338250D03*
X0153750Y0431750D03*
X0145250Y0440250D03*
X0153750Y0533750D03*
X0145250Y0542250D03*
X0153750Y0635750D03*
X0145250Y0644250D03*
X0153750Y0737750D03*
X0267250Y0644250D03*
X0267250Y0542250D03*
X0267250Y0440250D03*
X0267250Y0338250D03*
X0267250Y0236250D03*
X0267250Y0134250D03*
X0267250Y0032250D03*
X0031750Y0737750D03*
D13*
X0038250Y0665750D03*
X0042250Y0665750D03*
X0046250Y0665750D03*
X0046250Y0563750D03*
X0042250Y0563750D03*
X0038250Y0563750D03*
X0038250Y0461750D03*
X0042250Y0461750D03*
X0046250Y0461750D03*
X0046250Y0359750D03*
X0042250Y0359750D03*
X0038250Y0359750D03*
X0038250Y0257750D03*
X0042250Y0257750D03*
X0046250Y0257750D03*
X0046250Y0155750D03*
X0042250Y0155750D03*
X0038250Y0155750D03*
X0038250Y0053750D03*
X0042250Y0053750D03*
X0046250Y0053750D03*
X0136750Y0053750D03*
X0140750Y0053750D03*
X0160250Y0053750D03*
X0164250Y0053750D03*
X0168250Y0053750D03*
X0140350Y0098750D03*
X0137150Y0098750D03*
X0136750Y0155750D03*
X0140750Y0155750D03*
X0160250Y0155750D03*
X0164250Y0155750D03*
X0168250Y0155750D03*
X0140350Y0200750D03*
X0137150Y0200750D03*
X0136750Y0257750D03*
X0140750Y0257750D03*
X0160250Y0257750D03*
X0164250Y0257750D03*
X0168250Y0257750D03*
X0140350Y0302750D03*
X0137150Y0302750D03*
X0136750Y0359750D03*
X0140750Y0359750D03*
X0160250Y0359750D03*
X0164250Y0359750D03*
X0168250Y0359750D03*
X0140350Y0404750D03*
X0137150Y0404750D03*
X0136750Y0461750D03*
X0140750Y0461750D03*
X0160250Y0461750D03*
X0164250Y0461750D03*
X0168250Y0461750D03*
X0140350Y0506750D03*
X0137150Y0506750D03*
X0136750Y0563750D03*
X0140750Y0563750D03*
X0160250Y0563750D03*
X0164250Y0563750D03*
X0168250Y0563750D03*
X0140350Y0608750D03*
X0137150Y0608750D03*
X0136750Y0665750D03*
X0140750Y0665750D03*
X0160250Y0665750D03*
X0164250Y0665750D03*
X0168250Y0665750D03*
X0140350Y0710750D03*
X0137150Y0710750D03*
X0259150Y0710750D03*
X0262350Y0710750D03*
X0262750Y0665750D03*
X0258750Y0665750D03*
X0259150Y0608750D03*
X0262350Y0608750D03*
X0262750Y0563750D03*
X0258750Y0563750D03*
X0259150Y0506750D03*
X0262350Y0506750D03*
X0262750Y0461750D03*
X0258750Y0461750D03*
X0259150Y0404750D03*
X0262350Y0404750D03*
X0262750Y0359750D03*
X0258750Y0359750D03*
X0259150Y0302750D03*
X0262350Y0302750D03*
X0262750Y0257750D03*
X0258750Y0257750D03*
X0259150Y0200750D03*
X0262350Y0200750D03*
X0262750Y0155750D03*
X0258750Y0155750D03*
X0259150Y0098750D03*
X0262350Y0098750D03*
X0262750Y0053750D03*
X0258750Y0053750D03*
D14*
X0260000Y0053676D02*
X0261500Y0053676D01*
X0261500Y0053250D02*
X0261500Y0054250D01*
X0260000Y0054250D01*
X0260000Y0053250D01*
X0261500Y0053250D01*
X0261500Y0054174D02*
X0260000Y0054174D01*
X0242078Y0067508D02*
X0241809Y0067179D01*
X0241481Y0066910D01*
X0241106Y0066710D01*
X0240700Y0066587D01*
X0240278Y0066545D01*
X0239855Y0066587D01*
X0239449Y0066710D01*
X0239075Y0066910D01*
X0238746Y0067179D01*
X0238477Y0067508D01*
X0238277Y0067882D01*
X0238154Y0068288D01*
X0238112Y0068711D01*
X0238154Y0069133D01*
X0238277Y0069539D01*
X0238477Y0069914D01*
X0238746Y0070242D01*
X0239075Y0070511D01*
X0239449Y0070711D01*
X0239855Y0070834D01*
X0240278Y0070876D01*
X0240474Y0070876D01*
X0240912Y0070827D01*
X0241329Y0070681D01*
X0241702Y0070447D01*
X0242013Y0070135D01*
X0242248Y0069762D01*
X0242394Y0069346D01*
X0242443Y0068907D01*
X0242443Y0068711D01*
X0242401Y0068288D01*
X0242278Y0067882D01*
X0242078Y0067508D01*
X0242145Y0067634D02*
X0238410Y0067634D01*
X0238201Y0068132D02*
X0242354Y0068132D01*
X0242435Y0068631D02*
X0238120Y0068631D01*
X0238153Y0069129D02*
X0242418Y0069129D01*
X0242295Y0069628D02*
X0238324Y0069628D01*
X0238652Y0070126D02*
X0242019Y0070126D01*
X0241418Y0070625D02*
X0239288Y0070625D01*
X0238800Y0067135D02*
X0241755Y0067135D01*
X0240865Y0066637D02*
X0239690Y0066637D01*
X0240278Y0076585D02*
X0239855Y0076626D01*
X0239449Y0076749D01*
X0239075Y0076950D01*
X0238746Y0077219D01*
X0238477Y0077547D01*
X0238277Y0077921D01*
X0238154Y0078328D01*
X0238112Y0078750D01*
X0238154Y0079172D01*
X0238277Y0079579D01*
X0238477Y0079953D01*
X0238746Y0080281D01*
X0239075Y0080550D01*
X0239449Y0080751D01*
X0239855Y0080874D01*
X0240278Y0080915D01*
X0240474Y0080915D01*
X0240912Y0080866D01*
X0241329Y0080720D01*
X0241702Y0080486D01*
X0242013Y0080174D01*
X0242248Y0079801D01*
X0242394Y0079385D01*
X0242443Y0078947D01*
X0242443Y0078750D01*
X0242401Y0078328D01*
X0242278Y0077921D01*
X0242078Y0077547D01*
X0241809Y0077219D01*
X0241481Y0076950D01*
X0241106Y0076749D01*
X0240700Y0076626D01*
X0240278Y0076585D01*
X0240505Y0076607D02*
X0240050Y0076607D01*
X0238884Y0077106D02*
X0241671Y0077106D01*
X0242109Y0077604D02*
X0238447Y0077604D01*
X0238222Y0078103D02*
X0242333Y0078103D01*
X0242428Y0078601D02*
X0238127Y0078601D01*
X0238147Y0079100D02*
X0242426Y0079100D01*
X0242319Y0079598D02*
X0238287Y0079598D01*
X0238595Y0080097D02*
X0242062Y0080097D01*
X0241528Y0080595D02*
X0239158Y0080595D01*
X0239855Y0086469D02*
X0239449Y0086592D01*
X0239075Y0086792D01*
X0238746Y0087061D01*
X0238477Y0087390D01*
X0238277Y0087764D01*
X0238154Y0088170D01*
X0238112Y0088593D01*
X0238154Y0089015D01*
X0238277Y0089421D01*
X0238477Y0089796D01*
X0238746Y0090124D01*
X0239075Y0090393D01*
X0239449Y0090593D01*
X0239855Y0090716D01*
X0240278Y0090758D01*
X0240474Y0090758D01*
X0240912Y0090709D01*
X0241329Y0090563D01*
X0241702Y0090328D01*
X0242013Y0090017D01*
X0242248Y0089643D01*
X0242394Y0089227D01*
X0242443Y0088789D01*
X0242443Y0088593D01*
X0242401Y0088170D01*
X0242278Y0087764D01*
X0242078Y0087390D01*
X0241809Y0087061D01*
X0241481Y0086792D01*
X0241106Y0086592D01*
X0240700Y0086469D01*
X0240278Y0086427D01*
X0239855Y0086469D01*
X0239497Y0086577D02*
X0241058Y0086577D01*
X0241821Y0087076D02*
X0238735Y0087076D01*
X0238378Y0087574D02*
X0242177Y0087574D01*
X0242372Y0088073D02*
X0238183Y0088073D01*
X0238114Y0088571D02*
X0242441Y0088571D01*
X0242411Y0089070D02*
X0238170Y0089070D01*
X0238356Y0089568D02*
X0242274Y0089568D01*
X0241963Y0090067D02*
X0238700Y0090067D01*
X0239397Y0090565D02*
X0241321Y0090565D01*
X0214450Y0099254D02*
X0214160Y0098632D01*
X0213766Y0098070D01*
X0213281Y0097584D01*
X0212719Y0097191D01*
X0212097Y0096901D01*
X0211434Y0096723D01*
X0210750Y0096663D01*
X0210066Y0096723D01*
X0209403Y0096901D01*
X0208781Y0097191D01*
X0208219Y0097584D01*
X0207734Y0098070D01*
X0207340Y0098632D01*
X0207050Y0099254D01*
X0206873Y0099917D01*
X0206813Y0100600D01*
X0206873Y0101284D01*
X0207050Y0101947D01*
X0207340Y0102569D01*
X0207734Y0103131D01*
X0208219Y0103616D01*
X0208781Y0104010D01*
X0209403Y0104300D01*
X0210066Y0104478D01*
X0210750Y0104537D01*
X0211434Y0104478D01*
X0212097Y0104300D01*
X0212719Y0104010D01*
X0213281Y0103616D01*
X0213766Y0103131D01*
X0214160Y0102569D01*
X0214450Y0101947D01*
X0214627Y0101284D01*
X0214687Y0100600D01*
X0214627Y0099917D01*
X0214450Y0099254D01*
X0214350Y0099040D02*
X0207150Y0099040D01*
X0206974Y0099539D02*
X0214526Y0099539D01*
X0214638Y0100037D02*
X0206862Y0100037D01*
X0206819Y0100536D02*
X0214681Y0100536D01*
X0214649Y0101034D02*
X0206851Y0101034D01*
X0206939Y0101533D02*
X0214561Y0101533D01*
X0214410Y0102031D02*
X0207090Y0102031D01*
X0207322Y0102530D02*
X0214178Y0102530D01*
X0213838Y0103028D02*
X0207662Y0103028D01*
X0208130Y0103527D02*
X0213370Y0103527D01*
X0212686Y0104025D02*
X0208814Y0104025D01*
X0210594Y0104524D02*
X0210906Y0104524D01*
X0214096Y0098542D02*
X0207404Y0098542D01*
X0207761Y0098043D02*
X0213739Y0098043D01*
X0213224Y0097545D02*
X0208276Y0097545D01*
X0209092Y0097046D02*
X0212408Y0097046D01*
X0210750Y0060837D02*
X0211434Y0060777D01*
X0212097Y0060599D01*
X0212719Y0060309D01*
X0213281Y0059916D01*
X0213766Y0059430D01*
X0214160Y0058868D01*
X0214450Y0058246D01*
X0214627Y0057583D01*
X0214687Y0056900D01*
X0214627Y0056216D01*
X0214450Y0055553D01*
X0214160Y0054931D01*
X0213766Y0054369D01*
X0213281Y0053884D01*
X0212719Y0053490D01*
X0212097Y0053200D01*
X0211434Y0053022D01*
X0210750Y0052963D01*
X0210066Y0053022D01*
X0209403Y0053200D01*
X0208781Y0053490D01*
X0208219Y0053884D01*
X0207734Y0054369D01*
X0207340Y0054931D01*
X0207050Y0055553D01*
X0206873Y0056216D01*
X0206813Y0056900D01*
X0206873Y0057583D01*
X0207050Y0058246D01*
X0207340Y0058868D01*
X0207734Y0059430D01*
X0208219Y0059916D01*
X0208781Y0060309D01*
X0209403Y0060599D01*
X0210066Y0060777D01*
X0210750Y0060837D01*
X0209611Y0060655D02*
X0211889Y0060655D01*
X0212937Y0060156D02*
X0208563Y0060156D01*
X0207962Y0059658D02*
X0213538Y0059658D01*
X0213956Y0059159D02*
X0207544Y0059159D01*
X0207244Y0058661D02*
X0214256Y0058661D01*
X0214472Y0058162D02*
X0207028Y0058162D01*
X0206894Y0057664D02*
X0214606Y0057664D01*
X0214664Y0057165D02*
X0206836Y0057165D01*
X0206833Y0056667D02*
X0214667Y0056667D01*
X0214614Y0056168D02*
X0206886Y0056168D01*
X0207019Y0055670D02*
X0214481Y0055670D01*
X0214271Y0055171D02*
X0207229Y0055171D01*
X0207521Y0054673D02*
X0213979Y0054673D01*
X0213571Y0054174D02*
X0207929Y0054174D01*
X0208517Y0053676D02*
X0212983Y0053676D01*
X0212011Y0053177D02*
X0209489Y0053177D01*
X0185191Y0062110D02*
X0184991Y0061736D01*
X0184722Y0061408D01*
X0184394Y0061139D01*
X0184020Y0060938D01*
X0183613Y0060815D01*
X0183191Y0060774D01*
X0182769Y0060815D01*
X0182362Y0060938D01*
X0181988Y0061139D01*
X0181660Y0061408D01*
X0181391Y0061736D01*
X0181190Y0062110D01*
X0181067Y0062517D01*
X0181026Y0062939D01*
X0181067Y0063361D01*
X0181190Y0063768D01*
X0181391Y0064142D01*
X0181660Y0064470D01*
X0181988Y0064739D01*
X0182362Y0064940D01*
X0182769Y0065063D01*
X0183191Y0065104D01*
X0183388Y0065104D01*
X0183826Y0065055D01*
X0184242Y0064909D01*
X0184615Y0064675D01*
X0184927Y0064363D01*
X0185161Y0063990D01*
X0185307Y0063574D01*
X0185356Y0063136D01*
X0185356Y0062939D01*
X0185315Y0062517D01*
X0185191Y0062110D01*
X0185204Y0062150D02*
X0181178Y0062150D01*
X0181054Y0062649D02*
X0185328Y0062649D01*
X0185355Y0063147D02*
X0181046Y0063147D01*
X0181153Y0063646D02*
X0185282Y0063646D01*
X0185064Y0064144D02*
X0181392Y0064144D01*
X0181870Y0064643D02*
X0184647Y0064643D01*
X0184922Y0061652D02*
X0181460Y0061652D01*
X0181970Y0061153D02*
X0184412Y0061153D01*
X0183613Y0068815D02*
X0183191Y0068774D01*
X0182769Y0068815D01*
X0182362Y0068938D01*
X0181988Y0069139D01*
X0181660Y0069408D01*
X0181391Y0069736D01*
X0181190Y0070110D01*
X0181067Y0070517D01*
X0181026Y0070939D01*
X0181067Y0071361D01*
X0181190Y0071768D01*
X0181391Y0072142D01*
X0181660Y0072470D01*
X0181988Y0072739D01*
X0182362Y0072940D01*
X0182769Y0073063D01*
X0183191Y0073104D01*
X0183388Y0073104D01*
X0183826Y0073055D01*
X0184242Y0072909D01*
X0184615Y0072675D01*
X0184927Y0072363D01*
X0185161Y0071990D01*
X0185307Y0071574D01*
X0185356Y0071136D01*
X0185356Y0070939D01*
X0185315Y0070517D01*
X0185191Y0070110D01*
X0184991Y0069736D01*
X0184722Y0069408D01*
X0184394Y0069139D01*
X0184020Y0068938D01*
X0183613Y0068815D01*
X0184377Y0069129D02*
X0182005Y0069129D01*
X0181479Y0069628D02*
X0184903Y0069628D01*
X0185196Y0070126D02*
X0181186Y0070126D01*
X0181057Y0070625D02*
X0185325Y0070625D01*
X0185356Y0071123D02*
X0181044Y0071123D01*
X0181146Y0071622D02*
X0185290Y0071622D01*
X0185079Y0072120D02*
X0181379Y0072120D01*
X0181841Y0072619D02*
X0184671Y0072619D01*
X0183613Y0076689D02*
X0183191Y0076648D01*
X0182769Y0076689D01*
X0182362Y0076812D01*
X0181988Y0077013D01*
X0181660Y0077282D01*
X0181391Y0077610D01*
X0181190Y0077984D01*
X0181067Y0078391D01*
X0181026Y0078813D01*
X0181067Y0079235D01*
X0181190Y0079642D01*
X0181391Y0080016D01*
X0181660Y0080344D01*
X0181988Y0080613D01*
X0182362Y0080814D01*
X0182769Y0080937D01*
X0183191Y0080978D01*
X0183388Y0080978D01*
X0183826Y0080929D01*
X0184242Y0080783D01*
X0184615Y0080549D01*
X0184927Y0080237D01*
X0185161Y0079864D01*
X0185307Y0079448D01*
X0185356Y0079010D01*
X0185356Y0078813D01*
X0185315Y0078391D01*
X0185191Y0077984D01*
X0184991Y0077610D01*
X0184722Y0077282D01*
X0184394Y0077013D01*
X0184020Y0076812D01*
X0183613Y0076689D01*
X0184507Y0077106D02*
X0181875Y0077106D01*
X0181395Y0077604D02*
X0184987Y0077604D01*
X0185227Y0078103D02*
X0181155Y0078103D01*
X0181046Y0078601D02*
X0185335Y0078601D01*
X0185346Y0079100D02*
X0181054Y0079100D01*
X0181177Y0079598D02*
X0185254Y0079598D01*
X0185015Y0080097D02*
X0181457Y0080097D01*
X0181966Y0080595D02*
X0184541Y0080595D01*
X0183613Y0084563D02*
X0183191Y0084522D01*
X0182769Y0084563D01*
X0182362Y0084686D01*
X0181988Y0084887D01*
X0181660Y0085156D01*
X0181391Y0085484D01*
X0181190Y0085858D01*
X0181067Y0086265D01*
X0181026Y0086687D01*
X0181067Y0087109D01*
X0181190Y0087516D01*
X0181391Y0087890D01*
X0181660Y0088218D01*
X0181988Y0088487D01*
X0182362Y0088688D01*
X0182769Y0088811D01*
X0183191Y0088852D01*
X0183388Y0088852D01*
X0183826Y0088803D01*
X0184242Y0088657D01*
X0184615Y0088423D01*
X0184927Y0088111D01*
X0185161Y0087738D01*
X0185307Y0087322D01*
X0185356Y0086884D01*
X0185356Y0086687D01*
X0185315Y0086265D01*
X0185191Y0085858D01*
X0184991Y0085484D01*
X0184722Y0085156D01*
X0184394Y0084887D01*
X0184020Y0084686D01*
X0183613Y0084563D01*
X0183679Y0084583D02*
X0182703Y0084583D01*
X0181750Y0085082D02*
X0184632Y0085082D01*
X0185043Y0085580D02*
X0181339Y0085580D01*
X0181124Y0086079D02*
X0185258Y0086079D01*
X0185345Y0086577D02*
X0181036Y0086577D01*
X0181064Y0087076D02*
X0185335Y0087076D01*
X0185219Y0087574D02*
X0181222Y0087574D01*
X0181541Y0088073D02*
X0184951Y0088073D01*
X0184379Y0088571D02*
X0182145Y0088571D01*
X0182769Y0092437D02*
X0182362Y0092560D01*
X0181988Y0092761D01*
X0181660Y0093030D01*
X0181391Y0093358D01*
X0181190Y0093732D01*
X0181067Y0094139D01*
X0181026Y0094561D01*
X0181067Y0094983D01*
X0181190Y0095390D01*
X0181391Y0095764D01*
X0181660Y0096092D01*
X0181988Y0096361D01*
X0182362Y0096562D01*
X0182769Y0096685D01*
X0183191Y0096726D01*
X0183388Y0096726D01*
X0183826Y0096677D01*
X0184242Y0096531D01*
X0184615Y0096297D01*
X0184927Y0095985D01*
X0185161Y0095612D01*
X0185307Y0095196D01*
X0185356Y0094758D01*
X0185356Y0094561D01*
X0185315Y0094139D01*
X0185191Y0093732D01*
X0184991Y0093358D01*
X0184722Y0093030D01*
X0184394Y0092761D01*
X0184020Y0092560D01*
X0183613Y0092437D01*
X0183191Y0092396D01*
X0182769Y0092437D01*
X0182366Y0092559D02*
X0184016Y0092559D01*
X0184745Y0093058D02*
X0181637Y0093058D01*
X0181284Y0093556D02*
X0185097Y0093556D01*
X0185289Y0094055D02*
X0181093Y0094055D01*
X0181026Y0094553D02*
X0185356Y0094553D01*
X0185323Y0095052D02*
X0181088Y0095052D01*
X0181276Y0095551D02*
X0185183Y0095551D01*
X0184863Y0096049D02*
X0181624Y0096049D01*
X0182336Y0096548D02*
X0184196Y0096548D01*
X0167000Y0054250D02*
X0167000Y0053250D01*
X0161500Y0053250D01*
X0161500Y0054250D01*
X0167000Y0054250D01*
X0167000Y0054174D02*
X0161500Y0054174D01*
X0161500Y0053676D02*
X0167000Y0053676D01*
X0139500Y0053676D02*
X0138000Y0053676D01*
X0138000Y0053250D02*
X0138000Y0054250D01*
X0139500Y0054250D01*
X0139500Y0053250D01*
X0138000Y0053250D01*
X0138000Y0054174D02*
X0139500Y0054174D01*
X0120078Y0067508D02*
X0119809Y0067179D01*
X0119481Y0066910D01*
X0119106Y0066710D01*
X0118700Y0066587D01*
X0118278Y0066545D01*
X0117855Y0066587D01*
X0117449Y0066710D01*
X0117075Y0066910D01*
X0116746Y0067179D01*
X0116477Y0067508D01*
X0116277Y0067882D01*
X0116154Y0068288D01*
X0116112Y0068711D01*
X0116154Y0069133D01*
X0116277Y0069539D01*
X0116477Y0069914D01*
X0116746Y0070242D01*
X0117075Y0070511D01*
X0117449Y0070711D01*
X0117855Y0070834D01*
X0118278Y0070876D01*
X0118474Y0070876D01*
X0118912Y0070827D01*
X0119329Y0070681D01*
X0119702Y0070447D01*
X0120013Y0070135D01*
X0120248Y0069762D01*
X0120394Y0069346D01*
X0120443Y0068907D01*
X0120443Y0068711D01*
X0120401Y0068288D01*
X0120278Y0067882D01*
X0120078Y0067508D01*
X0120145Y0067634D02*
X0116410Y0067634D01*
X0116201Y0068132D02*
X0120354Y0068132D01*
X0120435Y0068631D02*
X0116120Y0068631D01*
X0116153Y0069129D02*
X0120418Y0069129D01*
X0120295Y0069628D02*
X0116324Y0069628D01*
X0116652Y0070126D02*
X0120019Y0070126D01*
X0119418Y0070625D02*
X0117288Y0070625D01*
X0116800Y0067135D02*
X0119755Y0067135D01*
X0118865Y0066637D02*
X0117690Y0066637D01*
X0118278Y0076585D02*
X0117855Y0076626D01*
X0117449Y0076749D01*
X0117075Y0076950D01*
X0116746Y0077219D01*
X0116477Y0077547D01*
X0116277Y0077921D01*
X0116154Y0078328D01*
X0116112Y0078750D01*
X0116154Y0079172D01*
X0116277Y0079579D01*
X0116477Y0079953D01*
X0116746Y0080281D01*
X0117075Y0080550D01*
X0117449Y0080751D01*
X0117855Y0080874D01*
X0118278Y0080915D01*
X0118474Y0080915D01*
X0118912Y0080866D01*
X0119329Y0080720D01*
X0119702Y0080486D01*
X0120013Y0080174D01*
X0120248Y0079801D01*
X0120394Y0079385D01*
X0120443Y0078947D01*
X0120443Y0078750D01*
X0120401Y0078328D01*
X0120278Y0077921D01*
X0120078Y0077547D01*
X0119809Y0077219D01*
X0119481Y0076950D01*
X0119106Y0076749D01*
X0118700Y0076626D01*
X0118278Y0076585D01*
X0118505Y0076607D02*
X0118050Y0076607D01*
X0116884Y0077106D02*
X0119671Y0077106D01*
X0120109Y0077604D02*
X0116447Y0077604D01*
X0116222Y0078103D02*
X0120333Y0078103D01*
X0120428Y0078601D02*
X0116127Y0078601D01*
X0116147Y0079100D02*
X0120426Y0079100D01*
X0120319Y0079598D02*
X0116287Y0079598D01*
X0116595Y0080097D02*
X0120062Y0080097D01*
X0119528Y0080595D02*
X0117158Y0080595D01*
X0117855Y0086469D02*
X0117449Y0086592D01*
X0117075Y0086792D01*
X0116746Y0087061D01*
X0116477Y0087390D01*
X0116277Y0087764D01*
X0116154Y0088170D01*
X0116112Y0088593D01*
X0116154Y0089015D01*
X0116277Y0089421D01*
X0116477Y0089796D01*
X0116746Y0090124D01*
X0117075Y0090393D01*
X0117449Y0090593D01*
X0117855Y0090716D01*
X0118278Y0090758D01*
X0118474Y0090758D01*
X0118912Y0090709D01*
X0119329Y0090563D01*
X0119702Y0090328D01*
X0120013Y0090017D01*
X0120248Y0089643D01*
X0120394Y0089227D01*
X0120443Y0088789D01*
X0120443Y0088593D01*
X0120401Y0088170D01*
X0120278Y0087764D01*
X0120078Y0087390D01*
X0119809Y0087061D01*
X0119481Y0086792D01*
X0119106Y0086592D01*
X0118700Y0086469D01*
X0118278Y0086427D01*
X0117855Y0086469D01*
X0117497Y0086577D02*
X0119058Y0086577D01*
X0119821Y0087076D02*
X0116735Y0087076D01*
X0116378Y0087574D02*
X0120177Y0087574D01*
X0120372Y0088073D02*
X0116183Y0088073D01*
X0116114Y0088571D02*
X0120441Y0088571D01*
X0120411Y0089070D02*
X0116170Y0089070D01*
X0116356Y0089568D02*
X0120274Y0089568D01*
X0119963Y0090067D02*
X0116700Y0090067D01*
X0117397Y0090565D02*
X0119321Y0090565D01*
X0092450Y0099254D02*
X0092160Y0098632D01*
X0091766Y0098070D01*
X0091281Y0097584D01*
X0090719Y0097191D01*
X0090097Y0096901D01*
X0089434Y0096723D01*
X0088750Y0096663D01*
X0088066Y0096723D01*
X0087403Y0096901D01*
X0086781Y0097191D01*
X0086219Y0097584D01*
X0085734Y0098070D01*
X0085340Y0098632D01*
X0085050Y0099254D01*
X0084873Y0099917D01*
X0084813Y0100600D01*
X0084873Y0101284D01*
X0085050Y0101947D01*
X0085340Y0102569D01*
X0085734Y0103131D01*
X0086219Y0103616D01*
X0086781Y0104010D01*
X0087403Y0104300D01*
X0088066Y0104478D01*
X0088750Y0104537D01*
X0089434Y0104478D01*
X0090097Y0104300D01*
X0090719Y0104010D01*
X0091281Y0103616D01*
X0091766Y0103131D01*
X0092160Y0102569D01*
X0092450Y0101947D01*
X0092627Y0101284D01*
X0092687Y0100600D01*
X0092627Y0099917D01*
X0092450Y0099254D01*
X0092350Y0099040D02*
X0085150Y0099040D01*
X0084974Y0099539D02*
X0092526Y0099539D01*
X0092638Y0100037D02*
X0084862Y0100037D01*
X0084819Y0100536D02*
X0092681Y0100536D01*
X0092649Y0101034D02*
X0084851Y0101034D01*
X0084939Y0101533D02*
X0092561Y0101533D01*
X0092410Y0102031D02*
X0085090Y0102031D01*
X0085322Y0102530D02*
X0092178Y0102530D01*
X0091838Y0103028D02*
X0085662Y0103028D01*
X0086130Y0103527D02*
X0091370Y0103527D01*
X0090686Y0104025D02*
X0086814Y0104025D01*
X0088594Y0104524D02*
X0088906Y0104524D01*
X0092096Y0098542D02*
X0085404Y0098542D01*
X0085761Y0098043D02*
X0091739Y0098043D01*
X0091224Y0097545D02*
X0086276Y0097545D01*
X0087092Y0097046D02*
X0090408Y0097046D01*
X0088750Y0060837D02*
X0089434Y0060777D01*
X0090097Y0060599D01*
X0090719Y0060309D01*
X0091281Y0059916D01*
X0091766Y0059430D01*
X0092160Y0058868D01*
X0092450Y0058246D01*
X0092627Y0057583D01*
X0092687Y0056900D01*
X0092627Y0056216D01*
X0092450Y0055553D01*
X0092160Y0054931D01*
X0091766Y0054369D01*
X0091281Y0053884D01*
X0090719Y0053490D01*
X0090097Y0053200D01*
X0089434Y0053022D01*
X0088750Y0052963D01*
X0088066Y0053022D01*
X0087403Y0053200D01*
X0086781Y0053490D01*
X0086219Y0053884D01*
X0085734Y0054369D01*
X0085340Y0054931D01*
X0085050Y0055553D01*
X0084873Y0056216D01*
X0084813Y0056900D01*
X0084873Y0057583D01*
X0085050Y0058246D01*
X0085340Y0058868D01*
X0085734Y0059430D01*
X0086219Y0059916D01*
X0086781Y0060309D01*
X0087403Y0060599D01*
X0088066Y0060777D01*
X0088750Y0060837D01*
X0087611Y0060655D02*
X0089889Y0060655D01*
X0090937Y0060156D02*
X0086563Y0060156D01*
X0085962Y0059658D02*
X0091538Y0059658D01*
X0091956Y0059159D02*
X0085544Y0059159D01*
X0085244Y0058661D02*
X0092256Y0058661D01*
X0092472Y0058162D02*
X0085028Y0058162D01*
X0084894Y0057664D02*
X0092606Y0057664D01*
X0092664Y0057165D02*
X0084836Y0057165D01*
X0084833Y0056667D02*
X0092667Y0056667D01*
X0092614Y0056168D02*
X0084886Y0056168D01*
X0085019Y0055670D02*
X0092481Y0055670D01*
X0092271Y0055171D02*
X0085229Y0055171D01*
X0085521Y0054673D02*
X0091979Y0054673D01*
X0091571Y0054174D02*
X0085929Y0054174D01*
X0086517Y0053676D02*
X0090983Y0053676D01*
X0090011Y0053177D02*
X0087489Y0053177D01*
X0063191Y0062110D02*
X0062991Y0061736D01*
X0062722Y0061408D01*
X0062394Y0061139D01*
X0062020Y0060938D01*
X0061613Y0060815D01*
X0061191Y0060774D01*
X0060769Y0060815D01*
X0060362Y0060938D01*
X0059988Y0061139D01*
X0059660Y0061408D01*
X0059391Y0061736D01*
X0059190Y0062110D01*
X0059067Y0062517D01*
X0059026Y0062939D01*
X0059067Y0063361D01*
X0059190Y0063768D01*
X0059391Y0064142D01*
X0059660Y0064470D01*
X0059988Y0064739D01*
X0060362Y0064940D01*
X0060769Y0065063D01*
X0061191Y0065104D01*
X0061388Y0065104D01*
X0061826Y0065055D01*
X0062242Y0064909D01*
X0062615Y0064675D01*
X0062927Y0064363D01*
X0063161Y0063990D01*
X0063307Y0063574D01*
X0063356Y0063136D01*
X0063356Y0062939D01*
X0063315Y0062517D01*
X0063191Y0062110D01*
X0063204Y0062150D02*
X0059178Y0062150D01*
X0059054Y0062649D02*
X0063328Y0062649D01*
X0063355Y0063147D02*
X0059046Y0063147D01*
X0059153Y0063646D02*
X0063282Y0063646D01*
X0063064Y0064144D02*
X0059392Y0064144D01*
X0059870Y0064643D02*
X0062647Y0064643D01*
X0062922Y0061652D02*
X0059460Y0061652D01*
X0059970Y0061153D02*
X0062412Y0061153D01*
X0061613Y0068815D02*
X0061191Y0068774D01*
X0060769Y0068815D01*
X0060362Y0068938D01*
X0059988Y0069139D01*
X0059660Y0069408D01*
X0059391Y0069736D01*
X0059190Y0070110D01*
X0059067Y0070517D01*
X0059026Y0070939D01*
X0059067Y0071361D01*
X0059190Y0071768D01*
X0059391Y0072142D01*
X0059660Y0072470D01*
X0059988Y0072739D01*
X0060362Y0072940D01*
X0060769Y0073063D01*
X0061191Y0073104D01*
X0061388Y0073104D01*
X0061826Y0073055D01*
X0062242Y0072909D01*
X0062615Y0072675D01*
X0062927Y0072363D01*
X0063161Y0071990D01*
X0063307Y0071574D01*
X0063356Y0071136D01*
X0063356Y0070939D01*
X0063315Y0070517D01*
X0063191Y0070110D01*
X0062991Y0069736D01*
X0062722Y0069408D01*
X0062394Y0069139D01*
X0062020Y0068938D01*
X0061613Y0068815D01*
X0062377Y0069129D02*
X0060005Y0069129D01*
X0059479Y0069628D02*
X0062903Y0069628D01*
X0063196Y0070126D02*
X0059186Y0070126D01*
X0059057Y0070625D02*
X0063325Y0070625D01*
X0063356Y0071123D02*
X0059044Y0071123D01*
X0059146Y0071622D02*
X0063290Y0071622D01*
X0063079Y0072120D02*
X0059379Y0072120D01*
X0059841Y0072619D02*
X0062671Y0072619D01*
X0061613Y0076689D02*
X0061191Y0076648D01*
X0060769Y0076689D01*
X0060362Y0076812D01*
X0059988Y0077013D01*
X0059660Y0077282D01*
X0059391Y0077610D01*
X0059190Y0077984D01*
X0059067Y0078391D01*
X0059026Y0078813D01*
X0059067Y0079235D01*
X0059190Y0079642D01*
X0059391Y0080016D01*
X0059660Y0080344D01*
X0059988Y0080613D01*
X0060362Y0080814D01*
X0060769Y0080937D01*
X0061191Y0080978D01*
X0061388Y0080978D01*
X0061826Y0080929D01*
X0062242Y0080783D01*
X0062615Y0080549D01*
X0062927Y0080237D01*
X0063161Y0079864D01*
X0063307Y0079448D01*
X0063356Y0079010D01*
X0063356Y0078813D01*
X0063315Y0078391D01*
X0063191Y0077984D01*
X0062991Y0077610D01*
X0062722Y0077282D01*
X0062394Y0077013D01*
X0062020Y0076812D01*
X0061613Y0076689D01*
X0062507Y0077106D02*
X0059875Y0077106D01*
X0059395Y0077604D02*
X0062987Y0077604D01*
X0063227Y0078103D02*
X0059155Y0078103D01*
X0059046Y0078601D02*
X0063335Y0078601D01*
X0063346Y0079100D02*
X0059054Y0079100D01*
X0059177Y0079598D02*
X0063254Y0079598D01*
X0063015Y0080097D02*
X0059457Y0080097D01*
X0059966Y0080595D02*
X0062541Y0080595D01*
X0061613Y0084563D02*
X0061191Y0084522D01*
X0060769Y0084563D01*
X0060362Y0084686D01*
X0059988Y0084887D01*
X0059660Y0085156D01*
X0059391Y0085484D01*
X0059190Y0085858D01*
X0059067Y0086265D01*
X0059026Y0086687D01*
X0059067Y0087109D01*
X0059190Y0087516D01*
X0059391Y0087890D01*
X0059660Y0088218D01*
X0059988Y0088487D01*
X0060362Y0088688D01*
X0060769Y0088811D01*
X0061191Y0088852D01*
X0061388Y0088852D01*
X0061826Y0088803D01*
X0062242Y0088657D01*
X0062615Y0088423D01*
X0062927Y0088111D01*
X0063161Y0087738D01*
X0063307Y0087322D01*
X0063356Y0086884D01*
X0063356Y0086687D01*
X0063315Y0086265D01*
X0063191Y0085858D01*
X0062991Y0085484D01*
X0062722Y0085156D01*
X0062394Y0084887D01*
X0062020Y0084686D01*
X0061613Y0084563D01*
X0061679Y0084583D02*
X0060703Y0084583D01*
X0059750Y0085082D02*
X0062632Y0085082D01*
X0063043Y0085580D02*
X0059339Y0085580D01*
X0059124Y0086079D02*
X0063258Y0086079D01*
X0063345Y0086577D02*
X0059036Y0086577D01*
X0059064Y0087076D02*
X0063335Y0087076D01*
X0063219Y0087574D02*
X0059222Y0087574D01*
X0059541Y0088073D02*
X0062951Y0088073D01*
X0062379Y0088571D02*
X0060145Y0088571D01*
X0060769Y0092437D02*
X0060362Y0092560D01*
X0059988Y0092761D01*
X0059660Y0093030D01*
X0059391Y0093358D01*
X0059190Y0093732D01*
X0059067Y0094139D01*
X0059026Y0094561D01*
X0059067Y0094983D01*
X0059190Y0095390D01*
X0059391Y0095764D01*
X0059660Y0096092D01*
X0059988Y0096361D01*
X0060362Y0096562D01*
X0060769Y0096685D01*
X0061191Y0096726D01*
X0061388Y0096726D01*
X0061826Y0096677D01*
X0062242Y0096531D01*
X0062615Y0096297D01*
X0062927Y0095985D01*
X0063161Y0095612D01*
X0063307Y0095196D01*
X0063356Y0094758D01*
X0063356Y0094561D01*
X0063315Y0094139D01*
X0063191Y0093732D01*
X0062991Y0093358D01*
X0062722Y0093030D01*
X0062394Y0092761D01*
X0062020Y0092560D01*
X0061613Y0092437D01*
X0061191Y0092396D01*
X0060769Y0092437D01*
X0060366Y0092559D02*
X0062016Y0092559D01*
X0062745Y0093058D02*
X0059637Y0093058D01*
X0059284Y0093556D02*
X0063097Y0093556D01*
X0063289Y0094055D02*
X0059093Y0094055D01*
X0059026Y0094553D02*
X0063356Y0094553D01*
X0063323Y0095052D02*
X0059088Y0095052D01*
X0059276Y0095551D02*
X0063183Y0095551D01*
X0062863Y0096049D02*
X0059624Y0096049D01*
X0060336Y0096548D02*
X0062196Y0096548D01*
X0045000Y0054250D02*
X0045000Y0053250D01*
X0039500Y0053250D01*
X0039500Y0054250D01*
X0045000Y0054250D01*
X0045000Y0054174D02*
X0039500Y0054174D01*
X0039500Y0053676D02*
X0045000Y0053676D01*
X0045000Y0155250D02*
X0039500Y0155250D01*
X0039500Y0156250D01*
X0045000Y0156250D01*
X0045000Y0155250D01*
X0045000Y0155372D02*
X0039500Y0155372D01*
X0039500Y0155870D02*
X0045000Y0155870D01*
X0059391Y0163736D02*
X0059190Y0164110D01*
X0059067Y0164517D01*
X0059026Y0164939D01*
X0059067Y0165361D01*
X0059190Y0165768D01*
X0059391Y0166142D01*
X0059660Y0166470D01*
X0059988Y0166739D01*
X0060362Y0166940D01*
X0060769Y0167063D01*
X0061191Y0167104D01*
X0061388Y0167104D01*
X0061826Y0167055D01*
X0062242Y0166909D01*
X0062615Y0166675D01*
X0062927Y0166363D01*
X0063161Y0165990D01*
X0063307Y0165574D01*
X0063356Y0165136D01*
X0063356Y0164939D01*
X0063315Y0164517D01*
X0063191Y0164110D01*
X0062991Y0163736D01*
X0062722Y0163408D01*
X0062394Y0163139D01*
X0062020Y0162938D01*
X0061613Y0162815D01*
X0061191Y0162774D01*
X0060769Y0162815D01*
X0060362Y0162938D01*
X0059988Y0163139D01*
X0059660Y0163408D01*
X0059391Y0163736D01*
X0059331Y0163847D02*
X0063050Y0163847D01*
X0063263Y0164345D02*
X0059119Y0164345D01*
X0059035Y0164844D02*
X0063347Y0164844D01*
X0063333Y0165342D02*
X0059065Y0165342D01*
X0059229Y0165841D02*
X0063214Y0165841D01*
X0062942Y0166339D02*
X0059552Y0166339D01*
X0060172Y0166838D02*
X0062356Y0166838D01*
X0062649Y0163348D02*
X0059733Y0163348D01*
X0060655Y0162850D02*
X0061727Y0162850D01*
X0061191Y0170774D02*
X0060769Y0170815D01*
X0060362Y0170938D01*
X0059988Y0171139D01*
X0059660Y0171408D01*
X0059391Y0171736D01*
X0059190Y0172110D01*
X0059067Y0172517D01*
X0059026Y0172939D01*
X0059067Y0173361D01*
X0059190Y0173768D01*
X0059391Y0174142D01*
X0059660Y0174470D01*
X0059988Y0174739D01*
X0060362Y0174940D01*
X0060769Y0175063D01*
X0061191Y0175104D01*
X0061388Y0175104D01*
X0061826Y0175055D01*
X0062242Y0174909D01*
X0062615Y0174675D01*
X0062927Y0174363D01*
X0063161Y0173990D01*
X0063307Y0173574D01*
X0063356Y0173136D01*
X0063356Y0172939D01*
X0063315Y0172517D01*
X0063191Y0172110D01*
X0062991Y0171736D01*
X0062722Y0171408D01*
X0062394Y0171139D01*
X0062020Y0170938D01*
X0061613Y0170815D01*
X0061191Y0170774D01*
X0060734Y0170826D02*
X0061648Y0170826D01*
X0062620Y0171324D02*
X0059762Y0171324D01*
X0059344Y0171823D02*
X0063038Y0171823D01*
X0063255Y0172321D02*
X0059126Y0172321D01*
X0059037Y0172820D02*
X0063345Y0172820D01*
X0063336Y0173318D02*
X0059063Y0173318D01*
X0059217Y0173817D02*
X0063222Y0173817D01*
X0062957Y0174315D02*
X0059533Y0174315D01*
X0060127Y0174814D02*
X0062394Y0174814D01*
X0061613Y0178689D02*
X0061191Y0178648D01*
X0060769Y0178689D01*
X0060362Y0178812D01*
X0059988Y0179013D01*
X0059660Y0179282D01*
X0059391Y0179610D01*
X0059190Y0179984D01*
X0059067Y0180391D01*
X0059026Y0180813D01*
X0059067Y0181235D01*
X0059190Y0181642D01*
X0059391Y0182016D01*
X0059660Y0182344D01*
X0059988Y0182613D01*
X0060362Y0182814D01*
X0060769Y0182937D01*
X0061191Y0182978D01*
X0061388Y0182978D01*
X0061826Y0182929D01*
X0062242Y0182783D01*
X0062615Y0182549D01*
X0062927Y0182237D01*
X0063161Y0181864D01*
X0063307Y0181448D01*
X0063356Y0181010D01*
X0063356Y0180813D01*
X0063315Y0180391D01*
X0063191Y0179984D01*
X0062991Y0179610D01*
X0062722Y0179282D01*
X0062394Y0179013D01*
X0062020Y0178812D01*
X0061613Y0178689D01*
X0061985Y0178802D02*
X0060397Y0178802D01*
X0059645Y0179300D02*
X0062737Y0179300D01*
X0063092Y0179799D02*
X0059290Y0179799D01*
X0059095Y0180297D02*
X0063286Y0180297D01*
X0063355Y0180796D02*
X0059027Y0180796D01*
X0059085Y0181294D02*
X0063324Y0181294D01*
X0063186Y0181793D02*
X0059271Y0181793D01*
X0059617Y0182291D02*
X0062873Y0182291D01*
X0062223Y0182790D02*
X0060318Y0182790D01*
X0060769Y0186563D02*
X0060362Y0186686D01*
X0059988Y0186887D01*
X0059660Y0187156D01*
X0059391Y0187484D01*
X0059190Y0187858D01*
X0059067Y0188265D01*
X0059026Y0188687D01*
X0059067Y0189109D01*
X0059190Y0189516D01*
X0059391Y0189890D01*
X0059660Y0190218D01*
X0059988Y0190487D01*
X0060362Y0190688D01*
X0060769Y0190811D01*
X0061191Y0190852D01*
X0061388Y0190852D01*
X0061826Y0190803D01*
X0062242Y0190657D01*
X0062615Y0190423D01*
X0062927Y0190111D01*
X0063161Y0189738D01*
X0063307Y0189322D01*
X0063356Y0188884D01*
X0063356Y0188687D01*
X0063315Y0188265D01*
X0063191Y0187858D01*
X0062991Y0187484D01*
X0062722Y0187156D01*
X0062394Y0186887D01*
X0062020Y0186686D01*
X0061613Y0186563D01*
X0061191Y0186522D01*
X0060769Y0186563D01*
X0060191Y0186778D02*
X0062191Y0186778D01*
X0062821Y0187277D02*
X0059561Y0187277D01*
X0059235Y0187775D02*
X0063147Y0187775D01*
X0063316Y0188274D02*
X0059066Y0188274D01*
X0059034Y0188772D02*
X0063356Y0188772D01*
X0063313Y0189271D02*
X0059116Y0189271D01*
X0059326Y0189769D02*
X0063142Y0189769D01*
X0062770Y0190268D02*
X0059720Y0190268D01*
X0060622Y0190766D02*
X0061931Y0190766D01*
X0061613Y0194437D02*
X0061191Y0194396D01*
X0060769Y0194437D01*
X0060362Y0194560D01*
X0059988Y0194761D01*
X0059660Y0195030D01*
X0059391Y0195358D01*
X0059190Y0195732D01*
X0059067Y0196139D01*
X0059026Y0196561D01*
X0059067Y0196983D01*
X0059190Y0197390D01*
X0059391Y0197764D01*
X0059660Y0198092D01*
X0059988Y0198361D01*
X0060362Y0198562D01*
X0060769Y0198685D01*
X0061191Y0198726D01*
X0061388Y0198726D01*
X0061826Y0198677D01*
X0062242Y0198531D01*
X0062615Y0198297D01*
X0062927Y0197985D01*
X0063161Y0197612D01*
X0063307Y0197196D01*
X0063356Y0196758D01*
X0063356Y0196561D01*
X0063315Y0196139D01*
X0063191Y0195732D01*
X0062991Y0195358D01*
X0062722Y0195030D01*
X0062394Y0194761D01*
X0062020Y0194560D01*
X0061613Y0194437D01*
X0062382Y0194754D02*
X0060000Y0194754D01*
X0059477Y0195253D02*
X0062905Y0195253D01*
X0063197Y0195751D02*
X0059185Y0195751D01*
X0059056Y0196250D02*
X0063326Y0196250D01*
X0063356Y0196748D02*
X0059044Y0196748D01*
X0059147Y0197247D02*
X0063289Y0197247D01*
X0063078Y0197745D02*
X0059381Y0197745D01*
X0059845Y0198244D02*
X0062668Y0198244D01*
X0084873Y0201917D02*
X0084813Y0202600D01*
X0084873Y0203284D01*
X0085050Y0203947D01*
X0085340Y0204569D01*
X0085734Y0205131D01*
X0086219Y0205616D01*
X0086781Y0206010D01*
X0087403Y0206300D01*
X0088066Y0206478D01*
X0088750Y0206537D01*
X0089434Y0206478D01*
X0090097Y0206300D01*
X0090719Y0206010D01*
X0091281Y0205616D01*
X0091766Y0205131D01*
X0092160Y0204569D01*
X0092450Y0203947D01*
X0092627Y0203284D01*
X0092687Y0202600D01*
X0092627Y0201917D01*
X0092450Y0201254D01*
X0092160Y0200632D01*
X0091766Y0200070D01*
X0091281Y0199584D01*
X0090719Y0199191D01*
X0090097Y0198901D01*
X0089434Y0198723D01*
X0088750Y0198663D01*
X0088066Y0198723D01*
X0087403Y0198901D01*
X0086781Y0199191D01*
X0086219Y0199584D01*
X0085734Y0200070D01*
X0085340Y0200632D01*
X0085050Y0201254D01*
X0084873Y0201917D01*
X0084922Y0201733D02*
X0092578Y0201733D01*
X0092655Y0202232D02*
X0084845Y0202232D01*
X0084824Y0202730D02*
X0092676Y0202730D01*
X0092632Y0203229D02*
X0084868Y0203229D01*
X0084992Y0203727D02*
X0092508Y0203727D01*
X0092319Y0204226D02*
X0085181Y0204226D01*
X0085449Y0204724D02*
X0092051Y0204724D01*
X0091674Y0205223D02*
X0085826Y0205223D01*
X0086370Y0205722D02*
X0091130Y0205722D01*
X0090268Y0206220D02*
X0087232Y0206220D01*
X0085059Y0201235D02*
X0092441Y0201235D01*
X0092208Y0200736D02*
X0085292Y0200736D01*
X0085616Y0200238D02*
X0091884Y0200238D01*
X0091436Y0199739D02*
X0086064Y0199739D01*
X0086710Y0199241D02*
X0090790Y0199241D01*
X0089505Y0198742D02*
X0087995Y0198742D01*
X0088750Y0162837D02*
X0089434Y0162777D01*
X0090097Y0162599D01*
X0090719Y0162309D01*
X0091281Y0161916D01*
X0091766Y0161430D01*
X0092160Y0160868D01*
X0092450Y0160246D01*
X0092627Y0159583D01*
X0092687Y0158900D01*
X0092627Y0158216D01*
X0092450Y0157553D01*
X0092160Y0156931D01*
X0091766Y0156369D01*
X0091281Y0155884D01*
X0090719Y0155490D01*
X0090097Y0155200D01*
X0089434Y0155022D01*
X0088750Y0154963D01*
X0088066Y0155022D01*
X0087403Y0155200D01*
X0086781Y0155490D01*
X0086219Y0155884D01*
X0085734Y0156369D01*
X0085340Y0156931D01*
X0085050Y0157553D01*
X0084873Y0158216D01*
X0084813Y0158900D01*
X0084873Y0159583D01*
X0085050Y0160246D01*
X0085340Y0160868D01*
X0085734Y0161430D01*
X0086219Y0161916D01*
X0086781Y0162309D01*
X0087403Y0162599D01*
X0088066Y0162777D01*
X0088750Y0162837D01*
X0086871Y0162351D02*
X0090629Y0162351D01*
X0091344Y0161853D02*
X0086156Y0161853D01*
X0085681Y0161354D02*
X0091819Y0161354D01*
X0092165Y0160855D02*
X0085335Y0160855D01*
X0085102Y0160357D02*
X0092398Y0160357D01*
X0092553Y0159858D02*
X0084947Y0159858D01*
X0084853Y0159360D02*
X0092647Y0159360D01*
X0092684Y0158861D02*
X0084816Y0158861D01*
X0084860Y0158363D02*
X0092640Y0158363D01*
X0092533Y0157864D02*
X0084967Y0157864D01*
X0085138Y0157366D02*
X0092362Y0157366D01*
X0092115Y0156867D02*
X0085385Y0156867D01*
X0085734Y0156369D02*
X0091766Y0156369D01*
X0091262Y0155870D02*
X0086238Y0155870D01*
X0087035Y0155372D02*
X0090465Y0155372D01*
X0116477Y0169508D02*
X0116277Y0169882D01*
X0116154Y0170288D01*
X0116112Y0170711D01*
X0116154Y0171133D01*
X0116277Y0171539D01*
X0116477Y0171914D01*
X0116746Y0172242D01*
X0117075Y0172511D01*
X0117449Y0172711D01*
X0117855Y0172834D01*
X0118278Y0172876D01*
X0118474Y0172876D01*
X0118912Y0172827D01*
X0119329Y0172681D01*
X0119702Y0172447D01*
X0120013Y0172135D01*
X0120248Y0171762D01*
X0120394Y0171346D01*
X0120443Y0170907D01*
X0120443Y0170711D01*
X0120401Y0170288D01*
X0120278Y0169882D01*
X0120078Y0169508D01*
X0119809Y0169179D01*
X0119481Y0168910D01*
X0119106Y0168710D01*
X0118700Y0168587D01*
X0118278Y0168545D01*
X0117855Y0168587D01*
X0117449Y0168710D01*
X0117075Y0168910D01*
X0116746Y0169179D01*
X0116477Y0169508D01*
X0116623Y0169330D02*
X0119932Y0169330D01*
X0120250Y0169829D02*
X0116306Y0169829D01*
X0116150Y0170327D02*
X0120405Y0170327D01*
X0120443Y0170826D02*
X0116124Y0170826D01*
X0116212Y0171324D02*
X0120396Y0171324D01*
X0120210Y0171823D02*
X0116429Y0171823D01*
X0116843Y0172321D02*
X0119827Y0172321D01*
X0118932Y0172820D02*
X0117807Y0172820D01*
X0117221Y0168832D02*
X0119334Y0168832D01*
X0118278Y0178585D02*
X0117855Y0178626D01*
X0117449Y0178749D01*
X0117075Y0178950D01*
X0116746Y0179219D01*
X0116477Y0179547D01*
X0116277Y0179921D01*
X0116154Y0180328D01*
X0116112Y0180750D01*
X0116154Y0181172D01*
X0116277Y0181579D01*
X0116477Y0181953D01*
X0116746Y0182281D01*
X0117075Y0182550D01*
X0117449Y0182751D01*
X0117855Y0182874D01*
X0118278Y0182915D01*
X0118474Y0182915D01*
X0118912Y0182866D01*
X0119329Y0182720D01*
X0119702Y0182486D01*
X0120013Y0182174D01*
X0120248Y0181801D01*
X0120394Y0181385D01*
X0120443Y0180947D01*
X0120443Y0180750D01*
X0120401Y0180328D01*
X0120278Y0179921D01*
X0120078Y0179547D01*
X0119809Y0179219D01*
X0119481Y0178950D01*
X0119106Y0178749D01*
X0118700Y0178626D01*
X0118278Y0178585D01*
X0119204Y0178802D02*
X0117351Y0178802D01*
X0116679Y0179300D02*
X0119876Y0179300D01*
X0120213Y0179799D02*
X0116342Y0179799D01*
X0116163Y0180297D02*
X0120392Y0180297D01*
X0120443Y0180796D02*
X0116117Y0180796D01*
X0116191Y0181294D02*
X0120404Y0181294D01*
X0120251Y0181793D02*
X0116392Y0181793D01*
X0116759Y0182291D02*
X0119896Y0182291D01*
X0119130Y0182790D02*
X0117579Y0182790D01*
X0118278Y0188427D02*
X0117855Y0188469D01*
X0117449Y0188592D01*
X0117075Y0188792D01*
X0116746Y0189061D01*
X0116477Y0189390D01*
X0116277Y0189764D01*
X0116154Y0190170D01*
X0116112Y0190593D01*
X0116154Y0191015D01*
X0116277Y0191421D01*
X0116477Y0191796D01*
X0116746Y0192124D01*
X0117075Y0192393D01*
X0117449Y0192593D01*
X0117855Y0192716D01*
X0118278Y0192758D01*
X0118474Y0192758D01*
X0118912Y0192709D01*
X0119329Y0192563D01*
X0119702Y0192328D01*
X0120013Y0192017D01*
X0120248Y0191643D01*
X0120394Y0191227D01*
X0120443Y0190789D01*
X0120443Y0190593D01*
X0120401Y0190170D01*
X0120278Y0189764D01*
X0120078Y0189390D01*
X0119809Y0189061D01*
X0119481Y0188792D01*
X0119106Y0188592D01*
X0118700Y0188469D01*
X0118278Y0188427D01*
X0117112Y0188772D02*
X0119443Y0188772D01*
X0119980Y0189271D02*
X0116575Y0189271D01*
X0116275Y0189769D02*
X0120280Y0189769D01*
X0120411Y0190268D02*
X0116144Y0190268D01*
X0116129Y0190766D02*
X0120443Y0190766D01*
X0120380Y0191265D02*
X0116230Y0191265D01*
X0116460Y0191763D02*
X0120173Y0191763D01*
X0119768Y0192262D02*
X0116915Y0192262D01*
X0138000Y0156250D02*
X0138000Y0155250D01*
X0139500Y0155250D01*
X0139500Y0156250D01*
X0138000Y0156250D01*
X0138000Y0155870D02*
X0139500Y0155870D01*
X0139500Y0155372D02*
X0138000Y0155372D01*
X0161500Y0155372D02*
X0167000Y0155372D01*
X0167000Y0155250D02*
X0167000Y0156250D01*
X0161500Y0156250D01*
X0161500Y0155250D01*
X0167000Y0155250D01*
X0167000Y0155870D02*
X0161500Y0155870D01*
X0181190Y0164110D02*
X0181067Y0164517D01*
X0181026Y0164939D01*
X0181067Y0165361D01*
X0181190Y0165768D01*
X0181391Y0166142D01*
X0181660Y0166470D01*
X0181988Y0166739D01*
X0182362Y0166940D01*
X0182769Y0167063D01*
X0183191Y0167104D01*
X0183388Y0167104D01*
X0183826Y0167055D01*
X0184242Y0166909D01*
X0184615Y0166675D01*
X0184927Y0166363D01*
X0185161Y0165990D01*
X0185307Y0165574D01*
X0185356Y0165136D01*
X0185356Y0164939D01*
X0185315Y0164517D01*
X0185191Y0164110D01*
X0184991Y0163736D01*
X0184722Y0163408D01*
X0184394Y0163139D01*
X0184020Y0162938D01*
X0183613Y0162815D01*
X0183191Y0162774D01*
X0182769Y0162815D01*
X0182362Y0162938D01*
X0181988Y0163139D01*
X0181660Y0163408D01*
X0181391Y0163736D01*
X0181190Y0164110D01*
X0181119Y0164345D02*
X0185263Y0164345D01*
X0185347Y0164844D02*
X0181035Y0164844D01*
X0181065Y0165342D02*
X0185333Y0165342D01*
X0185214Y0165841D02*
X0181229Y0165841D01*
X0181552Y0166339D02*
X0184942Y0166339D01*
X0184356Y0166838D02*
X0182172Y0166838D01*
X0181331Y0163847D02*
X0185050Y0163847D01*
X0184649Y0163348D02*
X0181733Y0163348D01*
X0182655Y0162850D02*
X0183727Y0162850D01*
X0183191Y0170774D02*
X0182769Y0170815D01*
X0182362Y0170938D01*
X0181988Y0171139D01*
X0181660Y0171408D01*
X0181391Y0171736D01*
X0181190Y0172110D01*
X0181067Y0172517D01*
X0181026Y0172939D01*
X0181067Y0173361D01*
X0181190Y0173768D01*
X0181391Y0174142D01*
X0181660Y0174470D01*
X0181988Y0174739D01*
X0182362Y0174940D01*
X0182769Y0175063D01*
X0183191Y0175104D01*
X0183388Y0175104D01*
X0183826Y0175055D01*
X0184242Y0174909D01*
X0184615Y0174675D01*
X0184927Y0174363D01*
X0185161Y0173990D01*
X0185307Y0173574D01*
X0185356Y0173136D01*
X0185356Y0172939D01*
X0185315Y0172517D01*
X0185191Y0172110D01*
X0184991Y0171736D01*
X0184722Y0171408D01*
X0184394Y0171139D01*
X0184020Y0170938D01*
X0183613Y0170815D01*
X0183191Y0170774D01*
X0182734Y0170826D02*
X0183648Y0170826D01*
X0184620Y0171324D02*
X0181762Y0171324D01*
X0181344Y0171823D02*
X0185038Y0171823D01*
X0185255Y0172321D02*
X0181126Y0172321D01*
X0181037Y0172820D02*
X0185345Y0172820D01*
X0185336Y0173318D02*
X0181063Y0173318D01*
X0181217Y0173817D02*
X0185222Y0173817D01*
X0184957Y0174315D02*
X0181533Y0174315D01*
X0182127Y0174814D02*
X0184394Y0174814D01*
X0183613Y0178689D02*
X0183191Y0178648D01*
X0182769Y0178689D01*
X0182362Y0178812D01*
X0181988Y0179013D01*
X0181660Y0179282D01*
X0181391Y0179610D01*
X0181190Y0179984D01*
X0181067Y0180391D01*
X0181026Y0180813D01*
X0181067Y0181235D01*
X0181190Y0181642D01*
X0181391Y0182016D01*
X0181660Y0182344D01*
X0181988Y0182613D01*
X0182362Y0182814D01*
X0182769Y0182937D01*
X0183191Y0182978D01*
X0183388Y0182978D01*
X0183826Y0182929D01*
X0184242Y0182783D01*
X0184615Y0182549D01*
X0184927Y0182237D01*
X0185161Y0181864D01*
X0185307Y0181448D01*
X0185356Y0181010D01*
X0185356Y0180813D01*
X0185315Y0180391D01*
X0185191Y0179984D01*
X0184991Y0179610D01*
X0184722Y0179282D01*
X0184394Y0179013D01*
X0184020Y0178812D01*
X0183613Y0178689D01*
X0183985Y0178802D02*
X0182397Y0178802D01*
X0181645Y0179300D02*
X0184737Y0179300D01*
X0185092Y0179799D02*
X0181290Y0179799D01*
X0181095Y0180297D02*
X0185286Y0180297D01*
X0185355Y0180796D02*
X0181027Y0180796D01*
X0181085Y0181294D02*
X0185324Y0181294D01*
X0185186Y0181793D02*
X0181271Y0181793D01*
X0181617Y0182291D02*
X0184873Y0182291D01*
X0184223Y0182790D02*
X0182318Y0182790D01*
X0182769Y0186563D02*
X0182362Y0186686D01*
X0181988Y0186887D01*
X0181660Y0187156D01*
X0181391Y0187484D01*
X0181190Y0187858D01*
X0181067Y0188265D01*
X0181026Y0188687D01*
X0181067Y0189109D01*
X0181190Y0189516D01*
X0181391Y0189890D01*
X0181660Y0190218D01*
X0181988Y0190487D01*
X0182362Y0190688D01*
X0182769Y0190811D01*
X0183191Y0190852D01*
X0183388Y0190852D01*
X0183826Y0190803D01*
X0184242Y0190657D01*
X0184615Y0190423D01*
X0184927Y0190111D01*
X0185161Y0189738D01*
X0185307Y0189322D01*
X0185356Y0188884D01*
X0185356Y0188687D01*
X0185315Y0188265D01*
X0185191Y0187858D01*
X0184991Y0187484D01*
X0184722Y0187156D01*
X0184394Y0186887D01*
X0184020Y0186686D01*
X0183613Y0186563D01*
X0183191Y0186522D01*
X0182769Y0186563D01*
X0182191Y0186778D02*
X0184191Y0186778D01*
X0184821Y0187277D02*
X0181561Y0187277D01*
X0181235Y0187775D02*
X0185147Y0187775D01*
X0185316Y0188274D02*
X0181066Y0188274D01*
X0181034Y0188772D02*
X0185356Y0188772D01*
X0185313Y0189271D02*
X0181116Y0189271D01*
X0181326Y0189769D02*
X0185142Y0189769D01*
X0184770Y0190268D02*
X0181720Y0190268D01*
X0182622Y0190766D02*
X0183931Y0190766D01*
X0183613Y0194437D02*
X0183191Y0194396D01*
X0182769Y0194437D01*
X0182362Y0194560D01*
X0181988Y0194761D01*
X0181660Y0195030D01*
X0181391Y0195358D01*
X0181190Y0195732D01*
X0181067Y0196139D01*
X0181026Y0196561D01*
X0181067Y0196983D01*
X0181190Y0197390D01*
X0181391Y0197764D01*
X0181660Y0198092D01*
X0181988Y0198361D01*
X0182362Y0198562D01*
X0182769Y0198685D01*
X0183191Y0198726D01*
X0183388Y0198726D01*
X0183826Y0198677D01*
X0184242Y0198531D01*
X0184615Y0198297D01*
X0184927Y0197985D01*
X0185161Y0197612D01*
X0185307Y0197196D01*
X0185356Y0196758D01*
X0185356Y0196561D01*
X0185315Y0196139D01*
X0185191Y0195732D01*
X0184991Y0195358D01*
X0184722Y0195030D01*
X0184394Y0194761D01*
X0184020Y0194560D01*
X0183613Y0194437D01*
X0184382Y0194754D02*
X0182000Y0194754D01*
X0181477Y0195253D02*
X0184905Y0195253D01*
X0185197Y0195751D02*
X0181185Y0195751D01*
X0181056Y0196250D02*
X0185326Y0196250D01*
X0185356Y0196748D02*
X0181044Y0196748D01*
X0181147Y0197247D02*
X0185289Y0197247D01*
X0185078Y0197745D02*
X0181381Y0197745D01*
X0181845Y0198244D02*
X0184668Y0198244D01*
X0206873Y0201917D02*
X0206813Y0202600D01*
X0206873Y0203284D01*
X0207050Y0203947D01*
X0207340Y0204569D01*
X0207734Y0205131D01*
X0208219Y0205616D01*
X0208781Y0206010D01*
X0209403Y0206300D01*
X0210066Y0206478D01*
X0210750Y0206537D01*
X0211434Y0206478D01*
X0212097Y0206300D01*
X0212719Y0206010D01*
X0213281Y0205616D01*
X0213766Y0205131D01*
X0214160Y0204569D01*
X0214450Y0203947D01*
X0214627Y0203284D01*
X0214687Y0202600D01*
X0214627Y0201917D01*
X0214450Y0201254D01*
X0214160Y0200632D01*
X0213766Y0200070D01*
X0213281Y0199584D01*
X0212719Y0199191D01*
X0212097Y0198901D01*
X0211434Y0198723D01*
X0210750Y0198663D01*
X0210066Y0198723D01*
X0209403Y0198901D01*
X0208781Y0199191D01*
X0208219Y0199584D01*
X0207734Y0200070D01*
X0207340Y0200632D01*
X0207050Y0201254D01*
X0206873Y0201917D01*
X0206922Y0201733D02*
X0214578Y0201733D01*
X0214655Y0202232D02*
X0206845Y0202232D01*
X0206824Y0202730D02*
X0214676Y0202730D01*
X0214632Y0203229D02*
X0206868Y0203229D01*
X0206992Y0203727D02*
X0214508Y0203727D01*
X0214319Y0204226D02*
X0207181Y0204226D01*
X0207449Y0204724D02*
X0214051Y0204724D01*
X0213674Y0205223D02*
X0207826Y0205223D01*
X0208370Y0205722D02*
X0213130Y0205722D01*
X0212268Y0206220D02*
X0209232Y0206220D01*
X0207059Y0201235D02*
X0214441Y0201235D01*
X0214208Y0200736D02*
X0207292Y0200736D01*
X0207616Y0200238D02*
X0213884Y0200238D01*
X0213436Y0199739D02*
X0208064Y0199739D01*
X0208710Y0199241D02*
X0212790Y0199241D01*
X0211505Y0198742D02*
X0209995Y0198742D01*
X0210750Y0162837D02*
X0211434Y0162777D01*
X0212097Y0162599D01*
X0212719Y0162309D01*
X0213281Y0161916D01*
X0213766Y0161430D01*
X0214160Y0160868D01*
X0214450Y0160246D01*
X0214627Y0159583D01*
X0214687Y0158900D01*
X0214627Y0158216D01*
X0214450Y0157553D01*
X0214160Y0156931D01*
X0213766Y0156369D01*
X0213281Y0155884D01*
X0212719Y0155490D01*
X0212097Y0155200D01*
X0211434Y0155022D01*
X0210750Y0154963D01*
X0210066Y0155022D01*
X0209403Y0155200D01*
X0208781Y0155490D01*
X0208219Y0155884D01*
X0207734Y0156369D01*
X0207340Y0156931D01*
X0207050Y0157553D01*
X0206873Y0158216D01*
X0206813Y0158900D01*
X0206873Y0159583D01*
X0207050Y0160246D01*
X0207340Y0160868D01*
X0207734Y0161430D01*
X0208219Y0161916D01*
X0208781Y0162309D01*
X0209403Y0162599D01*
X0210066Y0162777D01*
X0210750Y0162837D01*
X0208871Y0162351D02*
X0212629Y0162351D01*
X0213344Y0161853D02*
X0208156Y0161853D01*
X0207681Y0161354D02*
X0213819Y0161354D01*
X0214165Y0160855D02*
X0207335Y0160855D01*
X0207102Y0160357D02*
X0214398Y0160357D01*
X0214553Y0159858D02*
X0206947Y0159858D01*
X0206853Y0159360D02*
X0214647Y0159360D01*
X0214684Y0158861D02*
X0206816Y0158861D01*
X0206860Y0158363D02*
X0214640Y0158363D01*
X0214533Y0157864D02*
X0206967Y0157864D01*
X0207138Y0157366D02*
X0214362Y0157366D01*
X0214115Y0156867D02*
X0207385Y0156867D01*
X0207734Y0156369D02*
X0213766Y0156369D01*
X0213262Y0155870D02*
X0208238Y0155870D01*
X0209035Y0155372D02*
X0212465Y0155372D01*
X0238477Y0169508D02*
X0238277Y0169882D01*
X0238154Y0170288D01*
X0238112Y0170711D01*
X0238154Y0171133D01*
X0238277Y0171539D01*
X0238477Y0171914D01*
X0238746Y0172242D01*
X0239075Y0172511D01*
X0239449Y0172711D01*
X0239855Y0172834D01*
X0240278Y0172876D01*
X0240474Y0172876D01*
X0240912Y0172827D01*
X0241329Y0172681D01*
X0241702Y0172447D01*
X0242013Y0172135D01*
X0242248Y0171762D01*
X0242394Y0171346D01*
X0242443Y0170907D01*
X0242443Y0170711D01*
X0242401Y0170288D01*
X0242278Y0169882D01*
X0242078Y0169508D01*
X0241809Y0169179D01*
X0241481Y0168910D01*
X0241106Y0168710D01*
X0240700Y0168587D01*
X0240278Y0168545D01*
X0239855Y0168587D01*
X0239449Y0168710D01*
X0239075Y0168910D01*
X0238746Y0169179D01*
X0238477Y0169508D01*
X0238623Y0169330D02*
X0241932Y0169330D01*
X0242250Y0169829D02*
X0238306Y0169829D01*
X0238150Y0170327D02*
X0242405Y0170327D01*
X0242443Y0170826D02*
X0238124Y0170826D01*
X0238212Y0171324D02*
X0242396Y0171324D01*
X0242210Y0171823D02*
X0238429Y0171823D01*
X0238843Y0172321D02*
X0241827Y0172321D01*
X0240932Y0172820D02*
X0239807Y0172820D01*
X0239221Y0168832D02*
X0241334Y0168832D01*
X0240278Y0178585D02*
X0239855Y0178626D01*
X0239449Y0178749D01*
X0239075Y0178950D01*
X0238746Y0179219D01*
X0238477Y0179547D01*
X0238277Y0179921D01*
X0238154Y0180328D01*
X0238112Y0180750D01*
X0238154Y0181172D01*
X0238277Y0181579D01*
X0238477Y0181953D01*
X0238746Y0182281D01*
X0239075Y0182550D01*
X0239449Y0182751D01*
X0239855Y0182874D01*
X0240278Y0182915D01*
X0240474Y0182915D01*
X0240912Y0182866D01*
X0241329Y0182720D01*
X0241702Y0182486D01*
X0242013Y0182174D01*
X0242248Y0181801D01*
X0242394Y0181385D01*
X0242443Y0180947D01*
X0242443Y0180750D01*
X0242401Y0180328D01*
X0242278Y0179921D01*
X0242078Y0179547D01*
X0241809Y0179219D01*
X0241481Y0178950D01*
X0241106Y0178749D01*
X0240700Y0178626D01*
X0240278Y0178585D01*
X0241204Y0178802D02*
X0239351Y0178802D01*
X0238679Y0179300D02*
X0241876Y0179300D01*
X0242213Y0179799D02*
X0238342Y0179799D01*
X0238163Y0180297D02*
X0242392Y0180297D01*
X0242443Y0180796D02*
X0238117Y0180796D01*
X0238191Y0181294D02*
X0242404Y0181294D01*
X0242251Y0181793D02*
X0238392Y0181793D01*
X0238759Y0182291D02*
X0241896Y0182291D01*
X0241130Y0182790D02*
X0239579Y0182790D01*
X0240278Y0188427D02*
X0239855Y0188469D01*
X0239449Y0188592D01*
X0239075Y0188792D01*
X0238746Y0189061D01*
X0238477Y0189390D01*
X0238277Y0189764D01*
X0238154Y0190170D01*
X0238112Y0190593D01*
X0238154Y0191015D01*
X0238277Y0191421D01*
X0238477Y0191796D01*
X0238746Y0192124D01*
X0239075Y0192393D01*
X0239449Y0192593D01*
X0239855Y0192716D01*
X0240278Y0192758D01*
X0240474Y0192758D01*
X0240912Y0192709D01*
X0241329Y0192563D01*
X0241702Y0192328D01*
X0242013Y0192017D01*
X0242248Y0191643D01*
X0242394Y0191227D01*
X0242443Y0190789D01*
X0242443Y0190593D01*
X0242401Y0190170D01*
X0242278Y0189764D01*
X0242078Y0189390D01*
X0241809Y0189061D01*
X0241481Y0188792D01*
X0241106Y0188592D01*
X0240700Y0188469D01*
X0240278Y0188427D01*
X0239112Y0188772D02*
X0241443Y0188772D01*
X0241980Y0189271D02*
X0238575Y0189271D01*
X0238275Y0189769D02*
X0242280Y0189769D01*
X0242411Y0190268D02*
X0238144Y0190268D01*
X0238129Y0190766D02*
X0242443Y0190766D01*
X0242380Y0191265D02*
X0238230Y0191265D01*
X0238460Y0191763D02*
X0242173Y0191763D01*
X0241768Y0192262D02*
X0238915Y0192262D01*
X0260000Y0156250D02*
X0260000Y0155250D01*
X0261500Y0155250D01*
X0261500Y0156250D01*
X0260000Y0156250D01*
X0260000Y0155870D02*
X0261500Y0155870D01*
X0261500Y0155372D02*
X0260000Y0155372D01*
X0260000Y0257250D02*
X0260000Y0258250D01*
X0261500Y0258250D01*
X0261500Y0257250D01*
X0260000Y0257250D01*
X0260000Y0257567D02*
X0261500Y0257567D01*
X0261500Y0258065D02*
X0260000Y0258065D01*
X0242078Y0271508D02*
X0241809Y0271179D01*
X0241481Y0270910D01*
X0241106Y0270710D01*
X0240700Y0270587D01*
X0240278Y0270545D01*
X0239855Y0270587D01*
X0239449Y0270710D01*
X0239075Y0270910D01*
X0238746Y0271179D01*
X0238477Y0271508D01*
X0238277Y0271882D01*
X0238154Y0272288D01*
X0238112Y0272711D01*
X0238154Y0273133D01*
X0238277Y0273539D01*
X0238477Y0273914D01*
X0238746Y0274242D01*
X0239075Y0274511D01*
X0239449Y0274711D01*
X0239855Y0274834D01*
X0240278Y0274876D01*
X0240474Y0274876D01*
X0240912Y0274827D01*
X0241329Y0274681D01*
X0241702Y0274447D01*
X0242013Y0274135D01*
X0242248Y0273762D01*
X0242394Y0273346D01*
X0242443Y0272907D01*
X0242443Y0272711D01*
X0242401Y0272288D01*
X0242278Y0271882D01*
X0242078Y0271508D01*
X0242087Y0271525D02*
X0238468Y0271525D01*
X0238234Y0272024D02*
X0242321Y0272024D01*
X0242424Y0272522D02*
X0238131Y0272522D01*
X0238143Y0273021D02*
X0242430Y0273021D01*
X0242333Y0273519D02*
X0238271Y0273519D01*
X0238562Y0274018D02*
X0242087Y0274018D01*
X0241591Y0274516D02*
X0239084Y0274516D01*
X0238933Y0271027D02*
X0241622Y0271027D01*
X0240700Y0280626D02*
X0240278Y0280585D01*
X0239855Y0280626D01*
X0239449Y0280749D01*
X0239075Y0280950D01*
X0238746Y0281219D01*
X0238477Y0281547D01*
X0238277Y0281921D01*
X0238154Y0282328D01*
X0238112Y0282750D01*
X0238154Y0283172D01*
X0238277Y0283579D01*
X0238477Y0283953D01*
X0238746Y0284281D01*
X0239075Y0284550D01*
X0239449Y0284751D01*
X0239855Y0284874D01*
X0240278Y0284915D01*
X0240474Y0284915D01*
X0240912Y0284866D01*
X0241329Y0284720D01*
X0241702Y0284486D01*
X0242013Y0284174D01*
X0242248Y0283801D01*
X0242394Y0283385D01*
X0242443Y0282947D01*
X0242443Y0282750D01*
X0242401Y0282328D01*
X0242278Y0281921D01*
X0242078Y0281547D01*
X0241809Y0281219D01*
X0241481Y0280950D01*
X0241106Y0280749D01*
X0240700Y0280626D01*
X0241538Y0280997D02*
X0239017Y0280997D01*
X0238520Y0281495D02*
X0242036Y0281495D01*
X0242300Y0281994D02*
X0238255Y0281994D01*
X0238138Y0282492D02*
X0242418Y0282492D01*
X0242438Y0282991D02*
X0238136Y0282991D01*
X0238250Y0283489D02*
X0242357Y0283489D01*
X0242131Y0283988D02*
X0238506Y0283988D01*
X0238996Y0284486D02*
X0241701Y0284486D01*
X0240700Y0290469D02*
X0240278Y0290427D01*
X0239855Y0290469D01*
X0239449Y0290592D01*
X0239075Y0290792D01*
X0238746Y0291061D01*
X0238477Y0291390D01*
X0238277Y0291764D01*
X0238154Y0292170D01*
X0238112Y0292593D01*
X0238154Y0293015D01*
X0238277Y0293421D01*
X0238477Y0293796D01*
X0238746Y0294124D01*
X0239075Y0294393D01*
X0239449Y0294593D01*
X0239855Y0294716D01*
X0240278Y0294758D01*
X0240474Y0294758D01*
X0240912Y0294709D01*
X0241329Y0294563D01*
X0241702Y0294328D01*
X0242013Y0294017D01*
X0242248Y0293643D01*
X0242394Y0293227D01*
X0242443Y0292789D01*
X0242443Y0292593D01*
X0242401Y0292170D01*
X0242278Y0291764D01*
X0242078Y0291390D01*
X0241809Y0291061D01*
X0241481Y0290792D01*
X0241106Y0290592D01*
X0240700Y0290469D01*
X0240697Y0290468D02*
X0239859Y0290468D01*
X0238861Y0290967D02*
X0241694Y0290967D01*
X0242119Y0291465D02*
X0238437Y0291465D01*
X0238216Y0291964D02*
X0242339Y0291964D01*
X0242430Y0292462D02*
X0238125Y0292462D01*
X0238148Y0292961D02*
X0242424Y0292961D01*
X0242312Y0293460D02*
X0238298Y0293460D01*
X0238610Y0293958D02*
X0242050Y0293958D01*
X0241498Y0294457D02*
X0239194Y0294457D01*
X0214450Y0303254D02*
X0214160Y0302632D01*
X0213766Y0302070D01*
X0213281Y0301584D01*
X0212719Y0301191D01*
X0212097Y0300901D01*
X0211434Y0300723D01*
X0210750Y0300663D01*
X0210066Y0300723D01*
X0209403Y0300901D01*
X0208781Y0301191D01*
X0208219Y0301584D01*
X0207734Y0302070D01*
X0207340Y0302632D01*
X0207050Y0303254D01*
X0206873Y0303917D01*
X0206813Y0304600D01*
X0206873Y0305284D01*
X0207050Y0305947D01*
X0207340Y0306569D01*
X0207734Y0307131D01*
X0208219Y0307616D01*
X0208781Y0308010D01*
X0209403Y0308300D01*
X0210066Y0308478D01*
X0210750Y0308537D01*
X0211434Y0308478D01*
X0212097Y0308300D01*
X0212719Y0308010D01*
X0213281Y0307616D01*
X0213766Y0307131D01*
X0214160Y0306569D01*
X0214450Y0305947D01*
X0214627Y0305284D01*
X0214687Y0304600D01*
X0214627Y0303917D01*
X0214450Y0303254D01*
X0214497Y0303430D02*
X0207003Y0303430D01*
X0206872Y0303928D02*
X0214628Y0303928D01*
X0214672Y0304427D02*
X0206828Y0304427D01*
X0206841Y0304925D02*
X0214659Y0304925D01*
X0214590Y0305424D02*
X0206910Y0305424D01*
X0207044Y0305922D02*
X0214456Y0305922D01*
X0214229Y0306421D02*
X0207271Y0306421D01*
X0207586Y0306919D02*
X0213914Y0306919D01*
X0213479Y0307418D02*
X0208021Y0307418D01*
X0208648Y0307916D02*
X0212852Y0307916D01*
X0211668Y0308415D02*
X0209832Y0308415D01*
X0207201Y0302931D02*
X0214299Y0302931D01*
X0214020Y0302433D02*
X0207480Y0302433D01*
X0207870Y0301934D02*
X0213630Y0301934D01*
X0213068Y0301436D02*
X0208432Y0301436D01*
X0209325Y0300937D02*
X0212175Y0300937D01*
X0210750Y0264837D02*
X0211434Y0264777D01*
X0212097Y0264599D01*
X0212719Y0264309D01*
X0213281Y0263916D01*
X0213766Y0263430D01*
X0214160Y0262868D01*
X0214450Y0262246D01*
X0214627Y0261583D01*
X0214687Y0260900D01*
X0214627Y0260216D01*
X0214450Y0259553D01*
X0214160Y0258931D01*
X0213766Y0258369D01*
X0213281Y0257884D01*
X0212719Y0257490D01*
X0212097Y0257200D01*
X0211434Y0257022D01*
X0210750Y0256963D01*
X0210066Y0257022D01*
X0209403Y0257200D01*
X0208781Y0257490D01*
X0208219Y0257884D01*
X0207734Y0258369D01*
X0207340Y0258931D01*
X0207050Y0259553D01*
X0206873Y0260216D01*
X0206813Y0260900D01*
X0206873Y0261583D01*
X0207050Y0262246D01*
X0207340Y0262868D01*
X0207734Y0263430D01*
X0208219Y0263916D01*
X0208781Y0264309D01*
X0209403Y0264599D01*
X0210066Y0264777D01*
X0210750Y0264837D01*
X0209289Y0264546D02*
X0212211Y0264546D01*
X0213092Y0264047D02*
X0208408Y0264047D01*
X0207853Y0263549D02*
X0213647Y0263549D01*
X0214032Y0263050D02*
X0207468Y0263050D01*
X0207193Y0262552D02*
X0214307Y0262552D01*
X0214501Y0262053D02*
X0206999Y0262053D01*
X0206870Y0261555D02*
X0214630Y0261555D01*
X0214673Y0261056D02*
X0206827Y0261056D01*
X0206843Y0260558D02*
X0214657Y0260558D01*
X0214585Y0260059D02*
X0206915Y0260059D01*
X0207048Y0259561D02*
X0214452Y0259561D01*
X0214221Y0259062D02*
X0207279Y0259062D01*
X0207598Y0258564D02*
X0213902Y0258564D01*
X0213462Y0258065D02*
X0208038Y0258065D01*
X0208672Y0257567D02*
X0212828Y0257567D01*
X0211604Y0257068D02*
X0209896Y0257068D01*
X0185191Y0266110D02*
X0184991Y0265736D01*
X0184722Y0265408D01*
X0184394Y0265139D01*
X0184020Y0264938D01*
X0183613Y0264815D01*
X0183191Y0264774D01*
X0182769Y0264815D01*
X0182362Y0264938D01*
X0181988Y0265139D01*
X0181660Y0265408D01*
X0181391Y0265736D01*
X0181190Y0266110D01*
X0181067Y0266517D01*
X0181026Y0266939D01*
X0181067Y0267361D01*
X0181190Y0267768D01*
X0181391Y0268142D01*
X0181660Y0268470D01*
X0181988Y0268739D01*
X0182362Y0268940D01*
X0182769Y0269063D01*
X0183191Y0269104D01*
X0183388Y0269104D01*
X0183826Y0269055D01*
X0184242Y0268909D01*
X0184615Y0268675D01*
X0184927Y0268363D01*
X0185161Y0267990D01*
X0185307Y0267574D01*
X0185356Y0267136D01*
X0185356Y0266939D01*
X0185315Y0266517D01*
X0185191Y0266110D01*
X0185155Y0266041D02*
X0181227Y0266041D01*
X0181065Y0266540D02*
X0185317Y0266540D01*
X0185356Y0267038D02*
X0181035Y0267038D01*
X0181120Y0267537D02*
X0185311Y0267537D01*
X0185133Y0268035D02*
X0181334Y0268035D01*
X0181738Y0268534D02*
X0184756Y0268534D01*
X0183890Y0269032D02*
X0182669Y0269032D01*
X0181549Y0265543D02*
X0184833Y0265543D01*
X0184218Y0265044D02*
X0182164Y0265044D01*
X0182769Y0272815D02*
X0182362Y0272938D01*
X0181988Y0273139D01*
X0181660Y0273408D01*
X0181391Y0273736D01*
X0181190Y0274110D01*
X0181067Y0274517D01*
X0181026Y0274939D01*
X0181067Y0275361D01*
X0181190Y0275768D01*
X0181391Y0276142D01*
X0181660Y0276470D01*
X0181988Y0276739D01*
X0182362Y0276940D01*
X0182769Y0277063D01*
X0183191Y0277104D01*
X0183388Y0277104D01*
X0183826Y0277055D01*
X0184242Y0276909D01*
X0184615Y0276675D01*
X0184927Y0276363D01*
X0185161Y0275990D01*
X0185307Y0275574D01*
X0185356Y0275136D01*
X0185356Y0274939D01*
X0185315Y0274517D01*
X0185191Y0274110D01*
X0184991Y0273736D01*
X0184722Y0273408D01*
X0184394Y0273139D01*
X0184020Y0272938D01*
X0183613Y0272815D01*
X0183191Y0272774D01*
X0182769Y0272815D01*
X0182209Y0273021D02*
X0184173Y0273021D01*
X0184813Y0273519D02*
X0181569Y0273519D01*
X0181240Y0274018D02*
X0185142Y0274018D01*
X0185315Y0274516D02*
X0181067Y0274516D01*
X0181033Y0275015D02*
X0185356Y0275015D01*
X0185314Y0275513D02*
X0181113Y0275513D01*
X0181321Y0276012D02*
X0185148Y0276012D01*
X0184780Y0276510D02*
X0181709Y0276510D01*
X0182590Y0277009D02*
X0183958Y0277009D01*
X0183613Y0280689D02*
X0183191Y0280648D01*
X0182769Y0280689D01*
X0182362Y0280812D01*
X0181988Y0281013D01*
X0181660Y0281282D01*
X0181391Y0281610D01*
X0181190Y0281984D01*
X0181067Y0282391D01*
X0181026Y0282813D01*
X0181067Y0283235D01*
X0181190Y0283642D01*
X0181391Y0284016D01*
X0181660Y0284344D01*
X0181988Y0284613D01*
X0182362Y0284814D01*
X0182769Y0284937D01*
X0183191Y0284978D01*
X0183388Y0284978D01*
X0183826Y0284929D01*
X0184242Y0284783D01*
X0184615Y0284549D01*
X0184927Y0284237D01*
X0185161Y0283864D01*
X0185307Y0283448D01*
X0185356Y0283010D01*
X0185356Y0282813D01*
X0185315Y0282391D01*
X0185191Y0281984D01*
X0184991Y0281610D01*
X0184722Y0281282D01*
X0184394Y0281013D01*
X0184020Y0280812D01*
X0183613Y0280689D01*
X0184364Y0280997D02*
X0182018Y0280997D01*
X0181485Y0281495D02*
X0184897Y0281495D01*
X0185194Y0281994D02*
X0181188Y0281994D01*
X0181057Y0282492D02*
X0185325Y0282492D01*
X0185356Y0282991D02*
X0181043Y0282991D01*
X0181144Y0283489D02*
X0185292Y0283489D01*
X0185084Y0283988D02*
X0181375Y0283988D01*
X0181833Y0284486D02*
X0184678Y0284486D01*
X0183613Y0288563D02*
X0183191Y0288522D01*
X0182769Y0288563D01*
X0182362Y0288686D01*
X0181988Y0288887D01*
X0181660Y0289156D01*
X0181391Y0289484D01*
X0181190Y0289858D01*
X0181067Y0290265D01*
X0181026Y0290687D01*
X0181067Y0291109D01*
X0181190Y0291516D01*
X0181391Y0291890D01*
X0181660Y0292218D01*
X0181988Y0292487D01*
X0182362Y0292688D01*
X0182769Y0292811D01*
X0183191Y0292852D01*
X0183388Y0292852D01*
X0183826Y0292803D01*
X0184242Y0292657D01*
X0184615Y0292423D01*
X0184927Y0292111D01*
X0185161Y0291738D01*
X0185307Y0291322D01*
X0185356Y0290884D01*
X0185356Y0290687D01*
X0185315Y0290265D01*
X0185191Y0289858D01*
X0184991Y0289484D01*
X0184722Y0289156D01*
X0184394Y0288887D01*
X0184020Y0288686D01*
X0183613Y0288563D01*
X0184499Y0288973D02*
X0181883Y0288973D01*
X0181401Y0289471D02*
X0184981Y0289471D01*
X0185225Y0289970D02*
X0181157Y0289970D01*
X0181047Y0290468D02*
X0185335Y0290468D01*
X0185347Y0290967D02*
X0181053Y0290967D01*
X0181175Y0291465D02*
X0185257Y0291465D01*
X0185019Y0291964D02*
X0181451Y0291964D01*
X0181958Y0292462D02*
X0184552Y0292462D01*
X0183613Y0296437D02*
X0183191Y0296396D01*
X0182769Y0296437D01*
X0182362Y0296560D01*
X0181988Y0296761D01*
X0181660Y0297030D01*
X0181391Y0297358D01*
X0181190Y0297732D01*
X0181067Y0298139D01*
X0181026Y0298561D01*
X0181067Y0298983D01*
X0181190Y0299390D01*
X0181391Y0299764D01*
X0181660Y0300092D01*
X0181988Y0300361D01*
X0182362Y0300562D01*
X0182769Y0300685D01*
X0183191Y0300726D01*
X0183388Y0300726D01*
X0183826Y0300677D01*
X0184242Y0300531D01*
X0184615Y0300297D01*
X0184927Y0299985D01*
X0185161Y0299612D01*
X0185307Y0299196D01*
X0185356Y0298758D01*
X0185356Y0298561D01*
X0185315Y0298139D01*
X0185191Y0297732D01*
X0184991Y0297358D01*
X0184722Y0297030D01*
X0184394Y0296761D01*
X0184020Y0296560D01*
X0183613Y0296437D01*
X0183657Y0296451D02*
X0182725Y0296451D01*
X0181758Y0296949D02*
X0184624Y0296949D01*
X0185039Y0297448D02*
X0181343Y0297448D01*
X0181126Y0297946D02*
X0185256Y0297946D01*
X0185345Y0298445D02*
X0181037Y0298445D01*
X0181063Y0298943D02*
X0185335Y0298943D01*
X0185221Y0299442D02*
X0181218Y0299442D01*
X0181535Y0299940D02*
X0184955Y0299940D01*
X0184390Y0300439D02*
X0182132Y0300439D01*
X0167000Y0258250D02*
X0161500Y0258250D01*
X0161500Y0257250D01*
X0167000Y0257250D01*
X0167000Y0258250D01*
X0167000Y0258065D02*
X0161500Y0258065D01*
X0161500Y0257567D02*
X0167000Y0257567D01*
X0139500Y0257567D02*
X0138000Y0257567D01*
X0138000Y0257250D02*
X0138000Y0258250D01*
X0139500Y0258250D01*
X0139500Y0257250D01*
X0138000Y0257250D01*
X0138000Y0258065D02*
X0139500Y0258065D01*
X0120078Y0271508D02*
X0119809Y0271179D01*
X0119481Y0270910D01*
X0119106Y0270710D01*
X0118700Y0270587D01*
X0118278Y0270545D01*
X0117855Y0270587D01*
X0117449Y0270710D01*
X0117075Y0270910D01*
X0116746Y0271179D01*
X0116477Y0271508D01*
X0116277Y0271882D01*
X0116154Y0272288D01*
X0116112Y0272711D01*
X0116154Y0273133D01*
X0116277Y0273539D01*
X0116477Y0273914D01*
X0116746Y0274242D01*
X0117075Y0274511D01*
X0117449Y0274711D01*
X0117855Y0274834D01*
X0118278Y0274876D01*
X0118474Y0274876D01*
X0118912Y0274827D01*
X0119329Y0274681D01*
X0119702Y0274447D01*
X0120013Y0274135D01*
X0120248Y0273762D01*
X0120394Y0273346D01*
X0120443Y0272907D01*
X0120443Y0272711D01*
X0120401Y0272288D01*
X0120278Y0271882D01*
X0120078Y0271508D01*
X0120087Y0271525D02*
X0116468Y0271525D01*
X0116234Y0272024D02*
X0120321Y0272024D01*
X0120424Y0272522D02*
X0116131Y0272522D01*
X0116143Y0273021D02*
X0120430Y0273021D01*
X0120333Y0273519D02*
X0116271Y0273519D01*
X0116562Y0274018D02*
X0120087Y0274018D01*
X0119591Y0274516D02*
X0117084Y0274516D01*
X0116933Y0271027D02*
X0119622Y0271027D01*
X0118700Y0280626D02*
X0118278Y0280585D01*
X0117855Y0280626D01*
X0117449Y0280749D01*
X0117075Y0280950D01*
X0116746Y0281219D01*
X0116477Y0281547D01*
X0116277Y0281921D01*
X0116154Y0282328D01*
X0116112Y0282750D01*
X0116154Y0283172D01*
X0116277Y0283579D01*
X0116477Y0283953D01*
X0116746Y0284281D01*
X0117075Y0284550D01*
X0117449Y0284751D01*
X0117855Y0284874D01*
X0118278Y0284915D01*
X0118474Y0284915D01*
X0118912Y0284866D01*
X0119329Y0284720D01*
X0119702Y0284486D01*
X0120013Y0284174D01*
X0120248Y0283801D01*
X0120394Y0283385D01*
X0120443Y0282947D01*
X0120443Y0282750D01*
X0120401Y0282328D01*
X0120278Y0281921D01*
X0120078Y0281547D01*
X0119809Y0281219D01*
X0119481Y0280950D01*
X0119106Y0280749D01*
X0118700Y0280626D01*
X0119538Y0280997D02*
X0117017Y0280997D01*
X0116520Y0281495D02*
X0120036Y0281495D01*
X0120300Y0281994D02*
X0116255Y0281994D01*
X0116138Y0282492D02*
X0120418Y0282492D01*
X0120438Y0282991D02*
X0116136Y0282991D01*
X0116250Y0283489D02*
X0120357Y0283489D01*
X0120131Y0283988D02*
X0116506Y0283988D01*
X0116996Y0284486D02*
X0119701Y0284486D01*
X0118700Y0290469D02*
X0118278Y0290427D01*
X0117855Y0290469D01*
X0117449Y0290592D01*
X0117075Y0290792D01*
X0116746Y0291061D01*
X0116477Y0291390D01*
X0116277Y0291764D01*
X0116154Y0292170D01*
X0116112Y0292593D01*
X0116154Y0293015D01*
X0116277Y0293421D01*
X0116477Y0293796D01*
X0116746Y0294124D01*
X0117075Y0294393D01*
X0117449Y0294593D01*
X0117855Y0294716D01*
X0118278Y0294758D01*
X0118474Y0294758D01*
X0118912Y0294709D01*
X0119329Y0294563D01*
X0119702Y0294328D01*
X0120013Y0294017D01*
X0120248Y0293643D01*
X0120394Y0293227D01*
X0120443Y0292789D01*
X0120443Y0292593D01*
X0120401Y0292170D01*
X0120278Y0291764D01*
X0120078Y0291390D01*
X0119809Y0291061D01*
X0119481Y0290792D01*
X0119106Y0290592D01*
X0118700Y0290469D01*
X0118697Y0290468D02*
X0117859Y0290468D01*
X0116861Y0290967D02*
X0119694Y0290967D01*
X0120119Y0291465D02*
X0116437Y0291465D01*
X0116216Y0291964D02*
X0120339Y0291964D01*
X0120430Y0292462D02*
X0116125Y0292462D01*
X0116148Y0292961D02*
X0120424Y0292961D01*
X0120312Y0293460D02*
X0116298Y0293460D01*
X0116610Y0293958D02*
X0120050Y0293958D01*
X0119498Y0294457D02*
X0117194Y0294457D01*
X0092450Y0303254D02*
X0092160Y0302632D01*
X0091766Y0302070D01*
X0091281Y0301584D01*
X0090719Y0301191D01*
X0090097Y0300901D01*
X0089434Y0300723D01*
X0088750Y0300663D01*
X0088066Y0300723D01*
X0087403Y0300901D01*
X0086781Y0301191D01*
X0086219Y0301584D01*
X0085734Y0302070D01*
X0085340Y0302632D01*
X0085050Y0303254D01*
X0084873Y0303917D01*
X0084813Y0304600D01*
X0084873Y0305284D01*
X0085050Y0305947D01*
X0085340Y0306569D01*
X0085734Y0307131D01*
X0086219Y0307616D01*
X0086781Y0308010D01*
X0087403Y0308300D01*
X0088066Y0308478D01*
X0088750Y0308537D01*
X0089434Y0308478D01*
X0090097Y0308300D01*
X0090719Y0308010D01*
X0091281Y0307616D01*
X0091766Y0307131D01*
X0092160Y0306569D01*
X0092450Y0305947D01*
X0092627Y0305284D01*
X0092687Y0304600D01*
X0092627Y0303917D01*
X0092450Y0303254D01*
X0092497Y0303430D02*
X0085003Y0303430D01*
X0084872Y0303928D02*
X0092628Y0303928D01*
X0092672Y0304427D02*
X0084828Y0304427D01*
X0084841Y0304925D02*
X0092659Y0304925D01*
X0092590Y0305424D02*
X0084910Y0305424D01*
X0085044Y0305922D02*
X0092456Y0305922D01*
X0092229Y0306421D02*
X0085271Y0306421D01*
X0085586Y0306919D02*
X0091914Y0306919D01*
X0091479Y0307418D02*
X0086021Y0307418D01*
X0086648Y0307916D02*
X0090852Y0307916D01*
X0089668Y0308415D02*
X0087832Y0308415D01*
X0085201Y0302931D02*
X0092299Y0302931D01*
X0092020Y0302433D02*
X0085480Y0302433D01*
X0085870Y0301934D02*
X0091630Y0301934D01*
X0091068Y0301436D02*
X0086432Y0301436D01*
X0087325Y0300937D02*
X0090175Y0300937D01*
X0088750Y0264837D02*
X0089434Y0264777D01*
X0090097Y0264599D01*
X0090719Y0264309D01*
X0091281Y0263916D01*
X0091766Y0263430D01*
X0092160Y0262868D01*
X0092450Y0262246D01*
X0092627Y0261583D01*
X0092687Y0260900D01*
X0092627Y0260216D01*
X0092450Y0259553D01*
X0092160Y0258931D01*
X0091766Y0258369D01*
X0091281Y0257884D01*
X0090719Y0257490D01*
X0090097Y0257200D01*
X0089434Y0257022D01*
X0088750Y0256963D01*
X0088066Y0257022D01*
X0087403Y0257200D01*
X0086781Y0257490D01*
X0086219Y0257884D01*
X0085734Y0258369D01*
X0085340Y0258931D01*
X0085050Y0259553D01*
X0084873Y0260216D01*
X0084813Y0260900D01*
X0084873Y0261583D01*
X0085050Y0262246D01*
X0085340Y0262868D01*
X0085734Y0263430D01*
X0086219Y0263916D01*
X0086781Y0264309D01*
X0087403Y0264599D01*
X0088066Y0264777D01*
X0088750Y0264837D01*
X0087289Y0264546D02*
X0090211Y0264546D01*
X0091092Y0264047D02*
X0086408Y0264047D01*
X0085853Y0263549D02*
X0091647Y0263549D01*
X0092032Y0263050D02*
X0085468Y0263050D01*
X0085193Y0262552D02*
X0092307Y0262552D01*
X0092501Y0262053D02*
X0084999Y0262053D01*
X0084870Y0261555D02*
X0092630Y0261555D01*
X0092673Y0261056D02*
X0084827Y0261056D01*
X0084843Y0260558D02*
X0092657Y0260558D01*
X0092585Y0260059D02*
X0084915Y0260059D01*
X0085048Y0259561D02*
X0092452Y0259561D01*
X0092221Y0259062D02*
X0085279Y0259062D01*
X0085598Y0258564D02*
X0091902Y0258564D01*
X0091462Y0258065D02*
X0086038Y0258065D01*
X0086672Y0257567D02*
X0090828Y0257567D01*
X0089604Y0257068D02*
X0087896Y0257068D01*
X0063191Y0266110D02*
X0062991Y0265736D01*
X0062722Y0265408D01*
X0062394Y0265139D01*
X0062020Y0264938D01*
X0061613Y0264815D01*
X0061191Y0264774D01*
X0060769Y0264815D01*
X0060362Y0264938D01*
X0059988Y0265139D01*
X0059660Y0265408D01*
X0059391Y0265736D01*
X0059190Y0266110D01*
X0059067Y0266517D01*
X0059026Y0266939D01*
X0059067Y0267361D01*
X0059190Y0267768D01*
X0059391Y0268142D01*
X0059660Y0268470D01*
X0059988Y0268739D01*
X0060362Y0268940D01*
X0060769Y0269063D01*
X0061191Y0269104D01*
X0061388Y0269104D01*
X0061826Y0269055D01*
X0062242Y0268909D01*
X0062615Y0268675D01*
X0062927Y0268363D01*
X0063161Y0267990D01*
X0063307Y0267574D01*
X0063356Y0267136D01*
X0063356Y0266939D01*
X0063315Y0266517D01*
X0063191Y0266110D01*
X0063155Y0266041D02*
X0059227Y0266041D01*
X0059065Y0266540D02*
X0063317Y0266540D01*
X0063356Y0267038D02*
X0059035Y0267038D01*
X0059120Y0267537D02*
X0063311Y0267537D01*
X0063133Y0268035D02*
X0059334Y0268035D01*
X0059738Y0268534D02*
X0062756Y0268534D01*
X0061890Y0269032D02*
X0060669Y0269032D01*
X0059549Y0265543D02*
X0062833Y0265543D01*
X0062218Y0265044D02*
X0060164Y0265044D01*
X0060769Y0272815D02*
X0060362Y0272938D01*
X0059988Y0273139D01*
X0059660Y0273408D01*
X0059391Y0273736D01*
X0059190Y0274110D01*
X0059067Y0274517D01*
X0059026Y0274939D01*
X0059067Y0275361D01*
X0059190Y0275768D01*
X0059391Y0276142D01*
X0059660Y0276470D01*
X0059988Y0276739D01*
X0060362Y0276940D01*
X0060769Y0277063D01*
X0061191Y0277104D01*
X0061388Y0277104D01*
X0061826Y0277055D01*
X0062242Y0276909D01*
X0062615Y0276675D01*
X0062927Y0276363D01*
X0063161Y0275990D01*
X0063307Y0275574D01*
X0063356Y0275136D01*
X0063356Y0274939D01*
X0063315Y0274517D01*
X0063191Y0274110D01*
X0062991Y0273736D01*
X0062722Y0273408D01*
X0062394Y0273139D01*
X0062020Y0272938D01*
X0061613Y0272815D01*
X0061191Y0272774D01*
X0060769Y0272815D01*
X0060209Y0273021D02*
X0062173Y0273021D01*
X0062813Y0273519D02*
X0059569Y0273519D01*
X0059240Y0274018D02*
X0063142Y0274018D01*
X0063315Y0274516D02*
X0059067Y0274516D01*
X0059033Y0275015D02*
X0063356Y0275015D01*
X0063314Y0275513D02*
X0059113Y0275513D01*
X0059321Y0276012D02*
X0063148Y0276012D01*
X0062780Y0276510D02*
X0059709Y0276510D01*
X0060590Y0277009D02*
X0061958Y0277009D01*
X0061613Y0280689D02*
X0061191Y0280648D01*
X0060769Y0280689D01*
X0060362Y0280812D01*
X0059988Y0281013D01*
X0059660Y0281282D01*
X0059391Y0281610D01*
X0059190Y0281984D01*
X0059067Y0282391D01*
X0059026Y0282813D01*
X0059067Y0283235D01*
X0059190Y0283642D01*
X0059391Y0284016D01*
X0059660Y0284344D01*
X0059988Y0284613D01*
X0060362Y0284814D01*
X0060769Y0284937D01*
X0061191Y0284978D01*
X0061388Y0284978D01*
X0061826Y0284929D01*
X0062242Y0284783D01*
X0062615Y0284549D01*
X0062927Y0284237D01*
X0063161Y0283864D01*
X0063307Y0283448D01*
X0063356Y0283010D01*
X0063356Y0282813D01*
X0063315Y0282391D01*
X0063191Y0281984D01*
X0062991Y0281610D01*
X0062722Y0281282D01*
X0062394Y0281013D01*
X0062020Y0280812D01*
X0061613Y0280689D01*
X0062364Y0280997D02*
X0060018Y0280997D01*
X0059485Y0281495D02*
X0062897Y0281495D01*
X0063194Y0281994D02*
X0059188Y0281994D01*
X0059057Y0282492D02*
X0063325Y0282492D01*
X0063356Y0282991D02*
X0059043Y0282991D01*
X0059144Y0283489D02*
X0063292Y0283489D01*
X0063084Y0283988D02*
X0059375Y0283988D01*
X0059833Y0284486D02*
X0062678Y0284486D01*
X0061613Y0288563D02*
X0061191Y0288522D01*
X0060769Y0288563D01*
X0060362Y0288686D01*
X0059988Y0288887D01*
X0059660Y0289156D01*
X0059391Y0289484D01*
X0059190Y0289858D01*
X0059067Y0290265D01*
X0059026Y0290687D01*
X0059067Y0291109D01*
X0059190Y0291516D01*
X0059391Y0291890D01*
X0059660Y0292218D01*
X0059988Y0292487D01*
X0060362Y0292688D01*
X0060769Y0292811D01*
X0061191Y0292852D01*
X0061388Y0292852D01*
X0061826Y0292803D01*
X0062242Y0292657D01*
X0062615Y0292423D01*
X0062927Y0292111D01*
X0063161Y0291738D01*
X0063307Y0291322D01*
X0063356Y0290884D01*
X0063356Y0290687D01*
X0063315Y0290265D01*
X0063191Y0289858D01*
X0062991Y0289484D01*
X0062722Y0289156D01*
X0062394Y0288887D01*
X0062020Y0288686D01*
X0061613Y0288563D01*
X0062499Y0288973D02*
X0059883Y0288973D01*
X0059401Y0289471D02*
X0062981Y0289471D01*
X0063225Y0289970D02*
X0059157Y0289970D01*
X0059047Y0290468D02*
X0063335Y0290468D01*
X0063347Y0290967D02*
X0059053Y0290967D01*
X0059175Y0291465D02*
X0063257Y0291465D01*
X0063019Y0291964D02*
X0059451Y0291964D01*
X0059958Y0292462D02*
X0062552Y0292462D01*
X0061613Y0296437D02*
X0061191Y0296396D01*
X0060769Y0296437D01*
X0060362Y0296560D01*
X0059988Y0296761D01*
X0059660Y0297030D01*
X0059391Y0297358D01*
X0059190Y0297732D01*
X0059067Y0298139D01*
X0059026Y0298561D01*
X0059067Y0298983D01*
X0059190Y0299390D01*
X0059391Y0299764D01*
X0059660Y0300092D01*
X0059988Y0300361D01*
X0060362Y0300562D01*
X0060769Y0300685D01*
X0061191Y0300726D01*
X0061388Y0300726D01*
X0061826Y0300677D01*
X0062242Y0300531D01*
X0062615Y0300297D01*
X0062927Y0299985D01*
X0063161Y0299612D01*
X0063307Y0299196D01*
X0063356Y0298758D01*
X0063356Y0298561D01*
X0063315Y0298139D01*
X0063191Y0297732D01*
X0062991Y0297358D01*
X0062722Y0297030D01*
X0062394Y0296761D01*
X0062020Y0296560D01*
X0061613Y0296437D01*
X0061657Y0296451D02*
X0060725Y0296451D01*
X0059758Y0296949D02*
X0062624Y0296949D01*
X0063039Y0297448D02*
X0059343Y0297448D01*
X0059126Y0297946D02*
X0063256Y0297946D01*
X0063345Y0298445D02*
X0059037Y0298445D01*
X0059063Y0298943D02*
X0063335Y0298943D01*
X0063221Y0299442D02*
X0059218Y0299442D01*
X0059535Y0299940D02*
X0062955Y0299940D01*
X0062390Y0300439D02*
X0060132Y0300439D01*
X0045000Y0258250D02*
X0039500Y0258250D01*
X0039500Y0257250D01*
X0045000Y0257250D01*
X0045000Y0258250D01*
X0045000Y0258065D02*
X0039500Y0258065D01*
X0039500Y0257567D02*
X0045000Y0257567D01*
X0045000Y0359250D02*
X0039500Y0359250D01*
X0039500Y0360250D01*
X0045000Y0360250D01*
X0045000Y0359250D01*
X0045000Y0359263D02*
X0039500Y0359263D01*
X0039500Y0359762D02*
X0045000Y0359762D01*
X0059391Y0367736D02*
X0059190Y0368110D01*
X0059067Y0368517D01*
X0059026Y0368939D01*
X0059067Y0369361D01*
X0059190Y0369768D01*
X0059391Y0370142D01*
X0059660Y0370470D01*
X0059988Y0370739D01*
X0060362Y0370940D01*
X0060769Y0371063D01*
X0061191Y0371104D01*
X0061388Y0371104D01*
X0061826Y0371055D01*
X0062242Y0370909D01*
X0062615Y0370675D01*
X0062927Y0370363D01*
X0063161Y0369990D01*
X0063307Y0369574D01*
X0063356Y0369136D01*
X0063356Y0368939D01*
X0063315Y0368517D01*
X0063191Y0368110D01*
X0062991Y0367736D01*
X0062722Y0367408D01*
X0062394Y0367139D01*
X0062020Y0366938D01*
X0061613Y0366815D01*
X0061191Y0366774D01*
X0060769Y0366815D01*
X0060362Y0366938D01*
X0059988Y0367139D01*
X0059660Y0367408D01*
X0059391Y0367736D01*
X0059390Y0367738D02*
X0062992Y0367738D01*
X0063230Y0368236D02*
X0059152Y0368236D01*
X0059046Y0368735D02*
X0063336Y0368735D01*
X0063345Y0369233D02*
X0059055Y0369233D01*
X0059180Y0369732D02*
X0063252Y0369732D01*
X0063010Y0370230D02*
X0059463Y0370230D01*
X0059975Y0370729D02*
X0062529Y0370729D01*
X0062517Y0367239D02*
X0059865Y0367239D01*
X0060769Y0374815D02*
X0060362Y0374938D01*
X0059988Y0375139D01*
X0059660Y0375408D01*
X0059391Y0375736D01*
X0059190Y0376110D01*
X0059067Y0376517D01*
X0059026Y0376939D01*
X0059067Y0377361D01*
X0059190Y0377768D01*
X0059391Y0378142D01*
X0059660Y0378470D01*
X0059988Y0378739D01*
X0060362Y0378940D01*
X0060769Y0379063D01*
X0061191Y0379104D01*
X0061388Y0379104D01*
X0061826Y0379055D01*
X0062242Y0378909D01*
X0062615Y0378675D01*
X0062927Y0378363D01*
X0063161Y0377990D01*
X0063307Y0377574D01*
X0063356Y0377136D01*
X0063356Y0376939D01*
X0063315Y0376517D01*
X0063191Y0376110D01*
X0062991Y0375736D01*
X0062722Y0375408D01*
X0062394Y0375139D01*
X0062020Y0374938D01*
X0061613Y0374815D01*
X0061191Y0374774D01*
X0060769Y0374815D01*
X0059894Y0375215D02*
X0062488Y0375215D01*
X0062973Y0375714D02*
X0059409Y0375714D01*
X0059159Y0376212D02*
X0063222Y0376212D01*
X0063334Y0376711D02*
X0059048Y0376711D01*
X0059052Y0377209D02*
X0063348Y0377209D01*
X0063260Y0377708D02*
X0059172Y0377708D01*
X0059443Y0378206D02*
X0063025Y0378206D01*
X0062567Y0378705D02*
X0059946Y0378705D01*
X0060769Y0382689D02*
X0060362Y0382812D01*
X0059988Y0383013D01*
X0059660Y0383282D01*
X0059391Y0383610D01*
X0059190Y0383984D01*
X0059067Y0384391D01*
X0059026Y0384813D01*
X0059067Y0385235D01*
X0059190Y0385642D01*
X0059391Y0386016D01*
X0059660Y0386344D01*
X0059988Y0386613D01*
X0060362Y0386814D01*
X0060769Y0386937D01*
X0061191Y0386978D01*
X0061388Y0386978D01*
X0061826Y0386929D01*
X0062242Y0386783D01*
X0062615Y0386549D01*
X0062927Y0386237D01*
X0063161Y0385864D01*
X0063307Y0385448D01*
X0063356Y0385010D01*
X0063356Y0384813D01*
X0063315Y0384391D01*
X0063191Y0383984D01*
X0062991Y0383610D01*
X0062722Y0383282D01*
X0062394Y0383013D01*
X0062020Y0382812D01*
X0061613Y0382689D01*
X0061191Y0382648D01*
X0060769Y0382689D01*
X0060756Y0382693D02*
X0061626Y0382693D01*
X0062612Y0383192D02*
X0059770Y0383192D01*
X0059348Y0383690D02*
X0063034Y0383690D01*
X0063253Y0384189D02*
X0059128Y0384189D01*
X0059038Y0384687D02*
X0063344Y0384687D01*
X0063336Y0385186D02*
X0059062Y0385186D01*
X0059213Y0385684D02*
X0063224Y0385684D01*
X0062961Y0386183D02*
X0059527Y0386183D01*
X0060115Y0386681D02*
X0062405Y0386681D01*
X0061613Y0390563D02*
X0061191Y0390522D01*
X0060769Y0390563D01*
X0060362Y0390686D01*
X0059988Y0390887D01*
X0059660Y0391156D01*
X0059391Y0391484D01*
X0059190Y0391858D01*
X0059067Y0392265D01*
X0059026Y0392687D01*
X0059067Y0393109D01*
X0059190Y0393516D01*
X0059391Y0393890D01*
X0059660Y0394218D01*
X0059988Y0394487D01*
X0060362Y0394688D01*
X0060769Y0394811D01*
X0061191Y0394852D01*
X0061388Y0394852D01*
X0061826Y0394803D01*
X0062242Y0394657D01*
X0060306Y0394657D01*
X0059611Y0394159D02*
X0062879Y0394159D01*
X0062927Y0394111D02*
X0063161Y0393738D01*
X0063307Y0393322D01*
X0063356Y0392884D01*
X0063356Y0392687D01*
X0063315Y0392265D01*
X0063191Y0391858D01*
X0062991Y0391484D01*
X0062722Y0391156D01*
X0062394Y0390887D01*
X0062020Y0390686D01*
X0061613Y0390563D01*
X0061963Y0390669D02*
X0060419Y0390669D01*
X0059650Y0391168D02*
X0062732Y0391168D01*
X0063089Y0391666D02*
X0059293Y0391666D01*
X0059097Y0392165D02*
X0063284Y0392165D01*
X0063354Y0392663D02*
X0059028Y0392663D01*
X0059083Y0393162D02*
X0063325Y0393162D01*
X0063189Y0393660D02*
X0059268Y0393660D01*
X0062242Y0394657D02*
X0062615Y0394423D01*
X0062927Y0394111D01*
X0061613Y0398437D02*
X0061191Y0398396D01*
X0060769Y0398437D01*
X0060362Y0398560D01*
X0059988Y0398761D01*
X0059660Y0399030D01*
X0059391Y0399358D01*
X0059190Y0399732D01*
X0059067Y0400139D01*
X0059026Y0400561D01*
X0059067Y0400983D01*
X0059190Y0401390D01*
X0059391Y0401764D01*
X0059660Y0402092D01*
X0059988Y0402361D01*
X0060362Y0402562D01*
X0060769Y0402685D01*
X0061191Y0402726D01*
X0061388Y0402726D01*
X0061826Y0402677D01*
X0062242Y0402531D01*
X0062615Y0402297D01*
X0062927Y0401985D01*
X0063161Y0401612D01*
X0063307Y0401196D01*
X0063356Y0400758D01*
X0063356Y0400561D01*
X0063315Y0400139D01*
X0063191Y0399732D01*
X0062991Y0399358D01*
X0062722Y0399030D01*
X0062394Y0398761D01*
X0062020Y0398560D01*
X0061613Y0398437D01*
X0062178Y0398645D02*
X0060203Y0398645D01*
X0059566Y0399144D02*
X0062816Y0399144D01*
X0063143Y0399642D02*
X0059239Y0399642D01*
X0059067Y0400141D02*
X0063315Y0400141D01*
X0063356Y0400639D02*
X0059033Y0400639D01*
X0059114Y0401138D02*
X0063313Y0401138D01*
X0063146Y0401636D02*
X0059322Y0401636D01*
X0059712Y0402135D02*
X0062777Y0402135D01*
X0061950Y0402633D02*
X0060599Y0402633D01*
X0084873Y0405917D02*
X0084813Y0406600D01*
X0084873Y0407284D01*
X0085050Y0407947D01*
X0085340Y0408569D01*
X0085734Y0409131D01*
X0086219Y0409616D01*
X0086781Y0410010D01*
X0087403Y0410300D01*
X0088066Y0410478D01*
X0088750Y0410537D01*
X0089434Y0410478D01*
X0090097Y0410300D01*
X0090719Y0410010D01*
X0091281Y0409616D01*
X0091766Y0409131D01*
X0092160Y0408569D01*
X0092450Y0407947D01*
X0092627Y0407284D01*
X0092687Y0406600D01*
X0092627Y0405917D01*
X0092450Y0405254D01*
X0092160Y0404632D01*
X0091766Y0404070D01*
X0091281Y0403584D01*
X0090719Y0403191D01*
X0090097Y0402901D01*
X0089434Y0402723D01*
X0088750Y0402663D01*
X0088066Y0402723D01*
X0087403Y0402901D01*
X0086781Y0403191D01*
X0086219Y0403584D01*
X0085734Y0404070D01*
X0085340Y0404632D01*
X0085050Y0405254D01*
X0084873Y0405917D01*
X0084855Y0406123D02*
X0092645Y0406123D01*
X0092685Y0406622D02*
X0084815Y0406622D01*
X0084858Y0407120D02*
X0092642Y0407120D01*
X0092538Y0407619D02*
X0084962Y0407619D01*
X0085130Y0408117D02*
X0092370Y0408117D01*
X0092127Y0408616D02*
X0085373Y0408616D01*
X0085722Y0409114D02*
X0091778Y0409114D01*
X0091284Y0409613D02*
X0086216Y0409613D01*
X0086999Y0410111D02*
X0090501Y0410111D01*
X0092549Y0405625D02*
X0084951Y0405625D01*
X0085110Y0405126D02*
X0092390Y0405126D01*
X0092157Y0404628D02*
X0085344Y0404628D01*
X0085693Y0404129D02*
X0091807Y0404129D01*
X0091327Y0403631D02*
X0086173Y0403631D01*
X0086908Y0403132D02*
X0090592Y0403132D01*
X0088750Y0366837D02*
X0089434Y0366777D01*
X0090097Y0366599D01*
X0090719Y0366309D01*
X0091281Y0365916D01*
X0091766Y0365430D01*
X0092160Y0364868D01*
X0092450Y0364246D01*
X0092627Y0363583D01*
X0092687Y0362900D01*
X0092627Y0362216D01*
X0092450Y0361553D01*
X0092160Y0360931D01*
X0091766Y0360369D01*
X0091281Y0359884D01*
X0090719Y0359490D01*
X0090097Y0359200D01*
X0089434Y0359022D01*
X0088750Y0358963D01*
X0088066Y0359022D01*
X0087403Y0359200D01*
X0086781Y0359490D01*
X0086219Y0359884D01*
X0085734Y0360369D01*
X0085340Y0360931D01*
X0085050Y0361553D01*
X0084873Y0362216D01*
X0084813Y0362900D01*
X0084873Y0363583D01*
X0085050Y0364246D01*
X0085340Y0364868D01*
X0085734Y0365430D01*
X0086219Y0365916D01*
X0086781Y0366309D01*
X0087403Y0366599D01*
X0088066Y0366777D01*
X0088750Y0366837D01*
X0087932Y0366741D02*
X0089568Y0366741D01*
X0090814Y0366242D02*
X0086686Y0366242D01*
X0086047Y0365744D02*
X0091453Y0365744D01*
X0091896Y0365245D02*
X0085604Y0365245D01*
X0085284Y0364747D02*
X0092216Y0364747D01*
X0092449Y0364248D02*
X0085051Y0364248D01*
X0084917Y0363750D02*
X0092583Y0363750D01*
X0092656Y0363251D02*
X0084844Y0363251D01*
X0084826Y0362753D02*
X0092674Y0362753D01*
X0092631Y0362254D02*
X0084869Y0362254D01*
X0084996Y0361756D02*
X0092504Y0361756D01*
X0092312Y0361257D02*
X0085188Y0361257D01*
X0085461Y0360759D02*
X0092039Y0360759D01*
X0091657Y0360260D02*
X0085843Y0360260D01*
X0086394Y0359762D02*
X0091106Y0359762D01*
X0090232Y0359263D02*
X0087268Y0359263D01*
X0116277Y0373882D02*
X0116154Y0374288D01*
X0116112Y0374711D01*
X0116154Y0375133D01*
X0116277Y0375539D01*
X0116477Y0375914D01*
X0116746Y0376242D01*
X0117075Y0376511D01*
X0117449Y0376711D01*
X0117855Y0376834D01*
X0118278Y0376876D01*
X0118474Y0376876D01*
X0118912Y0376827D01*
X0119329Y0376681D01*
X0119702Y0376447D01*
X0120013Y0376135D01*
X0120248Y0375762D01*
X0120394Y0375346D01*
X0120443Y0374907D01*
X0120443Y0374711D01*
X0120401Y0374288D01*
X0120278Y0373882D01*
X0120078Y0373508D01*
X0119809Y0373179D01*
X0119481Y0372910D01*
X0119106Y0372710D01*
X0118700Y0372587D01*
X0118278Y0372545D01*
X0117855Y0372587D01*
X0117449Y0372710D01*
X0117075Y0372910D01*
X0116746Y0373179D01*
X0116477Y0373508D01*
X0116277Y0373882D01*
X0116364Y0373720D02*
X0120191Y0373720D01*
X0120380Y0374218D02*
X0116175Y0374218D01*
X0116113Y0374717D02*
X0120443Y0374717D01*
X0120408Y0375215D02*
X0116179Y0375215D01*
X0116370Y0375714D02*
X0120265Y0375714D01*
X0119936Y0376212D02*
X0116722Y0376212D01*
X0117448Y0376711D02*
X0119243Y0376711D01*
X0119843Y0373221D02*
X0116712Y0373221D01*
X0117425Y0372723D02*
X0119130Y0372723D01*
X0118278Y0382585D02*
X0117855Y0382626D01*
X0117449Y0382749D01*
X0117075Y0382950D01*
X0116746Y0383219D01*
X0116477Y0383547D01*
X0116277Y0383921D01*
X0116154Y0384328D01*
X0116112Y0384750D01*
X0116154Y0385172D01*
X0116277Y0385579D01*
X0116477Y0385953D01*
X0116746Y0386281D01*
X0117075Y0386550D01*
X0117449Y0386751D01*
X0117855Y0386874D01*
X0118278Y0386915D01*
X0118474Y0386915D01*
X0118912Y0386866D01*
X0119329Y0386720D01*
X0119702Y0386486D01*
X0120013Y0386174D01*
X0120248Y0385801D01*
X0120394Y0385385D01*
X0120443Y0384947D01*
X0120443Y0384750D01*
X0120401Y0384328D01*
X0120278Y0383921D01*
X0120078Y0383547D01*
X0119809Y0383219D01*
X0119481Y0382950D01*
X0119106Y0382749D01*
X0118700Y0382626D01*
X0118278Y0382585D01*
X0118920Y0382693D02*
X0117635Y0382693D01*
X0116780Y0383192D02*
X0119775Y0383192D01*
X0120154Y0383690D02*
X0116401Y0383690D01*
X0116196Y0384189D02*
X0120359Y0384189D01*
X0120437Y0384687D02*
X0116118Y0384687D01*
X0116158Y0385186D02*
X0120416Y0385186D01*
X0120289Y0385684D02*
X0116333Y0385684D01*
X0116666Y0386183D02*
X0120005Y0386183D01*
X0119391Y0386681D02*
X0117319Y0386681D01*
X0117855Y0392469D02*
X0117449Y0392592D01*
X0117075Y0392792D01*
X0116746Y0393061D01*
X0116477Y0393390D01*
X0116277Y0393764D01*
X0116154Y0394170D01*
X0116112Y0394593D01*
X0116154Y0395015D01*
X0116277Y0395421D01*
X0116477Y0395796D01*
X0116746Y0396124D01*
X0117075Y0396393D01*
X0117449Y0396593D01*
X0117855Y0396716D01*
X0118278Y0396758D01*
X0118474Y0396758D01*
X0118912Y0396709D01*
X0119329Y0396563D01*
X0119702Y0396328D01*
X0120013Y0396017D01*
X0120248Y0395643D01*
X0120394Y0395227D01*
X0120443Y0394789D01*
X0120443Y0394593D01*
X0120401Y0394170D01*
X0120278Y0393764D01*
X0120078Y0393390D01*
X0119809Y0393061D01*
X0119481Y0392792D01*
X0119106Y0392592D01*
X0118700Y0392469D01*
X0118278Y0392427D01*
X0117855Y0392469D01*
X0117316Y0392663D02*
X0119240Y0392663D01*
X0119891Y0393162D02*
X0116664Y0393162D01*
X0116332Y0393660D02*
X0120223Y0393660D01*
X0120398Y0394159D02*
X0116157Y0394159D01*
X0116119Y0394657D02*
X0120443Y0394657D01*
X0120402Y0395156D02*
X0116197Y0395156D01*
X0116402Y0395654D02*
X0120241Y0395654D01*
X0119877Y0396153D02*
X0116782Y0396153D01*
X0117641Y0396651D02*
X0119076Y0396651D01*
X0138000Y0360250D02*
X0138000Y0359250D01*
X0139500Y0359250D01*
X0139500Y0360250D01*
X0138000Y0360250D01*
X0138000Y0359762D02*
X0139500Y0359762D01*
X0139500Y0359263D02*
X0138000Y0359263D01*
X0161500Y0359263D02*
X0167000Y0359263D01*
X0167000Y0359250D02*
X0167000Y0360250D01*
X0161500Y0360250D01*
X0161500Y0359250D01*
X0167000Y0359250D01*
X0167000Y0359762D02*
X0161500Y0359762D01*
X0181190Y0368110D02*
X0181067Y0368517D01*
X0181026Y0368939D01*
X0181067Y0369361D01*
X0181190Y0369768D01*
X0181391Y0370142D01*
X0181660Y0370470D01*
X0181988Y0370739D01*
X0182362Y0370940D01*
X0182769Y0371063D01*
X0183191Y0371104D01*
X0183388Y0371104D01*
X0183826Y0371055D01*
X0184242Y0370909D01*
X0184615Y0370675D01*
X0184927Y0370363D01*
X0185161Y0369990D01*
X0185307Y0369574D01*
X0185356Y0369136D01*
X0185356Y0368939D01*
X0185315Y0368517D01*
X0185191Y0368110D01*
X0184991Y0367736D01*
X0184722Y0367408D01*
X0184394Y0367139D01*
X0184020Y0366938D01*
X0183613Y0366815D01*
X0183191Y0366774D01*
X0182769Y0366815D01*
X0182362Y0366938D01*
X0181988Y0367139D01*
X0181660Y0367408D01*
X0181391Y0367736D01*
X0181190Y0368110D01*
X0181152Y0368236D02*
X0185230Y0368236D01*
X0185336Y0368735D02*
X0181046Y0368735D01*
X0181055Y0369233D02*
X0185345Y0369233D01*
X0185252Y0369732D02*
X0181180Y0369732D01*
X0181463Y0370230D02*
X0185010Y0370230D01*
X0184529Y0370729D02*
X0181975Y0370729D01*
X0181390Y0367738D02*
X0184992Y0367738D01*
X0184517Y0367239D02*
X0181865Y0367239D01*
X0182769Y0374815D02*
X0182362Y0374938D01*
X0181988Y0375139D01*
X0181660Y0375408D01*
X0181391Y0375736D01*
X0181190Y0376110D01*
X0181067Y0376517D01*
X0181026Y0376939D01*
X0181067Y0377361D01*
X0181190Y0377768D01*
X0181391Y0378142D01*
X0181660Y0378470D01*
X0181988Y0378739D01*
X0182362Y0378940D01*
X0182769Y0379063D01*
X0183191Y0379104D01*
X0183388Y0379104D01*
X0183826Y0379055D01*
X0184242Y0378909D01*
X0184615Y0378675D01*
X0184927Y0378363D01*
X0185161Y0377990D01*
X0185307Y0377574D01*
X0185356Y0377136D01*
X0185356Y0376939D01*
X0185315Y0376517D01*
X0185191Y0376110D01*
X0184991Y0375736D01*
X0184722Y0375408D01*
X0184394Y0375139D01*
X0184020Y0374938D01*
X0183613Y0374815D01*
X0183191Y0374774D01*
X0182769Y0374815D01*
X0181894Y0375215D02*
X0184488Y0375215D01*
X0184973Y0375714D02*
X0181409Y0375714D01*
X0181159Y0376212D02*
X0185222Y0376212D01*
X0185334Y0376711D02*
X0181048Y0376711D01*
X0181052Y0377209D02*
X0185348Y0377209D01*
X0185260Y0377708D02*
X0181172Y0377708D01*
X0181443Y0378206D02*
X0185025Y0378206D01*
X0184567Y0378705D02*
X0181946Y0378705D01*
X0182769Y0382689D02*
X0182362Y0382812D01*
X0181988Y0383013D01*
X0181660Y0383282D01*
X0181391Y0383610D01*
X0181190Y0383984D01*
X0181067Y0384391D01*
X0181026Y0384813D01*
X0181067Y0385235D01*
X0181190Y0385642D01*
X0181391Y0386016D01*
X0181660Y0386344D01*
X0181988Y0386613D01*
X0182362Y0386814D01*
X0182769Y0386937D01*
X0183191Y0386978D01*
X0183388Y0386978D01*
X0183826Y0386929D01*
X0184242Y0386783D01*
X0184615Y0386549D01*
X0184927Y0386237D01*
X0185161Y0385864D01*
X0185307Y0385448D01*
X0185356Y0385010D01*
X0185356Y0384813D01*
X0185315Y0384391D01*
X0185191Y0383984D01*
X0184991Y0383610D01*
X0184722Y0383282D01*
X0184394Y0383013D01*
X0184020Y0382812D01*
X0183613Y0382689D01*
X0183191Y0382648D01*
X0182769Y0382689D01*
X0182756Y0382693D02*
X0183626Y0382693D01*
X0184612Y0383192D02*
X0181770Y0383192D01*
X0181348Y0383690D02*
X0185034Y0383690D01*
X0185253Y0384189D02*
X0181128Y0384189D01*
X0181038Y0384687D02*
X0185344Y0384687D01*
X0185336Y0385186D02*
X0181062Y0385186D01*
X0181213Y0385684D02*
X0185224Y0385684D01*
X0184961Y0386183D02*
X0181527Y0386183D01*
X0182115Y0386681D02*
X0184405Y0386681D01*
X0183613Y0390563D02*
X0183191Y0390522D01*
X0182769Y0390563D01*
X0182362Y0390686D01*
X0181988Y0390887D01*
X0181660Y0391156D01*
X0181391Y0391484D01*
X0181190Y0391858D01*
X0181067Y0392265D01*
X0181026Y0392687D01*
X0181067Y0393109D01*
X0181190Y0393516D01*
X0181391Y0393890D01*
X0181660Y0394218D01*
X0181988Y0394487D01*
X0182362Y0394688D01*
X0182769Y0394811D01*
X0183191Y0394852D01*
X0183388Y0394852D01*
X0183826Y0394803D01*
X0184242Y0394657D01*
X0182306Y0394657D01*
X0181611Y0394159D02*
X0184879Y0394159D01*
X0184927Y0394111D02*
X0185161Y0393738D01*
X0185307Y0393322D01*
X0185356Y0392884D01*
X0185356Y0392687D01*
X0185315Y0392265D01*
X0185191Y0391858D01*
X0184991Y0391484D01*
X0184722Y0391156D01*
X0184394Y0390887D01*
X0184020Y0390686D01*
X0183613Y0390563D01*
X0183963Y0390669D02*
X0182419Y0390669D01*
X0181650Y0391168D02*
X0184732Y0391168D01*
X0185089Y0391666D02*
X0181293Y0391666D01*
X0181097Y0392165D02*
X0185284Y0392165D01*
X0185354Y0392663D02*
X0181028Y0392663D01*
X0181083Y0393162D02*
X0185325Y0393162D01*
X0185189Y0393660D02*
X0181268Y0393660D01*
X0184242Y0394657D02*
X0184615Y0394423D01*
X0184927Y0394111D01*
X0183613Y0398437D02*
X0183191Y0398396D01*
X0182769Y0398437D01*
X0182362Y0398560D01*
X0181988Y0398761D01*
X0181660Y0399030D01*
X0181391Y0399358D01*
X0181190Y0399732D01*
X0181067Y0400139D01*
X0181026Y0400561D01*
X0181067Y0400983D01*
X0181190Y0401390D01*
X0181391Y0401764D01*
X0181660Y0402092D01*
X0181988Y0402361D01*
X0182362Y0402562D01*
X0182769Y0402685D01*
X0183191Y0402726D01*
X0183388Y0402726D01*
X0183826Y0402677D01*
X0184242Y0402531D01*
X0184615Y0402297D01*
X0184927Y0401985D01*
X0185161Y0401612D01*
X0185307Y0401196D01*
X0185356Y0400758D01*
X0185356Y0400561D01*
X0185315Y0400139D01*
X0185191Y0399732D01*
X0184991Y0399358D01*
X0184722Y0399030D01*
X0184394Y0398761D01*
X0184020Y0398560D01*
X0183613Y0398437D01*
X0184178Y0398645D02*
X0182203Y0398645D01*
X0181566Y0399144D02*
X0184816Y0399144D01*
X0185143Y0399642D02*
X0181239Y0399642D01*
X0181067Y0400141D02*
X0185315Y0400141D01*
X0185356Y0400639D02*
X0181033Y0400639D01*
X0181114Y0401138D02*
X0185313Y0401138D01*
X0185146Y0401636D02*
X0181322Y0401636D01*
X0181712Y0402135D02*
X0184777Y0402135D01*
X0183950Y0402633D02*
X0182599Y0402633D01*
X0206873Y0405917D02*
X0206813Y0406600D01*
X0206873Y0407284D01*
X0207050Y0407947D01*
X0207340Y0408569D01*
X0207734Y0409131D01*
X0208219Y0409616D01*
X0208781Y0410010D01*
X0209403Y0410300D01*
X0210066Y0410478D01*
X0210750Y0410537D01*
X0211434Y0410478D01*
X0212097Y0410300D01*
X0212719Y0410010D01*
X0213281Y0409616D01*
X0213766Y0409131D01*
X0214160Y0408569D01*
X0214450Y0407947D01*
X0214627Y0407284D01*
X0214687Y0406600D01*
X0214627Y0405917D01*
X0214450Y0405254D01*
X0214160Y0404632D01*
X0213766Y0404070D01*
X0213281Y0403584D01*
X0212719Y0403191D01*
X0212097Y0402901D01*
X0211434Y0402723D01*
X0210750Y0402663D01*
X0210066Y0402723D01*
X0209403Y0402901D01*
X0208781Y0403191D01*
X0208219Y0403584D01*
X0207734Y0404070D01*
X0207340Y0404632D01*
X0207050Y0405254D01*
X0206873Y0405917D01*
X0206855Y0406123D02*
X0214645Y0406123D01*
X0214685Y0406622D02*
X0206815Y0406622D01*
X0206858Y0407120D02*
X0214642Y0407120D01*
X0214538Y0407619D02*
X0206962Y0407619D01*
X0207130Y0408117D02*
X0214370Y0408117D01*
X0214127Y0408616D02*
X0207373Y0408616D01*
X0207722Y0409114D02*
X0213778Y0409114D01*
X0213284Y0409613D02*
X0208216Y0409613D01*
X0208999Y0410111D02*
X0212501Y0410111D01*
X0214549Y0405625D02*
X0206951Y0405625D01*
X0207110Y0405126D02*
X0214390Y0405126D01*
X0214157Y0404628D02*
X0207344Y0404628D01*
X0207693Y0404129D02*
X0213807Y0404129D01*
X0213327Y0403631D02*
X0208173Y0403631D01*
X0208908Y0403132D02*
X0212592Y0403132D01*
X0210750Y0366837D02*
X0211434Y0366777D01*
X0212097Y0366599D01*
X0212719Y0366309D01*
X0213281Y0365916D01*
X0213766Y0365430D01*
X0214160Y0364868D01*
X0214450Y0364246D01*
X0214627Y0363583D01*
X0214687Y0362900D01*
X0214627Y0362216D01*
X0214450Y0361553D01*
X0214160Y0360931D01*
X0213766Y0360369D01*
X0213281Y0359884D01*
X0212719Y0359490D01*
X0212097Y0359200D01*
X0211434Y0359022D01*
X0210750Y0358963D01*
X0210066Y0359022D01*
X0209403Y0359200D01*
X0208781Y0359490D01*
X0208219Y0359884D01*
X0207734Y0360369D01*
X0207340Y0360931D01*
X0207050Y0361553D01*
X0206873Y0362216D01*
X0206813Y0362900D01*
X0206873Y0363583D01*
X0207050Y0364246D01*
X0207340Y0364868D01*
X0207734Y0365430D01*
X0208219Y0365916D01*
X0208781Y0366309D01*
X0209403Y0366599D01*
X0210066Y0366777D01*
X0210750Y0366837D01*
X0209932Y0366741D02*
X0211568Y0366741D01*
X0212814Y0366242D02*
X0208686Y0366242D01*
X0208047Y0365744D02*
X0213453Y0365744D01*
X0213896Y0365245D02*
X0207604Y0365245D01*
X0207284Y0364747D02*
X0214216Y0364747D01*
X0214449Y0364248D02*
X0207051Y0364248D01*
X0206917Y0363750D02*
X0214583Y0363750D01*
X0214656Y0363251D02*
X0206844Y0363251D01*
X0206826Y0362753D02*
X0214674Y0362753D01*
X0214631Y0362254D02*
X0206869Y0362254D01*
X0206996Y0361756D02*
X0214504Y0361756D01*
X0214312Y0361257D02*
X0207188Y0361257D01*
X0207461Y0360759D02*
X0214039Y0360759D01*
X0213657Y0360260D02*
X0207843Y0360260D01*
X0208394Y0359762D02*
X0213106Y0359762D01*
X0212232Y0359263D02*
X0209268Y0359263D01*
X0238277Y0373882D02*
X0238154Y0374288D01*
X0238112Y0374711D01*
X0238154Y0375133D01*
X0238277Y0375539D01*
X0238477Y0375914D01*
X0238746Y0376242D01*
X0239075Y0376511D01*
X0239449Y0376711D01*
X0239855Y0376834D01*
X0240278Y0376876D01*
X0240474Y0376876D01*
X0240912Y0376827D01*
X0241329Y0376681D01*
X0241702Y0376447D01*
X0242013Y0376135D01*
X0242248Y0375762D01*
X0242394Y0375346D01*
X0242443Y0374907D01*
X0242443Y0374711D01*
X0242401Y0374288D01*
X0242278Y0373882D01*
X0242078Y0373508D01*
X0241809Y0373179D01*
X0241481Y0372910D01*
X0241106Y0372710D01*
X0240700Y0372587D01*
X0240278Y0372545D01*
X0239855Y0372587D01*
X0239449Y0372710D01*
X0239075Y0372910D01*
X0238746Y0373179D01*
X0238477Y0373508D01*
X0238277Y0373882D01*
X0238364Y0373720D02*
X0242191Y0373720D01*
X0242380Y0374218D02*
X0238175Y0374218D01*
X0238113Y0374717D02*
X0242443Y0374717D01*
X0242408Y0375215D02*
X0238179Y0375215D01*
X0238370Y0375714D02*
X0242265Y0375714D01*
X0241936Y0376212D02*
X0238722Y0376212D01*
X0239448Y0376711D02*
X0241243Y0376711D01*
X0241843Y0373221D02*
X0238712Y0373221D01*
X0239425Y0372723D02*
X0241130Y0372723D01*
X0240278Y0382585D02*
X0239855Y0382626D01*
X0239449Y0382749D01*
X0239075Y0382950D01*
X0238746Y0383219D01*
X0238477Y0383547D01*
X0238277Y0383921D01*
X0238154Y0384328D01*
X0238112Y0384750D01*
X0238154Y0385172D01*
X0238277Y0385579D01*
X0238477Y0385953D01*
X0238746Y0386281D01*
X0239075Y0386550D01*
X0239449Y0386751D01*
X0239855Y0386874D01*
X0240278Y0386915D01*
X0240474Y0386915D01*
X0240912Y0386866D01*
X0241329Y0386720D01*
X0241702Y0386486D01*
X0242013Y0386174D01*
X0242248Y0385801D01*
X0242394Y0385385D01*
X0242443Y0384947D01*
X0242443Y0384750D01*
X0242401Y0384328D01*
X0242278Y0383921D01*
X0242078Y0383547D01*
X0241809Y0383219D01*
X0241481Y0382950D01*
X0241106Y0382749D01*
X0240700Y0382626D01*
X0240278Y0382585D01*
X0240920Y0382693D02*
X0239635Y0382693D01*
X0238780Y0383192D02*
X0241775Y0383192D01*
X0242154Y0383690D02*
X0238401Y0383690D01*
X0238196Y0384189D02*
X0242359Y0384189D01*
X0242437Y0384687D02*
X0238118Y0384687D01*
X0238158Y0385186D02*
X0242416Y0385186D01*
X0242289Y0385684D02*
X0238333Y0385684D01*
X0238666Y0386183D02*
X0242005Y0386183D01*
X0241391Y0386681D02*
X0239319Y0386681D01*
X0239855Y0392469D02*
X0239449Y0392592D01*
X0239075Y0392792D01*
X0238746Y0393061D01*
X0238477Y0393390D01*
X0238277Y0393764D01*
X0238154Y0394170D01*
X0238112Y0394593D01*
X0238154Y0395015D01*
X0238277Y0395421D01*
X0238477Y0395796D01*
X0238746Y0396124D01*
X0239075Y0396393D01*
X0239449Y0396593D01*
X0239855Y0396716D01*
X0240278Y0396758D01*
X0240474Y0396758D01*
X0240912Y0396709D01*
X0241329Y0396563D01*
X0241702Y0396328D01*
X0242013Y0396017D01*
X0242248Y0395643D01*
X0242394Y0395227D01*
X0242443Y0394789D01*
X0242443Y0394593D01*
X0242401Y0394170D01*
X0242278Y0393764D01*
X0242078Y0393390D01*
X0241809Y0393061D01*
X0241481Y0392792D01*
X0241106Y0392592D01*
X0240700Y0392469D01*
X0240278Y0392427D01*
X0239855Y0392469D01*
X0239316Y0392663D02*
X0241240Y0392663D01*
X0241891Y0393162D02*
X0238664Y0393162D01*
X0238332Y0393660D02*
X0242223Y0393660D01*
X0242398Y0394159D02*
X0238157Y0394159D01*
X0238119Y0394657D02*
X0242443Y0394657D01*
X0242402Y0395156D02*
X0238197Y0395156D01*
X0238402Y0395654D02*
X0242241Y0395654D01*
X0241877Y0396153D02*
X0238782Y0396153D01*
X0239641Y0396651D02*
X0241076Y0396651D01*
X0260000Y0360250D02*
X0260000Y0359250D01*
X0261500Y0359250D01*
X0261500Y0360250D01*
X0260000Y0360250D01*
X0260000Y0359762D02*
X0261500Y0359762D01*
X0261500Y0359263D02*
X0260000Y0359263D01*
X0260000Y0461250D02*
X0260000Y0462250D01*
X0261500Y0462250D01*
X0261500Y0461250D01*
X0260000Y0461250D01*
X0260000Y0461458D02*
X0261500Y0461458D01*
X0261500Y0461956D02*
X0260000Y0461956D01*
X0242078Y0475508D02*
X0241809Y0475179D01*
X0241481Y0474910D01*
X0241106Y0474710D01*
X0240700Y0474587D01*
X0240278Y0474545D01*
X0239855Y0474587D01*
X0239449Y0474710D01*
X0239075Y0474910D01*
X0238746Y0475179D01*
X0238477Y0475508D01*
X0238277Y0475882D01*
X0238154Y0476288D01*
X0238112Y0476711D01*
X0238154Y0477133D01*
X0238277Y0477539D01*
X0238477Y0477914D01*
X0238746Y0478242D01*
X0239075Y0478511D01*
X0239449Y0478711D01*
X0239855Y0478834D01*
X0240278Y0478876D01*
X0240474Y0478876D01*
X0240912Y0478827D01*
X0241329Y0478681D01*
X0241702Y0478447D01*
X0242013Y0478135D01*
X0242248Y0477762D01*
X0242394Y0477346D01*
X0242443Y0476907D01*
X0242443Y0476711D01*
X0242401Y0476288D01*
X0242278Y0475882D01*
X0242078Y0475508D01*
X0242003Y0475416D02*
X0238552Y0475416D01*
X0238267Y0475915D02*
X0242288Y0475915D01*
X0242414Y0476413D02*
X0238142Y0476413D01*
X0238132Y0476912D02*
X0242442Y0476912D01*
X0242371Y0477410D02*
X0238238Y0477410D01*
X0238474Y0477909D02*
X0242156Y0477909D01*
X0241741Y0478407D02*
X0238948Y0478407D01*
X0239066Y0474918D02*
X0241490Y0474918D01*
X0240700Y0484626D02*
X0240278Y0484585D01*
X0239855Y0484626D01*
X0239449Y0484749D01*
X0239075Y0484950D01*
X0238746Y0485219D01*
X0238477Y0485547D01*
X0238277Y0485921D01*
X0238154Y0486328D01*
X0238112Y0486750D01*
X0238154Y0487172D01*
X0238277Y0487579D01*
X0238477Y0487953D01*
X0238746Y0488281D01*
X0239075Y0488550D01*
X0239449Y0488751D01*
X0239855Y0488874D01*
X0240278Y0488915D01*
X0240474Y0488915D01*
X0240912Y0488866D01*
X0241329Y0488720D01*
X0241702Y0488486D01*
X0242013Y0488174D01*
X0242248Y0487801D01*
X0242394Y0487385D01*
X0242443Y0486947D01*
X0242443Y0486750D01*
X0242401Y0486328D01*
X0242278Y0485921D01*
X0242078Y0485547D01*
X0241809Y0485219D01*
X0241481Y0484950D01*
X0241106Y0484749D01*
X0240700Y0484626D01*
X0241365Y0484888D02*
X0239190Y0484888D01*
X0238609Y0485386D02*
X0241946Y0485386D01*
X0242259Y0485885D02*
X0238297Y0485885D01*
X0238148Y0486383D02*
X0242407Y0486383D01*
X0242443Y0486882D02*
X0238125Y0486882D01*
X0238217Y0487380D02*
X0242394Y0487380D01*
X0242199Y0487879D02*
X0238438Y0487879D01*
X0238864Y0488377D02*
X0241810Y0488377D01*
X0240824Y0488876D02*
X0239877Y0488876D01*
X0240278Y0494427D02*
X0239855Y0494469D01*
X0239449Y0494592D01*
X0239075Y0494792D01*
X0238746Y0495061D01*
X0238477Y0495390D01*
X0238277Y0495764D01*
X0238154Y0496170D01*
X0238112Y0496593D01*
X0238154Y0497015D01*
X0238277Y0497421D01*
X0238477Y0497796D01*
X0238746Y0498124D01*
X0239075Y0498393D01*
X0239449Y0498593D01*
X0239855Y0498716D01*
X0240278Y0498758D01*
X0240474Y0498758D01*
X0240912Y0498709D01*
X0241329Y0498563D01*
X0241702Y0498328D01*
X0242013Y0498017D01*
X0242248Y0497643D01*
X0242394Y0497227D01*
X0242443Y0496789D01*
X0242443Y0496593D01*
X0242401Y0496170D01*
X0242278Y0495764D01*
X0242078Y0495390D01*
X0241809Y0495061D01*
X0241481Y0494792D01*
X0241106Y0494592D01*
X0240700Y0494469D01*
X0240278Y0494427D01*
X0241561Y0494858D02*
X0238994Y0494858D01*
X0238504Y0495357D02*
X0242051Y0495357D01*
X0242306Y0495855D02*
X0238249Y0495855D01*
X0238136Y0496354D02*
X0242419Y0496354D01*
X0242436Y0496852D02*
X0238138Y0496852D01*
X0238256Y0497351D02*
X0242350Y0497351D01*
X0242119Y0497849D02*
X0238521Y0497849D01*
X0239019Y0498348D02*
X0241671Y0498348D01*
X0214450Y0507254D02*
X0214160Y0506632D01*
X0213766Y0506070D01*
X0213281Y0505584D01*
X0212719Y0505191D01*
X0212097Y0504901D01*
X0211434Y0504723D01*
X0210750Y0504663D01*
X0210066Y0504723D01*
X0209403Y0504901D01*
X0208781Y0505191D01*
X0208219Y0505584D01*
X0207734Y0506070D01*
X0207340Y0506632D01*
X0207050Y0507254D01*
X0206873Y0507917D01*
X0206813Y0508600D01*
X0206873Y0509284D01*
X0207050Y0509947D01*
X0207340Y0510569D01*
X0207734Y0511131D01*
X0208219Y0511616D01*
X0208781Y0512010D01*
X0209403Y0512300D01*
X0210066Y0512478D01*
X0210750Y0512537D01*
X0211434Y0512478D01*
X0212097Y0512300D01*
X0212719Y0512010D01*
X0213281Y0511616D01*
X0213766Y0511131D01*
X0214160Y0510569D01*
X0214450Y0509947D01*
X0214627Y0509284D01*
X0214687Y0508600D01*
X0214627Y0507917D01*
X0214450Y0507254D01*
X0214468Y0507321D02*
X0207032Y0507321D01*
X0206899Y0507819D02*
X0214601Y0507819D01*
X0214662Y0508318D02*
X0206838Y0508318D01*
X0206832Y0508816D02*
X0214668Y0508816D01*
X0214619Y0509315D02*
X0206881Y0509315D01*
X0207015Y0509813D02*
X0214485Y0509813D01*
X0214279Y0510312D02*
X0207221Y0510312D01*
X0207510Y0510810D02*
X0213990Y0510810D01*
X0213588Y0511309D02*
X0207912Y0511309D01*
X0208492Y0511807D02*
X0213008Y0511807D01*
X0212074Y0512306D02*
X0209426Y0512306D01*
X0207252Y0506822D02*
X0214248Y0506822D01*
X0213944Y0506324D02*
X0207556Y0506324D01*
X0207978Y0505825D02*
X0213522Y0505825D01*
X0212913Y0505327D02*
X0208587Y0505327D01*
X0209674Y0504828D02*
X0211826Y0504828D01*
X0210750Y0468837D02*
X0211434Y0468777D01*
X0212097Y0468599D01*
X0212719Y0468309D01*
X0213281Y0467916D01*
X0213766Y0467430D01*
X0214160Y0466868D01*
X0214450Y0466246D01*
X0214627Y0465583D01*
X0214687Y0464900D01*
X0214627Y0464216D01*
X0214450Y0463553D01*
X0214160Y0462931D01*
X0213766Y0462369D01*
X0213281Y0461884D01*
X0212719Y0461490D01*
X0212097Y0461200D01*
X0211434Y0461022D01*
X0210750Y0460963D01*
X0210066Y0461022D01*
X0209403Y0461200D01*
X0208781Y0461490D01*
X0208219Y0461884D01*
X0207734Y0462369D01*
X0207340Y0462931D01*
X0207050Y0463553D01*
X0206873Y0464216D01*
X0206813Y0464900D01*
X0206873Y0465583D01*
X0207050Y0466246D01*
X0207340Y0466868D01*
X0207734Y0467430D01*
X0208219Y0467916D01*
X0208781Y0468309D01*
X0209403Y0468599D01*
X0210066Y0468777D01*
X0210750Y0468837D01*
X0209056Y0468437D02*
X0212444Y0468437D01*
X0213248Y0467938D02*
X0208252Y0467938D01*
X0207744Y0467440D02*
X0213756Y0467440D01*
X0214108Y0466941D02*
X0207392Y0466941D01*
X0207142Y0466443D02*
X0214358Y0466443D01*
X0214530Y0465944D02*
X0206970Y0465944D01*
X0206861Y0465446D02*
X0214639Y0465446D01*
X0214683Y0464947D02*
X0206817Y0464947D01*
X0206852Y0464449D02*
X0214648Y0464449D01*
X0214556Y0463950D02*
X0206944Y0463950D01*
X0207098Y0463452D02*
X0214402Y0463452D01*
X0214170Y0462953D02*
X0207330Y0462953D01*
X0207674Y0462455D02*
X0213826Y0462455D01*
X0213353Y0461956D02*
X0208147Y0461956D01*
X0208851Y0461458D02*
X0212649Y0461458D01*
X0185191Y0470110D02*
X0184991Y0469736D01*
X0184722Y0469408D01*
X0184394Y0469139D01*
X0184020Y0468938D01*
X0183613Y0468815D01*
X0183191Y0468774D01*
X0182769Y0468815D01*
X0182362Y0468938D01*
X0181988Y0469139D01*
X0181660Y0469408D01*
X0181391Y0469736D01*
X0181190Y0470110D01*
X0181067Y0470517D01*
X0181026Y0470939D01*
X0181067Y0471361D01*
X0181190Y0471768D01*
X0181391Y0472142D01*
X0181660Y0472470D01*
X0181988Y0472739D01*
X0182362Y0472940D01*
X0182769Y0473063D01*
X0183191Y0473104D01*
X0183388Y0473104D01*
X0183826Y0473055D01*
X0184242Y0472909D01*
X0184615Y0472675D01*
X0184927Y0472363D01*
X0185161Y0471990D01*
X0185307Y0471574D01*
X0185356Y0471136D01*
X0185356Y0470939D01*
X0185315Y0470517D01*
X0185191Y0470110D01*
X0185096Y0469933D02*
X0181285Y0469933D01*
X0181093Y0470431D02*
X0185289Y0470431D01*
X0185355Y0470930D02*
X0181027Y0470930D01*
X0181087Y0471428D02*
X0185323Y0471428D01*
X0185184Y0471927D02*
X0181275Y0471927D01*
X0181623Y0472425D02*
X0184865Y0472425D01*
X0184201Y0472924D02*
X0182333Y0472924D01*
X0181638Y0469434D02*
X0184744Y0469434D01*
X0184010Y0468935D02*
X0182372Y0468935D01*
X0183191Y0476774D02*
X0182769Y0476815D01*
X0182362Y0476938D01*
X0181988Y0477139D01*
X0181660Y0477408D01*
X0181391Y0477736D01*
X0181190Y0478110D01*
X0181067Y0478517D01*
X0181026Y0478939D01*
X0181067Y0479361D01*
X0181190Y0479768D01*
X0181391Y0480142D01*
X0181660Y0480470D01*
X0181988Y0480739D01*
X0182362Y0480940D01*
X0182769Y0481063D01*
X0183191Y0481104D01*
X0183388Y0481104D01*
X0183826Y0481055D01*
X0184242Y0480909D01*
X0184615Y0480675D01*
X0184927Y0480363D01*
X0185161Y0479990D01*
X0185307Y0479574D01*
X0185356Y0479136D01*
X0185356Y0478939D01*
X0185315Y0478517D01*
X0185191Y0478110D01*
X0184991Y0477736D01*
X0184722Y0477408D01*
X0184394Y0477139D01*
X0184020Y0476938D01*
X0183613Y0476815D01*
X0183191Y0476774D01*
X0182451Y0476912D02*
X0183931Y0476912D01*
X0184724Y0477410D02*
X0181658Y0477410D01*
X0181298Y0477909D02*
X0185084Y0477909D01*
X0185282Y0478407D02*
X0181100Y0478407D01*
X0181029Y0478906D02*
X0185353Y0478906D01*
X0185326Y0479404D02*
X0181080Y0479404D01*
X0181263Y0479903D02*
X0185192Y0479903D01*
X0184889Y0480401D02*
X0181603Y0480401D01*
X0182288Y0480900D02*
X0184257Y0480900D01*
X0183613Y0484689D02*
X0183191Y0484648D01*
X0182769Y0484689D01*
X0182362Y0484812D01*
X0181988Y0485013D01*
X0181660Y0485282D01*
X0181391Y0485610D01*
X0181190Y0485984D01*
X0181067Y0486391D01*
X0181026Y0486813D01*
X0181067Y0487235D01*
X0181190Y0487642D01*
X0181391Y0488016D01*
X0181660Y0488344D01*
X0181988Y0488613D01*
X0182362Y0488814D01*
X0182769Y0488937D01*
X0183191Y0488978D01*
X0183388Y0488978D01*
X0183826Y0488929D01*
X0184242Y0488783D01*
X0184615Y0488549D01*
X0184927Y0488237D01*
X0185161Y0487864D01*
X0185307Y0487448D01*
X0185356Y0487010D01*
X0185356Y0486813D01*
X0185315Y0486391D01*
X0185191Y0485984D01*
X0184991Y0485610D01*
X0184722Y0485282D01*
X0184394Y0485013D01*
X0184020Y0484812D01*
X0183613Y0484689D01*
X0184161Y0484888D02*
X0182221Y0484888D01*
X0181574Y0485386D02*
X0184808Y0485386D01*
X0185138Y0485885D02*
X0181244Y0485885D01*
X0181069Y0486383D02*
X0185313Y0486383D01*
X0185356Y0486882D02*
X0181032Y0486882D01*
X0181111Y0487380D02*
X0185315Y0487380D01*
X0185152Y0487879D02*
X0181317Y0487879D01*
X0181700Y0488377D02*
X0184787Y0488377D01*
X0183977Y0488876D02*
X0182568Y0488876D01*
X0182769Y0492563D02*
X0182362Y0492686D01*
X0181988Y0492887D01*
X0181660Y0493156D01*
X0181391Y0493484D01*
X0181190Y0493858D01*
X0181067Y0494265D01*
X0181026Y0494687D01*
X0181067Y0495109D01*
X0181190Y0495516D01*
X0181391Y0495890D01*
X0181660Y0496218D01*
X0181988Y0496487D01*
X0182362Y0496688D01*
X0182769Y0496811D01*
X0183191Y0496852D01*
X0183388Y0496852D01*
X0183826Y0496803D01*
X0184242Y0496657D01*
X0184615Y0496423D01*
X0184927Y0496111D01*
X0185161Y0495738D01*
X0185307Y0495322D01*
X0185356Y0494884D01*
X0185356Y0494687D01*
X0185315Y0494265D01*
X0185191Y0493858D01*
X0184991Y0493484D01*
X0184722Y0493156D01*
X0184394Y0492887D01*
X0184020Y0492686D01*
X0183613Y0492563D01*
X0183191Y0492522D01*
X0182769Y0492563D01*
X0182030Y0492864D02*
X0184352Y0492864D01*
X0184892Y0493363D02*
X0181490Y0493363D01*
X0181190Y0493861D02*
X0185192Y0493861D01*
X0185324Y0494360D02*
X0181058Y0494360D01*
X0181042Y0494858D02*
X0185356Y0494858D01*
X0185295Y0495357D02*
X0181142Y0495357D01*
X0181372Y0495855D02*
X0185088Y0495855D01*
X0184684Y0496354D02*
X0181825Y0496354D01*
X0183189Y0496852D02*
X0183390Y0496852D01*
X0183191Y0500396D02*
X0182769Y0500437D01*
X0182362Y0500560D01*
X0181988Y0500761D01*
X0181660Y0501030D01*
X0181391Y0501358D01*
X0181190Y0501732D01*
X0181067Y0502139D01*
X0181026Y0502561D01*
X0181067Y0502983D01*
X0181190Y0503390D01*
X0181391Y0503764D01*
X0181660Y0504092D01*
X0181988Y0504361D01*
X0182362Y0504562D01*
X0182769Y0504685D01*
X0183191Y0504726D01*
X0183388Y0504726D01*
X0183826Y0504677D01*
X0184242Y0504531D01*
X0184615Y0504297D01*
X0184927Y0503985D01*
X0185161Y0503612D01*
X0185307Y0503196D01*
X0185356Y0502758D01*
X0185356Y0502561D01*
X0185315Y0502139D01*
X0185191Y0501732D01*
X0184991Y0501358D01*
X0184722Y0501030D01*
X0184394Y0500761D01*
X0184020Y0500560D01*
X0183613Y0500437D01*
X0183191Y0500396D01*
X0181891Y0500840D02*
X0184491Y0500840D01*
X0184976Y0501339D02*
X0181406Y0501339D01*
X0181159Y0501837D02*
X0185223Y0501837D01*
X0185334Y0502336D02*
X0181048Y0502336D01*
X0181052Y0502834D02*
X0185348Y0502834D01*
X0185259Y0503333D02*
X0181173Y0503333D01*
X0181446Y0503831D02*
X0185024Y0503831D01*
X0184563Y0504330D02*
X0181949Y0504330D01*
X0167000Y0462250D02*
X0161500Y0462250D01*
X0161500Y0461250D01*
X0167000Y0461250D01*
X0167000Y0462250D01*
X0167000Y0461956D02*
X0161500Y0461956D01*
X0161500Y0461458D02*
X0167000Y0461458D01*
X0139500Y0461458D02*
X0138000Y0461458D01*
X0138000Y0461250D02*
X0138000Y0462250D01*
X0139500Y0462250D01*
X0139500Y0461250D01*
X0138000Y0461250D01*
X0138000Y0461956D02*
X0139500Y0461956D01*
X0120078Y0475508D02*
X0119809Y0475179D01*
X0119481Y0474910D01*
X0119106Y0474710D01*
X0118700Y0474587D01*
X0118278Y0474545D01*
X0117855Y0474587D01*
X0117449Y0474710D01*
X0117075Y0474910D01*
X0116746Y0475179D01*
X0116477Y0475508D01*
X0116277Y0475882D01*
X0116154Y0476288D01*
X0116112Y0476711D01*
X0116154Y0477133D01*
X0116277Y0477539D01*
X0116477Y0477914D01*
X0116746Y0478242D01*
X0117075Y0478511D01*
X0117449Y0478711D01*
X0117855Y0478834D01*
X0118278Y0478876D01*
X0118474Y0478876D01*
X0118912Y0478827D01*
X0119329Y0478681D01*
X0119702Y0478447D01*
X0120013Y0478135D01*
X0120248Y0477762D01*
X0120394Y0477346D01*
X0120443Y0476907D01*
X0120443Y0476711D01*
X0120401Y0476288D01*
X0120278Y0475882D01*
X0120078Y0475508D01*
X0120003Y0475416D02*
X0116552Y0475416D01*
X0116267Y0475915D02*
X0120288Y0475915D01*
X0120414Y0476413D02*
X0116142Y0476413D01*
X0116132Y0476912D02*
X0120442Y0476912D01*
X0120371Y0477410D02*
X0116238Y0477410D01*
X0116474Y0477909D02*
X0120156Y0477909D01*
X0119741Y0478407D02*
X0116948Y0478407D01*
X0117066Y0474918D02*
X0119490Y0474918D01*
X0118700Y0484626D02*
X0118278Y0484585D01*
X0117855Y0484626D01*
X0117449Y0484749D01*
X0117075Y0484950D01*
X0116746Y0485219D01*
X0116477Y0485547D01*
X0116277Y0485921D01*
X0116154Y0486328D01*
X0116112Y0486750D01*
X0116154Y0487172D01*
X0116277Y0487579D01*
X0116477Y0487953D01*
X0116746Y0488281D01*
X0117075Y0488550D01*
X0117449Y0488751D01*
X0117855Y0488874D01*
X0118278Y0488915D01*
X0118474Y0488915D01*
X0118912Y0488866D01*
X0119329Y0488720D01*
X0119702Y0488486D01*
X0120013Y0488174D01*
X0120248Y0487801D01*
X0120394Y0487385D01*
X0120443Y0486947D01*
X0120443Y0486750D01*
X0120401Y0486328D01*
X0120278Y0485921D01*
X0120078Y0485547D01*
X0119809Y0485219D01*
X0119481Y0484950D01*
X0119106Y0484749D01*
X0118700Y0484626D01*
X0119365Y0484888D02*
X0117190Y0484888D01*
X0116609Y0485386D02*
X0119946Y0485386D01*
X0120259Y0485885D02*
X0116297Y0485885D01*
X0116148Y0486383D02*
X0120407Y0486383D01*
X0120443Y0486882D02*
X0116125Y0486882D01*
X0116217Y0487380D02*
X0120394Y0487380D01*
X0120199Y0487879D02*
X0116438Y0487879D01*
X0116864Y0488377D02*
X0119810Y0488377D01*
X0118824Y0488876D02*
X0117877Y0488876D01*
X0118278Y0494427D02*
X0117855Y0494469D01*
X0117449Y0494592D01*
X0117075Y0494792D01*
X0116746Y0495061D01*
X0116477Y0495390D01*
X0116277Y0495764D01*
X0116154Y0496170D01*
X0116112Y0496593D01*
X0116154Y0497015D01*
X0116277Y0497421D01*
X0116477Y0497796D01*
X0116746Y0498124D01*
X0117075Y0498393D01*
X0117449Y0498593D01*
X0117855Y0498716D01*
X0118278Y0498758D01*
X0118474Y0498758D01*
X0118912Y0498709D01*
X0119329Y0498563D01*
X0119702Y0498328D01*
X0120013Y0498017D01*
X0120248Y0497643D01*
X0120394Y0497227D01*
X0120443Y0496789D01*
X0120443Y0496593D01*
X0120401Y0496170D01*
X0120278Y0495764D01*
X0120078Y0495390D01*
X0119809Y0495061D01*
X0119481Y0494792D01*
X0119106Y0494592D01*
X0118700Y0494469D01*
X0118278Y0494427D01*
X0119561Y0494858D02*
X0116994Y0494858D01*
X0116504Y0495357D02*
X0120051Y0495357D01*
X0120306Y0495855D02*
X0116249Y0495855D01*
X0116136Y0496354D02*
X0120419Y0496354D01*
X0120436Y0496852D02*
X0116138Y0496852D01*
X0116256Y0497351D02*
X0120350Y0497351D01*
X0120119Y0497849D02*
X0116521Y0497849D01*
X0117019Y0498348D02*
X0119671Y0498348D01*
X0092450Y0507254D02*
X0092160Y0506632D01*
X0091766Y0506070D01*
X0091281Y0505584D01*
X0090719Y0505191D01*
X0090097Y0504901D01*
X0089434Y0504723D01*
X0088750Y0504663D01*
X0088066Y0504723D01*
X0087403Y0504901D01*
X0086781Y0505191D01*
X0086219Y0505584D01*
X0085734Y0506070D01*
X0085340Y0506632D01*
X0085050Y0507254D01*
X0084873Y0507917D01*
X0084813Y0508600D01*
X0084873Y0509284D01*
X0085050Y0509947D01*
X0085340Y0510569D01*
X0085734Y0511131D01*
X0086219Y0511616D01*
X0086781Y0512010D01*
X0087403Y0512300D01*
X0088066Y0512478D01*
X0088750Y0512537D01*
X0089434Y0512478D01*
X0090097Y0512300D01*
X0090719Y0512010D01*
X0091281Y0511616D01*
X0091766Y0511131D01*
X0092160Y0510569D01*
X0092450Y0509947D01*
X0092627Y0509284D01*
X0092687Y0508600D01*
X0092627Y0507917D01*
X0092450Y0507254D01*
X0092468Y0507321D02*
X0085032Y0507321D01*
X0084899Y0507819D02*
X0092601Y0507819D01*
X0092662Y0508318D02*
X0084838Y0508318D01*
X0084832Y0508816D02*
X0092668Y0508816D01*
X0092619Y0509315D02*
X0084881Y0509315D01*
X0085015Y0509813D02*
X0092485Y0509813D01*
X0092279Y0510312D02*
X0085221Y0510312D01*
X0085510Y0510810D02*
X0091990Y0510810D01*
X0091588Y0511309D02*
X0085912Y0511309D01*
X0086492Y0511807D02*
X0091008Y0511807D01*
X0090074Y0512306D02*
X0087426Y0512306D01*
X0085252Y0506822D02*
X0092248Y0506822D01*
X0091944Y0506324D02*
X0085556Y0506324D01*
X0085978Y0505825D02*
X0091522Y0505825D01*
X0090913Y0505327D02*
X0086587Y0505327D01*
X0087674Y0504828D02*
X0089826Y0504828D01*
X0088750Y0468837D02*
X0089434Y0468777D01*
X0090097Y0468599D01*
X0090719Y0468309D01*
X0091281Y0467916D01*
X0091766Y0467430D01*
X0092160Y0466868D01*
X0092450Y0466246D01*
X0092627Y0465583D01*
X0092687Y0464900D01*
X0092627Y0464216D01*
X0092450Y0463553D01*
X0092160Y0462931D01*
X0091766Y0462369D01*
X0091281Y0461884D01*
X0090719Y0461490D01*
X0090097Y0461200D01*
X0089434Y0461022D01*
X0088750Y0460963D01*
X0088066Y0461022D01*
X0087403Y0461200D01*
X0086781Y0461490D01*
X0086219Y0461884D01*
X0085734Y0462369D01*
X0085340Y0462931D01*
X0085050Y0463553D01*
X0084873Y0464216D01*
X0084813Y0464900D01*
X0084873Y0465583D01*
X0085050Y0466246D01*
X0085340Y0466868D01*
X0085734Y0467430D01*
X0086219Y0467916D01*
X0086781Y0468309D01*
X0087403Y0468599D01*
X0088066Y0468777D01*
X0088750Y0468837D01*
X0087056Y0468437D02*
X0090444Y0468437D01*
X0091248Y0467938D02*
X0086252Y0467938D01*
X0085744Y0467440D02*
X0091756Y0467440D01*
X0092108Y0466941D02*
X0085392Y0466941D01*
X0085142Y0466443D02*
X0092358Y0466443D01*
X0092530Y0465944D02*
X0084970Y0465944D01*
X0084861Y0465446D02*
X0092639Y0465446D01*
X0092683Y0464947D02*
X0084817Y0464947D01*
X0084852Y0464449D02*
X0092648Y0464449D01*
X0092556Y0463950D02*
X0084944Y0463950D01*
X0085098Y0463452D02*
X0092402Y0463452D01*
X0092170Y0462953D02*
X0085330Y0462953D01*
X0085674Y0462455D02*
X0091826Y0462455D01*
X0091353Y0461956D02*
X0086147Y0461956D01*
X0086851Y0461458D02*
X0090649Y0461458D01*
X0063191Y0470110D02*
X0062991Y0469736D01*
X0062722Y0469408D01*
X0062394Y0469139D01*
X0062020Y0468938D01*
X0061613Y0468815D01*
X0061191Y0468774D01*
X0060769Y0468815D01*
X0060362Y0468938D01*
X0059988Y0469139D01*
X0059660Y0469408D01*
X0059391Y0469736D01*
X0059190Y0470110D01*
X0059067Y0470517D01*
X0059026Y0470939D01*
X0059067Y0471361D01*
X0059190Y0471768D01*
X0059391Y0472142D01*
X0059660Y0472470D01*
X0059988Y0472739D01*
X0060362Y0472940D01*
X0060769Y0473063D01*
X0061191Y0473104D01*
X0061388Y0473104D01*
X0061826Y0473055D01*
X0062242Y0472909D01*
X0062615Y0472675D01*
X0062927Y0472363D01*
X0063161Y0471990D01*
X0063307Y0471574D01*
X0063356Y0471136D01*
X0063356Y0470939D01*
X0063315Y0470517D01*
X0063191Y0470110D01*
X0063096Y0469933D02*
X0059285Y0469933D01*
X0059093Y0470431D02*
X0063289Y0470431D01*
X0063355Y0470930D02*
X0059027Y0470930D01*
X0059087Y0471428D02*
X0063323Y0471428D01*
X0063184Y0471927D02*
X0059275Y0471927D01*
X0059623Y0472425D02*
X0062865Y0472425D01*
X0062201Y0472924D02*
X0060333Y0472924D01*
X0059638Y0469434D02*
X0062744Y0469434D01*
X0062010Y0468935D02*
X0060372Y0468935D01*
X0061191Y0476774D02*
X0060769Y0476815D01*
X0060362Y0476938D01*
X0059988Y0477139D01*
X0059660Y0477408D01*
X0059391Y0477736D01*
X0059190Y0478110D01*
X0059067Y0478517D01*
X0059026Y0478939D01*
X0059067Y0479361D01*
X0059190Y0479768D01*
X0059391Y0480142D01*
X0059660Y0480470D01*
X0059988Y0480739D01*
X0060362Y0480940D01*
X0060769Y0481063D01*
X0061191Y0481104D01*
X0061388Y0481104D01*
X0061826Y0481055D01*
X0062242Y0480909D01*
X0062615Y0480675D01*
X0062927Y0480363D01*
X0063161Y0479990D01*
X0063307Y0479574D01*
X0063356Y0479136D01*
X0063356Y0478939D01*
X0063315Y0478517D01*
X0063191Y0478110D01*
X0062991Y0477736D01*
X0062722Y0477408D01*
X0062394Y0477139D01*
X0062020Y0476938D01*
X0061613Y0476815D01*
X0061191Y0476774D01*
X0060451Y0476912D02*
X0061931Y0476912D01*
X0062724Y0477410D02*
X0059658Y0477410D01*
X0059298Y0477909D02*
X0063084Y0477909D01*
X0063282Y0478407D02*
X0059100Y0478407D01*
X0059029Y0478906D02*
X0063353Y0478906D01*
X0063326Y0479404D02*
X0059080Y0479404D01*
X0059263Y0479903D02*
X0063192Y0479903D01*
X0062889Y0480401D02*
X0059603Y0480401D01*
X0060288Y0480900D02*
X0062257Y0480900D01*
X0061613Y0484689D02*
X0061191Y0484648D01*
X0060769Y0484689D01*
X0060362Y0484812D01*
X0059988Y0485013D01*
X0059660Y0485282D01*
X0059391Y0485610D01*
X0059190Y0485984D01*
X0059067Y0486391D01*
X0059026Y0486813D01*
X0059067Y0487235D01*
X0059190Y0487642D01*
X0059391Y0488016D01*
X0059660Y0488344D01*
X0059988Y0488613D01*
X0060362Y0488814D01*
X0060769Y0488937D01*
X0061191Y0488978D01*
X0061388Y0488978D01*
X0061826Y0488929D01*
X0062242Y0488783D01*
X0062615Y0488549D01*
X0062927Y0488237D01*
X0063161Y0487864D01*
X0063307Y0487448D01*
X0063356Y0487010D01*
X0063356Y0486813D01*
X0063315Y0486391D01*
X0063191Y0485984D01*
X0062991Y0485610D01*
X0062722Y0485282D01*
X0062394Y0485013D01*
X0062020Y0484812D01*
X0061613Y0484689D01*
X0062161Y0484888D02*
X0060221Y0484888D01*
X0059574Y0485386D02*
X0062808Y0485386D01*
X0063138Y0485885D02*
X0059244Y0485885D01*
X0059069Y0486383D02*
X0063313Y0486383D01*
X0063356Y0486882D02*
X0059032Y0486882D01*
X0059111Y0487380D02*
X0063315Y0487380D01*
X0063152Y0487879D02*
X0059317Y0487879D01*
X0059700Y0488377D02*
X0062787Y0488377D01*
X0061977Y0488876D02*
X0060568Y0488876D01*
X0060769Y0492563D02*
X0060362Y0492686D01*
X0059988Y0492887D01*
X0059660Y0493156D01*
X0059391Y0493484D01*
X0059190Y0493858D01*
X0059067Y0494265D01*
X0059026Y0494687D01*
X0059067Y0495109D01*
X0059190Y0495516D01*
X0059391Y0495890D01*
X0059660Y0496218D01*
X0059988Y0496487D01*
X0060362Y0496688D01*
X0060769Y0496811D01*
X0061191Y0496852D01*
X0061388Y0496852D01*
X0061826Y0496803D01*
X0062242Y0496657D01*
X0062615Y0496423D01*
X0062927Y0496111D01*
X0063161Y0495738D01*
X0063307Y0495322D01*
X0063356Y0494884D01*
X0063356Y0494687D01*
X0063315Y0494265D01*
X0063191Y0493858D01*
X0062991Y0493484D01*
X0062722Y0493156D01*
X0062394Y0492887D01*
X0062020Y0492686D01*
X0061613Y0492563D01*
X0061191Y0492522D01*
X0060769Y0492563D01*
X0060030Y0492864D02*
X0062352Y0492864D01*
X0062892Y0493363D02*
X0059490Y0493363D01*
X0059190Y0493861D02*
X0063192Y0493861D01*
X0063324Y0494360D02*
X0059058Y0494360D01*
X0059042Y0494858D02*
X0063356Y0494858D01*
X0063295Y0495357D02*
X0059142Y0495357D01*
X0059372Y0495855D02*
X0063088Y0495855D01*
X0062684Y0496354D02*
X0059825Y0496354D01*
X0061189Y0496852D02*
X0061390Y0496852D01*
X0061191Y0500396D02*
X0060769Y0500437D01*
X0060362Y0500560D01*
X0059988Y0500761D01*
X0059660Y0501030D01*
X0059391Y0501358D01*
X0059190Y0501732D01*
X0059067Y0502139D01*
X0059026Y0502561D01*
X0059067Y0502983D01*
X0059190Y0503390D01*
X0059391Y0503764D01*
X0059660Y0504092D01*
X0059988Y0504361D01*
X0060362Y0504562D01*
X0060769Y0504685D01*
X0061191Y0504726D01*
X0061388Y0504726D01*
X0061826Y0504677D01*
X0062242Y0504531D01*
X0062615Y0504297D01*
X0062927Y0503985D01*
X0063161Y0503612D01*
X0063307Y0503196D01*
X0063356Y0502758D01*
X0063356Y0502561D01*
X0063315Y0502139D01*
X0063191Y0501732D01*
X0062991Y0501358D01*
X0062722Y0501030D01*
X0062394Y0500761D01*
X0062020Y0500560D01*
X0061613Y0500437D01*
X0061191Y0500396D01*
X0059891Y0500840D02*
X0062491Y0500840D01*
X0062976Y0501339D02*
X0059406Y0501339D01*
X0059159Y0501837D02*
X0063223Y0501837D01*
X0063334Y0502336D02*
X0059048Y0502336D01*
X0059052Y0502834D02*
X0063348Y0502834D01*
X0063259Y0503333D02*
X0059173Y0503333D01*
X0059446Y0503831D02*
X0063024Y0503831D01*
X0062563Y0504330D02*
X0059949Y0504330D01*
X0045000Y0462250D02*
X0045000Y0461250D01*
X0039500Y0461250D01*
X0039500Y0462250D01*
X0045000Y0462250D01*
X0045000Y0461956D02*
X0039500Y0461956D01*
X0039500Y0461458D02*
X0045000Y0461458D01*
X0045000Y0563250D02*
X0039500Y0563250D01*
X0039500Y0564250D01*
X0045000Y0564250D01*
X0045000Y0563250D01*
X0045000Y0563653D02*
X0039500Y0563653D01*
X0039500Y0564151D02*
X0045000Y0564151D01*
X0059391Y0571736D02*
X0059190Y0572110D01*
X0059067Y0572517D01*
X0059026Y0572939D01*
X0059067Y0573361D01*
X0059190Y0573768D01*
X0059391Y0574142D01*
X0059660Y0574470D01*
X0059988Y0574739D01*
X0060362Y0574940D01*
X0060769Y0575063D01*
X0061191Y0575104D01*
X0061388Y0575104D01*
X0061826Y0575055D01*
X0062242Y0574909D01*
X0062615Y0574675D01*
X0062927Y0574363D01*
X0063161Y0573990D01*
X0063307Y0573574D01*
X0063356Y0573136D01*
X0063356Y0572939D01*
X0063315Y0572517D01*
X0063191Y0572110D01*
X0062991Y0571736D01*
X0062722Y0571408D01*
X0062394Y0571139D01*
X0062020Y0570938D01*
X0061613Y0570815D01*
X0061191Y0570774D01*
X0060769Y0570815D01*
X0060362Y0570938D01*
X0059988Y0571139D01*
X0059660Y0571408D01*
X0059391Y0571736D01*
X0059478Y0571629D02*
X0062903Y0571629D01*
X0063197Y0572127D02*
X0059185Y0572127D01*
X0059056Y0572626D02*
X0063325Y0572626D01*
X0063356Y0573124D02*
X0059044Y0573124D01*
X0059147Y0573623D02*
X0063290Y0573623D01*
X0063079Y0574121D02*
X0059380Y0574121D01*
X0059842Y0574620D02*
X0062670Y0574620D01*
X0062379Y0571130D02*
X0060003Y0571130D01*
X0060769Y0578815D02*
X0060362Y0578938D01*
X0059988Y0579139D01*
X0059660Y0579408D01*
X0059391Y0579736D01*
X0059190Y0580110D01*
X0059067Y0580517D01*
X0059026Y0580939D01*
X0059067Y0581361D01*
X0059190Y0581768D01*
X0059391Y0582142D01*
X0059660Y0582470D01*
X0059988Y0582739D01*
X0060362Y0582940D01*
X0060769Y0583063D01*
X0061191Y0583104D01*
X0061388Y0583104D01*
X0061826Y0583055D01*
X0062242Y0582909D01*
X0062615Y0582675D01*
X0062927Y0582363D01*
X0063161Y0581990D01*
X0063307Y0581574D01*
X0063356Y0581136D01*
X0063356Y0580939D01*
X0063315Y0580517D01*
X0063191Y0580110D01*
X0062991Y0579736D01*
X0062722Y0579408D01*
X0062394Y0579139D01*
X0062020Y0578938D01*
X0061613Y0578815D01*
X0061191Y0578774D01*
X0060769Y0578815D01*
X0060048Y0579106D02*
X0062334Y0579106D01*
X0062884Y0579605D02*
X0059498Y0579605D01*
X0059194Y0580104D02*
X0063188Y0580104D01*
X0063323Y0580602D02*
X0059059Y0580602D01*
X0059041Y0581101D02*
X0063356Y0581101D01*
X0063298Y0581599D02*
X0059139Y0581599D01*
X0059367Y0582098D02*
X0063094Y0582098D01*
X0062694Y0582596D02*
X0059813Y0582596D01*
X0061092Y0583095D02*
X0061474Y0583095D01*
X0061191Y0586648D02*
X0060769Y0586689D01*
X0060362Y0586812D01*
X0059988Y0587013D01*
X0059660Y0587282D01*
X0059391Y0587610D01*
X0059190Y0587984D01*
X0059067Y0588391D01*
X0059026Y0588813D01*
X0059067Y0589235D01*
X0059190Y0589642D01*
X0059391Y0590016D01*
X0059660Y0590344D01*
X0059988Y0590613D01*
X0060362Y0590814D01*
X0060769Y0590937D01*
X0061191Y0590978D01*
X0061388Y0590978D01*
X0061826Y0590929D01*
X0062242Y0590783D01*
X0062615Y0590549D01*
X0062927Y0590237D01*
X0063161Y0589864D01*
X0063307Y0589448D01*
X0063356Y0589010D01*
X0063356Y0588813D01*
X0063315Y0588391D01*
X0063191Y0587984D01*
X0062991Y0587610D01*
X0062722Y0587282D01*
X0062394Y0587013D01*
X0062020Y0586812D01*
X0061613Y0586689D01*
X0061191Y0586648D01*
X0059903Y0587083D02*
X0062479Y0587083D01*
X0062968Y0587581D02*
X0059414Y0587581D01*
X0059162Y0588080D02*
X0063220Y0588080D01*
X0063333Y0588578D02*
X0059049Y0588578D01*
X0059052Y0589077D02*
X0063349Y0589077D01*
X0063262Y0589575D02*
X0059170Y0589575D01*
X0059438Y0590074D02*
X0063030Y0590074D01*
X0062578Y0590572D02*
X0059938Y0590572D01*
X0060769Y0594563D02*
X0060362Y0594686D01*
X0059988Y0594887D01*
X0059660Y0595156D01*
X0059391Y0595484D01*
X0059190Y0595858D01*
X0059067Y0596265D01*
X0059026Y0596687D01*
X0059067Y0597109D01*
X0059190Y0597516D01*
X0059391Y0597890D01*
X0059660Y0598218D01*
X0059988Y0598487D01*
X0060362Y0598688D01*
X0060769Y0598811D01*
X0061191Y0598852D01*
X0061388Y0598852D01*
X0061826Y0598803D01*
X0062242Y0598657D01*
X0062615Y0598423D01*
X0062927Y0598111D01*
X0063161Y0597738D01*
X0063307Y0597322D01*
X0063356Y0596884D01*
X0063356Y0596687D01*
X0063315Y0596265D01*
X0063191Y0595858D01*
X0062991Y0595484D01*
X0062722Y0595156D01*
X0062394Y0594887D01*
X0062020Y0594686D01*
X0061613Y0594563D01*
X0061191Y0594522D01*
X0060769Y0594563D01*
X0060798Y0594560D02*
X0061584Y0594560D01*
X0062604Y0595059D02*
X0059778Y0595059D01*
X0059351Y0595557D02*
X0063031Y0595557D01*
X0063251Y0596056D02*
X0059131Y0596056D01*
X0059039Y0596554D02*
X0063343Y0596554D01*
X0063337Y0597053D02*
X0059062Y0597053D01*
X0059210Y0597551D02*
X0063227Y0597551D01*
X0062965Y0598050D02*
X0059522Y0598050D01*
X0060102Y0598548D02*
X0062415Y0598548D01*
X0061613Y0602437D02*
X0061191Y0602396D01*
X0060769Y0602437D01*
X0060362Y0602560D01*
X0059988Y0602761D01*
X0059660Y0603030D01*
X0059391Y0603358D01*
X0059190Y0603732D01*
X0059067Y0604139D01*
X0059026Y0604561D01*
X0059067Y0604983D01*
X0059190Y0605390D01*
X0059391Y0605764D01*
X0059660Y0606092D01*
X0059988Y0606361D01*
X0060362Y0606562D01*
X0060769Y0606685D01*
X0061191Y0606726D01*
X0061388Y0606726D01*
X0061826Y0606677D01*
X0062242Y0606531D01*
X0062615Y0606297D01*
X0062927Y0605985D01*
X0063161Y0605612D01*
X0063307Y0605196D01*
X0063356Y0604758D01*
X0063356Y0604561D01*
X0063315Y0604139D01*
X0063191Y0603732D01*
X0062991Y0603358D01*
X0062722Y0603030D01*
X0062394Y0602761D01*
X0062020Y0602560D01*
X0061613Y0602437D01*
X0061941Y0602537D02*
X0060441Y0602537D01*
X0059656Y0603035D02*
X0062726Y0603035D01*
X0063085Y0603534D02*
X0059297Y0603534D01*
X0059100Y0604032D02*
X0063282Y0604032D01*
X0063353Y0604531D02*
X0059029Y0604531D01*
X0059081Y0605029D02*
X0063326Y0605029D01*
X0063191Y0605528D02*
X0059264Y0605528D01*
X0059606Y0606026D02*
X0062886Y0606026D01*
X0062253Y0606525D02*
X0060293Y0606525D01*
X0084873Y0609917D02*
X0084813Y0610600D01*
X0084873Y0611284D01*
X0085050Y0611947D01*
X0085340Y0612569D01*
X0085734Y0613131D01*
X0086219Y0613616D01*
X0086781Y0614010D01*
X0087403Y0614300D01*
X0088066Y0614478D01*
X0088750Y0614537D01*
X0089434Y0614478D01*
X0090097Y0614300D01*
X0090719Y0614010D01*
X0091281Y0613616D01*
X0091766Y0613131D01*
X0092160Y0612569D01*
X0092450Y0611947D01*
X0092627Y0611284D01*
X0092687Y0610600D01*
X0092627Y0609917D01*
X0092450Y0609254D01*
X0092160Y0608632D01*
X0091766Y0608070D01*
X0091281Y0607584D01*
X0090719Y0607191D01*
X0090097Y0606901D01*
X0089434Y0606723D01*
X0088750Y0606663D01*
X0088066Y0606723D01*
X0087403Y0606901D01*
X0086781Y0607191D01*
X0086219Y0607584D01*
X0085734Y0608070D01*
X0085340Y0608632D01*
X0085050Y0609254D01*
X0084873Y0609917D01*
X0084864Y0610014D02*
X0092636Y0610014D01*
X0092679Y0610513D02*
X0084821Y0610513D01*
X0084849Y0611011D02*
X0092651Y0611011D01*
X0092567Y0611510D02*
X0084933Y0611510D01*
X0085079Y0612008D02*
X0092421Y0612008D01*
X0092189Y0612507D02*
X0085311Y0612507D01*
X0085646Y0613005D02*
X0091854Y0613005D01*
X0091393Y0613504D02*
X0086107Y0613504D01*
X0086771Y0614002D02*
X0090729Y0614002D01*
X0089168Y0614501D02*
X0088332Y0614501D01*
X0084980Y0609516D02*
X0092520Y0609516D01*
X0092339Y0609017D02*
X0085161Y0609017D01*
X0085420Y0608519D02*
X0092080Y0608519D01*
X0091716Y0608020D02*
X0085784Y0608020D01*
X0086309Y0607522D02*
X0091191Y0607522D01*
X0090359Y0607023D02*
X0087141Y0607023D01*
X0088750Y0570837D02*
X0089434Y0570777D01*
X0090097Y0570599D01*
X0090719Y0570309D01*
X0091281Y0569916D01*
X0091766Y0569430D01*
X0092160Y0568868D01*
X0092450Y0568246D01*
X0092627Y0567583D01*
X0092687Y0566900D01*
X0092627Y0566216D01*
X0092450Y0565553D01*
X0092160Y0564931D01*
X0091766Y0564369D01*
X0091281Y0563884D01*
X0090719Y0563490D01*
X0090097Y0563200D01*
X0089434Y0563022D01*
X0088750Y0562963D01*
X0088066Y0563022D01*
X0087403Y0563200D01*
X0086781Y0563490D01*
X0086219Y0563884D01*
X0085734Y0564369D01*
X0085340Y0564931D01*
X0085050Y0565553D01*
X0084873Y0566216D01*
X0084813Y0566900D01*
X0084873Y0567583D01*
X0085050Y0568246D01*
X0085340Y0568868D01*
X0085734Y0569430D01*
X0086219Y0569916D01*
X0086781Y0570309D01*
X0087403Y0570599D01*
X0088066Y0570777D01*
X0088750Y0570837D01*
X0087525Y0570632D02*
X0089975Y0570632D01*
X0090970Y0570133D02*
X0086530Y0570133D01*
X0085939Y0569635D02*
X0091561Y0569635D01*
X0091972Y0569136D02*
X0085528Y0569136D01*
X0085233Y0568638D02*
X0092267Y0568638D01*
X0092478Y0568139D02*
X0085022Y0568139D01*
X0084888Y0567641D02*
X0092612Y0567641D01*
X0092666Y0567142D02*
X0084834Y0567142D01*
X0084835Y0566644D02*
X0092665Y0566644D01*
X0092608Y0566145D02*
X0084892Y0566145D01*
X0085025Y0565647D02*
X0092475Y0565647D01*
X0092261Y0565148D02*
X0085239Y0565148D01*
X0085538Y0564650D02*
X0091962Y0564650D01*
X0091548Y0564151D02*
X0085952Y0564151D01*
X0086549Y0563653D02*
X0090951Y0563653D01*
X0089925Y0563154D02*
X0087575Y0563154D01*
X0116277Y0577882D02*
X0116154Y0578288D01*
X0116112Y0578711D01*
X0116154Y0579133D01*
X0116277Y0579539D01*
X0116477Y0579914D01*
X0116746Y0580242D01*
X0117075Y0580511D01*
X0117449Y0580711D01*
X0117855Y0580834D01*
X0118278Y0580876D01*
X0118474Y0580876D01*
X0118912Y0580827D01*
X0119329Y0580681D01*
X0119702Y0580447D01*
X0120013Y0580135D01*
X0120248Y0579762D01*
X0120394Y0579346D01*
X0120443Y0578907D01*
X0120443Y0578711D01*
X0120401Y0578288D01*
X0120278Y0577882D01*
X0120078Y0577508D01*
X0119809Y0577179D01*
X0119481Y0576910D01*
X0119106Y0576710D01*
X0118700Y0576587D01*
X0118278Y0576545D01*
X0117855Y0576587D01*
X0117449Y0576710D01*
X0117075Y0576910D01*
X0116746Y0577179D01*
X0116477Y0577508D01*
X0116277Y0577882D01*
X0116208Y0578109D02*
X0120347Y0578109D01*
X0120433Y0578608D02*
X0116122Y0578608D01*
X0116151Y0579106D02*
X0120420Y0579106D01*
X0120303Y0579605D02*
X0116312Y0579605D01*
X0116633Y0580104D02*
X0120033Y0580104D01*
X0119454Y0580602D02*
X0117245Y0580602D01*
X0116422Y0577611D02*
X0120133Y0577611D01*
X0119727Y0577112D02*
X0116828Y0577112D01*
X0117766Y0576614D02*
X0118789Y0576614D01*
X0118278Y0586585D02*
X0117855Y0586626D01*
X0117449Y0586749D01*
X0117075Y0586950D01*
X0116746Y0587219D01*
X0116477Y0587547D01*
X0116277Y0587921D01*
X0116154Y0588328D01*
X0116112Y0588750D01*
X0116154Y0589172D01*
X0116277Y0589579D01*
X0116477Y0589953D01*
X0116746Y0590281D01*
X0117075Y0590550D01*
X0117449Y0590751D01*
X0117855Y0590874D01*
X0118278Y0590915D01*
X0118474Y0590915D01*
X0118912Y0590866D01*
X0119329Y0590720D01*
X0119702Y0590486D01*
X0120013Y0590174D01*
X0120248Y0589801D01*
X0120394Y0589385D01*
X0120443Y0588947D01*
X0120443Y0588750D01*
X0120401Y0588328D01*
X0120278Y0587921D01*
X0120078Y0587547D01*
X0119809Y0587219D01*
X0119481Y0586950D01*
X0119106Y0586749D01*
X0118700Y0586626D01*
X0118278Y0586585D01*
X0116912Y0587083D02*
X0119643Y0587083D01*
X0120096Y0587581D02*
X0116459Y0587581D01*
X0116229Y0588080D02*
X0120326Y0588080D01*
X0120426Y0588578D02*
X0116129Y0588578D01*
X0116144Y0589077D02*
X0120428Y0589077D01*
X0120327Y0589575D02*
X0116276Y0589575D01*
X0116576Y0590074D02*
X0120077Y0590074D01*
X0119564Y0590572D02*
X0117115Y0590572D01*
X0117855Y0596469D02*
X0117449Y0596592D01*
X0117075Y0596792D01*
X0116746Y0597061D01*
X0116477Y0597390D01*
X0116277Y0597764D01*
X0116154Y0598170D01*
X0116112Y0598593D01*
X0116154Y0599015D01*
X0116277Y0599421D01*
X0116477Y0599796D01*
X0116746Y0600124D01*
X0117075Y0600393D01*
X0117449Y0600593D01*
X0117855Y0600716D01*
X0118278Y0600758D01*
X0118474Y0600758D01*
X0118912Y0600709D01*
X0119329Y0600563D01*
X0119702Y0600328D01*
X0120013Y0600017D01*
X0120248Y0599643D01*
X0120394Y0599227D01*
X0120443Y0598789D01*
X0120443Y0598593D01*
X0120401Y0598170D01*
X0120278Y0597764D01*
X0120078Y0597390D01*
X0119809Y0597061D01*
X0119481Y0596792D01*
X0119106Y0596592D01*
X0118700Y0596469D01*
X0118278Y0596427D01*
X0117855Y0596469D01*
X0117573Y0596554D02*
X0118982Y0596554D01*
X0119798Y0597053D02*
X0116757Y0597053D01*
X0116391Y0597551D02*
X0120165Y0597551D01*
X0120365Y0598050D02*
X0116190Y0598050D01*
X0116117Y0598548D02*
X0120439Y0598548D01*
X0120414Y0599047D02*
X0116164Y0599047D01*
X0116343Y0599545D02*
X0120282Y0599545D01*
X0119986Y0600044D02*
X0116681Y0600044D01*
X0117354Y0600542D02*
X0119361Y0600542D01*
X0138000Y0564250D02*
X0138000Y0563250D01*
X0139500Y0563250D01*
X0139500Y0564250D01*
X0138000Y0564250D01*
X0138000Y0564151D02*
X0139500Y0564151D01*
X0139500Y0563653D02*
X0138000Y0563653D01*
X0161500Y0563653D02*
X0167000Y0563653D01*
X0167000Y0563250D02*
X0167000Y0564250D01*
X0161500Y0564250D01*
X0161500Y0563250D01*
X0167000Y0563250D01*
X0167000Y0564151D02*
X0161500Y0564151D01*
X0181190Y0572110D02*
X0181067Y0572517D01*
X0181026Y0572939D01*
X0181067Y0573361D01*
X0181190Y0573768D01*
X0181391Y0574142D01*
X0181660Y0574470D01*
X0181988Y0574739D01*
X0182362Y0574940D01*
X0182769Y0575063D01*
X0183191Y0575104D01*
X0183388Y0575104D01*
X0183826Y0575055D01*
X0184242Y0574909D01*
X0184615Y0574675D01*
X0184927Y0574363D01*
X0185161Y0573990D01*
X0185307Y0573574D01*
X0185356Y0573136D01*
X0185356Y0572939D01*
X0185315Y0572517D01*
X0185191Y0572110D01*
X0184991Y0571736D01*
X0184722Y0571408D01*
X0184394Y0571139D01*
X0184020Y0570938D01*
X0183613Y0570815D01*
X0183191Y0570774D01*
X0182769Y0570815D01*
X0182362Y0570938D01*
X0181988Y0571139D01*
X0181660Y0571408D01*
X0181391Y0571736D01*
X0181190Y0572110D01*
X0181185Y0572127D02*
X0185197Y0572127D01*
X0185325Y0572626D02*
X0181056Y0572626D01*
X0181044Y0573124D02*
X0185356Y0573124D01*
X0185290Y0573623D02*
X0181147Y0573623D01*
X0181380Y0574121D02*
X0185079Y0574121D01*
X0184670Y0574620D02*
X0181842Y0574620D01*
X0181478Y0571629D02*
X0184903Y0571629D01*
X0184379Y0571130D02*
X0182003Y0571130D01*
X0182769Y0578815D02*
X0182362Y0578938D01*
X0181988Y0579139D01*
X0181660Y0579408D01*
X0181391Y0579736D01*
X0181190Y0580110D01*
X0181067Y0580517D01*
X0181026Y0580939D01*
X0181067Y0581361D01*
X0181190Y0581768D01*
X0181391Y0582142D01*
X0181660Y0582470D01*
X0181988Y0582739D01*
X0182362Y0582940D01*
X0182769Y0583063D01*
X0183191Y0583104D01*
X0183388Y0583104D01*
X0183826Y0583055D01*
X0184242Y0582909D01*
X0184615Y0582675D01*
X0184927Y0582363D01*
X0185161Y0581990D01*
X0185307Y0581574D01*
X0185356Y0581136D01*
X0185356Y0580939D01*
X0185315Y0580517D01*
X0185191Y0580110D01*
X0184991Y0579736D01*
X0184722Y0579408D01*
X0184394Y0579139D01*
X0184020Y0578938D01*
X0183613Y0578815D01*
X0183191Y0578774D01*
X0182769Y0578815D01*
X0182048Y0579106D02*
X0184334Y0579106D01*
X0184884Y0579605D02*
X0181498Y0579605D01*
X0181194Y0580104D02*
X0185188Y0580104D01*
X0185323Y0580602D02*
X0181059Y0580602D01*
X0181041Y0581101D02*
X0185356Y0581101D01*
X0185298Y0581599D02*
X0181139Y0581599D01*
X0181367Y0582098D02*
X0185094Y0582098D01*
X0184694Y0582596D02*
X0181813Y0582596D01*
X0183092Y0583095D02*
X0183474Y0583095D01*
X0183191Y0586648D02*
X0182769Y0586689D01*
X0182362Y0586812D01*
X0181988Y0587013D01*
X0181660Y0587282D01*
X0181391Y0587610D01*
X0181190Y0587984D01*
X0181067Y0588391D01*
X0181026Y0588813D01*
X0181067Y0589235D01*
X0181190Y0589642D01*
X0181391Y0590016D01*
X0181660Y0590344D01*
X0181988Y0590613D01*
X0182362Y0590814D01*
X0182769Y0590937D01*
X0183191Y0590978D01*
X0183388Y0590978D01*
X0183826Y0590929D01*
X0184242Y0590783D01*
X0184615Y0590549D01*
X0184927Y0590237D01*
X0185161Y0589864D01*
X0185307Y0589448D01*
X0185356Y0589010D01*
X0185356Y0588813D01*
X0185315Y0588391D01*
X0185191Y0587984D01*
X0184991Y0587610D01*
X0184722Y0587282D01*
X0184394Y0587013D01*
X0184020Y0586812D01*
X0183613Y0586689D01*
X0183191Y0586648D01*
X0181903Y0587083D02*
X0184479Y0587083D01*
X0184968Y0587581D02*
X0181414Y0587581D01*
X0181162Y0588080D02*
X0185220Y0588080D01*
X0185333Y0588578D02*
X0181049Y0588578D01*
X0181052Y0589077D02*
X0185349Y0589077D01*
X0185262Y0589575D02*
X0181170Y0589575D01*
X0181438Y0590074D02*
X0185030Y0590074D01*
X0184578Y0590572D02*
X0181938Y0590572D01*
X0182769Y0594563D02*
X0182362Y0594686D01*
X0181988Y0594887D01*
X0181660Y0595156D01*
X0181391Y0595484D01*
X0181190Y0595858D01*
X0181067Y0596265D01*
X0181026Y0596687D01*
X0181067Y0597109D01*
X0181190Y0597516D01*
X0181391Y0597890D01*
X0181660Y0598218D01*
X0181988Y0598487D01*
X0182362Y0598688D01*
X0182769Y0598811D01*
X0183191Y0598852D01*
X0183388Y0598852D01*
X0183826Y0598803D01*
X0184242Y0598657D01*
X0184615Y0598423D01*
X0184927Y0598111D01*
X0185161Y0597738D01*
X0185307Y0597322D01*
X0185356Y0596884D01*
X0185356Y0596687D01*
X0185315Y0596265D01*
X0185191Y0595858D01*
X0184991Y0595484D01*
X0184722Y0595156D01*
X0184394Y0594887D01*
X0184020Y0594686D01*
X0183613Y0594563D01*
X0183191Y0594522D01*
X0182769Y0594563D01*
X0182798Y0594560D02*
X0183584Y0594560D01*
X0184604Y0595059D02*
X0181778Y0595059D01*
X0181351Y0595557D02*
X0185031Y0595557D01*
X0185251Y0596056D02*
X0181131Y0596056D01*
X0181039Y0596554D02*
X0185343Y0596554D01*
X0185337Y0597053D02*
X0181062Y0597053D01*
X0181210Y0597551D02*
X0185227Y0597551D01*
X0184965Y0598050D02*
X0181522Y0598050D01*
X0182102Y0598548D02*
X0184415Y0598548D01*
X0183613Y0602437D02*
X0183191Y0602396D01*
X0182769Y0602437D01*
X0182362Y0602560D01*
X0181988Y0602761D01*
X0181660Y0603030D01*
X0181391Y0603358D01*
X0181190Y0603732D01*
X0181067Y0604139D01*
X0181026Y0604561D01*
X0181067Y0604983D01*
X0181190Y0605390D01*
X0181391Y0605764D01*
X0181660Y0606092D01*
X0181988Y0606361D01*
X0182362Y0606562D01*
X0182769Y0606685D01*
X0183191Y0606726D01*
X0183388Y0606726D01*
X0183826Y0606677D01*
X0184242Y0606531D01*
X0184615Y0606297D01*
X0184927Y0605985D01*
X0185161Y0605612D01*
X0185307Y0605196D01*
X0185356Y0604758D01*
X0185356Y0604561D01*
X0185315Y0604139D01*
X0185191Y0603732D01*
X0184991Y0603358D01*
X0184722Y0603030D01*
X0184394Y0602761D01*
X0184020Y0602560D01*
X0183613Y0602437D01*
X0183941Y0602537D02*
X0182441Y0602537D01*
X0181656Y0603035D02*
X0184726Y0603035D01*
X0185085Y0603534D02*
X0181297Y0603534D01*
X0181100Y0604032D02*
X0185282Y0604032D01*
X0185353Y0604531D02*
X0181029Y0604531D01*
X0181081Y0605029D02*
X0185326Y0605029D01*
X0185191Y0605528D02*
X0181264Y0605528D01*
X0181606Y0606026D02*
X0184886Y0606026D01*
X0184253Y0606525D02*
X0182293Y0606525D01*
X0206873Y0609917D02*
X0206813Y0610600D01*
X0206873Y0611284D01*
X0207050Y0611947D01*
X0207340Y0612569D01*
X0207734Y0613131D01*
X0208219Y0613616D01*
X0208781Y0614010D01*
X0209403Y0614300D01*
X0210066Y0614478D01*
X0210750Y0614537D01*
X0211434Y0614478D01*
X0212097Y0614300D01*
X0212719Y0614010D01*
X0213281Y0613616D01*
X0213766Y0613131D01*
X0214160Y0612569D01*
X0214450Y0611947D01*
X0214627Y0611284D01*
X0214687Y0610600D01*
X0214627Y0609917D01*
X0214450Y0609254D01*
X0214160Y0608632D01*
X0213766Y0608070D01*
X0213281Y0607584D01*
X0212719Y0607191D01*
X0212097Y0606901D01*
X0211434Y0606723D01*
X0210750Y0606663D01*
X0210066Y0606723D01*
X0209403Y0606901D01*
X0208781Y0607191D01*
X0208219Y0607584D01*
X0207734Y0608070D01*
X0207340Y0608632D01*
X0207050Y0609254D01*
X0206873Y0609917D01*
X0206864Y0610014D02*
X0214636Y0610014D01*
X0214679Y0610513D02*
X0206821Y0610513D01*
X0206849Y0611011D02*
X0214651Y0611011D01*
X0214567Y0611510D02*
X0206933Y0611510D01*
X0207079Y0612008D02*
X0214421Y0612008D01*
X0214189Y0612507D02*
X0207311Y0612507D01*
X0207646Y0613005D02*
X0213854Y0613005D01*
X0213393Y0613504D02*
X0208107Y0613504D01*
X0208771Y0614002D02*
X0212729Y0614002D01*
X0211168Y0614501D02*
X0210332Y0614501D01*
X0206980Y0609516D02*
X0214520Y0609516D01*
X0214339Y0609017D02*
X0207161Y0609017D01*
X0207420Y0608519D02*
X0214080Y0608519D01*
X0213716Y0608020D02*
X0207784Y0608020D01*
X0208309Y0607522D02*
X0213191Y0607522D01*
X0212359Y0607023D02*
X0209141Y0607023D01*
X0210750Y0570837D02*
X0211434Y0570777D01*
X0212097Y0570599D01*
X0212719Y0570309D01*
X0213281Y0569916D01*
X0213766Y0569430D01*
X0214160Y0568868D01*
X0214450Y0568246D01*
X0214627Y0567583D01*
X0214687Y0566900D01*
X0214627Y0566216D01*
X0214450Y0565553D01*
X0214160Y0564931D01*
X0213766Y0564369D01*
X0213281Y0563884D01*
X0212719Y0563490D01*
X0212097Y0563200D01*
X0211434Y0563022D01*
X0210750Y0562963D01*
X0210066Y0563022D01*
X0209403Y0563200D01*
X0208781Y0563490D01*
X0208219Y0563884D01*
X0207734Y0564369D01*
X0207340Y0564931D01*
X0207050Y0565553D01*
X0206873Y0566216D01*
X0206813Y0566900D01*
X0206873Y0567583D01*
X0207050Y0568246D01*
X0207340Y0568868D01*
X0207734Y0569430D01*
X0208219Y0569916D01*
X0208781Y0570309D01*
X0209403Y0570599D01*
X0210066Y0570777D01*
X0210750Y0570837D01*
X0209525Y0570632D02*
X0211975Y0570632D01*
X0212970Y0570133D02*
X0208530Y0570133D01*
X0207939Y0569635D02*
X0213561Y0569635D01*
X0213972Y0569136D02*
X0207528Y0569136D01*
X0207233Y0568638D02*
X0214267Y0568638D01*
X0214478Y0568139D02*
X0207022Y0568139D01*
X0206888Y0567641D02*
X0214612Y0567641D01*
X0214666Y0567142D02*
X0206834Y0567142D01*
X0206835Y0566644D02*
X0214665Y0566644D01*
X0214608Y0566145D02*
X0206892Y0566145D01*
X0207025Y0565647D02*
X0214475Y0565647D01*
X0214261Y0565148D02*
X0207239Y0565148D01*
X0207538Y0564650D02*
X0213962Y0564650D01*
X0213548Y0564151D02*
X0207952Y0564151D01*
X0208549Y0563653D02*
X0212951Y0563653D01*
X0211925Y0563154D02*
X0209575Y0563154D01*
X0238277Y0577882D02*
X0238154Y0578288D01*
X0238112Y0578711D01*
X0238154Y0579133D01*
X0238277Y0579539D01*
X0238477Y0579914D01*
X0238746Y0580242D01*
X0239075Y0580511D01*
X0239449Y0580711D01*
X0239855Y0580834D01*
X0240278Y0580876D01*
X0240474Y0580876D01*
X0240912Y0580827D01*
X0241329Y0580681D01*
X0241702Y0580447D01*
X0242013Y0580135D01*
X0242248Y0579762D01*
X0242394Y0579346D01*
X0242443Y0578907D01*
X0242443Y0578711D01*
X0242401Y0578288D01*
X0242278Y0577882D01*
X0242078Y0577508D01*
X0241809Y0577179D01*
X0241481Y0576910D01*
X0241106Y0576710D01*
X0240700Y0576587D01*
X0240278Y0576545D01*
X0239855Y0576587D01*
X0239449Y0576710D01*
X0239075Y0576910D01*
X0238746Y0577179D01*
X0238477Y0577508D01*
X0238277Y0577882D01*
X0238208Y0578109D02*
X0242347Y0578109D01*
X0242433Y0578608D02*
X0238122Y0578608D01*
X0238151Y0579106D02*
X0242420Y0579106D01*
X0242303Y0579605D02*
X0238312Y0579605D01*
X0238633Y0580104D02*
X0242033Y0580104D01*
X0241454Y0580602D02*
X0239245Y0580602D01*
X0238422Y0577611D02*
X0242133Y0577611D01*
X0241727Y0577112D02*
X0238828Y0577112D01*
X0239766Y0576614D02*
X0240789Y0576614D01*
X0240278Y0586585D02*
X0239855Y0586626D01*
X0239449Y0586749D01*
X0239075Y0586950D01*
X0238746Y0587219D01*
X0238477Y0587547D01*
X0238277Y0587921D01*
X0238154Y0588328D01*
X0238112Y0588750D01*
X0238154Y0589172D01*
X0238277Y0589579D01*
X0238477Y0589953D01*
X0238746Y0590281D01*
X0239075Y0590550D01*
X0239449Y0590751D01*
X0239855Y0590874D01*
X0240278Y0590915D01*
X0240474Y0590915D01*
X0240912Y0590866D01*
X0241329Y0590720D01*
X0241702Y0590486D01*
X0242013Y0590174D01*
X0242248Y0589801D01*
X0242394Y0589385D01*
X0242443Y0588947D01*
X0242443Y0588750D01*
X0242401Y0588328D01*
X0242278Y0587921D01*
X0242078Y0587547D01*
X0241809Y0587219D01*
X0241481Y0586950D01*
X0241106Y0586749D01*
X0240700Y0586626D01*
X0240278Y0586585D01*
X0238912Y0587083D02*
X0241643Y0587083D01*
X0242096Y0587581D02*
X0238459Y0587581D01*
X0238229Y0588080D02*
X0242326Y0588080D01*
X0242426Y0588578D02*
X0238129Y0588578D01*
X0238144Y0589077D02*
X0242428Y0589077D01*
X0242327Y0589575D02*
X0238276Y0589575D01*
X0238576Y0590074D02*
X0242077Y0590074D01*
X0241564Y0590572D02*
X0239115Y0590572D01*
X0239855Y0596469D02*
X0239449Y0596592D01*
X0239075Y0596792D01*
X0238746Y0597061D01*
X0238477Y0597390D01*
X0238277Y0597764D01*
X0238154Y0598170D01*
X0238112Y0598593D01*
X0238154Y0599015D01*
X0238277Y0599421D01*
X0238477Y0599796D01*
X0238746Y0600124D01*
X0239075Y0600393D01*
X0239449Y0600593D01*
X0239855Y0600716D01*
X0240278Y0600758D01*
X0240474Y0600758D01*
X0240912Y0600709D01*
X0241329Y0600563D01*
X0241702Y0600328D01*
X0242013Y0600017D01*
X0242248Y0599643D01*
X0242394Y0599227D01*
X0242443Y0598789D01*
X0242443Y0598593D01*
X0242401Y0598170D01*
X0242278Y0597764D01*
X0242078Y0597390D01*
X0241809Y0597061D01*
X0241481Y0596792D01*
X0241106Y0596592D01*
X0240700Y0596469D01*
X0240278Y0596427D01*
X0239855Y0596469D01*
X0239573Y0596554D02*
X0240982Y0596554D01*
X0241798Y0597053D02*
X0238757Y0597053D01*
X0238391Y0597551D02*
X0242165Y0597551D01*
X0242365Y0598050D02*
X0238190Y0598050D01*
X0238117Y0598548D02*
X0242439Y0598548D01*
X0242414Y0599047D02*
X0238164Y0599047D01*
X0238343Y0599545D02*
X0242282Y0599545D01*
X0241986Y0600044D02*
X0238681Y0600044D01*
X0239354Y0600542D02*
X0241361Y0600542D01*
X0260000Y0564250D02*
X0260000Y0563250D01*
X0261500Y0563250D01*
X0261500Y0564250D01*
X0260000Y0564250D01*
X0260000Y0564151D02*
X0261500Y0564151D01*
X0261500Y0563653D02*
X0260000Y0563653D01*
X0260000Y0665250D02*
X0260000Y0666250D01*
X0261500Y0666250D01*
X0261500Y0665250D01*
X0260000Y0665250D01*
X0260000Y0665349D02*
X0261500Y0665349D01*
X0261500Y0665847D02*
X0260000Y0665847D01*
X0242078Y0679508D02*
X0241809Y0679179D01*
X0241481Y0678910D01*
X0241106Y0678710D01*
X0240700Y0678587D01*
X0240278Y0678545D01*
X0239855Y0678587D01*
X0239449Y0678710D01*
X0239075Y0678910D01*
X0238746Y0679179D01*
X0238477Y0679508D01*
X0238277Y0679882D01*
X0238154Y0680288D01*
X0238112Y0680711D01*
X0238154Y0681133D01*
X0238277Y0681539D01*
X0238477Y0681914D01*
X0238746Y0682242D01*
X0239075Y0682511D01*
X0239449Y0682711D01*
X0239855Y0682834D01*
X0240278Y0682876D01*
X0240474Y0682876D01*
X0240912Y0682827D01*
X0241329Y0682681D01*
X0241702Y0682447D01*
X0242013Y0682135D01*
X0242248Y0681762D01*
X0242394Y0681346D01*
X0242443Y0680907D01*
X0242443Y0680711D01*
X0242401Y0680288D01*
X0242278Y0679882D01*
X0242078Y0679508D01*
X0241914Y0679307D02*
X0238642Y0679307D01*
X0238318Y0679806D02*
X0242237Y0679806D01*
X0242403Y0680304D02*
X0238152Y0680304D01*
X0238121Y0680803D02*
X0242443Y0680803D01*
X0242399Y0681301D02*
X0238205Y0681301D01*
X0238416Y0681800D02*
X0242224Y0681800D01*
X0241850Y0682298D02*
X0238815Y0682298D01*
X0239731Y0682797D02*
X0240998Y0682797D01*
X0241291Y0678809D02*
X0239264Y0678809D01*
X0240278Y0688585D02*
X0239855Y0688626D01*
X0239449Y0688749D01*
X0239075Y0688950D01*
X0238746Y0689219D01*
X0238477Y0689547D01*
X0238277Y0689921D01*
X0238154Y0690328D01*
X0238112Y0690750D01*
X0238154Y0691172D01*
X0238277Y0691579D01*
X0238477Y0691953D01*
X0238746Y0692281D01*
X0239075Y0692550D01*
X0239449Y0692751D01*
X0239855Y0692874D01*
X0240278Y0692915D01*
X0240474Y0692915D01*
X0240912Y0692866D01*
X0241329Y0692720D01*
X0241702Y0692486D01*
X0242013Y0692174D01*
X0242248Y0691801D01*
X0242394Y0691385D01*
X0242443Y0690947D01*
X0242443Y0690750D01*
X0242401Y0690328D01*
X0242278Y0689921D01*
X0242078Y0689547D01*
X0241809Y0689219D01*
X0241481Y0688950D01*
X0241106Y0688749D01*
X0240700Y0688626D01*
X0240278Y0688585D01*
X0241161Y0688779D02*
X0239394Y0688779D01*
X0238698Y0689277D02*
X0241857Y0689277D01*
X0242200Y0689776D02*
X0238355Y0689776D01*
X0238170Y0690275D02*
X0242385Y0690275D01*
X0242443Y0690773D02*
X0238114Y0690773D01*
X0238184Y0691272D02*
X0242406Y0691272D01*
X0242259Y0691770D02*
X0238379Y0691770D01*
X0238736Y0692269D02*
X0241919Y0692269D01*
X0241195Y0692767D02*
X0239503Y0692767D01*
X0239855Y0698469D02*
X0239449Y0698592D01*
X0239075Y0698792D01*
X0238746Y0699061D01*
X0238477Y0699390D01*
X0238277Y0699764D01*
X0238154Y0700170D01*
X0238112Y0700593D01*
X0238154Y0701015D01*
X0238277Y0701421D01*
X0238477Y0701796D01*
X0238746Y0702124D01*
X0239075Y0702393D01*
X0239449Y0702593D01*
X0239855Y0702716D01*
X0240278Y0702758D01*
X0240474Y0702758D01*
X0240912Y0702709D01*
X0241329Y0702563D01*
X0241702Y0702328D01*
X0242013Y0702017D01*
X0242248Y0701643D01*
X0242394Y0701227D01*
X0242443Y0700789D01*
X0242443Y0700593D01*
X0242401Y0700170D01*
X0242278Y0699764D01*
X0242078Y0699390D01*
X0241809Y0699061D01*
X0241481Y0698792D01*
X0241106Y0698592D01*
X0240700Y0698469D01*
X0240278Y0698427D01*
X0239855Y0698469D01*
X0239155Y0698749D02*
X0241400Y0698749D01*
X0241962Y0699248D02*
X0238594Y0699248D01*
X0238286Y0699746D02*
X0242269Y0699746D01*
X0242409Y0700245D02*
X0238146Y0700245D01*
X0238127Y0700743D02*
X0242443Y0700743D01*
X0242389Y0701242D02*
X0238223Y0701242D01*
X0238448Y0701740D02*
X0242187Y0701740D01*
X0241791Y0702239D02*
X0238887Y0702239D01*
X0240069Y0702737D02*
X0240657Y0702737D01*
X0214450Y0711254D02*
X0214160Y0710632D01*
X0213766Y0710070D01*
X0213281Y0709584D01*
X0212719Y0709191D01*
X0212097Y0708901D01*
X0211434Y0708723D01*
X0210750Y0708663D01*
X0210066Y0708723D01*
X0209403Y0708901D01*
X0208781Y0709191D01*
X0208219Y0709584D01*
X0207734Y0710070D01*
X0207340Y0710632D01*
X0207050Y0711254D01*
X0206873Y0711917D01*
X0206813Y0712600D01*
X0206873Y0713284D01*
X0207050Y0713947D01*
X0207340Y0714569D01*
X0207734Y0715131D01*
X0208219Y0715616D01*
X0208781Y0716010D01*
X0209403Y0716300D01*
X0210066Y0716478D01*
X0210750Y0716537D01*
X0211434Y0716478D01*
X0212097Y0716300D01*
X0212719Y0716010D01*
X0213281Y0715616D01*
X0213766Y0715131D01*
X0214160Y0714569D01*
X0214450Y0713947D01*
X0214627Y0713284D01*
X0214687Y0712600D01*
X0214627Y0711917D01*
X0214450Y0711254D01*
X0214430Y0711212D02*
X0207070Y0711212D01*
X0206928Y0711711D02*
X0214572Y0711711D01*
X0214653Y0712209D02*
X0206847Y0712209D01*
X0206822Y0712708D02*
X0214678Y0712708D01*
X0214634Y0713206D02*
X0206866Y0713206D01*
X0206985Y0713705D02*
X0214515Y0713705D01*
X0214330Y0714203D02*
X0207170Y0714203D01*
X0207433Y0714702D02*
X0214067Y0714702D01*
X0213697Y0715200D02*
X0207803Y0715200D01*
X0208337Y0715699D02*
X0213163Y0715699D01*
X0212317Y0716197D02*
X0209183Y0716197D01*
X0207302Y0710713D02*
X0214198Y0710713D01*
X0213868Y0710215D02*
X0207632Y0710215D01*
X0208087Y0709716D02*
X0213413Y0709716D01*
X0212757Y0709218D02*
X0208743Y0709218D01*
X0210109Y0708719D02*
X0211391Y0708719D01*
X0210750Y0672837D02*
X0211434Y0672777D01*
X0212097Y0672599D01*
X0212719Y0672309D01*
X0213281Y0671916D01*
X0213766Y0671430D01*
X0214160Y0670868D01*
X0214450Y0670246D01*
X0214627Y0669583D01*
X0214687Y0668900D01*
X0214627Y0668216D01*
X0214450Y0667553D01*
X0214160Y0666931D01*
X0213766Y0666369D01*
X0213281Y0665884D01*
X0212719Y0665490D01*
X0212097Y0665200D01*
X0211434Y0665022D01*
X0210750Y0664963D01*
X0210066Y0665022D01*
X0209403Y0665200D01*
X0208781Y0665490D01*
X0208219Y0665884D01*
X0207734Y0666369D01*
X0207340Y0666931D01*
X0207050Y0667553D01*
X0206873Y0668216D01*
X0206813Y0668900D01*
X0206873Y0669583D01*
X0207050Y0670246D01*
X0207340Y0670868D01*
X0207734Y0671430D01*
X0208219Y0671916D01*
X0208781Y0672309D01*
X0209403Y0672599D01*
X0210066Y0672777D01*
X0210750Y0672837D01*
X0210636Y0672827D02*
X0210864Y0672827D01*
X0212678Y0672328D02*
X0208822Y0672328D01*
X0208133Y0671830D02*
X0213367Y0671830D01*
X0213835Y0671331D02*
X0207665Y0671331D01*
X0207324Y0670833D02*
X0214176Y0670833D01*
X0214409Y0670334D02*
X0207091Y0670334D01*
X0206940Y0669836D02*
X0214560Y0669836D01*
X0214649Y0669337D02*
X0206851Y0669337D01*
X0206818Y0668839D02*
X0214682Y0668839D01*
X0214638Y0668340D02*
X0206862Y0668340D01*
X0206973Y0667842D02*
X0214527Y0667842D01*
X0214352Y0667343D02*
X0207148Y0667343D01*
X0207401Y0666844D02*
X0214099Y0666844D01*
X0213743Y0666346D02*
X0207757Y0666346D01*
X0208271Y0665847D02*
X0213229Y0665847D01*
X0212416Y0665349D02*
X0209084Y0665349D01*
X0185191Y0674110D02*
X0184991Y0673736D01*
X0184722Y0673408D01*
X0184394Y0673139D01*
X0184020Y0672938D01*
X0183613Y0672815D01*
X0183191Y0672774D01*
X0182769Y0672815D01*
X0182362Y0672938D01*
X0181988Y0673139D01*
X0181660Y0673408D01*
X0181391Y0673736D01*
X0181190Y0674110D01*
X0181067Y0674517D01*
X0181026Y0674939D01*
X0181067Y0675361D01*
X0181190Y0675768D01*
X0181391Y0676142D01*
X0181660Y0676470D01*
X0181988Y0676739D01*
X0182362Y0676940D01*
X0182769Y0677063D01*
X0183191Y0677104D01*
X0183388Y0677104D01*
X0183826Y0677055D01*
X0184242Y0676909D01*
X0184615Y0676675D01*
X0184927Y0676363D01*
X0185161Y0675990D01*
X0185307Y0675574D01*
X0185356Y0675136D01*
X0185356Y0674939D01*
X0185315Y0674517D01*
X0185191Y0674110D01*
X0185256Y0674322D02*
X0181126Y0674322D01*
X0181037Y0674821D02*
X0185345Y0674821D01*
X0185336Y0675319D02*
X0181063Y0675319D01*
X0181217Y0675818D02*
X0185222Y0675818D01*
X0184956Y0676316D02*
X0181533Y0676316D01*
X0182129Y0676815D02*
X0184393Y0676815D01*
X0185038Y0673824D02*
X0181344Y0673824D01*
X0181761Y0673325D02*
X0184621Y0673325D01*
X0183651Y0672827D02*
X0182731Y0672827D01*
X0183191Y0680774D02*
X0182769Y0680815D01*
X0182362Y0680938D01*
X0181988Y0681139D01*
X0181660Y0681408D01*
X0181391Y0681736D01*
X0181190Y0682110D01*
X0181067Y0682517D01*
X0181026Y0682939D01*
X0181067Y0683361D01*
X0181190Y0683768D01*
X0181391Y0684142D01*
X0181660Y0684470D01*
X0181988Y0684739D01*
X0182362Y0684940D01*
X0182769Y0685063D01*
X0183191Y0685104D01*
X0183388Y0685104D01*
X0183826Y0685055D01*
X0184242Y0684909D01*
X0184615Y0684675D01*
X0184927Y0684363D01*
X0185161Y0683990D01*
X0185307Y0683574D01*
X0185356Y0683136D01*
X0185356Y0682939D01*
X0185315Y0682517D01*
X0185191Y0682110D01*
X0184991Y0681736D01*
X0184722Y0681408D01*
X0184394Y0681139D01*
X0184020Y0680938D01*
X0183613Y0680815D01*
X0183191Y0680774D01*
X0182895Y0680803D02*
X0183487Y0680803D01*
X0184592Y0681301D02*
X0181790Y0681301D01*
X0181356Y0681800D02*
X0185026Y0681800D01*
X0185249Y0682298D02*
X0181133Y0682298D01*
X0181040Y0682797D02*
X0185342Y0682797D01*
X0185338Y0683295D02*
X0181061Y0683295D01*
X0181204Y0683794D02*
X0185230Y0683794D01*
X0184971Y0684292D02*
X0181514Y0684292D01*
X0182084Y0684791D02*
X0184430Y0684791D01*
X0183613Y0688689D02*
X0183191Y0688648D01*
X0182769Y0688689D01*
X0182362Y0688812D01*
X0181988Y0689013D01*
X0181660Y0689282D01*
X0181391Y0689610D01*
X0181190Y0689984D01*
X0181067Y0690391D01*
X0181026Y0690813D01*
X0181067Y0691235D01*
X0181190Y0691642D01*
X0181391Y0692016D01*
X0181660Y0692344D01*
X0181988Y0692613D01*
X0182362Y0692814D01*
X0182769Y0692937D01*
X0183191Y0692978D01*
X0183388Y0692978D01*
X0183826Y0692929D01*
X0184242Y0692783D01*
X0184615Y0692549D01*
X0184927Y0692237D01*
X0185161Y0691864D01*
X0185307Y0691448D01*
X0185356Y0691010D01*
X0185356Y0690813D01*
X0185315Y0690391D01*
X0185191Y0689984D01*
X0184991Y0689610D01*
X0184722Y0689282D01*
X0184394Y0689013D01*
X0184020Y0688812D01*
X0183613Y0688689D01*
X0183909Y0688779D02*
X0182473Y0688779D01*
X0181665Y0689277D02*
X0184717Y0689277D01*
X0185080Y0689776D02*
X0181302Y0689776D01*
X0181102Y0690275D02*
X0185280Y0690275D01*
X0185352Y0690773D02*
X0181030Y0690773D01*
X0181078Y0691272D02*
X0185327Y0691272D01*
X0185194Y0691770D02*
X0181259Y0691770D01*
X0181598Y0692269D02*
X0184895Y0692269D01*
X0184268Y0692767D02*
X0182275Y0692767D01*
X0182769Y0696563D02*
X0182362Y0696686D01*
X0181988Y0696887D01*
X0181660Y0697156D01*
X0181391Y0697484D01*
X0181190Y0697858D01*
X0181067Y0698265D01*
X0181026Y0698687D01*
X0181067Y0699109D01*
X0181190Y0699516D01*
X0181391Y0699890D01*
X0181660Y0700218D01*
X0181988Y0700487D01*
X0182362Y0700688D01*
X0182769Y0700811D01*
X0183191Y0700852D01*
X0183388Y0700852D01*
X0183826Y0700803D01*
X0184242Y0700657D01*
X0184615Y0700423D01*
X0184927Y0700111D01*
X0185161Y0699738D01*
X0185307Y0699322D01*
X0185356Y0698884D01*
X0185356Y0698687D01*
X0185315Y0698265D01*
X0185191Y0697858D01*
X0184991Y0697484D01*
X0184722Y0697156D01*
X0184394Y0696887D01*
X0184020Y0696686D01*
X0183613Y0696563D01*
X0183191Y0696522D01*
X0182769Y0696563D01*
X0182234Y0696755D02*
X0184148Y0696755D01*
X0184802Y0697254D02*
X0181580Y0697254D01*
X0181247Y0697752D02*
X0185135Y0697752D01*
X0185310Y0698251D02*
X0181071Y0698251D01*
X0181032Y0698749D02*
X0185356Y0698749D01*
X0185315Y0699248D02*
X0181109Y0699248D01*
X0181314Y0699746D02*
X0185156Y0699746D01*
X0184793Y0700245D02*
X0181692Y0700245D01*
X0182546Y0700743D02*
X0183997Y0700743D01*
X0183613Y0704437D02*
X0183191Y0704396D01*
X0182769Y0704437D01*
X0182362Y0704560D01*
X0181988Y0704761D01*
X0181660Y0705030D01*
X0181391Y0705358D01*
X0181190Y0705732D01*
X0181067Y0706139D01*
X0181026Y0706561D01*
X0181067Y0706983D01*
X0181190Y0707390D01*
X0181391Y0707764D01*
X0181660Y0708092D01*
X0181988Y0708361D01*
X0182362Y0708562D01*
X0182769Y0708685D01*
X0183191Y0708726D01*
X0183388Y0708726D01*
X0183826Y0708677D01*
X0184242Y0708531D01*
X0184615Y0708297D01*
X0184927Y0707985D01*
X0185161Y0707612D01*
X0185307Y0707196D01*
X0185356Y0706758D01*
X0185356Y0706561D01*
X0185315Y0706139D01*
X0185191Y0705732D01*
X0184991Y0705358D01*
X0184722Y0705030D01*
X0184394Y0704761D01*
X0184020Y0704560D01*
X0183613Y0704437D01*
X0184339Y0704731D02*
X0182043Y0704731D01*
X0181496Y0705230D02*
X0184886Y0705230D01*
X0185189Y0705728D02*
X0181193Y0705728D01*
X0181059Y0706227D02*
X0185323Y0706227D01*
X0185356Y0706725D02*
X0181042Y0706725D01*
X0181140Y0707224D02*
X0185297Y0707224D01*
X0185092Y0707722D02*
X0181368Y0707722D01*
X0181817Y0708221D02*
X0184691Y0708221D01*
X0183449Y0708719D02*
X0183120Y0708719D01*
X0167000Y0666250D02*
X0161500Y0666250D01*
X0161500Y0665250D01*
X0167000Y0665250D01*
X0167000Y0666250D01*
X0167000Y0665847D02*
X0161500Y0665847D01*
X0161500Y0665349D02*
X0167000Y0665349D01*
X0139500Y0665349D02*
X0138000Y0665349D01*
X0138000Y0665250D02*
X0138000Y0666250D01*
X0139500Y0666250D01*
X0139500Y0665250D01*
X0138000Y0665250D01*
X0138000Y0665847D02*
X0139500Y0665847D01*
X0120078Y0679508D02*
X0119809Y0679179D01*
X0119481Y0678910D01*
X0119106Y0678710D01*
X0118700Y0678587D01*
X0118278Y0678545D01*
X0117855Y0678587D01*
X0117449Y0678710D01*
X0117075Y0678910D01*
X0116746Y0679179D01*
X0116477Y0679508D01*
X0116277Y0679882D01*
X0116154Y0680288D01*
X0116112Y0680711D01*
X0116154Y0681133D01*
X0116277Y0681539D01*
X0116477Y0681914D01*
X0116746Y0682242D01*
X0117075Y0682511D01*
X0117449Y0682711D01*
X0117855Y0682834D01*
X0118278Y0682876D01*
X0118474Y0682876D01*
X0118912Y0682827D01*
X0119329Y0682681D01*
X0119702Y0682447D01*
X0120013Y0682135D01*
X0120248Y0681762D01*
X0120394Y0681346D01*
X0120443Y0680907D01*
X0120443Y0680711D01*
X0120401Y0680288D01*
X0120278Y0679882D01*
X0120078Y0679508D01*
X0119914Y0679307D02*
X0116642Y0679307D01*
X0116318Y0679806D02*
X0120237Y0679806D01*
X0120403Y0680304D02*
X0116152Y0680304D01*
X0116121Y0680803D02*
X0120443Y0680803D01*
X0120399Y0681301D02*
X0116205Y0681301D01*
X0116416Y0681800D02*
X0120224Y0681800D01*
X0119850Y0682298D02*
X0116815Y0682298D01*
X0117731Y0682797D02*
X0118998Y0682797D01*
X0119291Y0678809D02*
X0117264Y0678809D01*
X0118278Y0688585D02*
X0117855Y0688626D01*
X0117449Y0688749D01*
X0117075Y0688950D01*
X0116746Y0689219D01*
X0116477Y0689547D01*
X0116277Y0689921D01*
X0116154Y0690328D01*
X0116112Y0690750D01*
X0116154Y0691172D01*
X0116277Y0691579D01*
X0116477Y0691953D01*
X0116746Y0692281D01*
X0117075Y0692550D01*
X0117449Y0692751D01*
X0117855Y0692874D01*
X0118278Y0692915D01*
X0118474Y0692915D01*
X0118912Y0692866D01*
X0119329Y0692720D01*
X0119702Y0692486D01*
X0120013Y0692174D01*
X0120248Y0691801D01*
X0120394Y0691385D01*
X0120443Y0690947D01*
X0120443Y0690750D01*
X0120401Y0690328D01*
X0120278Y0689921D01*
X0120078Y0689547D01*
X0119809Y0689219D01*
X0119481Y0688950D01*
X0119106Y0688749D01*
X0118700Y0688626D01*
X0118278Y0688585D01*
X0119161Y0688779D02*
X0117394Y0688779D01*
X0116698Y0689277D02*
X0119857Y0689277D01*
X0120200Y0689776D02*
X0116355Y0689776D01*
X0116170Y0690275D02*
X0120385Y0690275D01*
X0120443Y0690773D02*
X0116114Y0690773D01*
X0116184Y0691272D02*
X0120406Y0691272D01*
X0120259Y0691770D02*
X0116379Y0691770D01*
X0116736Y0692269D02*
X0119919Y0692269D01*
X0119195Y0692767D02*
X0117503Y0692767D01*
X0117855Y0698469D02*
X0117449Y0698592D01*
X0117075Y0698792D01*
X0116746Y0699061D01*
X0116477Y0699390D01*
X0116277Y0699764D01*
X0116154Y0700170D01*
X0116112Y0700593D01*
X0116154Y0701015D01*
X0116277Y0701421D01*
X0116477Y0701796D01*
X0116746Y0702124D01*
X0117075Y0702393D01*
X0117449Y0702593D01*
X0117855Y0702716D01*
X0118278Y0702758D01*
X0118474Y0702758D01*
X0118912Y0702709D01*
X0119329Y0702563D01*
X0119702Y0702328D01*
X0120013Y0702017D01*
X0120248Y0701643D01*
X0120394Y0701227D01*
X0120443Y0700789D01*
X0120443Y0700593D01*
X0120401Y0700170D01*
X0120278Y0699764D01*
X0120078Y0699390D01*
X0119809Y0699061D01*
X0119481Y0698792D01*
X0119106Y0698592D01*
X0118700Y0698469D01*
X0118278Y0698427D01*
X0117855Y0698469D01*
X0117155Y0698749D02*
X0119400Y0698749D01*
X0119962Y0699248D02*
X0116594Y0699248D01*
X0116286Y0699746D02*
X0120269Y0699746D01*
X0120409Y0700245D02*
X0116146Y0700245D01*
X0116127Y0700743D02*
X0120443Y0700743D01*
X0120389Y0701242D02*
X0116223Y0701242D01*
X0116448Y0701740D02*
X0120187Y0701740D01*
X0119791Y0702239D02*
X0116887Y0702239D01*
X0118069Y0702737D02*
X0118657Y0702737D01*
X0092450Y0711254D02*
X0092160Y0710632D01*
X0091766Y0710070D01*
X0091281Y0709584D01*
X0090719Y0709191D01*
X0090097Y0708901D01*
X0089434Y0708723D01*
X0088750Y0708663D01*
X0088066Y0708723D01*
X0087403Y0708901D01*
X0086781Y0709191D01*
X0086219Y0709584D01*
X0085734Y0710070D01*
X0085340Y0710632D01*
X0085050Y0711254D01*
X0084873Y0711917D01*
X0084813Y0712600D01*
X0084873Y0713284D01*
X0085050Y0713947D01*
X0085340Y0714569D01*
X0085734Y0715131D01*
X0086219Y0715616D01*
X0086781Y0716010D01*
X0087403Y0716300D01*
X0088066Y0716478D01*
X0088750Y0716537D01*
X0089434Y0716478D01*
X0090097Y0716300D01*
X0090719Y0716010D01*
X0091281Y0715616D01*
X0091766Y0715131D01*
X0092160Y0714569D01*
X0092450Y0713947D01*
X0092627Y0713284D01*
X0092687Y0712600D01*
X0092627Y0711917D01*
X0092450Y0711254D01*
X0092430Y0711212D02*
X0085070Y0711212D01*
X0084928Y0711711D02*
X0092572Y0711711D01*
X0092653Y0712209D02*
X0084847Y0712209D01*
X0084822Y0712708D02*
X0092678Y0712708D01*
X0092634Y0713206D02*
X0084866Y0713206D01*
X0084985Y0713705D02*
X0092515Y0713705D01*
X0092330Y0714203D02*
X0085170Y0714203D01*
X0085433Y0714702D02*
X0092067Y0714702D01*
X0091697Y0715200D02*
X0085803Y0715200D01*
X0086337Y0715699D02*
X0091163Y0715699D01*
X0090317Y0716197D02*
X0087183Y0716197D01*
X0085302Y0710713D02*
X0092198Y0710713D01*
X0091868Y0710215D02*
X0085632Y0710215D01*
X0086087Y0709716D02*
X0091413Y0709716D01*
X0090757Y0709218D02*
X0086743Y0709218D01*
X0088109Y0708719D02*
X0089391Y0708719D01*
X0088750Y0672837D02*
X0089434Y0672777D01*
X0090097Y0672599D01*
X0090719Y0672309D01*
X0091281Y0671916D01*
X0091766Y0671430D01*
X0092160Y0670868D01*
X0092450Y0670246D01*
X0092627Y0669583D01*
X0092687Y0668900D01*
X0092627Y0668216D01*
X0092450Y0667553D01*
X0092160Y0666931D01*
X0091766Y0666369D01*
X0091281Y0665884D01*
X0090719Y0665490D01*
X0090097Y0665200D01*
X0089434Y0665022D01*
X0088750Y0664963D01*
X0088066Y0665022D01*
X0087403Y0665200D01*
X0086781Y0665490D01*
X0086219Y0665884D01*
X0085734Y0666369D01*
X0085340Y0666931D01*
X0085050Y0667553D01*
X0084873Y0668216D01*
X0084813Y0668900D01*
X0084873Y0669583D01*
X0085050Y0670246D01*
X0085340Y0670868D01*
X0085734Y0671430D01*
X0086219Y0671916D01*
X0086781Y0672309D01*
X0087403Y0672599D01*
X0088066Y0672777D01*
X0088750Y0672837D01*
X0088636Y0672827D02*
X0088864Y0672827D01*
X0090678Y0672328D02*
X0086822Y0672328D01*
X0086133Y0671830D02*
X0091367Y0671830D01*
X0091835Y0671331D02*
X0085665Y0671331D01*
X0085324Y0670833D02*
X0092176Y0670833D01*
X0092409Y0670334D02*
X0085091Y0670334D01*
X0084940Y0669836D02*
X0092560Y0669836D01*
X0092649Y0669337D02*
X0084851Y0669337D01*
X0084818Y0668839D02*
X0092682Y0668839D01*
X0092638Y0668340D02*
X0084862Y0668340D01*
X0084973Y0667842D02*
X0092527Y0667842D01*
X0092352Y0667343D02*
X0085148Y0667343D01*
X0085401Y0666844D02*
X0092099Y0666844D01*
X0091743Y0666346D02*
X0085757Y0666346D01*
X0086271Y0665847D02*
X0091229Y0665847D01*
X0090416Y0665349D02*
X0087084Y0665349D01*
X0063191Y0674110D02*
X0062991Y0673736D01*
X0062722Y0673408D01*
X0062394Y0673139D01*
X0062020Y0672938D01*
X0061613Y0672815D01*
X0061191Y0672774D01*
X0060769Y0672815D01*
X0060362Y0672938D01*
X0059988Y0673139D01*
X0059660Y0673408D01*
X0059391Y0673736D01*
X0059190Y0674110D01*
X0059067Y0674517D01*
X0059026Y0674939D01*
X0059067Y0675361D01*
X0059190Y0675768D01*
X0059391Y0676142D01*
X0059660Y0676470D01*
X0059988Y0676739D01*
X0060362Y0676940D01*
X0060769Y0677063D01*
X0061191Y0677104D01*
X0061388Y0677104D01*
X0061826Y0677055D01*
X0062242Y0676909D01*
X0062615Y0676675D01*
X0062927Y0676363D01*
X0063161Y0675990D01*
X0063307Y0675574D01*
X0063356Y0675136D01*
X0063356Y0674939D01*
X0063315Y0674517D01*
X0063191Y0674110D01*
X0063256Y0674322D02*
X0059126Y0674322D01*
X0059037Y0674821D02*
X0063345Y0674821D01*
X0063336Y0675319D02*
X0059063Y0675319D01*
X0059217Y0675818D02*
X0063222Y0675818D01*
X0062956Y0676316D02*
X0059533Y0676316D01*
X0060129Y0676815D02*
X0062393Y0676815D01*
X0063038Y0673824D02*
X0059344Y0673824D01*
X0059761Y0673325D02*
X0062621Y0673325D01*
X0061651Y0672827D02*
X0060731Y0672827D01*
X0061191Y0680774D02*
X0060769Y0680815D01*
X0060362Y0680938D01*
X0059988Y0681139D01*
X0059660Y0681408D01*
X0059391Y0681736D01*
X0059190Y0682110D01*
X0059067Y0682517D01*
X0059026Y0682939D01*
X0059067Y0683361D01*
X0059190Y0683768D01*
X0059391Y0684142D01*
X0059660Y0684470D01*
X0059988Y0684739D01*
X0060362Y0684940D01*
X0060769Y0685063D01*
X0061191Y0685104D01*
X0061388Y0685104D01*
X0061826Y0685055D01*
X0062242Y0684909D01*
X0062615Y0684675D01*
X0062927Y0684363D01*
X0063161Y0683990D01*
X0063307Y0683574D01*
X0063356Y0683136D01*
X0063356Y0682939D01*
X0063315Y0682517D01*
X0063191Y0682110D01*
X0062991Y0681736D01*
X0062722Y0681408D01*
X0062394Y0681139D01*
X0062020Y0680938D01*
X0061613Y0680815D01*
X0061191Y0680774D01*
X0060895Y0680803D02*
X0061487Y0680803D01*
X0062592Y0681301D02*
X0059790Y0681301D01*
X0059356Y0681800D02*
X0063026Y0681800D01*
X0063249Y0682298D02*
X0059133Y0682298D01*
X0059040Y0682797D02*
X0063342Y0682797D01*
X0063338Y0683295D02*
X0059061Y0683295D01*
X0059204Y0683794D02*
X0063230Y0683794D01*
X0062971Y0684292D02*
X0059514Y0684292D01*
X0060084Y0684791D02*
X0062430Y0684791D01*
X0061613Y0688689D02*
X0061191Y0688648D01*
X0060769Y0688689D01*
X0060362Y0688812D01*
X0059988Y0689013D01*
X0059660Y0689282D01*
X0059391Y0689610D01*
X0059190Y0689984D01*
X0059067Y0690391D01*
X0059026Y0690813D01*
X0059067Y0691235D01*
X0059190Y0691642D01*
X0059391Y0692016D01*
X0059660Y0692344D01*
X0059988Y0692613D01*
X0060362Y0692814D01*
X0060769Y0692937D01*
X0061191Y0692978D01*
X0061388Y0692978D01*
X0061826Y0692929D01*
X0062242Y0692783D01*
X0062615Y0692549D01*
X0062927Y0692237D01*
X0063161Y0691864D01*
X0063307Y0691448D01*
X0063356Y0691010D01*
X0063356Y0690813D01*
X0063315Y0690391D01*
X0063191Y0689984D01*
X0062991Y0689610D01*
X0062722Y0689282D01*
X0062394Y0689013D01*
X0062020Y0688812D01*
X0061613Y0688689D01*
X0061909Y0688779D02*
X0060473Y0688779D01*
X0059665Y0689277D02*
X0062717Y0689277D01*
X0063080Y0689776D02*
X0059302Y0689776D01*
X0059102Y0690275D02*
X0063280Y0690275D01*
X0063352Y0690773D02*
X0059030Y0690773D01*
X0059078Y0691272D02*
X0063327Y0691272D01*
X0063194Y0691770D02*
X0059259Y0691770D01*
X0059598Y0692269D02*
X0062895Y0692269D01*
X0062268Y0692767D02*
X0060275Y0692767D01*
X0060769Y0696563D02*
X0060362Y0696686D01*
X0059988Y0696887D01*
X0059660Y0697156D01*
X0059391Y0697484D01*
X0059190Y0697858D01*
X0059067Y0698265D01*
X0059026Y0698687D01*
X0059067Y0699109D01*
X0059190Y0699516D01*
X0059391Y0699890D01*
X0059660Y0700218D01*
X0059988Y0700487D01*
X0060362Y0700688D01*
X0060769Y0700811D01*
X0061191Y0700852D01*
X0061388Y0700852D01*
X0061826Y0700803D01*
X0062242Y0700657D01*
X0062615Y0700423D01*
X0062927Y0700111D01*
X0063161Y0699738D01*
X0063307Y0699322D01*
X0063356Y0698884D01*
X0063356Y0698687D01*
X0063315Y0698265D01*
X0063191Y0697858D01*
X0062991Y0697484D01*
X0062722Y0697156D01*
X0062394Y0696887D01*
X0062020Y0696686D01*
X0061613Y0696563D01*
X0061191Y0696522D01*
X0060769Y0696563D01*
X0060234Y0696755D02*
X0062148Y0696755D01*
X0062802Y0697254D02*
X0059580Y0697254D01*
X0059247Y0697752D02*
X0063135Y0697752D01*
X0063310Y0698251D02*
X0059071Y0698251D01*
X0059032Y0698749D02*
X0063356Y0698749D01*
X0063315Y0699248D02*
X0059109Y0699248D01*
X0059314Y0699746D02*
X0063156Y0699746D01*
X0062793Y0700245D02*
X0059692Y0700245D01*
X0060546Y0700743D02*
X0061997Y0700743D01*
X0061613Y0704437D02*
X0061191Y0704396D01*
X0060769Y0704437D01*
X0060362Y0704560D01*
X0059988Y0704761D01*
X0059660Y0705030D01*
X0059391Y0705358D01*
X0059190Y0705732D01*
X0059067Y0706139D01*
X0059026Y0706561D01*
X0059067Y0706983D01*
X0059190Y0707390D01*
X0059391Y0707764D01*
X0059660Y0708092D01*
X0059988Y0708361D01*
X0060362Y0708562D01*
X0060769Y0708685D01*
X0061191Y0708726D01*
X0061388Y0708726D01*
X0061826Y0708677D01*
X0062242Y0708531D01*
X0062615Y0708297D01*
X0062927Y0707985D01*
X0063161Y0707612D01*
X0063307Y0707196D01*
X0063356Y0706758D01*
X0063356Y0706561D01*
X0063315Y0706139D01*
X0063191Y0705732D01*
X0062991Y0705358D01*
X0062722Y0705030D01*
X0062394Y0704761D01*
X0062020Y0704560D01*
X0061613Y0704437D01*
X0062339Y0704731D02*
X0060043Y0704731D01*
X0059496Y0705230D02*
X0062886Y0705230D01*
X0063189Y0705728D02*
X0059193Y0705728D01*
X0059059Y0706227D02*
X0063323Y0706227D01*
X0063356Y0706725D02*
X0059042Y0706725D01*
X0059140Y0707224D02*
X0063297Y0707224D01*
X0063092Y0707722D02*
X0059368Y0707722D01*
X0059817Y0708221D02*
X0062691Y0708221D01*
X0061449Y0708719D02*
X0061120Y0708719D01*
X0045000Y0666250D02*
X0045000Y0665250D01*
X0039500Y0665250D01*
X0039500Y0666250D01*
X0045000Y0666250D01*
X0045000Y0665847D02*
X0039500Y0665847D01*
X0039500Y0665349D02*
X0045000Y0665349D01*
M02*
